<svg width="25" height="32" viewBox="0 0 25 32" fill="none" xmlns="http://www.w3.org/2000/svg">
<path d="M18.4621 10.2283C18.9207 9.54499 19.1701 8.38519 19.2376 7.89071C19.8579 4.6181 18.0126 3.42534 17.0124 3.23803C14.4141 2.62667 11.7041 4.37685 10.674 5.32836C7.8419 7.612 6.45958 12.3711 6.12243 14.4651C4.9986 20.7496 7.10766 24.7257 8.30267 25.9282C11.0358 28.6884 14.6411 28.1197 16.1021 27.4904C18.9611 26.5194 21.2343 23.4596 22.0135 22.051C22.5889 20.7024 22.9799 20.59 23.1036 20.7024C23.616 20.7923 23.5718 21.6389 23.4857 22.051C23.153 23.6603 22.0584 25.3064 21.5527 25.9282C17.1023 31.8711 10.9699 31.3863 8.46001 30.4011C3.25441 28.7109 1.481 23.5907 1.24499 21.2419C0.345926 15.5418 2.13657 10.7752 3.14427 9.10445C5.84148 3.92582 10.3443 1.87445 12.2586 1.49609C17.0596 0.15648 20.3652 1.84448 21.4178 2.85593C23.4587 4.59113 23.2647 7.22015 22.9125 8.31776C21.5549 12.0938 19.2226 12.4535 18.2261 12.1613C17.5788 11.7747 18.1137 10.7115 18.4621 10.2283Z" stroke="white" stroke-width="2" stroke-linejoin="round"/>
</svg>
