<svg width="40" height="32" viewBox="0 0 40 32" fill="none" xmlns="http://www.w3.org/2000/svg">
<path d="M1 16C1.99456 16 2.94839 15.6049 3.65165 14.9016C4.35491 14.1984 4.75 13.2446 4.75 12.25V4.75C4.75 3.75544 5.14509 2.80161 5.84835 2.09835C6.55161 1.39509 7.50544 1 8.5 1H31C31.9946 1 32.9484 1.39509 33.6516 2.09835C34.3549 2.80161 34.75 3.75544 34.75 4.75V12.25C34.75 13.2446 35.1451 14.1984 35.8483 14.9016C36.5516 15.6049 37.5054 16 38.5 16" stroke="white" stroke-width="2" stroke-linecap="round" stroke-linejoin="round"/>
<path d="M1 16C1.99456 16 2.94839 16.3951 3.65165 17.0984C4.35491 17.8016 4.75 18.7554 4.75 19.75V27.25C4.75 28.2446 5.14509 29.1984 5.84835 29.9016C6.55161 30.6049 7.50544 31 8.5 31H31C31.9946 31 32.9484 30.6049 33.6516 29.9016C34.3549 29.1984 34.75 28.2446 34.75 27.25V19.75C34.75 18.7554 35.1451 17.8016 35.8483 17.0984C36.5516 16.3951 37.5054 16 38.5 16" stroke="white" stroke-width="2" stroke-linecap="round" stroke-linejoin="round"/>
<path d="M14.125 23.5V8.5H20.6875C21.6821 8.5 22.6359 8.89509 23.3391 9.59835C24.0424 10.3016 24.4375 11.2554 24.4375 12.25C24.4375 13.2446 24.0424 14.1984 23.3391 14.9016C22.6359 15.6049 21.6821 16 20.6875 16H14.125H21.625C22.6196 16 23.5734 16.3951 24.2766 17.0984C24.9799 17.8016 25.375 18.7554 25.375 19.75C25.375 20.7446 24.9799 21.6984 24.2766 22.4016C23.5734 23.1049 22.6196 23.5 21.625 23.5H14.125Z" stroke="white" stroke-width="2" stroke-linecap="round" stroke-linejoin="round"/>
</svg>
