<svg width="43" height="32" viewBox="0 0 43 32" fill="none" xmlns="http://www.w3.org/2000/svg">
<path fill-rule="evenodd" clip-rule="evenodd" d="M20.561 3.7108C22.0759 5.41087 22.952 7.77094 23.0344 10.9454C23.1015 13.5274 22.4791 15.6079 21.3691 17.246C20.2641 18.8766 18.7211 20.0026 17.0482 20.7598C14.1786 22.0588 10.8321 22.3181 8.28447 22.1477V30.448C8.28447 31.0003 7.83675 31.448 7.28447 31.448H1C0.447715 31.448 0 31.0003 0 30.448V1.15513C0 0.602845 0.447715 0.15513 1 0.15513C2.0465 0.15513 3.15338 0.121611 4.30511 0.0853273C4.35353 0.0838018 4.40203 0.0822715 4.45061 0.0807388C5.55204 0.0459856 6.69128 0.0100395 7.82904 0.00177771C10.1975 -0.0154206 12.6252 0.0857193 14.8186 0.589518C17.0175 1.09459 19.0555 2.02126 20.561 3.7108ZM2 2.14648C2.77453 2.13396 3.56899 2.10951 4.36808 2.08434C4.414 2.08289 4.45994 2.08144 4.50589 2.07999C5.61342 2.04505 6.73074 2.00981 7.84356 2.00172C10.169 1.98484 12.4092 2.0882 14.3708 2.53876C16.3269 2.98805 17.931 3.76558 19.0678 5.04136C20.1953 6.30661 20.9618 8.17297 21.0351 10.9973C21.0927 13.2143 20.5612 14.8729 19.7134 16.124C18.8606 17.3825 17.6418 18.2958 16.2235 18.9378C13.3573 20.2352 9.81055 20.3615 7.41103 20.0553C7.12606 20.019 6.83922 20.1069 6.62362 20.2968C6.40801 20.4866 6.28447 20.76 6.28447 21.0473V29.448H2V2.14648ZM15.3751 6.87465C16.3976 7.80569 17.01 9.1554 17.01 10.9714C17.01 12.4412 16.5687 13.6337 15.8014 14.5552C15.0467 15.4614 14.0328 16.0392 12.9851 16.3993C10.9129 17.1115 8.49859 17.0462 6.91604 16.7886C6.43214 16.7098 6.07671 16.2918 6.07671 15.8016V6.45278C6.07671 5.90574 6.51597 5.46129 7.06101 5.4529C7.06624 5.45282 7.07147 5.45278 7.07671 5.45278M15.3751 6.87465C14.3862 5.97432 13.1131 5.55601 11.9347 5.3679L15.3751 6.87465ZM11.9347 5.3679C10.7477 5.17841 9.56318 5.20771 8.65799 5.27806L11.9347 5.3679ZM8.65799 5.27806C8.20185 5.31351 7.80837 5.36013 7.51496 5.39696L8.65799 5.27806ZM7.51496 5.39696C7.45458 5.40454 7.40087 5.41139 7.3523 5.41758L7.51496 5.39696ZM7.3523 5.41758C7.35019 5.41785 7.34802 5.41813 7.3458 5.41842C7.27009 5.4281 7.13071 5.44631 7.07671 5.45278L7.3458 5.41842L7.3523 5.41758ZM8.07671 7.34364V14.9185C9.38166 15.0333 10.9916 14.9696 12.335 14.5079C13.1483 14.2283 13.8094 13.8218 14.2645 13.2754C14.7069 12.7441 15.01 12.0154 15.01 10.9714C15.01 9.64509 14.5836 8.85886 14.0286 8.3535C13.4398 7.81743 12.5965 7.49887 11.6194 7.34289C10.651 7.18829 9.64119 7.20768 8.81296 7.27205C8.5423 7.29308 8.29449 7.31861 8.07671 7.34364ZM29.039 9.82083C27.0584 10.9852 26.2401 12.9042 26.0936 14.2962C26.092 14.3118 26.09 14.3274 26.0876 14.3429C25.8106 16.1511 26.7378 17.6623 28.2735 18.9019C29.8109 20.1429 31.7976 20.9638 33.1499 21.3282C33.2038 21.3427 33.2563 21.3617 33.3069 21.385C34.6468 22 35.4926 22.6661 35.9046 23.3922C36.3557 24.1874 36.2506 25.0227 35.7592 25.5633L35.7459 25.5777C34.2851 27.1227 31.9223 27.124 29.9761 26.7776C28.6062 26.5338 27.2348 26.0818 26.0991 25.6152V28.8789C30.601 30.8686 35.1046 29.7669 36.8279 28.9444C39.6254 27.2492 40.2851 25.4396 40.2152 23.9735C40.1398 22.3915 39.2026 20.9163 38.3175 20.0466C38.2648 19.9948 38.2181 19.9374 38.1781 19.8754C38.1654 19.8631 38.1347 19.8344 38.077 19.7892C37.96 19.6973 37.7881 19.5806 37.5601 19.4418C37.1062 19.1653 36.4997 18.8432 35.8221 18.5078C34.4792 17.8431 32.9268 17.1604 31.9006 16.7325C30.3273 16.1469 29.7291 14.973 29.8172 14.092C29.8218 14.0465 29.8294 14.0013 29.8402 13.9569C30.1014 12.8746 30.9602 12.3193 31.829 12.0719C32.6769 11.8304 33.6927 11.8234 34.681 11.9156C36.1392 12.0516 37.7337 12.4244 39.0572 12.817V9.72571C34.0513 8.17707 30.9228 8.71336 29.039 9.82083ZM28.0254 8.09672C30.6661 6.54421 34.6459 6.12561 40.3755 8.04976C40.7828 8.18652 41.0572 8.56812 41.0572 8.99773V14.1915C41.0572 14.5162 40.8996 14.8206 40.6345 15.008C40.3694 15.1954 40.0298 15.2425 39.7238 15.1343C38.3465 14.6472 36.2664 14.0721 34.4952 13.9069C33.6 13.8234 32.8732 13.854 32.3768 13.9954C32.0423 14.0906 31.8999 14.2043 31.8345 14.306C31.8871 14.4179 32.0564 14.6594 32.6108 14.8627C32.6243 14.8677 32.6378 14.8729 32.6511 14.8785C33.7028 15.3167 35.3078 16.0217 36.7093 16.7154C37.4081 17.0612 38.074 17.413 38.6005 17.7336C38.8626 17.8933 39.1079 18.0559 39.3114 18.2155C39.4532 18.3268 39.6446 18.4889 39.7949 18.6953C40.8827 19.7941 42.1081 21.6793 42.213 23.8783C42.3254 26.2377 41.1391 28.6857 37.8198 30.6817C37.7946 30.6969 37.7686 30.711 37.7421 30.7239C35.5919 31.7705 30.0746 33.1189 24.6519 30.4076C24.3131 30.2382 24.0991 29.8919 24.0991 29.5131V24.0597C24.0991 23.7116 24.2801 23.3885 24.577 23.2068C24.8739 23.025 25.244 23.0108 25.554 23.1691C26.6958 23.7524 28.5404 24.4907 30.3266 24.8086C32.0741 25.1196 33.4051 24.9678 34.1437 24.3442C34.0141 24.1458 33.616 23.7376 32.5453 23.2363C31.009 22.8111 28.7961 21.894 27.0173 20.4582C25.2089 18.9984 23.6897 16.8558 24.1071 14.0634C24.3133 12.1685 25.4081 9.63542 28.0254 8.09672Z" fill="white"/>
<path fill-rule="evenodd" clip-rule="evenodd" d="M17.01 10.9714C17.01 9.1554 16.3976 7.80569 15.3751 6.87465L11.9347 5.3679L8.65799 5.27806L7.51496 5.39696L7.3523 5.41758C7.35019 5.41785 7.34802 5.41813 7.3458 5.41842C7.27009 5.4281 7.13071 5.44631 7.07671 5.45278L7.06101 5.4529C6.51597 5.46129 6.07671 5.90574 6.07671 6.45278V15.8016C6.07671 16.2918 6.43214 16.7098 6.91604 16.7886C8.49859 17.0462 10.9129 17.1115 12.9851 16.3993C14.0328 16.0392 15.0467 15.4614 15.8014 14.5552C16.5687 13.6337 17.01 12.4412 17.01 10.9714ZM8.07671 14.9185V7.34364C8.29449 7.31861 8.5423 7.29308 8.81296 7.27205C9.64119 7.20768 10.651 7.18829 11.6194 7.34289C12.5965 7.49887 13.4398 7.81743 14.0286 8.3535C14.5836 8.85886 15.01 9.64509 15.01 10.9714C15.01 12.0154 14.7069 12.7441 14.2645 13.2754C13.8094 13.8218 13.1483 14.2283 12.335 14.5079C10.9916 14.9696 9.38166 15.0333 8.07671 14.9185Z" fill="white"/>
</svg>
