<svg width="32" height="33" viewBox="0 0 32 33" fill="none" xmlns="http://www.w3.org/2000/svg">
<path d="M31 1L27.25 28.1875L16 31.9375L4.75 28.1875L1 1H31Z" stroke="white" stroke-width="2" stroke-linecap="round" stroke-linejoin="round"/>
<path d="M7.5625 8.5H13.1875V23.5L9.4375 21.625" stroke="white" stroke-width="2" stroke-linecap="round" stroke-linejoin="round"/>
<path d="M24.4375 8.5H19.75C19.5014 8.5 19.2629 8.59877 19.0871 8.77459C18.9113 8.9504 18.8125 9.18886 18.8125 9.4375V15.0625C18.8125 15.3111 18.9113 15.5496 19.0871 15.7254C19.2629 15.9012 19.5014 16 19.75 16H22.4181C22.5523 16 22.6849 16.0288 22.807 16.0845C22.9291 16.1402 23.0378 16.2215 23.1258 16.3228C23.2138 16.4241 23.279 16.5431 23.3171 16.6718C23.3551 16.8005 23.365 16.9359 23.3463 17.0687L22.5625 22.5625L18.8125 23.5" stroke="white" stroke-width="2" stroke-linecap="round" stroke-linejoin="round"/>
</svg>
