<svg width="32" height="33" viewBox="0 0 32 33" fill="none" xmlns="http://www.w3.org/2000/svg">
<path d="M16.7879 29.4296C14.5345 27.8094 11.1189 23.3437 10.4715 19.9549C9.70403 21.1708 8.10123 23.1131 7.31325 23.1131C4.94615 21.7109 6.40683 16.8393 7.31325 13.6384C4.79298 11.3756 3.41599 9.75698 3.36545 7.32198C-1.92459 1.88982 2.66433 -0.999967 7.31325 2.58463H8.89236C22.2864 3.37419 19.0319 15.3281 23.1044 20.7445C26.7285 21.5688 28.8919 24.3038 31 26.2714C27.706 25.9556 26.6037 25.7282 25.4731 26.2714C26.2279 28.8611 28.8256 29.7454 31 31.0087" stroke="white" stroke-width="2" stroke-linecap="round" stroke-linejoin="round"/>
<path d="M10.4714 7.32202H10.4872" stroke="white" stroke-width="2" stroke-linecap="round" stroke-linejoin="round"/>
</svg>
