<svg width="36" height="32" viewBox="0 0 36 32" fill="none" xmlns="http://www.w3.org/2000/svg">
<path d="M8.26536 10.4507C3.8751 11.6706 1 13.7004 1 16.0001C1 19.7289 8.55388 22.7491 17.8726 22.7491C19.1769 22.7491 20.4474 22.6901 21.6656 22.577" stroke="white" stroke-width="2" stroke-linecap="round" stroke-linejoin="round"/>
<path d="M27.4765 21.5496C31.8685 20.3314 34.7453 18.3 34.7453 16.0002C34.7453 12.2714 27.1914 9.25116 17.8726 9.25116C16.5684 9.25116 15.2979 9.31021 14.0763 9.42326" stroke="white" stroke-width="2" stroke-linecap="round" stroke-linejoin="round"/>
<path d="M8.26373 21.5462C7.12314 25.9584 7.44541 29.4645 9.43638 30.6119C12.6641 32.4763 19.0588 27.4449 23.7174 19.3747C24.3703 18.2442 24.9541 17.1155 25.4654 16.0002" stroke="white" stroke-width="2" stroke-linecap="round" stroke-linejoin="round"/>
<path d="M27.4799 10.4591C28.6222 6.04521 28.3016 2.5357 26.3089 1.38836C23.0812 -0.476066 16.6865 4.55535 12.028 12.6255C11.375 13.756 10.7912 14.8865 10.2783 16.0001" stroke="white" stroke-width="2" stroke-linecap="round" stroke-linejoin="round"/>
<path d="M17.8727 4.90467C14.6247 1.71237 11.4273 0.2377 9.43637 1.38841C6.20864 3.25115 7.36779 11.3045 12.028 19.3746C12.6793 20.5051 13.366 21.5748 14.073 22.5737" stroke="white" stroke-width="2" stroke-linecap="round" stroke-linejoin="round"/>
<path d="M17.8726 27.0923C21.1223 30.2862 24.3197 31.7626 26.3089 30.6119C29.5367 28.7492 28.3775 20.6958 23.7173 12.6257C23.0846 11.5289 22.4012 10.4609 21.6723 9.42493" stroke="white" stroke-width="2" stroke-linecap="round" stroke-linejoin="round"/>
<path d="M17.029 17.4613C17.221 17.5739 17.4333 17.6473 17.6538 17.6775C17.8742 17.7076 18.0985 17.6938 18.3136 17.637C18.5287 17.5801 18.7305 17.4812 18.9072 17.3461C19.084 17.2109 19.2323 17.0421 19.3435 16.8494C19.4548 16.6567 19.5268 16.4439 19.5555 16.2232C19.5842 16.0026 19.569 15.7784 19.5107 15.5637C19.4524 15.3489 19.3522 15.1478 19.2158 14.972C19.0795 14.7961 18.9097 14.649 18.7163 14.539C18.3289 14.3188 17.8702 14.2607 17.4403 14.3774C17.0103 14.4942 16.6439 14.7762 16.4211 15.1621C16.1984 15.548 16.1372 16.0063 16.2511 16.437C16.365 16.8678 16.6446 17.236 17.029 17.4613Z" stroke="white" stroke-width="2" stroke-linecap="round" stroke-linejoin="round"/>
</svg>
