<svg width="53" height="32" viewBox="0 0 53 32" fill="none" xmlns="http://www.w3.org/2000/svg">
<path d="M26.4036 1.02067C17.104 0.597661 13.8283 7.3835 13.3529 10.8293C18.4979 4.06108 24.4124 7.56857 26.7265 10.1683C31.4624 15.4137 37.1312 16.2139 39.3736 15.9583C47.6614 15.7045 50.7739 9.22537 51.2941 6.01752C45.7832 12.7011 40.0642 9.20774 37.8936 6.6256C33.9111 1.71865 28.5743 0.844419 26.4036 1.02067Z" stroke="white" stroke-width="2" stroke-linejoin="round"/>
<path d="M14.0507 16.0207C4.75106 15.5977 1.47539 22.3835 1 25.8293C6.14493 19.0611 12.0594 22.5686 14.3736 25.1683C19.1095 30.4137 24.7783 31.2139 27.0207 30.9583C35.3085 30.7045 38.4209 24.2254 38.9412 21.0175C33.4303 27.7011 27.7113 24.2077 25.5407 21.6256C21.5582 16.7186 16.2213 15.8444 14.0507 16.0207Z" stroke="white" stroke-width="2" stroke-linejoin="round"/>
</svg>
