<svg width="36" height="32" viewBox="0 0 36 32" fill="none" xmlns="http://www.w3.org/2000/svg">
<path d="M1 16C1 19.9782 2.75595 23.7936 5.88155 26.6066C9.00716 29.4196 13.2464 31 17.6667 31C22.0869 31 26.3262 29.4196 29.4518 26.6066C32.5774 23.7936 34.3333 19.9782 34.3333 16C34.3333 12.0218 32.5774 8.20644 29.4518 5.3934C26.3262 2.58035 22.0869 1 17.6667 1C13.2464 1 9.00716 2.58035 5.88155 5.3934C2.75595 8.20644 1 12.0218 1 16Z" stroke="white" stroke-width="2" stroke-linecap="round" stroke-linejoin="round"/>
<path d="M6.83331 21L7.49165 17.71L8.49998 12.6667H10.7C10.9419 12.6668 11.1809 12.7196 11.4004 12.8214C11.6199 12.9231 11.8146 13.0715 11.9709 13.2561C12.1273 13.4407 12.2416 13.6571 12.3059 13.8904C12.3702 14.1236 12.383 14.368 12.3433 14.6067L12.065 16.2734C12.0003 16.6625 11.7996 17.0161 11.4987 17.2713C11.1978 17.5264 10.8162 17.6665 10.4216 17.6667H7.66665" stroke="white" stroke-width="2" stroke-linecap="round" stroke-linejoin="round"/>
<path d="M23.5 21L24.1583 17.71L25.1667 12.6667H27.3667C27.6086 12.6668 27.8476 12.7196 28.0671 12.8214C28.2866 12.9231 28.4813 13.0715 28.6376 13.2561C28.794 13.4407 28.9083 13.6571 28.9726 13.8904C29.0369 14.1236 29.0497 14.368 29.01 14.6067L28.7317 16.2734C28.667 16.6625 28.4663 17.0161 28.1654 17.2713C27.8645 17.5264 27.4828 17.6665 27.0883 17.6667H24.3333" stroke="white" stroke-width="2" stroke-linecap="round" stroke-linejoin="round"/>
<path d="M17.6667 8.5L16 17.6667" stroke="white" stroke-width="2" stroke-linecap="round" stroke-linejoin="round"/>
<path d="M17 12.6667H21L20.1667 17.6667" stroke="white" stroke-width="2" stroke-linecap="round" stroke-linejoin="round"/>
</svg>
