<svg width="37" height="31" viewBox="0 0 37 31" fill="none" xmlns="http://www.w3.org/2000/svg">
<path fill-rule="evenodd" clip-rule="evenodd" d="M9.33963 2.19336C9.33963 1.64107 9.78734 1.19336 10.3396 1.19336H17.4859C17.9079 1.19336 18.2846 1.45837 18.4271 1.85566L28.4035 29.6623C28.5134 29.9686 28.4674 30.3093 28.2801 30.5754C28.0928 30.8416 27.7877 31 27.4623 31H21.0943C20.671 31 20.2935 30.7334 20.1519 30.3344L18.0532 24.4198H9.73095L7.89807 30.2977C7.76779 30.7154 7.38101 31 6.9434 31H1.00001C0.676123 31 0.372297 30.8431 0.18474 30.5791C-0.0028162 30.315 -0.050873 29.9765 0.055788 29.6706L9.10572 3.7228C9.1845 3.45987 9.33963 2.78309 9.33963 2.19336ZM11.2599 3.19336C11.187 3.68516 11.0804 4.10606 11.0124 4.32707C11.0088 4.33888 11.0049 4.35063 11.0008 4.3623L2.40786 29H6.20774L8.04063 23.1221C8.1709 22.7043 8.55768 22.4198 8.99529 22.4198H18.7594C19.1828 22.4198 19.5603 22.6864 19.7019 23.0854L21.8006 29H26.0411L16.7822 3.19336H11.2599ZM13.8744 6.07544C14.3138 6.07414 14.7026 6.35986 14.8326 6.77962L18.2288 17.7466C18.3228 18.05 18.267 18.3801 18.0785 18.6358C17.89 18.8915 17.5913 19.0424 17.2736 19.0424H10.5519C10.2353 19.0424 9.93735 18.8925 9.74872 18.6382C9.56009 18.3839 9.50304 18.0552 9.59492 17.7522L12.9204 6.78526C13.0479 6.36474 13.435 6.07674 13.8744 6.07544ZM13.8874 10.4884L11.9001 17.0424H15.9171L13.8874 10.4884ZM29.151 8.98581C29.151 8.43353 29.5987 7.98581 30.151 7.98581H35.8821C36.4344 7.98581 36.8821 8.43353 36.8821 8.98581V30C36.8821 30.5522 36.4344 31 35.8821 31H30.151C29.5987 31 29.151 30.5522 29.151 30V8.98581ZM31.151 9.98581V29H34.8821V9.98581H31.151Z" fill="white"/>
<path fill-rule="evenodd" clip-rule="evenodd" d="M32.9811 4.65094C33.7132 4.65094 34.3066 4.05751 34.3066 3.32547C34.3066 2.59343 33.7132 2 32.9811 2C32.2491 2 31.6557 2.59343 31.6557 3.32547C31.6557 4.05751 32.2491 4.65094 32.9811 4.65094ZM32.9811 6.65094C34.8177 6.65094 36.3066 5.16208 36.3066 3.32547C36.3066 1.48886 34.8177 0 32.9811 0C31.1445 0 29.6557 1.48886 29.6557 3.32547C29.6557 5.16208 31.1445 6.65094 32.9811 6.65094Z" fill="white"/>
</svg>
