<svg width="22" height="32" viewBox="0 0 22 32" fill="none" xmlns="http://www.w3.org/2000/svg">
<path d="M11 16C11 17.3261 11.5268 18.5979 12.4645 19.5355C13.4021 20.4732 14.6739 21 16 21C17.3261 21 18.5979 20.4732 19.5355 19.5355C20.4732 18.5979 21 17.3261 21 16C21 14.6739 20.4732 13.4021 19.5355 12.4645C18.5979 11.5268 17.3261 11 16 11C14.6739 11 13.4021 11.5268 12.4645 12.4645C11.5268 13.4021 11 14.6739 11 16Z" stroke="white" stroke-width="2" stroke-linecap="round" stroke-linejoin="round"/>
<path d="M1 6C1 4.67392 1.52678 3.40215 2.46447 2.46447C3.40215 1.52678 4.67392 1 6 1H16C17.3261 1 18.5979 1.52678 19.5355 2.46447C20.4732 3.40215 21 4.67392 21 6C21 7.32608 20.4732 8.59785 19.5355 9.53553C18.5979 10.4732 17.3261 11 16 11H6C4.67392 11 3.40215 10.4732 2.46447 9.53553C1.52678 8.59785 1 7.32608 1 6Z" stroke="white" stroke-width="2" stroke-linecap="round" stroke-linejoin="round"/>
<path d="M6 11C4.67392 11 3.40215 11.5268 2.46447 12.4645C1.52679 13.4021 1 14.6739 1 16C1 17.3261 1.52679 18.5979 2.46447 19.5355C3.40215 20.4732 4.67392 21 6 21M6 21H11M6 21C5.01109 21 4.0444 21.2932 3.22215 21.8427C2.3999 22.3921 1.75904 23.173 1.3806 24.0866C1.00217 25.0002 0.90315 26.0055 1.09608 26.9755C1.289 27.9454 1.76521 28.8363 2.46447 29.5355C3.16373 30.2348 4.05464 30.711 5.02455 30.9039C5.99445 31.0969 6.99979 30.9978 7.91342 30.6194C8.82705 30.241 9.60794 29.6001 10.1573 28.7778C10.7068 27.9556 11 26.9889 11 26V1" stroke="white" stroke-width="2" stroke-linecap="round" stroke-linejoin="round"/>
</svg>
