<svg width="32" height="32" viewBox="0 0 32 32" fill="none" xmlns="http://www.w3.org/2000/svg">
<path fill-rule="evenodd" clip-rule="evenodd" d="M0 3.19653C0 2.64425 0.447715 2.19653 1 2.19653H6.90693C7.45921 2.19653 7.90693 2.64425 7.90693 3.19653V30.7721C7.90693 31.3244 7.45921 31.7721 6.90693 31.7721H1C0.447715 31.7721 0 31.3244 0 30.7721V3.19653ZM2 4.19653V29.7721H5.90693V4.19653H2Z" fill="white"/>
<path fill-rule="evenodd" clip-rule="evenodd" d="M23.4941 1C23.4941 0.447715 23.9418 0 24.4941 0H30.2526C30.8049 0 31.2526 0.447715 31.2526 1V27.3119C31.2598 27.5187 31.2792 27.8537 31.3138 28.1891C31.3518 28.5578 31.3999 28.8372 31.4411 28.964C31.6048 29.4677 31.3475 30.0116 30.8542 30.2044C27.5215 31.5076 22.4276 32.6327 18.0866 31.5905C15.8877 31.0626 13.841 29.9669 12.3533 28.0208C10.8682 26.0781 10.018 23.3899 10.018 19.8191L10.0183 19.7967C10.0647 17.7241 10.8541 14.7083 13.0873 12.3004C15.2082 10.0136 18.5416 8.372 23.4941 8.51001V1ZM25.4941 2V9.56356C25.4941 9.842 25.378 10.1078 25.1738 10.2971C24.9695 10.4863 24.6956 10.5819 24.418 10.5607C19.3896 10.1769 16.3549 11.7183 14.5537 13.6605C12.7185 15.6392 12.0583 18.1482 12.018 19.8305C12.0198 23.0805 12.7919 25.3014 13.9422 26.8062C15.0913 28.3093 16.6957 29.1997 18.5535 29.6458C22.0278 30.4799 26.2398 29.7189 29.3507 28.6288C29.3408 28.548 29.332 28.4692 29.3243 28.3943C29.2834 27.9977 29.2612 27.6068 29.2532 27.3618C29.2528 27.3508 29.2526 27.3399 29.2526 27.3289V2H25.4941ZM17.8656 19.8342C17.8676 21.2948 18.1584 22.3291 18.5708 23.0599C18.9808 23.7863 19.5398 24.2653 20.1694 24.5765C21.2047 25.0882 22.4555 25.1534 23.4941 25.0095V15.2887C21.3015 15.1205 19.9882 15.7986 19.193 16.623C18.2563 17.594 17.8957 18.9162 17.8656 19.8342ZM17.7536 15.2344C19.1724 13.7637 21.4101 12.8968 24.6518 13.4144C25.1371 13.4919 25.4941 13.9105 25.4941 14.4019V25.8299C25.4941 26.285 25.1868 26.6827 24.7464 26.7975C23.3364 27.1651 21.1618 27.298 19.2831 26.3694C18.3235 25.895 17.4522 25.147 16.829 24.0428C16.2098 22.9455 15.8656 21.5503 15.8656 19.8191C15.8656 19.8093 15.8657 19.7996 15.866 19.7899C15.9035 18.5068 16.384 16.6541 17.7536 15.2344Z" fill="white"/>
</svg>
