<svg xmlns="http://www.w3.org/2000/svg" fill="none" viewBox="0 0 500 500"><path fill="#2e3120" fill-rule="evenodd" d="M297.282 233.451a5 5 0 0 1 3.32 6.24 16.197 16.197 0 0 0 .73 11.879c1.609 3.14 4.759 5.839 10.588 6.439a4.999 4.999 0 1 1-1 9.94c-8.998-.92-15.217-5.5-18.457-11.809a26.132 26.132 0 0 1-1.4-19.369 5.001 5.001 0 0 1 6.219-3.32Z" clip-rule="evenodd"></path><path fill="#2e3120" fill-rule="evenodd" d="M17.227 241.341a4.998 4.998 0 0 1 6.37-3.09 27.852 27.852 0 0 1 7.998 4.44 18.295 18.295 0 0 1 6.1 8.209 4.997 4.997 0 0 1-1.369 5.506 5.01 5.01 0 0 1-3.713 1.237 5 5 0 0 1-4.397-3.583 8.515 8.515 0 0 0-2.87-3.56c-1.5-1.2-3.19-2.143-5-2.79a5 5 0 0 1-3.12-6.369Z" clip-rule="evenodd"></path><path fill="#2e3120" fill-rule="evenodd" d="M313.18 241.341a5.012 5.012 0 0 1 2.543-2.867 4.998 4.998 0 0 1 3.826-.223 27.867 27.867 0 0 1 7.999 4.44 18.297 18.297 0 0 1 6.099 8.209 5.002 5.002 0 0 1-5.081 6.743 5.001 5.001 0 0 1-4.398-3.583 8.516 8.516 0 0 0-2.869-3.56 17.37 17.37 0 0 0-5-2.79 4.999 4.999 0 0 1-3.119-6.369Z" clip-rule="evenodd"></path><path fill="#2e3120" fill-rule="evenodd" d="M42.623 230.981a5 5 0 0 1 6.829-1.829 26.126 26.126 0 0 0 19.427 2.509c3.56-1 7.599-1.339 11.208.48 3.8 1.93 5.82 5.59 6.74 9.75a4.998 4.998 0 1 1-9.76 2.179c-.55-2.489-1.33-2.919-1.5-2.999-.36-.18-1.459-.47-3.998.24a36.062 36.062 0 0 1-27.066-3.49 5.007 5.007 0 0 1-2.363-3.029 4.996 4.996 0 0 1 .483-3.811Z" clip-rule="evenodd"></path><path fill="#2e3120" fill-rule="evenodd" d="M338.576 230.981a5 5 0 0 1 6.829-1.829 26.126 26.126 0 0 0 19.427 2.509c3.559-1 7.599-1.339 11.208.48 3.799 1.93 5.819 5.59 6.739 9.75a4.997 4.997 0 0 1-3.79 5.969 5.002 5.002 0 0 1-5.969-3.79c-.549-2.489-1.339-2.919-1.499-2.999-.36-.18-1.46-.47-4.05.24a36.06 36.06 0 0 1-27.065-3.49 4.986 4.986 0 0 1-2.461-4.99 5.008 5.008 0 0 1 .631-1.85Z" clip-rule="evenodd"></path><path fill="#2e3120" fill-rule="evenodd" d="M59.82 248.84a4.993 4.993 0 0 1 3.133 4.592 5.003 5.003 0 0 1-.363 1.918 18.349 18.349 0 0 0-1.5 7.689 5.521 5.521 0 0 0 2.4 4.66c3.15 2.099 7.549 2.779 12.458 2.779a4.998 4.998 0 0 1 5 5 4.998 4.998 0 0 1-5 5c-5.44 0-12.308-.67-17.997-4.45a15.49 15.49 0 0 1-6.849-12.339 28.399 28.399 0 0 1 2.2-12.079 4.997 4.997 0 0 1 6.519-2.77Z" clip-rule="evenodd"></path><path fill="#2e3120" fill-rule="evenodd" d="M355.773 248.84a4.988 4.988 0 0 1 2.734 2.681 5 5 0 0 1 .036 3.829 18.349 18.349 0 0 0-1.5 7.689 5.526 5.526 0 0 0 2.4 4.66c3.149 2.099 7.548 2.779 12.458 2.779a4.999 4.999 0 0 1 3.535 8.535 4.999 4.999 0 0 1-3.535 1.465c-5.439 0-12.308-.67-17.997-4.45a15.486 15.486 0 0 1-6.849-12.339 28.39 28.39 0 0 1 2.199-12.079 5.007 5.007 0 0 1 4.599-3.137 5.01 5.01 0 0 1 1.92.367Z" clip-rule="evenodd"></path><path fill="#2e3120" fill-rule="evenodd" d="M39.894 277.438a4.987 4.987 0 0 1 2.003 3.271 4.997 4.997 0 0 1-.904 3.728c-.64.89-1.1 2.38-1.19 5-.06 1.81 0 3.59.16 5.609.06 1 .12 2 .17 3.17a27.835 27.835 0 0 1-1 10.179 13.057 13.057 0 0 1-8.568 8.36 5.004 5.004 0 0 1-5.505-1.369 4.99 4.99 0 0 1-1.238-3.713 4.996 4.996 0 0 1 3.584-4.398 3.12 3.12 0 0 0 2.28-2.169c.537-2.116.702-4.308.49-6.48 0-.74-.08-1.56-.13-2.43-.13-2.25-.28-4.819-.2-7.109.11-3.29.69-7.21 3.099-10.509a4.997 4.997 0 0 1 6.949-1.14Z" clip-rule="evenodd"></path><path fill="#2e3120" fill-rule="evenodd" d="M335.846 277.438a4.99 4.99 0 0 1 2.004 3.271 5.004 5.004 0 0 1-.904 3.728c-.64.89-1.1 2.38-1.19 5-.06 1.81 0 3.59.16 5.609.06 1 .12 2 .17 3.17a27.822 27.822 0 0 1-.999 10.179 13.063 13.063 0 0 1-8.569 8.36 5.002 5.002 0 0 1-6.743-5.082 4.996 4.996 0 0 1 1.817-3.467 5.008 5.008 0 0 1 1.766-.931 3.12 3.12 0 0 0 2.28-2.169c.537-2.116.703-4.308.49-6.48 0-.74-.08-1.56-.13-2.43-.13-2.25-.28-4.819-.2-7.109.11-3.29.69-7.21 3.1-10.509a4.996 4.996 0 0 1 6.948-1.14Z" clip-rule="evenodd"></path><path fill="#2e3120" fill-rule="evenodd" d="M311.62 281.317a4.998 4.998 0 0 1-3.049 6.37c-3.86 1.37-5.62 4.89-5.62 11.289 0 1.4.48 2.65 1.36 5l.2.54c.89 2.349 2.17 5.849 1.34 9.999a5 5 0 0 1-9.798-2c.21-1.06 0-2.17-.89-4.46l-.25-.67a23.06 23.06 0 0 1-2-8.389c0-7.769 2.31-17.179 12.338-20.708a4.996 4.996 0 0 1 6.369 3.029Z" clip-rule="evenodd"></path><path fill="#2e3120" fill-rule="evenodd" d="M285.174 334.893a5 5 0 0 1 6.319-3.16 22.576 22.576 0 0 1 12.228 10.42 23.382 23.382 0 0 1 2.82 15.818c-.14.74-.31 1.47-.45 2.08 0 .11-.05.2-.07.3-.17.72-.29 1.29-.38 1.84a5.99 5.99 0 0 0 0 2.48 12.057 12.057 0 0 0 2.8 4.899 56.353 56.353 0 0 0 4.449 4.43l.93.87a4.998 4.998 0 0 1-6.819 7.299l-.82-.75a67.114 67.114 0 0 1-5.329-5.339 22.001 22.001 0 0 1-4.899-9.109 16.004 16.004 0 0 1-.13-6.4c.14-.89.34-1.74.5-2.47 0-.11.05-.22.08-.32.14-.63.27-1.17.37-1.719.5-3.084-.102-6.246-1.7-8.93a12.63 12.63 0 0 0-6.689-5.879 5.008 5.008 0 0 1-3.46-4.407 4.998 4.998 0 0 1 .25-1.953Z" clip-rule="evenodd"></path><path fill="#2e3120" fill-rule="evenodd" d="M13.568 319.554a5.002 5.002 0 0 1 5.81 4 24.4 24.4 0 0 1 .289 4.5v3.319c.004.481.088.958.25 1.41a18.831 18.831 0 0 1 5.499 3.51 10.423 10.423 0 0 1 3 7.629 5.002 5.002 0 0 1-5 5 5.001 5.001 0 0 1-4.999-5 3.23 3.23 0 0 0 0-.44.231.231 0 0 0 0-.1 3.826 3.826 0 0 0-.76-.539c-.605-.35-1.23-.667-1.87-.95-4.879-2.28-5.819-6.84-5.999-9.82-.08-1.18-.07-2.459-.05-3.459v-.63a14.67 14.67 0 0 0-.13-2.62 4.998 4.998 0 0 1 3.96-5.81Z" clip-rule="evenodd"></path><path fill="#2e3120" fill-rule="evenodd" d="M40.343 317.515a4.999 4.999 0 0 1 7.07-.15c2.999 2.909 3.909 3.569 5.748 3.609h3.94c2.062-.048 4.11.354 5.999 1.18a11.997 11.997 0 0 1 5.619 6.22c.22.47.42.94.59 1.34v.09c.16.39.3.71.44 1 .18.438.405.857.67 1.249a5.006 5.006 0 0 1 .302 5.548 5.01 5.01 0 0 1-3.06 2.295 4.994 4.994 0 0 1-5.24-1.843 16.554 16.554 0 0 1-1.79-3.14l-.52-1.19v-.11c-.17-.41-.32-.74-.47-1.06a6.276 6.276 0 0 0-.67-1.209.48.48 0 0 0-.14-.15 4.67 4.67 0 0 0-1.78-.22h-1.79c-.66 0-1.46.06-2.25 0-5.998-.12-9.448-3.48-11.998-6l-.42-.4a5 5 0 0 1-.25-7.059Z" clip-rule="evenodd"></path><path fill="#2e3120" fill-rule="evenodd" d="M330.797 323.764a4.998 4.998 0 0 1 7.069-.15c3 2.91 3.909 3.57 5.749 3.61h3.939c2.062-.049 4.11.354 5.999 1.18a12.08 12.08 0 0 1 5.63 6.219c.21.47.41.94.579 1.34v.09c.17.39.3.71.44 1 .181.438.405.857.67 1.25a4.999 4.999 0 1 1-7.998 5.999 16.524 16.524 0 0 1-1.79-3.139l-.52-1.19v-.11c-.17-.41-.32-.74-.47-1.06a5.765 5.765 0 0 0-.67-1.21.5.5 0 0 0-.14-.15 4.689 4.689 0 0 0-1.78-.22h-1.789c-.66 0-1.46.06-2.25 0-5.999-.12-9.448-3.48-12.048-5.999l-.42-.4a5 5 0 0 1-.2-7.06Z" clip-rule="evenodd"></path><path fill="#2e3120" fill-rule="evenodd" d="M53.992 296.477a5.002 5.002 0 0 1 4.999-5c4.761-.064 9.498.7 13.997 2.26a4.996 4.996 0 0 1 2.983 6.261 5.003 5.003 0 0 1-6.142 3.219 31.443 31.443 0 0 0-10.838-1.74 4.998 4.998 0 0 1-5-5Z" clip-rule="evenodd"></path><path fill="#2e3120" fill-rule="evenodd" d="M348.944 303.726c0-1.326.527-2.598 1.465-3.535a4.997 4.997 0 0 1 3.535-1.465 41.062 41.062 0 0 1 13.997 2.25 5.002 5.002 0 0 1 .561 9.109 5 5 0 0 1-3.72.371 31.464 31.464 0 0 0-10.838-1.73 5 5 0 0 1-5-5Z" clip-rule="evenodd"></path><path fill="#2e3120" fill-rule="evenodd" d="M292.123 386.299a4.999 4.999 0 0 1 6.459 2.87 17.266 17.266 0 0 0 1.84 3.36c.35.54.74 1.149 1.18 1.879a16.916 16.916 0 0 1 2.809 9.06 4.998 4.998 0 0 1-8.534 3.535 5.002 5.002 0 0 1-1.464-3.535 6.998 6.998 0 0 0-1.36-3.86c-.17-.29-.39-.63-.64-1a32.822 32.822 0 0 1-3.169-5.819 5.003 5.003 0 0 1 1.219-5.447 5.008 5.008 0 0 1 1.66-1.043Z" clip-rule="evenodd"></path><path fill="#2e3120" fill-rule="evenodd" d="M301.892 417.967a4.999 4.999 0 0 1 1 6.999c-2.22 3-3 5.88-3 10.099a22.997 22.997 0 0 0 .83 6.81 28.465 28.465 0 0 0 2.939 6.349c2.2 3.78 2.41 8.619 2 12.549a28.887 28.887 0 0 1-3.469 11.279 5 5 0 0 1-8.579-5.139 19.251 19.251 0 0 0 2.11-7.21c.33-3.11-.08-5.389-.7-6.459a38.352 38.352 0 0 1-3.88-8.53 33.01 33.01 0 0 1-1.239-9.649c0-5.849 1.209-10.999 4.999-16.058a4.996 4.996 0 0 1 6.989-1.04Z" clip-rule="evenodd"></path><path fill="#2e3120" d="M303.951 499.96h-10.368a5 5 0 0 1 6.599-1.95c.84.42 1.62.83 2.36 1.22l1.409.73Z"></path><path fill="#2e3120" fill-rule="evenodd" d="M37.994 460.683c3.25.47 8.438 1.78 10.828 6.55 2.17 4.349 1.9 9.249.89 13.249-1 3.899-2.76 7.562-5.18 10.779a13.852 13.852 0 0 1-5.138 4.289 11.874 11.874 0 0 1-5.92 1 20.079 20.079 0 0 1-4.919-1.08c-.86-.28-1.86-.65-2.77-1l-1.369-.499c-3.55-1.27-5.57-1.87-7.239-1.85-1.21 0-2.54.34-4.5 2.249a5.003 5.003 0 0 1-7.078-.08 5.005 5.005 0 0 1 .08-7.079c3.51-3.42 7.239-5.06 11.418-5.09 3.73 0 7.429 1.27 10.678 2.43l1.77.65c.75.28 1.4.53 2.14.77a10.53 10.53 0 0 0 2.5.59c.338.048.684.003 1-.13a4.096 4.096 0 0 0 1.4-1.3 20.439 20.439 0 0 0 3.408-7.099c.71-2.79.55-5-.14-6.33l-.06-.06a2.12 2.12 0 0 0-.49-.32 9.898 9.898 0 0 0-2.749-.74 43.306 43.306 0 0 0-6.319-.25h-1.57a4.997 4.997 0 0 1-4.999-4.999 4.998 4.998 0 0 1 5-5h1.13a52.845 52.845 0 0 1 8.198.35Z" clip-rule="evenodd"></path><path fill="#2e3120" fill-rule="evenodd" d="M338.216 456.313c3.249.47 8.439 1.78 10.828 6.55 2.17 4.35 1.9 9.249.89 13.239a30.5 30.5 0 0 1-5.179 10.789 13.85 13.85 0 0 1-5.139 4.29 11.885 11.885 0 0 1-5.919 1 20.18 20.18 0 0 1-4.92-1.08 59.54 59.54 0 0 1-2.769-1l-1.36-.5c-3.559-1.27-5.579-1.87-7.249-1.85-1.209 0-2.539.34-4.499 2.25a5.005 5.005 0 0 1-8.505-3.637 5.008 5.008 0 0 1 1.506-3.523c3.5-3.419 7.229-5.059 11.408-5.089 3.73 0 7.429 1.27 10.679 2.43l1.769.649c.75.28 1.41.53 2.14.77.806.298 1.645.496 2.5.59.339.048.684.003.999-.13a3.88 3.88 0 0 0 1.4-1.3 20.444 20.444 0 0 0 3.42-7.139c.7-2.79.54-5-.15-6.319l-.06-.06a2.11 2.11 0 0 0-.49-.32 9.76 9.76 0 0 0-2.75-.74 43.023 43.023 0 0 0-6.319-.25h-1.5a4.996 4.996 0 0 1-3.534-1.465 4.997 4.997 0 0 1 0-7.07 4.996 4.996 0 0 1 3.534-1.465h1.13c2.719-.083 5.44.044 8.139.38Z" clip-rule="evenodd"></path><path fill="#2e3120" fill-rule="evenodd" d="M46.793 415.767a5 5 0 0 1-.64 6.999 30.455 30.455 0 0 1-5.74 3.57l-.73.38a12.81 12.81 0 0 0-3.929 2.77c-1 1.13-1.52 2.839-1.42 5.359.197 2.68.804 5.314 1.8 7.81a5.003 5.003 0 1 1-9.358 3.539 36.134 36.134 0 0 1-2.43-10.929 17.27 17.27 0 0 1 3.87-12.299 22.386 22.386 0 0 1 6.779-5.059l1-.51a20.054 20.054 0 0 0 3.759-2.27 5 5 0 0 1 7.039.64Z" clip-rule="evenodd"></path><path fill="#2e3120" fill-rule="evenodd" d="M342.745 415.767a5.002 5.002 0 0 1 1.118 3.631 5.002 5.002 0 0 1-1.758 3.368 30.413 30.413 0 0 1-5.739 3.57l-.73.38a12.803 12.803 0 0 0-3.929 2.77c-1 1.13-1.52 2.839-1.42 5.359.197 2.68.804 5.314 1.8 7.81a5.002 5.002 0 1 1-9.359 3.539 36.148 36.148 0 0 1-2.429-10.929 17.269 17.269 0 0 1 3.869-12.299 22.404 22.404 0 0 1 6.809-5.049l1-.51a20.038 20.038 0 0 0 3.759-2.27 5 5 0 0 1 7.009.63Z" clip-rule="evenodd"></path><path fill="#2e3120" fill-rule="evenodd" d="M15.457 396.368a4.994 4.994 0 0 1 1.535-3.506 4.997 4.997 0 0 1 3.565-1.393c4.596.041 9.175.574 13.658 1.59 2.76.63 5.39 1.729 7.778 3.249a12.123 12.123 0 0 1 5.36 7.66 5 5 0 0 1-9.799 2c-.05-.24-.22-.7-1.19-1.36a14.983 14.983 0 0 0-4.59-1.83 54.751 54.751 0 0 0-11.417-1.29 4.992 4.992 0 0 1-3.514-1.542 5.003 5.003 0 0 1-1.386-3.578Z" clip-rule="evenodd"></path><path fill="#2e3120" fill-rule="evenodd" d="M311.41 396.368a4.984 4.984 0 0 1 .419-1.905 4.985 4.985 0 0 1 2.76-2.652 4.982 4.982 0 0 1 1.92-.342c4.597.041 9.175.574 13.658 1.59a24.785 24.785 0 0 1 7.749 3.249 12.148 12.148 0 0 1 3.468 3.297 12.133 12.133 0 0 1 1.921 4.383 5.002 5.002 0 0 1-3.899 5.899 4.997 4.997 0 0 1-5.899-3.899c-.05-.24-.22-.7-1.19-1.36a14.985 14.985 0 0 0-4.589-1.83 54.763 54.763 0 0 0-11.419-1.29 4.996 4.996 0 0 1-4.569-3.206 5.029 5.029 0 0 1-.33-1.934Z" clip-rule="evenodd"></path><path fill="#2e3120" fill-rule="evenodd" d="M32.635 363.651a5.002 5.002 0 0 1 6.139-3.5 12.266 12.266 0 0 1 7.998 6.73 20.166 20.166 0 0 1 1.71 8.589v.32a31.443 31.443 0 0 1-.25 4.75 13.622 13.622 0 0 1-1 3.559 7.758 7.758 0 0 1-3.539 3.87 5 5 0 0 1-5.48-8.279c0-.14.06-.33.09-.54a22.06 22.06 0 0 0 .15-3.26v-.39a10.35 10.35 0 0 0-.739-4.28 2.271 2.271 0 0 0-1.58-1.4 5 5 0 0 1-3.5-6.169Z" clip-rule="evenodd"></path><path fill="#2e3120" fill-rule="evenodd" d="M325.088 360.151a4.999 4.999 0 0 1 6.139-3.5 12.218 12.218 0 0 1 7.999 6.73 20.005 20.005 0 0 1 1.72 8.589v.32a32.93 32.93 0 0 1-.25 4.75 13.638 13.638 0 0 1-1 3.559 7.758 7.758 0 0 1-3.54 3.84 4.998 4.998 0 0 1-5.489-8.279c.045-.178.078-.358.1-.54a23.67 23.67 0 0 0 .15-3.26v-.39a10.336 10.336 0 0 0-.74-4.279 2.27 2.27 0 0 0-1.58-1.4 5.018 5.018 0 0 1-3.026-2.343 5 5 0 0 1-.483-3.797Z" clip-rule="evenodd"></path><path fill="#2e3120" fill-rule="evenodd" d="M96.794 349.762a5 5 0 0 1-3.639 6.06 40.118 40.118 0 0 0-7.359 2.819c-.91.43-1.92.92-3 1.44-1.709.84-3.519 1.73-5.169 2.46a41.284 41.284 0 0 1-24.995 3.37 5.01 5.01 0 0 1-4.076-3.779 5.006 5.006 0 0 1 3.705-6.027 5.023 5.023 0 0 1 1.95-.074 31.332 31.332 0 0 0 19.367-2.629c1.55-.69 3-1.38 4.47-2.13a169.8 169.8 0 0 1 3.449-1.67 49.501 49.501 0 0 1 9.208-3.48 5 5 0 0 1 6.09 3.64Z" clip-rule="evenodd"></path><path fill="#2e3120" fill-rule="evenodd" d="M392.747 349.762a4.999 4.999 0 0 1-3.639 6.06 40.12 40.12 0 0 0-7.359 2.819c-.91.43-1.92.92-2.999 1.44-1.71.84-3.52 1.73-5.17 2.46a41.283 41.283 0 0 1-24.996 3.37 5.016 5.016 0 0 1-3.261-2.006 4.996 4.996 0 0 1-.888-3.724 5.008 5.008 0 0 1 2.005-3.261 5.003 5.003 0 0 1 3.724-.889 31.332 31.332 0 0 0 19.367-2.629c1.55-.69 3-1.38 4.469-2.13 1.07-.53 2.2-1.08 3.45-1.67a49.499 49.499 0 0 1 9.208-3.48 4.999 4.999 0 0 1 6.089 3.64Z" clip-rule="evenodd"></path><path fill="#2e3120" fill-rule="evenodd" d="M83.437 375.65a4.999 4.999 0 0 1 6.829 1.81c3.589 6.159 6.718 13.509 6.718 21.508a4.998 4.998 0 0 1-8.534 3.535 4.998 4.998 0 0 1-1.464-3.535c0-5.489-2.13-10.999-5.32-16.489a5 5 0 0 1 1.77-6.829Z" clip-rule="evenodd"></path><path fill="#2e3120" fill-rule="evenodd" d="M379.389 375.65a5 5 0 0 1 6.829 1.81c3.59 6.159 6.719 13.509 6.719 21.508a5 5 0 0 1-9.998 0c0-5.489-2.13-10.999-5.319-16.489a5 5 0 0 1 1.769-6.829Z" clip-rule="evenodd"></path><path fill="#2e3120" fill-rule="evenodd" d="M66.99 387.499a4.986 4.986 0 0 1 3.347 1.858 4.991 4.991 0 0 1 1.052 3.682c-.4 3.479-.64 5.569-.07 7.509a18.071 18.071 0 0 0 1.59 3.42c.21.39.48.87.78 1.39.54.949 1.17 2.049 1.649 2.999 2.3 4.47 2.61 10.399 2.61 14.089a4.998 4.998 0 1 1-9.999 0c0-3.63-.4-7.389-1.5-9.519-.42-.81-.8-1.48-1.24-2.24-.32-.55-.66-1.15-1.07-1.89a28.01 28.01 0 0 1-2.369-5.429c-1.18-4-.7-8-.37-10.809 0-.24.06-.46.08-.68a5 5 0 0 1 5.51-4.38Z" clip-rule="evenodd"></path><path fill="#2e3120" fill-rule="evenodd" d="M362.942 387.499a4.989 4.989 0 0 1 3.348 1.858 5.011 5.011 0 0 1 1.051 3.682c-.4 3.479-.64 5.569-.07 7.509a18.116 18.116 0 0 0 1.56 3.45c.21.39.48.87.78 1.39.54.949 1.17 2.049 1.65 2.999 2.299 4.47 2.609 10.399 2.609 14.089a4.996 4.996 0 0 1-4.999 5 4.999 4.999 0 0 1-4.999-5c0-3.63-.41-7.389-1.5-9.519-.42-.81-.8-1.48-1.24-2.24-.32-.55-.66-1.15-1.07-1.89a28.008 28.008 0 0 1-2.369-5.429c-1.18-4-.7-8-.37-10.809 0-.24.06-.46.08-.68a4.993 4.993 0 0 1 1.854-3.355 5 5 0 0 1 3.685-1.055Z" clip-rule="evenodd"></path><path fill="#2e3120" fill-rule="evenodd" d="M99.154 441.015a4.993 4.993 0 0 1 3.292 1.951 4.996 4.996 0 0 1 .947 3.708 15.588 15.588 0 0 1-5.329 9.399 25.257 25.257 0 0 1-8.248 4.77c-9.249 3.29-19.447.51-26.626-2.2a5.007 5.007 0 0 1-2.793-2.615 4.997 4.997 0 0 1 .903-5.481 5.003 5.003 0 0 1 5.41-1.263c6.918 2.61 14.127 4.14 19.756 2.14a15.605 15.605 0 0 0 5-2.82 5.697 5.697 0 0 0 2.08-3.35 4.999 4.999 0 0 1 5.608-4.239Z" clip-rule="evenodd"></path><path fill="#2e3120" fill-rule="evenodd" d="M395.107 441.015a4.994 4.994 0 0 1 4.134 3.711c.163.636.198 1.298.105 1.948a15.59 15.59 0 0 1-5.329 9.4 25.271 25.271 0 0 1-8.249 4.769c-9.248 3.29-19.447.51-26.625-2.2a5 5 0 1 1 3.519-9.359c6.919 2.61 14.128 4.14 19.757 2.14a15.591 15.591 0 0 0 4.949-2.82 5.697 5.697 0 0 0 2.08-3.35 4.994 4.994 0 0 1 3.711-4.134 4.977 4.977 0 0 1 1.948-.105Z" clip-rule="evenodd"></path><path fill="#2e3120" d="M86.526 499.96H64.53a18.309 18.309 0 0 1-2.09-3 39.13 39.13 0 0 1-3-8.209c-.09-.3-.17-.6-.25-.88a5 5 0 0 1 9.619-2.74c.09.31.17.61.26.91a30.424 30.424 0 0 0 2.16 6.12 4.615 4.615 0 0 0 3.17 2.659c1.689.39 2.509.14 5.358-1.289a4.998 4.998 0 0 1 6.769 6.429Z"></path><path fill="#2e3120" d="M382.479 499.96h-21.996a18.28 18.28 0 0 1-2.09-3 39.193 39.193 0 0 1-3-8.209c-.09-.3-.17-.6-.25-.88a5.002 5.002 0 0 1 7.242-5.739 5.002 5.002 0 0 1 2.377 2.999c.09.31.17.61.26.91a30.385 30.385 0 0 0 2.159 6.12 4.607 4.607 0 0 0 3.17 2.659c1.69.39 2.51.14 5.359-1.289a4.996 4.996 0 0 1 5.677.844 5.006 5.006 0 0 1 1.459 2.632 5.005 5.005 0 0 1-.317 2.993l-.05-.04Z"></path><path fill="#2e3120" d="M52.471 499.96H41.993a5 5 0 0 1 9.299-2c.43.75.82 1.42 1.18 2Z"></path><path fill="#2e3120" d="M348.424 499.96h-10.478a5.003 5.003 0 0 1 3.922-4.38 5.003 5.003 0 0 1 5.377 2.38c.429.75.819 1.42 1.179 2Z"></path><path fill="#2e3120" fill-rule="evenodd" d="M125.23 467.893a5 5 0 0 1-1.72 6.859c-9.538 5.72-21.136 5.16-30.465 1.34a5 5 0 0 1-2.717-2.699 5.01 5.01 0 0 1 1.067-5.458 5.015 5.015 0 0 1 3.533-1.477 4.997 4.997 0 0 1 1.916.375c7.219 2.999 15.378 2.999 21.527-.66a4.988 4.988 0 0 1 3.786-.561 4.986 4.986 0 0 1 3.073 2.281Z" clip-rule="evenodd"></path><path fill="#2e3120" fill-rule="evenodd" d="M421.183 467.893c.337.563.56 1.187.657 1.837a5.006 5.006 0 0 1-2.377 5.022c-9.539 5.72-21.137 5.16-30.465 1.34a4.998 4.998 0 0 1-2.717-2.699 4.996 4.996 0 0 1-.013-3.831 5.008 5.008 0 0 1 4.613-3.104 4.997 4.997 0 0 1 1.916.375c7.219 2.999 15.368 2.999 21.527-.66a4.982 4.982 0 0 1 1.837-.657 4.99 4.99 0 0 1 5.022 2.377Z" clip-rule="evenodd"></path><path fill="#2e3120" fill-rule="evenodd" d="M490.172 367.131c.337.563.56 1.187.657 1.837a5.006 5.006 0 0 1-2.377 5.022c-9.539 5.72-21.137 5.16-30.465 1.34a5.01 5.01 0 0 1-2.717-2.699 4.996 4.996 0 0 1-.013-3.831 5.019 5.019 0 0 1 2.699-2.717 5.014 5.014 0 0 1 3.83-.012c7.219 2.999 15.368 2.999 21.527-.66a4.982 4.982 0 0 1 1.837-.657 4.99 4.99 0 0 1 5.022 2.377Z" clip-rule="evenodd"></path><path fill="#2e3120" d="M131.269 499.961h-19.137c-.78-.64-1.5-1.27-2.14-1.88a5.002 5.002 0 0 1 6.899-7.24c3 2.85 7.779 5.9 11.258 6.77a4.992 4.992 0 0 1 3.12 2.35Z"></path><path fill="#2e3120" d="M427.222 499.961h-19.137c-.78-.64-1.5-1.27-2.14-1.88a5.005 5.005 0 0 1-1.215-5.422 5 5 0 0 1 8.114-1.818c2.999 2.85 7.779 5.9 11.258 6.77a4.992 4.992 0 0 1 3.12 2.35Z"></path><path fill="#2e3120" fill-rule="evenodd" d="M213.266 480.022a5.003 5.003 0 0 1-1.86 6.819l-1.71 1c-3.999 2.35-9.268 5.44-14.997 6.279-7.119 1-14.998.71-21.647.26a70.133 70.133 0 0 1-7.229-.999l-1.269-.21a34.975 34.975 0 0 0-7.079-.66 33.746 33.746 0 0 0-11.698 2.099 4.982 4.982 0 0 1-1.945.433 4.988 4.988 0 0 1-4.724-3.118 5.01 5.01 0 0 1 .06-3.904 5.008 5.008 0 0 1 2.849-2.67 43.773 43.773 0 0 1 15.128-2.84 45.338 45.338 0 0 1 8.998.79l1.47.25c2.007.381 4.033.658 6.069.83 6.579.45 13.548.7 19.517-.18 3.609-.53 6.999-2.5 11.168-4.909l2-1.15a5 5 0 0 1 6.899 1.88Z" clip-rule="evenodd"></path><path fill="#2e3120" fill-rule="evenodd" d="M156.105 473.642a6.868 6.868 0 0 0-2.879-.08 7.912 7.912 0 0 0-2.57 1.41c-.78.57-1.43 1.12-2.17 1.75l-1.389 1.16a5.008 5.008 0 0 1-3.665 1.099 4.993 4.993 0 0 1-3.369-1.814 4.996 4.996 0 0 1-1.1-3.665 5.011 5.011 0 0 1 1.815-3.37l.929-.779c.88-.74 2-1.67 3-2.43a18.127 18.127 0 0 1 5.929-3 16.861 16.861 0 0 1 7.159-.11c.95.17 1.88.37 2.659.55h.11c.85.19 1.53.34 2.16.44l1 .18c2.093.393 4.206.674 6.329.84.825.066 1.654.066 2.479 0a5.003 5.003 0 0 1 6.112-1.272 5.004 5.004 0 0 1 2.587 5.681c-1 3.84-4.529 5-6.069 5.29a21.913 21.913 0 0 1-5.729.28 70.745 70.745 0 0 1-7.659-1l-.69-.12c-.95-.15-1.909-.37-2.729-.55-.82-.17-1.54-.37-2.25-.49Zm17.217-7.999h-.1.1Z" clip-rule="evenodd"></path><path fill="#2e3120" fill-rule="evenodd" d="M458.057 478.102a6.922 6.922 0 0 0-2.88-.09 8.199 8.199 0 0 0-2.569 1.42c-.78.57-1.43 1.119-2.17 1.739l-1.39 1.17a4.987 4.987 0 0 1-3.668 1.098 4.994 4.994 0 0 1-4.284-3.543 5.006 5.006 0 0 1 .389-3.81 5.014 5.014 0 0 1 1.244-1.504c.26-.21.58-.47.93-.77.88-.74 2-1.67 3-2.43a18.156 18.156 0 0 1 5.929-3 16.713 16.713 0 0 1 7.158-.11c.95.16 1.87.37 2.66.54h.11c.85.19 1.53.33 2.16.44l1 .17c2.091.403 4.204.687 6.329.85.825.062 1.654.062 2.479 0a4.999 4.999 0 0 1 8.699 4.4c-1 3.85-4.53 5-6.069 5.3a22.002 22.002 0 0 1-5.729.28 70.465 70.465 0 0 1-7.659-1l-.69-.12c-1-.16-1.91-.37-2.73-.55-.819-.2-1.539-.36-2.249-.48Zm17.227-8h-.11.11Z" clip-rule="evenodd"></path><path fill="#2e3120" fill-rule="evenodd" d="M183.971 454.964a19.217 19.217 0 0 0-6.559.38 5.004 5.004 0 0 1-5.859-3.96 4.999 4.999 0 0 1 3.959-5.86 28.933 28.933 0 0 1 10.128-.42 13.937 13.937 0 0 1 10.129 6.86 5.008 5.008 0 0 1-8.679 4.999 4.002 4.002 0 0 0-3.119-1.999Z" clip-rule="evenodd"></path><path fill="#2e3120" fill-rule="evenodd" d="M479.923 454.964a19.218 19.218 0 0 0-6.559.38 5 5 0 0 1-1.899-9.82 28.932 28.932 0 0 1 10.128-.42 13.932 13.932 0 0 1 10.128 6.86 5.009 5.009 0 0 1-5.64 7.336 5.01 5.01 0 0 1-3.038-2.337 4.003 4.003 0 0 0-3.12-1.999Z" clip-rule="evenodd"></path><path fill="#2e3120" fill-rule="evenodd" d="M135.208 434.135a5.01 5.01 0 0 1 3.447-1.662 4.997 4.997 0 0 1 3.612 1.262 36.643 36.643 0 0 1 4.709 5.33l.45.6a40.255 40.255 0 0 0 3 3.72c1.07 1.119 2.13 2.159 3.249 3.259l1.79 1.78a5.004 5.004 0 0 1 .005 7.075 5.004 5.004 0 0 1-7.074.005c-.51-.52-1.06-1.06-1.62-1.61-1.169-1.16-2.399-2.37-3.559-3.58a48.559 48.559 0 0 1-3.819-4.66l-.43-.57a26.598 26.598 0 0 0-3.36-3.889 5.007 5.007 0 0 1-.4-7.06Z" clip-rule="evenodd"></path><path fill="#2e3120" fill-rule="evenodd" d="M431.161 434.135a5.01 5.01 0 0 1 3.447-1.662 4.99 4.99 0 0 1 3.612 1.262 36.643 36.643 0 0 1 4.709 5.33l.44.6a40.255 40.255 0 0 0 3 3.72c1.07 1.119 2.129 2.159 3.249 3.259l1.79 1.78a5.004 5.004 0 0 1 .005 7.075 5.004 5.004 0 0 1-7.074.005c-.51-.52-1.06-1.06-1.62-1.61-1.169-1.16-2.399-2.37-3.559-3.58a48.559 48.559 0 0 1-3.819-4.66l-.43-.57a26.598 26.598 0 0 0-3.36-3.889 5 5 0 0 1-.39-7.06Z" clip-rule="evenodd"></path><path fill="#2e3120" fill-rule="evenodd" d="M118.511 429.576a21.809 21.809 0 0 0-4.999 3.309 5.002 5.002 0 0 1-8.08-4.492 5.004 5.004 0 0 1 1.861-3.347 31.338 31.338 0 0 1 7.369-4.72c3-1.179 6.245-1.602 9.448-1.23.403.036.804.096 1.2.18l.94.21.37.1.999.22a4.998 4.998 0 0 1 6.752 5.149 5.001 5.001 0 0 1-1.392 3.011 6.64 6.64 0 0 1-4.41 1.87 11.606 11.606 0 0 1-2.789-.24c-.58-.12-1.19-.27-1.62-.37l-.25-.06-.63-.15a9.6 9.6 0 0 0-4.769.56Z" clip-rule="evenodd"></path><path fill="#2e3120" fill-rule="evenodd" d="M414.464 429.576a21.979 21.979 0 0 0-5 3.309 5 5 0 0 1-7.028-.81 5 5 0 0 1 .809-7.029 31.187 31.187 0 0 1 7.379-4.72 19.59 19.59 0 0 1 9.439-1.23c.403.036.804.096 1.199.18l.93.21.38.1 1 .22a4.998 4.998 0 0 1 6.752 5.149 4.997 4.997 0 0 1-1.393 3.011 6.64 6.64 0 0 1-4.409 1.87 11.67 11.67 0 0 1-2.79-.24c-.58-.12-1.189-.27-1.619-.37l-.25-.06-.63-.15a9.598 9.598 0 0 0-4.769.56Z" clip-rule="evenodd"></path><path fill="#2e3120" fill-rule="evenodd" d="M128.269 398.448a35.357 35.357 0 0 0-9.498 6.25 5.012 5.012 0 0 1-3.612 1.262 5.008 5.008 0 0 1-4.437-3.343 4.994 4.994 0 0 1 1.39-5.379 45.146 45.146 0 0 1 12.488-8.099 17.998 17.998 0 0 1 8.759-1.35 12.379 12.379 0 0 1 8.648 5.269 5.006 5.006 0 0 1-1.16 6.98 4.999 4.999 0 0 1-6.978-1.16 2.383 2.383 0 0 0-1.78-1.17 8.24 8.24 0 0 0-3.82.74Z" clip-rule="evenodd"></path><path fill="#2e3120" fill-rule="evenodd" d="M424.222 398.448a35.357 35.357 0 0 0-9.498 6.25 5.012 5.012 0 0 1-3.612 1.262 5.008 5.008 0 0 1-4.437-3.343 4.994 4.994 0 0 1 1.39-5.379 45.146 45.146 0 0 1 12.488-8.099 17.998 17.998 0 0 1 8.759-1.35 12.384 12.384 0 0 1 8.648 5.269 5.006 5.006 0 0 1-1.16 6.98 5.003 5.003 0 0 1-6.979-1.16 2.37 2.37 0 0 0-1.779-1.17 8.24 8.24 0 0 0-3.82.74Z" clip-rule="evenodd"></path><path fill="#2e3120" fill-rule="evenodd" d="M161.284 396.458a5.002 5.002 0 0 1 6.659 2.36c3.999 8.429 4.769 15.709 4.999 24.168a8.053 8.053 0 0 0 .45 3.15c.13.26.43.76 1.79 1.67a4.995 4.995 0 0 1 2.239 3.186 4.993 4.993 0 0 1-.726 3.826 5.01 5.01 0 0 1-3.249 2.145 4.998 4.998 0 0 1-3.803-.838 14.242 14.242 0 0 1-5.259-5.649 17.372 17.372 0 0 1-1.44-7.2c-.23-7.919-.91-13.579-4-20.158a5.004 5.004 0 0 1 2.34-6.66Z" clip-rule="evenodd"></path><path fill="#2e3120" fill-rule="evenodd" d="M457.237 396.458a5 5 0 0 1 6.659 2.36c3.999 8.429 4.769 15.709 4.999 24.168a8.173 8.173 0 0 0 .46 3.15c.13.26.43.76 1.789 1.67a4.998 4.998 0 1 1-5.539 8.319 14.249 14.249 0 0 1-5.259-5.649 17.388 17.388 0 0 1-1.44-7.2c-.23-7.919-.909-13.579-3.999-20.158a5 5 0 0 1 2.33-6.66Z" clip-rule="evenodd"></path><path fill="#2e3120" fill-rule="evenodd" d="M203.628 401.058a4.986 4.986 0 0 1 2.401-2.982 5 5 0 0 1 3.808-.408 39.979 39.979 0 0 1 10.178 4.43 18.995 18.995 0 0 1 8.149 9.789 5 5 0 0 1-9.479 3.16 9.09 9.09 0 0 0-4.059-4.52 30.012 30.012 0 0 0-7.609-3.26 4.995 4.995 0 0 1-3.389-6.209Z" clip-rule="evenodd"></path><path fill="#2e3120" fill-rule="evenodd" d="M194.429 434.795a4.999 4.999 0 0 1 6.669-2.33c2.72 1.31 5.249 2.32 7.999 3.39 1.899.76 3.879 1.54 6.069 2.5.59.25 1.09.44 1.719.66l1.63.61a18.858 18.858 0 0 1 4.449 2.34 5 5 0 1 1-5.999 7.999 9.547 9.547 0 0 0-2.079-1l-1-.37c-.85-.31-1.92-.7-2.73-1.05-1.559-.68-3.329-1.39-5.179-2.13-2.999-1.23-6.299-2.529-9.188-3.929a5.01 5.01 0 0 1-2.572-2.854 5.014 5.014 0 0 1 .212-3.836Z" clip-rule="evenodd"></path><path fill="#2e3120" fill-rule="evenodd" d="M226.284 469.162a5 5 0 0 1 6.939-1.339 55.761 55.761 0 0 1 12.318 11.489 22.559 22.559 0 0 0 4.999 4.909 5.003 5.003 0 0 1 1.59 6.89 5.004 5.004 0 0 1-3.115 2.222 5.004 5.004 0 0 1-3.774-.632 32.097 32.097 0 0 1-7.409-7 45.984 45.984 0 0 0-10.238-9.619 4.998 4.998 0 0 1-1.31-6.92Z" clip-rule="evenodd"></path><path fill="#2e3120" fill-rule="evenodd" d="M3.77 136.189a5 5 0 0 1 6.938-1.34 55.346 55.346 0 0 1 12.288 11.489 22.773 22.773 0 0 0 5 4.91 4.999 4.999 0 1 1-5.3 8.479 32.306 32.306 0 0 1-7.408-6.999 45.698 45.698 0 0 0-10.229-9.619 5.002 5.002 0 0 1-1.29-6.92Z" clip-rule="evenodd"></path><path fill="#2e3120" d="M237.142 499.961h-24.416a11.39 11.39 0 0 1-1.12-2.66 5.017 5.017 0 0 1 .464-3.801 5.014 5.014 0 0 1 3.016-2.359 4.997 4.997 0 0 1 5.279 1.737c.405.518.704 1.11.88 1.743.15.54.91 1.61 4.079 2.69a47.39 47.39 0 0 0 6.499 1.57c1 .18 2 .37 2.95.58.8.18 1.589.35 2.369.5Z"></path><path fill="#2e3120" d="M275.706 499.96h-11.188a4.99 4.99 0 0 1 .61-1.57c3.479-5.799 4.789-9.739 4.789-15.999 0-1 0-2.049-.06-3.149v-.79c0-1.37-.07-2.85 0-4.35a25 25 0 0 1 2.05-9.699 4.991 4.991 0 0 1 2.789-2.694 4.996 4.996 0 0 1 6.507 2.96 4.995 4.995 0 0 1-.198 3.873 15.311 15.311 0 0 0-1.16 5.9v4.45c0 1.11.07 2.309.07 3.499a35.604 35.604 0 0 1-4.209 17.569Z"></path><path fill="#2e3120" fill-rule="evenodd" d="M253.08 425.076a64.658 64.658 0 0 1 3.309 5.92 38.723 38.723 0 0 1 2.85 12.409c.16 1.859.24 3.719.32 5.469v.27c.09 1.87.17 3.63.33 5.37a5.014 5.014 0 0 1-1.146 3.667 5.013 5.013 0 0 1-3.404 1.782 5.032 5.032 0 0 1-1.947-.208 5.033 5.033 0 0 1-2.949-2.462 5.019 5.019 0 0 1-.553-1.879c-.18-2-.27-4-.36-5.82v-.2c-.08-1.81-.15-3.49-.29-5.16a28.698 28.698 0 0 0-2.059-9.249c-.06-.11-.32-.64-.81-1.51-.49-.87-1.15-2-1.8-3.069-.48-.77-.9-1.4-1.24-1.86a4.896 4.896 0 0 1-1.479-1 4.994 4.994 0 0 1-1.469-3.54 4.997 4.997 0 0 1 1.469-3.54 5.285 5.285 0 0 1 4.319-1.51c.891.1 1.744.412 2.489.91a8.855 8.855 0 0 1 1.91 1.74 31.065 31.065 0 0 1 2.51 3.47Z" clip-rule="evenodd"></path><path fill="#2e3120" fill-rule="evenodd" d="M242.831 401.288c-1.76.24-3.629.5-5.469.66a5.013 5.013 0 0 1-4.89-2.68 5.013 5.013 0 0 1-.337-3.827 5.031 5.031 0 0 1 2.468-2.943 4.995 4.995 0 0 1 1.879-.549c1.59-.14 3.25-.37 5.099-.63 1.8-.25 3.77-.52 5.749-.69a31.096 31.096 0 0 1 12.828 1.12c1 .35 2 .79 2.74 1.13h.1c.84.38 1.45.65 2 .839.318.13.656.208.999.23a.327.327 0 0 0 .17 0 5.037 5.037 0 0 1 4.49 9.02 11.15 11.15 0 0 1-8.879.32c-1.05-.36-2.06-.81-2.819-1.15h-.07a19.53 19.53 0 0 0-1.94-.82 21.428 21.428 0 0 0-8.729-.63c-1.699.15-3.419.38-5.259.64l-.13-.04Z" clip-rule="evenodd"></path><path fill="#2e3120" fill-rule="evenodd" d="M275.216 409.967a4.991 4.991 0 0 1 3.595 1.322 4.99 4.99 0 0 1 1.604 3.478c.137 2.21.425 4.408.86 6.579 0 .19.07.38.1.58.39 2.18.83 4.64 1 7.16a5.016 5.016 0 0 1-4.619 5.379 5.011 5.011 0 0 1-5.379-4.619 61.775 61.775 0 0 0-.91-6.25l-.09-.5a60.082 60.082 0 0 1-1-7.929 4.996 4.996 0 0 1 4.839-5.2Z" clip-rule="evenodd"></path><path fill="#2e3120" fill-rule="evenodd" d="M19.407 75.994a5 5 0 0 1 5.199 4.8c.137 2.21.424 4.408.86 6.579 0 .19.07.38.1.58.39 2.18.83 4.64 1 7.16a5.014 5.014 0 1 1-9.999.76c-.16-2-.51-4-.92-6.25l-.09-.5a58.695 58.695 0 0 1-1-7.93 4.998 4.998 0 0 1 4.85-5.2Z" clip-rule="evenodd"></path><path fill="#2e3120" fill-rule="evenodd" d="M275.526 451.725c-.43.13-1.05.32-2.1.59-.829.21-1.479.37-1.929.46-.33.071-.664.121-1 .15a5.344 5.344 0 0 1-.82 0 6.39 6.39 0 0 1-1-.17 5.19 5.19 0 0 1-1.999-1.08 4.999 4.999 0 0 1-1.68-3.81 4.914 4.914 0 0 1 .85-2.73 5.226 5.226 0 0 1 1.249-1.29 5.72 5.72 0 0 1 .78-.46l.37-.17c.19-.09.42-.18.63-.26l1.06-.42.59-.23a4.892 4.892 0 0 1 2.5-.29 15.794 15.794 0 0 1 3.819-.55 4.998 4.998 0 0 1 4.999 5 5 5 0 0 1-4.999 5c-.452.01-.898.098-1.32.26Z" clip-rule="evenodd"></path><path fill="#2e3120" fill-rule="evenodd" d="M19.727 117.731c-.43.13-1.06.32-2.11.59-.83.21-1.48.37-1.93.46a7.31 7.31 0 0 1-1 .15 5.1 5.1 0 0 1-.82 0 6.158 6.158 0 0 1-.999-.17 5.254 5.254 0 0 1-2-1.08 4.993 4.993 0 0 1-1.679-4.019 5 5 0 0 1 2.11-3.811 6.76 6.76 0 0 1 .77-.46l.37-.17.639-.27 1-.41.59-.23a4.935 4.935 0 0 1 2.5-.29 15.855 15.855 0 0 1 3.819-.55 4.998 4.998 0 0 1 4.999 5 5 5 0 0 1-5 5 3.883 3.883 0 0 0-1.259.26Z" clip-rule="evenodd"></path><path fill="#2e3120" fill-rule="evenodd" d="M170.883 357.901a5.004 5.004 0 0 1-.88 7 8.24 8.24 0 0 0-1.44 1.34c.245.436.537.845.87 1.22a38.732 38.732 0 0 0 8.078 7.179c3.12 2 5.91 2.84 8.199 2.57.88-.1 1.45-.51 3.47-1.95.12-.09.25-.19.39-.28a14.286 14.286 0 0 1 10.158-3.17 23.365 23.365 0 0 1 9.858 3.64c1.35.82 2.63 1.71 3.78 2.52l.28.18c1.08.76 1.999 1.42 2.999 2a5.015 5.015 0 0 1 2.26 5.077 5.007 5.007 0 0 1-3.826 4.031 5.006 5.006 0 0 1-3.773-.649c-1.15-.73-2.29-1.53-3.329-2.25l-.3-.21c-1.16-.81-2.22-1.54-3.28-2.19a13.7 13.7 0 0 0-5.629-2.22c-1-.09-1.7.16-3.369 1.35l-.52.39a16.818 16.818 0 0 1-7.999 3.64c-5.539.66-10.698-1.48-14.748-4.07a49.112 49.112 0 0 1-10.258-9.059c-2.14-2.48-3.889-5.659-3.25-9.389.59-3.49 3.06-6 5.27-7.67a5 5 0 0 1 6.989.97Z" clip-rule="evenodd"></path><path fill="#2e3120" fill-rule="evenodd" d="M127.579 349.262a5.006 5.006 0 0 1 3.607-1.291 4.984 4.984 0 0 1 3.462 1.641c.55.62 1.14 1.26 1.76 1.92 4.669 5.079 10.688 11.599 13.268 19.358a5.003 5.003 0 0 1-3.218 6.143 5.001 5.001 0 0 1-6.261-2.983c-1.859-5.569-6.269-10.399-11.138-15.719l-1.829-2a5 5 0 0 1 .349-7.069Z" clip-rule="evenodd"></path><path fill="#2e3120" fill-rule="evenodd" d="M423.532 349.262a5.006 5.006 0 0 1 3.607-1.291 4.984 4.984 0 0 1 3.462 1.641c.55.62 1.14 1.26 1.75 1.92 4.679 5.079 10.698 11.599 13.278 19.358a5.003 5.003 0 0 1-3.219 6.143 4.999 4.999 0 0 1-6.26-2.983c-1.859-5.569-6.269-10.399-11.138-15.719l-1.83-2a4.993 4.993 0 0 1-1.291-3.607 5.002 5.002 0 0 1 1.641-3.462Z" clip-rule="evenodd"></path><path fill="#2e3120" fill-rule="evenodd" d="M122.75 332.223a5.006 5.006 0 0 1 1.683 3.439 5 5 0 0 1-1.243 3.621c-.83.94-1.57 1.73-2.269 2.48-1 1.11-2 2.119-3 3.369a13.12 13.12 0 0 0-2.789 5c-.49 2.14.309 4.89 1.909 8.569.19.43.4.91.63 1.4.48 1.1 1 2.29 1.44 3.37a21.112 21.112 0 0 1 1.5 5.589 11.66 11.66 0 0 1-1.21 6.72 14.35 14.35 0 0 1-5.339 5.409 5 5 0 0 1-5.259-8.499 4.575 4.575 0 0 0 1.739-1.56 1.71 1.71 0 0 0 .13-1.05 11.497 11.497 0 0 0-.85-2.929c-.35-.89-.73-1.73-1.169-2.7-.24-.54-.5-1.12-.78-1.77-1.5-3.44-3.81-9.069-2.48-14.809a22.832 22.832 0 0 1 4.739-8.999c1.17-1.45 2.65-3 3.9-4.39.63-.68 1.2-1.3 1.649-1.81a5.01 5.01 0 0 1 3.441-1.693 5 5 0 0 1 3.628 1.243Z" clip-rule="evenodd"></path><path fill="#2e3120" fill-rule="evenodd" d="M418.703 332.223a4.998 4.998 0 0 1 .44 7.06c-.83.94-1.57 1.73-2.27 2.48-1 1.11-1.999 2.119-2.999 3.369a13.122 13.122 0 0 0-2.79 5c-.49 2.14.32 4.89 1.91 8.569l.63 1.4c.48 1.1 1 2.29 1.44 3.37a21.072 21.072 0 0 1 1.499 5.589 11.58 11.58 0 0 1-1.22 6.72 14.175 14.175 0 0 1-5.329 5.409 4.988 4.988 0 0 1-5.643-.095 4.992 4.992 0 0 1-2.048-3.31 4.987 4.987 0 0 1 .091-1.984 4.988 4.988 0 0 1 2.341-3.11 4.578 4.578 0 0 0 1.74-1.56 1.71 1.71 0 0 0 .13-1.05 11.537 11.537 0 0 0-.85-2.929c-.36-.89-.73-1.73-1.17-2.7-.24-.54-.5-1.12-.78-1.77-1.499-3.44-3.809-9.069-2.479-14.809a22.832 22.832 0 0 1 4.739-8.999c1.17-1.45 2.65-3 3.899-4.39.63-.68 1.2-1.3 1.65-1.81a4.998 4.998 0 0 1 5.379-1.433 5.01 5.01 0 0 1 1.69.983Z" clip-rule="evenodd"></path><path fill="#2e3120" fill-rule="evenodd" d="M157.245 327.724a4.991 4.991 0 0 1 2.612-2.8 4.995 4.995 0 0 1 3.827-.13l.93.34a66.184 66.184 0 0 1 8.998 3.88c3.36 1.849 8.119 5.119 9.189 10.479a5.002 5.002 0 0 1-7.657 5.171 5 5 0 0 1-2.142-3.171c-.12-.57-1-1.93-4.199-3.67a57.133 57.133 0 0 0-7.569-3.23l-1.08-.4a4.993 4.993 0 0 1-3.238-4.538 4.991 4.991 0 0 1 .329-1.931Z" clip-rule="evenodd"></path><path fill="#2e3120" fill-rule="evenodd" d="M453.197 327.724a4.994 4.994 0 0 1 2.613-2.8 4.99 4.99 0 0 1 3.826-.13l.93.34a66.196 66.196 0 0 1 8.999 3.88c3.359 1.849 8.118 5.119 9.188 10.479a4.985 4.985 0 0 1-.728 3.757 5.004 5.004 0 0 1-3.171 2.142 4.985 4.985 0 0 1-3.757-.728 5.004 5.004 0 0 1-2.142-3.171c-.12-.57-1-1.93-4.199-3.67a57.133 57.133 0 0 0-7.569-3.23l-1.08-.4a4.993 4.993 0 0 1-2.801-2.629 5.012 5.012 0 0 1-.109-3.84Z" clip-rule="evenodd"></path><path fill="#2e3120" fill-rule="evenodd" d="M225.284 318.115a4.995 4.995 0 0 1 6.499-2.78c4.639 1.85 6.239 6.119 6.799 9.199.395 2.647.482 5.332.26 7.999v.22a29 29 0 0 1-3.34 12.809 17.469 17.469 0 0 1-11.748 8.54c-2.389.54-4.909.86-7.119 1.14l-2.079.27c-2.498.26-4.948.865-7.279 1.799a15.53 15.53 0 0 0-5.119 3.94c-.86.93-1.69 1.93-2.59 3l-.4.48c-.77.95-1.6 2-2.459 3a5.004 5.004 0 0 1-7.539-6.58c.74-.84 1.45-1.72 2.219-2.67l.43-.52c.91-1.12 1.91-2.329 3-3.499a25.42 25.42 0 0 1 8.459-6.32 37.138 37.138 0 0 1 9.908-2.55l2.64-.34c2.059-.26 3.859-.49 5.739-.91a7.551 7.551 0 0 0 5.279-3.779 18.99 18.99 0 0 0 1.999-8.37 26.568 26.568 0 0 0-.09-5.899 4.585 4.585 0 0 0-.499-1.52c-.1-.15-.14-.17-.18-.18a4.997 4.997 0 0 1-2.79-6.479Z" clip-rule="evenodd"></path><path fill="#2e3120" fill-rule="evenodd" d="M228.753 362.681a4.998 4.998 0 0 1 6.449-2.88c4.19 1.6 9.169 3.54 12.508 9.099a4.997 4.997 0 0 1-1.719 6.86 5.002 5.002 0 0 1-6.859-1.72c-1.39-2.32-3.26-3.28-7.499-4.9a4.988 4.988 0 0 1-2.778-2.633 4.993 4.993 0 0 1-.102-3.826Z" clip-rule="evenodd"></path><path fill="#2e3120" fill-rule="evenodd" d="M254.559 327.834a5 5 0 0 1 6.499 2.78c1.7 4.259 1.63 8.759 1.57 12.099v1.13c0 3.809.19 6.299 1.55 8.489a5 5 0 0 1-8.489 5.279c-2.999-4.849-3.089-9.999-3.059-13.858v-1c0-3.68.07-6.12-.84-8.4a4.994 4.994 0 0 1 1.132-5.45 4.998 4.998 0 0 1 1.637-1.069Z" clip-rule="evenodd"></path><path fill="#2e3120" d="M0 258.799v-33.817a4.71 4.71 0 0 1 1.17.15 5 5 0 0 1 3.64 6.06c-1.49 5.949-1.24 12.558.92 17.678 2.059 4.9 5.788 8.389 11.847 9.149a5.02 5.02 0 0 1 4.36 5.6 5.018 5.018 0 0 1-5.6 4.36A23.719 23.719 0 0 1 0 258.799Z"></path><path fill="#2e3120" fill-rule="evenodd" d="M9.299 278.258A16.865 16.865 0 0 0 0 285.857v24.778c.152.609.173 1.243.06 1.86 0 .2 0 .39-.06.58v.82a4.996 4.996 0 0 0 4.69 4.487 5 5 0 0 0 5.168-3.927c.83-4.12-.45-7.63-1.34-9.999l-.2-.54c-.88-2.29-1.32-3.54-1.32-4.94 0-6.399 1.79-9.919 5.66-11.289a5.001 5.001 0 0 0 .444-9.16 4.995 4.995 0 0 0-3.763-.269h-.04Z" clip-rule="evenodd"></path><path fill="#2e3120" d="M0 349.042v-15.179a23.776 23.776 0 0 1 7.769 8.29 23.388 23.388 0 0 1 2.82 15.818c-.14.74-.31 1.47-.45 2.08l-.07.3c-.16.72-.29 1.29-.38 1.84a6.001 6.001 0 0 0 0 2.48 12.056 12.056 0 0 0 2.799 4.899 56.37 56.37 0 0 0 4.45 4.4c.306.28.616.57.93.87a5 5 0 0 1-6.82 7.299l-.82-.75A67.068 67.068 0 0 1 4.9 376.05a22.124 22.124 0 0 1-4.9-8.939v-7.56c.11-.53.22-1 .32-1.49l.08-.32c.14-.63.27-1.17.37-1.72a12.67 12.67 0 0 0-.77-6.979Z"></path><path fill="#2e3120" fill-rule="evenodd" d="M23.306 186.035a4.999 4.999 0 0 1-1.11 7 24.417 24.417 0 0 1-3.939 2.199l-.78.37c-.88.4-1.56.72-2.21 1.09a4.544 4.544 0 0 0-1.17.83c.12 2.19-.147 4.383-.79 6.48a10.408 10.408 0 0 1-5.588 5.999 5.002 5.002 0 0 1-4.32-8.999c.136-.057.264-.131.38-.22l.09-.06v-.06c.097-.298.151-.607.16-.92 0-.54.06-1.2 0-2.1 0-5.379 3.66-8.209 6.25-9.669 1-.59 2.189-1.12 3.109-1.54l.56-.26a15.141 15.141 0 0 0 2.31-1.25 4.987 4.987 0 0 1 3.757-.924 4.992 4.992 0 0 1 3.292 2.034Z" clip-rule="evenodd"></path><path fill="#2e3120" d="M0 407.077v-20.678a5 5 0 0 1 2.63 2.77 17.217 17.217 0 0 0 1.84 3.36c.34.54.74 1.149 1.18 1.879a16.912 16.912 0 0 1 2.809 9.06 5.001 5.001 0 0 1-5.897 4.919A5.002 5.002 0 0 1 0 407.077Z"></path><path fill="#2e3120" d="M0 474.062v-56.095a5.002 5.002 0 0 1 6.534.464A4.999 4.999 0 0 1 7 424.966c-2.22 3-3 5.88-3 10.099a23.003 23.003 0 0 0 .83 6.81 28.477 28.477 0 0 0 2.94 6.349c2.2 3.78 2.41 8.619 2 12.549a28.877 28.877 0 0 1-3.47 11.279 4.997 4.997 0 0 1-6.3 2.01Z"></path><path fill="#2e3120" d="M13.458 175.987a4.998 4.998 0 0 0 4.999-5 5.002 5.002 0 0 0-5-5 51.95 51.95 0 0 1-11.147-1.5c-.78-.16-1.55-.32-2.31-.46v10.2h.17a62.153 62.153 0 0 0 13.288 1.76Z"></path><path fill="#2e3120" d="M4.09 120.52c-.16-1.74-.24-3.499-.33-5.369v-.27c-.08-1.75-.16-3.61-.32-5.48A38.668 38.668 0 0 0 .59 96.992c-.11-.24-.32-.65-.59-1.17v30.068a4.999 4.999 0 0 0 4.09-5.37Z"></path><path fill="#2e3120" d="M3.09 68.085h.06a29.7 29.7 0 0 0 2.849 1.18 11.117 11.117 0 0 0 8.849-.27 5.026 5.026 0 0 0-4.48-9 .34.34 0 0 1-.17 0 3.231 3.231 0 0 1-1-.23c-.56-.19-1.17-.46-2-.84h-.09c-.749-.34-1.739-.78-2.749-1.13-1.42-.465-2.879-.8-4.359-1v10.14c.386.088.766.199 1.14.33.52.18 1.09.43 1.95.82Z"></path><path fill="#2e3120" d="M6.749 25.218a5 5 0 0 0 1.61-6.88c-1.36-2.19-1.59-4.68-1.56-8.489V8.72A38.86 38.86 0 0 0 6.259 0H0v23.828a5 5 0 0 0 6.749 1.39Z"></path><path fill="#2e3120" d="M499.921 224.982v33.817a27.356 27.356 0 0 1-3.49-5.999c-3.15-7.48-3.31-16.349-1.4-23.998a4.995 4.995 0 0 1 1.781-2.76 4.995 4.995 0 0 1 3.109-1.06Z"></path><path fill="#2e3120" d="M499.921 285.837c-2.33 4-3 8.839-3 13.139a22.849 22.849 0 0 0 2 8.389l.25.67c.343.841.621 1.707.83 2.59l-.08-24.788Z"></path><path fill="#2e3120" d="M499.92 312.835v1.29a5.063 5.063 0 0 1 0-1.29Z"></path><path fill="#2e3120" d="M499.92 333.863a20.14 20.14 0 0 0-4.459-2.13 5.005 5.005 0 0 0-5.505 1.369 4.988 4.988 0 0 0-1.238 3.713 4.996 4.996 0 0 0 1.816 3.467 5.021 5.021 0 0 0 1.767.931 12.622 12.622 0 0 1 6.689 5.879c.358.643.669 1.312.93 2v-15.229Z"></path><path fill="#2e3120" d="M499.92 359.541v7.58c0-.07 0-.13-.05-.19a16.004 16.004 0 0 1-.13-6.4c.05-.34.12-.67.18-.99Z"></path><path fill="#2e3120" d="M499.92 386.409v20.668a4.998 4.998 0 0 1-1.54-3.609 6.996 6.996 0 0 0-1.359-3.86c-.17-.29-.39-.63-.64-1a32.763 32.763 0 0 1-3.17-5.819 5.002 5.002 0 0 1 3.826-6.726 5 5 0 0 1 2.883.366v-.02Z"></path><path fill="#2e3120" d="M499.921 417.967v56.095a4.998 4.998 0 0 1-2.33-7.169 19.251 19.251 0 0 0 2.11-7.21c.33-3.11-.08-5.389-.7-6.459a38.835 38.835 0 0 1-3.89-8.53 33.39 33.39 0 0 1-1.23-9.649c0-5.849 1.21-10.999 5-16.059a4.999 4.999 0 0 1 1.04-1.019Z"></path><path fill="#2e3120" d="M499.92 163.987v10.199c-.49-.11-1.1-.22-1.79-.35a67.695 67.695 0 0 1-8.588-2.07c-3.69-1.27-8.899-3.809-10.479-9.479a4.997 4.997 0 0 1 3.436-6.293 4.98 4.98 0 0 1 1.981-.142 5.009 5.009 0 0 1 4.212 3.755c.16.54.92 1.61 4.089 2.69a47.28 47.28 0 0 0 6.499 1.57l.64.12Z"></path><path fill="#2e3120" fill-rule="evenodd" d="M499.92 95.832v30.058a4.996 4.996 0 0 1-5.318-2.598 5 5 0 0 1-.551-1.872c-.18-2-.27-3.999-.36-5.819v-.2c-.08-1.81-.15-3.49-.29-5.16a28.692 28.692 0 0 0-2.059-9.249c-.06-.11-.32-.64-.81-1.51-.49-.87-1.15-2-1.8-3.07-.48-.77-.9-1.4-1.24-1.86a5.101 5.101 0 0 1-1.48-1 5.008 5.008 0 0 1-1.468-3.54 5 5 0 0 1 1.468-3.539 5.293 5.293 0 0 1 4.32-1.51 5.6 5.6 0 0 1 2.489.91 8.834 8.834 0 0 1 1.91 1.74 30.301 30.301 0 0 1 2.48 3.52 74.415 74.415 0 0 1 2.709 4.7Z" clip-rule="evenodd"></path><path fill="#2e3120" d="M499.92 56.766v10.17a23.844 23.844 0 0 0-7.589-.3c-1.7.15-3.419.38-5.259.64h-.13c-1.76.24-3.629.5-5.469.66a5.019 5.019 0 1 1-.88-10c1.59-.14 3.249-.37 5.099-.63 1.8-.25 3.77-.52 5.749-.69a37.064 37.064 0 0 1 8.479.15Z"></path><path fill="#2e3120" d="m499.921 23.828-.14-.21c-3-4.85-3.09-10-3.06-13.859v-1c0-3.68.07-6.12-.84-8.399a2.276 2.276 0 0 1-.12-.34h4.16v23.808Z"></path><path fill="#2e3120" fill-rule="evenodd" d="M276.956 349.572a4.997 4.997 0 0 1 5.879 3.92c0 .15.06.31.1.46.84 4.199 2.069 10.319-.54 16.208-3.3 7.45-9.239 12.139-16.068 14.939a5.007 5.007 0 0 1-3.827-.019 5.01 5.01 0 0 1-2.692-2.721 5.004 5.004 0 0 1 2.74-6.519c4.999-2.06 8.679-5.16 10.708-9.729 1.21-2.73.74-5.84-.22-10.659a4.999 4.999 0 0 1 3.92-5.88Z" clip-rule="evenodd"></path><path fill="#2e3120" fill-rule="evenodd" d="M21.127 15.579a4.999 4.999 0 0 1 5.869 3.92c0 .15.07.31.1.46.84 4.2 2.07 10.319-.54 16.208-3.3 7.45-9.229 12.14-16.068 14.939a5 5 0 1 1-3.779-9.26c5-2.06 8.679-5.159 10.708-9.729 1.21-2.73.74-5.84-.22-10.659a5 5 0 0 1 3.93-5.88Z" clip-rule="evenodd"></path><path fill="#2e3120" fill-rule="evenodd" d="M260.208 283.127a5 5 0 0 1 6.059 3.64c.062.194.172.37.32.51.455.515.953.991 1.49 1.42 3 2.55 4.319 6.289 5.089 8.419l.06.15a28.911 28.911 0 0 1 1.44 6.85c.07.61.13 1.18.18 1.7.14 1.379.25 2.529.48 3.719a51.199 51.199 0 0 0 2.719 9.999 5.002 5.002 0 0 1-6.559 6.517 5.002 5.002 0 0 1-2.699-2.717 61.2 61.2 0 0 1-3.28-11.999c-.32-1.67-.5-3.45-.65-4.95 0-.44-.079-.859-.129-1.249a18.905 18.905 0 0 0-.9-4.53c-.91-2.49-1.53-3.77-2.29-4.43l-.13-.11a13.68 13.68 0 0 1-4.839-6.999 4.998 4.998 0 0 1 3.639-5.94Z" clip-rule="evenodd"></path><path fill="#2e3120" fill-rule="evenodd" d="M113.442 313.975c-6.219 0-11.148 4.71-13.188 11.869a5 5 0 1 1-9.618-2.74c2.78-9.739 10.558-19.128 22.806-19.128a4.998 4.998 0 0 1 4.999 4.999 5.002 5.002 0 0 1-4.999 5Z" clip-rule="evenodd"></path><path fill="#2e3120" fill-rule="evenodd" d="M395.937 319.724c-6.219 0-11.148 4.71-13.188 11.869a4.998 4.998 0 0 1-6.179 3.44 5 5 0 0 1-3.44-6.179c2.78-9.74 10.559-19.129 22.807-19.129a4.999 4.999 0 0 1 0 9.999Z" clip-rule="evenodd"></path><path fill="#2e3120" fill-rule="evenodd" d="M104.603 277.488a5.002 5.002 0 0 1 6.829-1.85c4.25 2.45 9.079 3.86 14.448 5 1.82.4 3.819.779 5.879 1.169 3.619.68 7.449 1.41 10.938 2.32a4.999 4.999 0 0 1 3.58 6.1 5.001 5.001 0 0 1-6.099 3.579c-3.25-.849-6.379-1.439-9.699-2.059-2.129-.4-4.339-.82-6.699-1.33a59.028 59.028 0 0 1-17.327-6.11 4.997 4.997 0 0 1-1.85-6.819Z" clip-rule="evenodd"></path><path fill="#2e3120" fill-rule="evenodd" d="M391.557 282.777a5.01 5.01 0 0 1 3.034-2.335 4.996 4.996 0 0 1 3.795.496c4.25 2.439 9.079 3.859 14.448 4.999 1.82.39 3.819.77 5.879 1.16 3.62.69 7.449 1.41 10.938 2.32a4.982 4.982 0 0 1 3.053 2.308 5.009 5.009 0 0 1 .527 3.791 5.014 5.014 0 0 1-2.308 3.054 5.007 5.007 0 0 1-3.791.526c-3.25-.85-6.379-1.44-9.699-2.06-2.129-.4-4.339-.82-6.699-1.33a59.026 59.026 0 0 1-17.327-6.109 5 5 0 0 1-1.85-6.82Z" clip-rule="evenodd"></path><path fill="#2e3120" fill-rule="evenodd" d="M165.414 297.136a5.02 5.02 0 0 1 1.478 1.282 5.007 5.007 0 0 1 .381 5.558l-.11.2c-1.689 2.999-4.199 7.349-9.918 8.999-2.469.657-5.05.776-7.569.35l-1.29-.18a15.46 15.46 0 0 0-3.249-.26 4.996 4.996 0 0 0-3.51 1.27 5.717 5.717 0 0 0-1.189 3.82 5.006 5.006 0 0 1-5.19 4.809 5.002 5.002 0 0 1-4.809-5.189 15.553 15.553 0 0 1 3.91-10.29 14.804 14.804 0 0 1 10.168-4.399 28.012 28.012 0 0 1 5.689.39l.77.11a8.326 8.326 0 0 0 3.479 0c1.53-.45 2.29-1.35 4.14-4.57a4.99 4.99 0 0 1 3.015-2.365 5.002 5.002 0 0 1 3.804.465Z" clip-rule="evenodd"></path><path fill="#2e3120" fill-rule="evenodd" d="M461.366 297.136a4.995 4.995 0 0 1 2.485 4.986 5.005 5.005 0 0 1-.625 1.854l-.11.2c-1.69 2.999-4.199 7.349-9.918 8.999-2.469.657-5.05.776-7.569.35l-1.29-.18a15.463 15.463 0 0 0-3.25-.26 4.995 4.995 0 0 0-3.509 1.27 5.723 5.723 0 0 0-1.19 3.82 5 5 0 0 1-8.668 3.21 4.998 4.998 0 0 1-1.33-3.59 15.552 15.552 0 0 1 3.909-10.29 14.808 14.808 0 0 1 10.169-4.399c1.904-.064 3.81.067 5.689.39l.77.11a8.326 8.326 0 0 0 3.479 0c1.53-.45 2.29-1.35 4.139-4.57a5.019 5.019 0 0 1 1.272-1.483 5.002 5.002 0 0 1 5.547-.417Z" clip-rule="evenodd"></path><path fill="#2e3120" fill-rule="evenodd" d="M185.43 294.476c1.326 0 2.598.527 3.535 1.465a4.997 4.997 0 0 1 1.465 3.535v2.54a26.19 26.19 0 0 0 .08 4c.2 1.709.649 2.389 1.149 2.789a25.829 25.829 0 0 0 4.86 2.8l.38.19a39.48 39.48 0 0 1 6.239 3.53c4.159 3 5.879 7.329 7.118 10.429l.34.83a5 5 0 1 1-9.258 3.78l-.07-.16c-1.55-3.8-2.25-5.51-3.999-6.8a32.474 32.474 0 0 0-5-2.74l-.14-.07a35.71 35.71 0 0 1-6.699-3.949 13.646 13.646 0 0 1-4.859-9.45 44.351 44.351 0 0 1-.14-6.239v-1.48a5 5 0 0 1 4.999-5Z" clip-rule="evenodd"></path><path fill="#2e3120" fill-rule="evenodd" d="M207.797 273.458a5 5 0 0 1 6.649 2.39c1.929 4.09 5.449 7.309 10.088 9.999a78.823 78.823 0 0 0 15.348 6.27 27.653 27.653 0 0 1 6.629 2.999c2.199 1.45 5.409 4.29 5.409 8.86a5.011 5.011 0 0 1-1.38 3.57 5.005 5.005 0 0 1-5.422 1.215 5.013 5.013 0 0 1-3.197-4.545 4.053 4.053 0 0 0-.92-.75 17.834 17.834 0 0 0-4.159-1.84 87.802 87.802 0 0 1-17.297-7.13c-5.669-3.259-11.048-7.799-14.148-14.388a5.002 5.002 0 0 1 2.4-6.65Z" clip-rule="evenodd"></path><path fill="#2e3120" fill-rule="evenodd" d="M240.872 254.23a4.998 4.998 0 0 1 6.299 3.199c1.339 4.08 2.499 8.2 3.579 12.259a4.998 4.998 0 1 1-9.658 2.58c-1.06-3.999-2.17-7.899-3.42-11.739a5 5 0 0 1 3.2-6.299Z" clip-rule="evenodd"></path><path fill="#2e3120" fill-rule="evenodd" d="M159.465 268.978a4.995 4.995 0 0 1 5.509-4.429l.47.05c3.372.293 6.715.854 9.998 1.68 3.6 1 8.349 2.919 10.828 7.259a5.012 5.012 0 0 1 .497 3.801 5.016 5.016 0 0 1-2.336 3.039 5.01 5.01 0 0 1-6.839-1.84c-.4-.7-1.72-1.73-4.809-2.58a55.699 55.699 0 0 0-8.589-1.4h-.3a5.004 5.004 0 0 1-4.429-5.58Z" clip-rule="evenodd"></path><path fill="#2e3120" fill-rule="evenodd" d="M455.417 268.978a5 5 0 0 1 5.509-4.429l.47.05c3.373.293 6.716.854 9.999 1.68 3.599 1 8.348 2.919 10.828 7.259a5.01 5.01 0 0 1-3.691 7.466 5.005 5.005 0 0 1-4.988-2.466c-.4-.7-1.719-1.73-4.809-2.58a55.686 55.686 0 0 0-8.588-1.4h-.3a5 5 0 0 1-4.43-5.58Z" clip-rule="evenodd"></path><path fill="#2e3120" fill-rule="evenodd" d="M109.603 245.21a5.004 5.004 0 0 1-1.39 6.93c-.469.4-.844.899-1.1 1.46a19.87 19.87 0 0 0-1.42 3.689c-.41 1.36-.75 2.77-1.11 4.24 0 .15-.08.3-.11.45-.38 1.53-.809 3.24-1.319 4.69a5.013 5.013 0 0 1-2.575 2.835 5.012 5.012 0 0 1-1.894.473 5.015 5.015 0 0 1-3.604-1.294 4.998 4.998 0 0 1-1.346-5.394c.32-.87.62-2.07 1-3.69l.12-.47c.35-1.43.75-3.089 1.24-4.709a29.726 29.726 0 0 1 2.19-5.55c1.023-2 2.524-3.717 4.369-4.999a5.008 5.008 0 0 1 3.752-.772c.645.125 1.26.375 1.809.737.548.363 1.02.83 1.388 1.374Z" clip-rule="evenodd"></path><path fill="#2e3120" fill-rule="evenodd" d="M405.555 245.21a5 5 0 0 1-1.39 6.93 4.22 4.22 0 0 0-1.099 1.46 19.8 19.8 0 0 0-1.42 3.689c-.41 1.36-.76 2.77-1.11 4.24 0 .15-.08.3-.11.45-.38 1.53-.81 3.24-1.32 4.69a5.002 5.002 0 0 1-9.234.445 5.005 5.005 0 0 1-.184-3.825c.32-.87.62-2.07 1-3.69l.12-.47c.35-1.43.749-3.089 1.239-4.709a29.741 29.741 0 0 1 2.19-5.55c1.024-2 2.525-3.717 4.369-4.999a5.013 5.013 0 0 1 3.753-.772 5.01 5.01 0 0 1 3.196 2.111Z" clip-rule="evenodd"></path><path fill="#2e3120" fill-rule="evenodd" d="M153.335 228.362a4.998 4.998 0 0 1-.779 6.999 18.121 18.121 0 0 1-8.329 3.47 50.218 50.218 0 0 1-7.449.6l-6.759.18c-5.489.15-10.998.3-16.527.35a5.002 5.002 0 0 1-5.049-4.95 4.996 4.996 0 0 1 4.949-5.049c5.409-.05 10.818-.2 16.257-.35l6.889-.18c2.008.001 4.014-.15 5.999-.45a8.48 8.48 0 0 0 3.82-1.42 4.997 4.997 0 0 1 6.978.8Z" clip-rule="evenodd"></path><path fill="#2e3120" fill-rule="evenodd" d="M446.289 225.362a5.003 5.003 0 0 1-.78 6.999 18.121 18.121 0 0 1-8.329 3.47 50.084 50.084 0 0 1-7.449.6l-6.759.18c-5.489.15-10.998.3-16.527.35a4.993 4.993 0 0 1-4.65-3.04 4.995 4.995 0 0 1-.038-3.827 4.98 4.98 0 0 1 1.068-1.632 4.987 4.987 0 0 1 3.52-1.5c5.419-.05 10.818-.2 16.257-.35l6.889-.18a39.756 39.756 0 0 0 5.999-.45 8.468 8.468 0 0 0 3.82-1.42 4.996 4.996 0 0 1 6.979.8Z" clip-rule="evenodd"></path><path fill="#2e3120" fill-rule="evenodd" d="M134.648 249.31a4.993 4.993 0 0 1 5.419 1.229 4.967 4.967 0 0 1 1.04 1.651c.54 1.43 1 3.07 1.46 4.499.16.51.3 1 .43 1.43.412 1.491.992 2.93 1.73 4.29a5 5 0 0 1-3.557 7.516 5.012 5.012 0 0 1-5.022-2.376 29.418 29.418 0 0 1-2.689-6.46c-.22-.69-.41-1.33-.58-1.91-.39-1.28-.71-2.36-1.11-3.409a5.017 5.017 0 0 1 .101-3.827 5.004 5.004 0 0 1 2.778-2.633Z" clip-rule="evenodd"></path><path fill="#2e3120" fill-rule="evenodd" d="M424.102 257.879a5.012 5.012 0 0 1 1.923-.33 5.017 5.017 0 0 1 3.496 1.559 5.004 5.004 0 0 1 1.04 1.651c.54 1.42 1 3.07 1.46 4.5.16.51.3 1 .43 1.42.41 1.491.99 2.931 1.729 4.289.683 1.138.886 2.5.565 3.788a5 5 0 0 1-9.143 1.362 29.547 29.547 0 0 1-2.69-6.47c-.22-.689-.41-1.319-.58-1.909-.39-1.28-.709-2.36-1.109-3.41a4.998 4.998 0 0 1 2.879-6.45Z" clip-rule="evenodd"></path><path fill="#2e3120" fill-rule="evenodd" d="M476.594 292.057a5.002 5.002 0 0 1 6.459 2.879c.54 1.43 1 3.07 1.459 4.5.16.51.3 1 .43 1.43a20.42 20.42 0 0 0 1.73 4.29 4.999 4.999 0 0 1-5.505 7.42 4.997 4.997 0 0 1-3.073-2.281 29.365 29.365 0 0 1-2.69-6.459c-.22-.69-.41-1.33-.58-1.91-.39-1.28-.71-2.36-1.11-3.41a4.998 4.998 0 0 1 2.88-6.459Z" clip-rule="evenodd"></path><path fill="#2e3120" fill-rule="evenodd" d="M173.102 222.572a4.998 4.998 0 0 1 6.999 1.29 43.623 43.623 0 0 0 3 3.7l.56.64c1 1.17 2.159 2.48 3.209 3.819 2.46 3.15 5.129 7.38 5.129 12.669a5 5 0 1 1-9.998 0c0-1.839-.92-3.829-3-6.509-.859-1.11-1.799-2.17-2.819-3.35l-.62-.7a51.481 51.481 0 0 1-3.669-4.609 5 5 0 0 1 1.209-6.95Z" clip-rule="evenodd"></path><path fill="#2e3120" fill-rule="evenodd" d="M469.055 222.572a4.998 4.998 0 0 1 6.949 1.29 43.807 43.807 0 0 0 2.999 3.7l.55.64c1 1.17 2.17 2.479 3.22 3.819 2.459 3.15 5.129 7.38 5.129 12.669a5.002 5.002 0 0 1-8.534 3.536 5 5 0 0 1-1.464-3.536c0-1.839-.92-3.829-3-6.509-.86-1.11-1.8-2.17-2.819-3.35-.2-.23-.41-.46-.61-.7a49.872 49.872 0 0 1-3.68-4.609 5.003 5.003 0 0 1 1.26-6.95Z" clip-rule="evenodd"></path><path fill="#2e3120" fill-rule="evenodd" d="M220.825 218.242a5.003 5.003 0 0 1 5.366 1.448c.433.494.763 1.07.973 1.692a22.898 22.898 0 0 1-2 19.559c-2.999 5.259-7.759 9.629-11.998 13.299a5 5 0 0 1-6.579-7.52c4.229-3.709 7.769-7.119 9.889-10.779a12.926 12.926 0 0 0 1.159-11.359 5.009 5.009 0 0 1 1.482-5.378c.5-.43 1.081-.757 1.708-.962Z" clip-rule="evenodd"></path><path fill="#2e3120" fill-rule="evenodd" d="M263.658 230.402a5 5 0 0 1-3.16 6.319c-.763.293-1.511.627-2.239 1l-.7.33a21.51 21.51 0 0 1-4.619 1.64c-2.1.44-4.57.81-6.829 1.15-1.4.21-2.72.41-3.82.6a5 5 0 0 1-1.739-9.84c1.729-.31 3.239-.53 4.669-.74 1.92-.28 3.689-.539 5.679-.999.848-.215 1.67-.523 2.45-.92l.489-.23a32.004 32.004 0 0 1 3.5-1.47 5 5 0 0 1 6.319 3.16Z" clip-rule="evenodd"></path><path fill="#2e3120" fill-rule="evenodd" d="M269.887 253.78c-.5-.4-1.79-1-5.119-.75a5.006 5.006 0 0 1-3.638-1.217 5.014 5.014 0 0 1 1.051-8.268 4.988 4.988 0 0 1 1.887-.514c4.249-.3 8.638.179 12.058 2.899 3.419 2.72 4.849 7.06 5.169 11.569a86.557 86.557 0 0 1-.42 16.639 4.992 4.992 0 0 1-1.791 3.511 5.003 5.003 0 0 1-5.688.491 4.997 4.997 0 0 1-2.439-5.162c.59-4.88.711-9.806.36-14.709-.22-3.239-1.03-4.179-1.43-4.489Z" clip-rule="evenodd"></path><path fill="#2e3120" fill-rule="evenodd" d="M31.215 45.916a5 5 0 0 1 6.32-3.16 22.577 22.577 0 0 1 12.227 10.42 23.39 23.39 0 0 1 2.82 15.818c-.14.74-.31 1.47-.45 2.08 0 .11 0 .2-.07.3-.16.71-.29 1.29-.38 1.84a6.078 6.078 0 0 0 0 2.49 12.09 12.09 0 0 0 2.8 4.89 56.45 56.45 0 0 0 4.449 4.4l.93.86a5.003 5.003 0 0 1-6.82 7.319l-.82-.76a67.09 67.09 0 0 1-5.328-5.34 21.998 21.998 0 0 1-4.9-9.08 15.998 15.998 0 0 1-.13-6.399c.15-.89.34-1.74.5-2.47 0-.11 0-.22.08-.33.14-.62.27-1.16.37-1.71a13.35 13.35 0 0 0-1.7-8.929 12.669 12.669 0 0 0-6.688-5.88 4.998 4.998 0 0 1-3.21-6.359Z" clip-rule="evenodd"></path><path fill="#2e3120" fill-rule="evenodd" d="M328.168 45.916a4.998 4.998 0 0 1 6.319-3.16 22.58 22.58 0 0 1 12.228 10.42 23.39 23.39 0 0 1 2.819 15.818c-.14.74-.31 1.47-.45 2.08 0 .11-.05.2-.07.3-.17.71-.29 1.29-.38 1.84a6.106 6.106 0 0 0 0 2.49 12.093 12.093 0 0 0 2.8 4.89 56.397 56.397 0 0 0 4.449 4.4l.93.86a5 5 0 1 1-6.819 7.319l-.82-.76a67.138 67.138 0 0 1-5.329-5.34 21.991 21.991 0 0 1-4.899-9.08 16.002 16.002 0 0 1-.13-6.399c.14-.89.34-1.74.5-2.47 0-.11.05-.22.08-.33.14-.62.27-1.16.37-1.71.5-3.083-.102-6.245-1.7-8.929a12.668 12.668 0 0 0-6.689-5.88 5 5 0 0 1-3.209-6.359Z" clip-rule="evenodd"></path><path fill="#2e3120" fill-rule="evenodd" d="M55.561 30.578a4.999 4.999 0 0 1 5.809 4c.235 1.484.332 2.986.29 4.489v3.33c.01.48.094.955.25 1.41a18.836 18.836 0 0 1 5.5 3.51 10.43 10.43 0 0 1 2.999 7.629 5 5 0 0 1-9.999 0 3.23 3.23 0 0 0 0-.44.231.231 0 0 0 0-.1v-.05a3.85 3.85 0 0 0-.76-.54 20.801 20.801 0 0 0-1.87-.95c-4.879-2.28-5.828-6.84-5.998-9.82-.08-1.18-.07-2.46-.05-3.46v-.63a14.665 14.665 0 0 0-.13-2.619 5 5 0 0 1 3.959-5.76Z" clip-rule="evenodd"></path><path fill="#2e3120" fill-rule="evenodd" d="M236.032 21.578a4.998 4.998 0 0 1 5.809 4 24.36 24.36 0 0 1 .29 4.49v3.33c.01.48.094.955.25 1.41a18.839 18.839 0 0 1 5.499 3.509 10.421 10.421 0 0 1 3.08 7.68 5.002 5.002 0 0 1-4.999 4.999 4.998 4.998 0 0 1-4.999-5 3.589 3.589 0 0 0 0-.44.24.24 0 0 0 0-.1v-.05a3.87 3.87 0 0 0-.76-.54c-.47-.28-1.06-.57-1.87-.95-4.879-2.28-5.829-6.839-5.999-9.819-.08-1.18-.07-2.46-.05-3.46v-.63a14.712 14.712 0 0 0-.13-2.62 4.998 4.998 0 0 1 3.879-5.809Z" clip-rule="evenodd"></path><path fill="#2e3120" fill-rule="evenodd" d="M342.545 21.838a5.006 5.006 0 0 1 3.811-.36 5.005 5.005 0 0 1 2.948 2.44 33.064 33.064 0 0 1 2.2 5.71l.34 1.14c.42 1.37.76 2.53 1.19 3.63 1.069 2.71 1.869 3.129 2.829 3.259 2.905.242 5.745.993 8.389 2.22a12.933 12.933 0 0 1 6.379 7.93 4.999 4.999 0 1 1-9.539 3 3 3 0 0 0-1.499-2.09 16.353 16.353 0 0 0-5-1.16c-6.499-.86-9.348-5.74-10.828-9.53-.59-1.52-1.09-3.17-1.51-4.57-.09-.32-.19-.63-.27-.91a23.56 23.56 0 0 0-1.489-4 5 5 0 0 1 2.049-6.709Z" clip-rule="evenodd"></path><path fill="#2e3120" fill-rule="evenodd" d="M74.748 25.318a4.999 4.999 0 0 1 7.059.29c4.32 4.69 6.049 6.39 9.349 6.39.68 0 1.45 0 2.43-.06h.139c.9 0 2-.08 3-.08a16.724 16.724 0 0 1 7.838 1.72c4 2.13 5.749 5.999 6.829 8.619.29.71.56 1.42.8 2.06l.06.16c.22.6.43 1.15.64 1.68.332.909.754 1.783 1.26 2.61a5.001 5.001 0 0 1-8.339 5.519 24.773 24.773 0 0 1-2.22-4.43c-.249-.64-.489-1.28-.699-1.86a1.168 1.168 0 0 1-.07-.17c-.24-.65-.46-1.24-.69-1.8-1-2.44-1.71-3.26-2.31-3.58a7.108 7.108 0 0 0-3.17-.53c-.8 0-1.63 0-2.589.08h-.08c-.93 0-2 .09-3.1.06-7.758-.14-12.228-4.999-15.897-8.999l-.57-.62a5 5 0 0 1 .33-7.059Z" clip-rule="evenodd"></path><path fill="#2e3120" fill-rule="evenodd" d="M383.679 29.178a4.997 4.997 0 0 1 6.928 1.37c2.35 3.49 3.05 4.33 4.85 4.76.43.11.939.2 1.619.33h.11c.61.11 1.37.24 2.13.42a14.061 14.061 0 0 1 5.599 2.439 11.995 11.995 0 0 1 4.149 7.28c.11.51.2 1 .29 1.44v.1c.08.41.14.75.21 1.08.085.464.216.92.39 1.359a5.003 5.003 0 1 1-9.108 4.14 16.516 16.516 0 0 1-1.06-3.45c-.1-.45-.18-.9-.25-1.28v-.12c-.08-.43-.15-.79-.22-1.13a5.831 5.831 0 0 0-.4-1.33.19.19 0 0 0-.1-.17 4.614 4.614 0 0 0-1.69-.59c-.53-.12-1.079-.22-1.759-.35-.64-.12-1.44-.26-2.2-.45-5.799-1.4-8.479-5.43-10.488-8.439l-.31-.48a4.996 4.996 0 0 1 1.31-6.93Z" clip-rule="evenodd"></path><path fill="#2e3120" fill-rule="evenodd" d="M92.505 15a5 5 0 0 1 5-5 41.057 41.057 0 0 1 14.077 2.26 4.993 4.993 0 0 1 3.028 2.479 4.995 4.995 0 0 1-2.277 6.834 5.002 5.002 0 0 1-3.91.166A31.454 31.454 0 0 0 97.504 20a4.999 4.999 0 0 1-4.999-5Z" clip-rule="evenodd"></path><path fill="#2e3120" fill-rule="evenodd" d="M378.449 14.159a4.998 4.998 0 0 1 5-5 71.506 71.506 0 0 1 24.486 3.93 5.003 5.003 0 0 1 3.164 6.324 5 5 0 0 1-6.324 3.165 61.614 61.614 0 0 0-21.366-3.42 5 5 0 0 1-4.96-5Z" clip-rule="evenodd"></path><path fill="#2e3120" fill-rule="evenodd" d="M413.934 89.493a5.003 5.003 0 0 1 4.999-5c4.762-.064 9.498.7 13.998 2.26a5 5 0 0 1-3.16 9.48 31.451 31.451 0 0 0-10.838-1.74 5 5 0 0 1-4.999-5Z" clip-rule="evenodd"></path><path fill="#2e3120" fill-rule="evenodd" d="M38.154 97.322a4.997 4.997 0 0 1 6.469 2.88 17.448 17.448 0 0 0 1.84 3.35c.34.54.74 1.15 1.18 1.88a16.907 16.907 0 0 1 2.809 9.059 5 5 0 0 1-9.999 0 7 7 0 0 0-1.36-3.86c-.17-.29-.39-.63-.64-1a32.553 32.553 0 0 1-3.169-5.829 5.004 5.004 0 0 1 1.216-5.436 5 5 0 0 1 1.654-1.044Z" clip-rule="evenodd"></path><path fill="#2e3120" fill-rule="evenodd" d="M335.117 97.322a4.997 4.997 0 0 1 6.459 2.88 17.43 17.43 0 0 0 1.839 3.35c.35.54.74 1.15 1.18 1.879a16.917 16.917 0 0 1 2.81 9.06 4.999 4.999 0 0 1-9.999 0 6.99 6.99 0 0 0-1.36-3.86c-.17-.29-.39-.63-.639-1a32.493 32.493 0 0 1-3.17-5.829 5.007 5.007 0 0 1 .093-3.839 4.994 4.994 0 0 1 2.787-2.64Z" clip-rule="evenodd"></path><path fill="#2e3120" fill-rule="evenodd" d="M47.932 128.99a4.997 4.997 0 0 1 1 6.999c-2.22 3-3 5.88-3 10.099a23.003 23.003 0 0 0 .83 6.81 28.693 28.693 0 0 0 2.94 6.349c2.2 3.78 2.41 8.63 2 12.549a28.873 28.873 0 0 1-3.47 11.279 5.001 5.001 0 0 1-9.14-1.353 5 5 0 0 1 .562-3.786 19.062 19.062 0 0 0 2.11-7.21c.33-3.109-.08-5.389-.7-6.459a38.833 38.833 0 0 1-3.89-8.53 33.373 33.373 0 0 1-1.18-9.669c0-5.849 1.21-10.999 5-16.058a4.997 4.997 0 0 1 6.939-1.02Z" clip-rule="evenodd"></path><path fill="#2e3120" fill-rule="evenodd" d="M344.885 128.99a5 5 0 0 1 1 6.999c-2.22 3-3 5.88-3 10.099a23.03 23.03 0 0 0 .83 6.81 28.645 28.645 0 0 0 2.94 6.349c2.199 3.78 2.409 8.63 1.999 12.549a28.882 28.882 0 0 1-3.469 11.279 5.003 5.003 0 0 1-6.859 1.72 5 5 0 0 1-1.72-6.859 19.251 19.251 0 0 0 2.11-7.21c.33-3.109-.08-5.389-.7-6.459a38.316 38.316 0 0 1-3.879-8.529 32.988 32.988 0 0 1-1.24-9.65c0-5.849 1.21-10.999 4.999-16.058a4.996 4.996 0 0 1 6.989-1.04Z" clip-rule="evenodd"></path><path fill="#2e3120" fill-rule="evenodd" d="M30.505 207.213a5.006 5.006 0 0 1 2.897-2.509 5 5 0 0 1 3.822.28l2.36 1.229c3.65 1.91 6.289 3.29 9.528 3.65 1.408.118 2.825.098 4.23-.06l.9-.08c1.4-.13 3.069-.28 4.709-.28a4.998 4.998 0 0 1 4.999 5 5 5 0 0 1-5 4.999c-1.15 0-2.25.1-3.609.22l-1.16.1a31.321 31.321 0 0 1-6.169 0c-5.289-.59-9.838-2.999-13.488-4.939l-1.84-1a5.002 5.002 0 0 1-2.179-6.61Z" clip-rule="evenodd"></path><path fill="#2e3120" fill-rule="evenodd" d="M84.257 167.337c3.249.47 8.438 1.779 10.828 6.549 2.17 4.35 1.9 9.249.89 13.249-1 3.899-2.76 7.562-5.18 10.779a13.845 13.845 0 0 1-5.139 4.29 11.884 11.884 0 0 1-5.919 1 20.171 20.171 0 0 1-4.919-1.08c-.86-.28-1.86-.65-2.77-1l-1.37-.5c-3.539-1.27-5.568-1.87-7.238-1.85-1.21 0-2.54.34-4.5 2.25a5.004 5.004 0 0 1-8.504-3.636 5.009 5.009 0 0 1 1.506-3.523c3.5-3.42 7.228-5.07 11.408-5.09 3.73 0 7.429 1.27 10.678 2.43l1.77.65c.75.28 1.41.53 2.14.77a10.62 10.62 0 0 0 2.5.59c.338.048.684.003.999-.13a4.002 4.002 0 0 0 1.4-1.3 20.456 20.456 0 0 0 3.42-7.14c.7-2.79.54-4.999-.15-6.319l-.06-.06a2.089 2.089 0 0 0-.49-.32 9.754 9.754 0 0 0-2.75-.74 43.166 43.166 0 0 0-6.32-.25h-1.499a5.001 5.001 0 0 1-5-5 5 5 0 0 1 5-4.999h1.13c2.719-.084 5.44.043 8.139.38Z" clip-rule="evenodd"></path><path fill="#2e3120" fill-rule="evenodd" d="M366.561 182.545c3.26.47 8.449 1.79 10.829 6.56 2.179 4.35 1.909 9.239.899 13.239a30.67 30.67 0 0 1-5.179 10.789 13.728 13.728 0 0 1-5.139 4.28 11.806 11.806 0 0 1-5.919 1 20.842 20.842 0 0 1-4.929-1.07c-.86-.29-1.86-.66-2.77-1l-1.36-.5c-3.549-1.27-5.579-1.87-7.238-1.86-1.21 0-2.55.34-4.5 2.25a5.002 5.002 0 1 1-6.999-7.15c3.51-3.429 7.229-5.069 11.419-5.099 3.729 0 7.428 1.28 10.668 2.44l1.78.649c.75.28 1.399.52 2.129.77a10.94 10.94 0 0 0 2.51.59c.339.051.685.006 1-.13a4.101 4.101 0 0 0 1.41-1.299 20.78 20.78 0 0 0 3.409-7.15c.7-2.79.54-4.95-.14-6.319l-.06-.06a2.068 2.068 0 0 0-.5-.31 9.413 9.413 0 0 0-2.749-.74 40.304 40.304 0 0 0-6.309-.25h-1.57a4.997 4.997 0 0 1-4.999-5 4.996 4.996 0 0 1 4.999-5h1.13c2.731-.084 5.465.04 8.178.37Z" clip-rule="evenodd"></path><path fill="#2e3120" fill-rule="evenodd" d="M88.786 126.79a5 5 0 0 1-.64 6.999 30.452 30.452 0 0 1-5.739 3.57l-.73.38a12.811 12.811 0 0 0-3.93 2.77c-1 1.13-1.519 2.839-1.419 5.359.196 2.68.803 5.314 1.8 7.81a4.997 4.997 0 0 1-.12 3.827 5.003 5.003 0 0 1-9.239-.288 36.134 36.134 0 0 1-2.43-10.929 17.271 17.271 0 0 1 3.87-12.299 22.403 22.403 0 0 1 6.779-5.059l1-.51a20.051 20.051 0 0 0 3.76-2.27 5 5 0 0 1 7.038.64Z" clip-rule="evenodd"></path><path fill="#2e3120" fill-rule="evenodd" d="M385.738 126.79a4.998 4.998 0 0 1-.64 6.999 30.413 30.413 0 0 1-5.739 3.57l-.73.38a12.815 12.815 0 0 0-3.929 2.77c-1 1.13-1.52 2.84-1.42 5.359.197 2.68.804 5.314 1.8 7.81a5.002 5.002 0 1 1-9.358 3.539 36.12 36.12 0 0 1-2.43-10.929 17.273 17.273 0 0 1 3.869-12.299 22.404 22.404 0 0 1 6.809-5.049l1-.51a20.038 20.038 0 0 0 3.759-2.27 5.001 5.001 0 0 1 7.009.63Z" clip-rule="evenodd"></path><path fill="#2e3120" fill-rule="evenodd" d="M57.45 107.391a4.996 4.996 0 0 1 3.179-4.557 5.005 5.005 0 0 1 1.92-.342c4.597.041 9.176.574 13.659 1.59 2.76.63 5.39 1.73 7.778 3.249a12.13 12.13 0 0 1 5.36 7.66 5 5 0 0 1-9.799 2c0-.23-.22-.7-1.19-1.36a14.982 14.982 0 0 0-4.589-1.83 54.82 54.82 0 0 0-11.418-1.29 5.002 5.002 0 0 1-4.9-5.12Z" clip-rule="evenodd"></path><path fill="#2e3120" fill-rule="evenodd" d="M354.403 107.391a5.002 5.002 0 0 1 5.1-4.899c4.596.041 9.175.574 13.657 1.59 2.75.634 5.37 1.733 7.749 3.249a12.122 12.122 0 0 1 5.389 7.68 4.998 4.998 0 0 1-3.899 5.899 4.996 4.996 0 0 1-5.899-3.899c-.05-.23-.22-.7-1.19-1.36a14.985 14.985 0 0 0-4.589-1.83 54.828 54.828 0 0 0-11.418-1.29 5.004 5.004 0 0 1-3.521-1.549 4.999 4.999 0 0 1-1.379-3.591Z" clip-rule="evenodd"></path><path fill="#2e3120" fill-rule="evenodd" d="M74.628 74.674a5 5 0 0 1 6.14-3.5 12.257 12.257 0 0 1 7.998 6.73 20.17 20.17 0 0 1 1.71 8.589v.32a31.446 31.446 0 0 1-.25 4.75 13.632 13.632 0 0 1-1 3.56 7.76 7.76 0 0 1-3.54 3.869 4.999 4.999 0 0 1-5.489-8.28c.045-.177.078-.357.1-.54.125-1.081.175-2.17.15-3.259v-.42a10.348 10.348 0 0 0-.74-4.28 2.269 2.269 0 0 0-1.58-1.4 4.999 4.999 0 0 1-3.499-6.14Z" clip-rule="evenodd"></path><path fill="#2e3120" fill-rule="evenodd" d="M371.581 74.674a4.998 4.998 0 0 1 6.139-3.5 12.255 12.255 0 0 1 7.998 6.73 20.157 20.157 0 0 1 1.71 8.589v.32a31.42 31.42 0 0 1-.25 4.75 13.606 13.606 0 0 1-1 3.56 7.76 7.76 0 0 1-3.539 3.869 4.998 4.998 0 0 1-5.489-8.28c0-.14.07-.33.11-.54a25.33 25.33 0 0 0 .14-3.259v-.42a10.356 10.356 0 0 0-.74-4.28 2.268 2.268 0 0 0-1.58-1.4 4.997 4.997 0 0 1-3.499-6.14Z" clip-rule="evenodd"></path><path fill="#2e3120" fill-rule="evenodd" d="M138.788 60.785a5.002 5.002 0 0 1-3.64 6.06 40.836 40.836 0 0 0-7.358 2.82c-.91.43-1.92.92-3 1.44-1.71.84-3.519 1.73-5.169 2.46a41.282 41.282 0 0 1-24.996 3.369 5.002 5.002 0 0 1 1.58-9.88 31.335 31.335 0 0 0 19.367-2.63 84.159 84.159 0 0 0 4.469-2.129c1.07-.53 2.2-1.08 3.449-1.67a49.514 49.514 0 0 1 9.209-3.48 4.997 4.997 0 0 1 6.089 3.64Z" clip-rule="evenodd"></path><path fill="#2e3120" fill-rule="evenodd" d="M435.74 60.785a5 5 0 0 1-3.639 6.06 40.846 40.846 0 0 0-7.359 2.82c-.91.43-1.92.92-2.999 1.44-1.71.84-3.52 1.73-5.17 2.46a41.28 41.28 0 0 1-24.996 3.369 5.008 5.008 0 0 1-3.261-2.005 5 5 0 0 1-.21-5.555 5.001 5.001 0 0 1 5.051-2.32 31.333 31.333 0 0 0 19.367-2.63 83.704 83.704 0 0 0 4.469-2.129c1.07-.53 2.2-1.08 3.45-1.67a49.505 49.505 0 0 1 9.208-3.48 4.997 4.997 0 0 1 6.089 3.64Z" clip-rule="evenodd"></path><path fill="#2e3120" fill-rule="evenodd" d="M125.43 86.673a5 5 0 0 1 6.829 1.81c3.589 6.16 6.719 13.509 6.719 21.508a5.001 5.001 0 0 1-8.535 3.536 5.004 5.004 0 0 1-1.464-3.536c0-5.489-2.129-10.999-5.319-16.488a4.998 4.998 0 0 1 1.77-6.83Z" clip-rule="evenodd"></path><path fill="#2e3120" fill-rule="evenodd" d="M428.381 116.671a4.995 4.995 0 0 1 6.829 1.81c3.59 6.159 6.719 13.508 6.719 21.508a4.998 4.998 0 0 1-8.534 3.535 5.002 5.002 0 0 1-1.464-3.535c0-5.49-2.13-10.999-5.319-16.489a4.998 4.998 0 0 1 1.769-6.829Z" clip-rule="evenodd"></path><path fill="#2e3120" fill-rule="evenodd" d="M108.983 98.522a4.997 4.997 0 0 1 4.24 3.594c.18.632.234 1.293.159 1.946-.4 3.469-.64 5.569-.07 7.509a18.116 18.116 0 0 0 1.56 3.45c.21.39.48.87.78 1.39.54 1 1.169 2 1.649 2.999 2.3 4.47 2.61 10.4 2.61 14.089a5.002 5.002 0 0 1-8.534 3.536 5 5 0 0 1-1.464-3.536c0-3.629-.4-7.389-1.5-9.519-.42-.81-.8-1.48-1.24-2.24-.32-.55-.66-1.15-1.07-1.89a28.008 28.008 0 0 1-2.369-5.429c-1.18-4-.7-8-.37-10.809 0-.24.06-.46.08-.68a4.998 4.998 0 0 1 5.539-4.41Z" clip-rule="evenodd"></path><path fill="#2e3120" fill-rule="evenodd" d="M405.935 98.522a5.001 5.001 0 0 1 4.399 5.54c-.4 3.469-.64 5.569-.07 7.509a18.116 18.116 0 0 0 1.56 3.45c.21.39.48.87.78 1.39.54 1 1.17 2 1.65 2.999 2.299 4.47 2.609 10.4 2.609 14.089a5 5 0 1 1-9.998 0c0-3.629-.41-7.389-1.5-9.519-.42-.81-.8-1.48-1.24-2.24-.32-.55-.659-1.15-1.069-1.89a28.012 28.012 0 0 1-2.37-5.429c-1.18-4-.7-8-.37-10.809 0-.24.06-.46.08-.68a4.993 4.993 0 0 1 1.855-3.355 4.986 4.986 0 0 1 3.684-1.055Z" clip-rule="evenodd"></path><path fill="#2e3120" fill-rule="evenodd" d="M141.147 152.038a4.987 4.987 0 0 1 3.292 1.951 5.01 5.01 0 0 1 .948 3.708 15.59 15.59 0 0 1-5.329 9.4 25.282 25.282 0 0 1-8.249 4.769c-9.249 3.29-19.447.5-26.626-2.2a4.995 4.995 0 0 1-2.919-6.439 5 5 0 0 1 6.439-2.92c6.918 2.61 14.127 4.14 19.756 2.14a15.59 15.59 0 0 0 5-2.82 5.696 5.696 0 0 0 2.079-3.35 5 5 0 0 1 5.609-4.239Z" clip-rule="evenodd"></path><path fill="#2e3120" fill-rule="evenodd" d="M419.103 153.278a4.994 4.994 0 0 1 4.134 3.711c.163.636.199 1.298.105 1.948a15.653 15.653 0 0 1-5.329 9.41 25.404 25.404 0 0 1-8.249 4.759c-9.248 3.29-19.446.51-26.625-2.2a5.01 5.01 0 0 1-2.951-2.589 5.01 5.01 0 0 1-.171-3.923 5.01 5.01 0 0 1 2.715-2.836 5 5 0 0 1 3.926-.001c6.919 2.6 14.128 4.13 19.757 2.13a15.353 15.353 0 0 0 4.949-2.81 5.72 5.72 0 0 0 2.08-3.35 5.008 5.008 0 0 1 3.709-4.143 5.006 5.006 0 0 1 1.95-.106Z" clip-rule="evenodd"></path><path fill="#2e3120" fill-rule="evenodd" d="M104.573 192.675a5.01 5.01 0 0 1 3.802.439 5.006 5.006 0 0 1 2.377 3c.09.31.17.61.26.91a30.45 30.45 0 0 0 2.16 6.12 4.596 4.596 0 0 0 3.169 2.66c1.69.39 2.51.14 5.36-1.29a4.998 4.998 0 0 1 6.955 6.045 5 5 0 0 1-2.476 2.894c-3.08 1.54-6.709 3.34-12.088 2.1a14.601 14.601 0 0 1-9.689-7.61 39.113 39.113 0 0 1-2.999-8.209c-.09-.3-.17-.6-.25-.88a4.998 4.998 0 0 1 3.419-6.179Z" clip-rule="evenodd"></path><path fill="#2e3120" fill-rule="evenodd" d="M393.527 193.694a4.999 4.999 0 0 1 6.179 3.43c.09.32.17.62.26.92a30.45 30.45 0 0 0 2.16 6.12 4.596 4.596 0 0 0 3.169 2.659c1.69.39 2.51.13 5.359-1.29a5.002 5.002 0 0 1 7.262 4.104 5.009 5.009 0 0 1-1.227 3.643 5.007 5.007 0 0 1-1.555 1.193c-3.08 1.54-6.709 3.329-12.088 2.09a14.525 14.525 0 0 1-9.689-7.6 39.267 39.267 0 0 1-2.999-8.209l-.25-.88a4.998 4.998 0 0 1 3.419-6.18Z" clip-rule="evenodd"></path><path fill="#2e3120" fill-rule="evenodd" d="M86.426 207.163a4.996 4.996 0 0 1 6.839 1.8c1.91 3.28 2.89 4.78 4.42 5.55a4.997 4.997 0 0 1 2.194 6.692 4.998 4.998 0 0 1-6.674 2.247c-4.39-2.2-6.749-6.279-8.279-8.929l-.3-.52a4.998 4.998 0 0 1 1.8-6.84Z" clip-rule="evenodd"></path><path fill="#2e3120" fill-rule="evenodd" d="M167.223 178.916c.338.563.561 1.187.657 1.837a4.986 4.986 0 0 1-2.376 5.022c-9.539 5.72-21.147 5.16-30.465 1.34a5.002 5.002 0 0 1-2.73-6.529 5.003 5.003 0 0 1 6.529-2.73c7.219 3 15.377 3 21.526-.66a4.993 4.993 0 0 1 3.786-.561 5 5 0 0 1 3.073 2.281Z" clip-rule="evenodd"></path><path fill="#2e3120" fill-rule="evenodd" d="M458.177 177.916a5 5 0 0 1-1.72 6.859c-9.538 5.72-21.137 5.16-30.465 1.34a4.995 4.995 0 0 1-2.717-2.699 4.996 4.996 0 0 1-.013-3.83 5.014 5.014 0 0 1 4.613-3.105 4.997 4.997 0 0 1 1.916.375c7.219 3 15.368 3 21.527-.66a4.982 4.982 0 0 1 1.837-.657 4.982 4.982 0 0 1 3.712.931 5 5 0 0 1 1.31 1.446Z" clip-rule="evenodd"></path><path fill="#2e3120" fill-rule="evenodd" d="M151.816 202.034a4.996 4.996 0 0 1 7.069-.17c2.999 2.85 7.778 5.899 11.258 6.769a5.007 5.007 0 0 1 3.158 2.254 5.009 5.009 0 0 1 .595 3.834 4.991 4.991 0 0 1-2.326 3.105 4.994 4.994 0 0 1-3.847.507c-5.719-1.43-11.998-5.65-15.737-9.23a4.996 4.996 0 0 1-.17-7.069Z" clip-rule="evenodd"></path><path fill="#2e3120" fill-rule="evenodd" d="M448.768 202.034a4.99 4.99 0 0 1 3.499-1.55 5.004 5.004 0 0 1 3.57 1.38c3 2.85 7.779 5.899 11.258 6.769a4.996 4.996 0 0 1 3.843 4.111 5.006 5.006 0 0 1-.939 3.765 5.003 5.003 0 0 1-5.323 1.824c-5.719-1.43-11.998-5.65-15.738-9.23a5.012 5.012 0 0 1-1.123-1.595 5.004 5.004 0 0 1 .953-5.474Z" clip-rule="evenodd"></path><path fill="#2e3120" fill-rule="evenodd" d="M255.259 196.504a5 5 0 0 1-1.86 6.82l-1.709 1c-4 2.339-9.269 5.439-14.998 6.269-7.119 1-14.997.72-21.646.27a70.06 70.06 0 0 1-7.229-1l-1.27-.22a36.478 36.478 0 0 0-7.079-.66 33.995 33.995 0 0 0-11.698 2.11 5 5 0 1 1-3.759-9.259 43.284 43.284 0 0 1 15.167-2.85 45.348 45.348 0 0 1 8.999.79l1.469.25c2.008.381 4.034.658 6.07.83 6.578.45 13.547.7 19.516-.18 3.61-.53 6.999-2.5 11.169-4.91.639-.38 1.309-.76 1.999-1.15a5.016 5.016 0 0 1 3.825-.488 5.005 5.005 0 0 1 3.034 2.378Z" clip-rule="evenodd"></path><path fill="#2e3120" fill-rule="evenodd" d="M204.098 189.115a7.042 7.042 0 0 0-2.88-.08 8.215 8.215 0 0 0-2.57 1.42c-.779.57-1.429 1.12-2.169 1.74l-1.39 1.17a5.004 5.004 0 1 1-6.319-7.76c.26-.21.58-.47.93-.77.88-.74 2-1.67 2.999-2.43a18.144 18.144 0 0 1 5.929-2.999 16.702 16.702 0 0 1 7.159-.11c.95.16 1.88.37 2.66.54h.11c.85.19 1.53.33 2.159.44l1 .17c2.092.402 4.205.686 6.329.85.826.061 1.655.061 2.48 0a5 5 0 0 1 8.699 4.399c-1 3.85-4.53 5-6.07 5.3a21.913 21.913 0 0 1-5.729.28 70.944 70.944 0 0 1-7.658-1l-.69-.12c-.95-.16-1.91-.37-2.73-.55-.82-.2-1.54-.36-2.249-.49Zm17.217-7.999h-.1.1Z" clip-rule="evenodd"></path><path fill="#2e3120" fill-rule="evenodd" d="M225.964 165.987a19.217 19.217 0 0 0-6.559.38 5.004 5.004 0 0 1-5.859-3.96 5.004 5.004 0 0 1 2.153-5.122 5.01 5.01 0 0 1 1.806-.738 28.914 28.914 0 0 1 10.129-.419 13.918 13.918 0 0 1 10.128 6.859 5.01 5.01 0 0 1-3.691 7.466 5.005 5.005 0 0 1-4.988-2.466 3.992 3.992 0 0 0-3.119-2Z" clip-rule="evenodd"></path><path fill="#2e3120" fill-rule="evenodd" d="M177.202 145.158a4.996 4.996 0 0 1 3.446-1.662 4.994 4.994 0 0 1 3.613 1.262 36.643 36.643 0 0 1 4.709 5.33l.45.6a41.965 41.965 0 0 0 2.999 3.73c1.07 1.11 2.13 2.149 3.25 3.249l1.789 1.78a5.01 5.01 0 0 1 1.468 3.536 5.011 5.011 0 0 1-1.463 3.539 4.996 4.996 0 0 1-3.535 1.467 4.993 4.993 0 0 1-3.538-1.462c-.51-.52-1.06-1.06-1.62-1.61-1.17-1.16-2.4-2.37-3.56-3.58a48.71 48.71 0 0 1-3.819-4.66l-.43-.569a26.487 26.487 0 0 0-3.359-3.89 4.996 4.996 0 0 1-1.391-5.379c.217-.62.553-1.191.991-1.681Z" clip-rule="evenodd"></path><path fill="#2e3120" fill-rule="evenodd" d="M471.405 177.156a4.984 4.984 0 0 1 3.446-1.662 5 5 0 0 1 3.612 1.262 36.618 36.618 0 0 1 4.69 5.329l.44.6a41.644 41.644 0 0 0 2.999 3.73c1.07 1.11 2.13 2.15 3.25 3.25l1.789 1.78a4.999 4.999 0 0 1 .005 7.074 4.999 4.999 0 0 1-7.074.005c-.509-.52-1.059-1.06-1.619-1.61-1.17-1.16-2.4-2.37-3.56-3.579a48.559 48.559 0 0 1-3.819-4.66l-.43-.57a26.546 26.546 0 0 0-3.36-3.89 5 5 0 0 1-.369-7.059Z" clip-rule="evenodd"></path><path fill="#2e3120" fill-rule="evenodd" d="M160.505 140.599a21.983 21.983 0 0 0-5 3.31 4.992 4.992 0 0 1-3.682 1.05 5.004 5.004 0 0 1-2.537-8.89 31.214 31.214 0 0 1 7.379-4.719 19.43 19.43 0 0 1 9.429-1.23c.406.035.81.095 1.209.18l.93.21.38.1 1 .22a4.998 4.998 0 0 1 5.359 8.159 6.59 6.59 0 0 1-4.409 1.87 11.618 11.618 0 0 1-2.79-.24c-.579-.12-1.189-.27-1.619-.37l-.25-.06-.63-.15a9.598 9.598 0 0 0-4.769.56Z" clip-rule="evenodd"></path><path fill="#2e3120" fill-rule="evenodd" d="M447.459 160.587a21.91 21.91 0 0 0-5 3.3 5.002 5.002 0 0 1-5.55.476 4.995 4.995 0 0 1-2.388-3.006 5 5 0 0 1 1.719-5.3 31.214 31.214 0 0 1 7.379-4.719 19.337 19.337 0 0 1 9.439-1.23c.403.036.804.096 1.199.18l.93.21.38.09 1 .23a5 5 0 0 1 5.359 8.169 6.651 6.651 0 0 1-4.409 1.88 11.618 11.618 0 0 1-2.79-.24c-.58-.12-1.189-.27-1.619-.38l-.25-.06-.63-.14a9.617 9.617 0 0 0-4.769.54Z" clip-rule="evenodd"></path><path fill="#2e3120" fill-rule="evenodd" d="M451.458 251.21a22.358 22.358 0 0 0-4.999 3.31 5.016 5.016 0 0 1-3.686 1.07 5.01 5.01 0 0 1-3.359-1.859 5.01 5.01 0 0 1-1.05-3.692 5.009 5.009 0 0 1 .603-1.862 5.008 5.008 0 0 1 1.273-1.487 30.839 30.839 0 0 1 7.378-4.719 19.448 19.448 0 0 1 9.439-1.24c.45 0 .88.12 1.2.18l.93.22.38.09.999.23a5 5 0 0 1 5.35 8.189 6.665 6.665 0 0 1-4.41 1.88c-.936.03-1.873-.054-2.789-.25-.58-.11-1.19-.26-1.62-.37l-.25-.06a6.158 6.158 0 0 0-.63-.14 9.748 9.748 0 0 0-4.759.51Z" clip-rule="evenodd"></path><path fill="#2e3120" fill-rule="evenodd" d="M170.263 109.471a35.346 35.346 0 0 0-9.499 6.25 4.998 4.998 0 0 1-8.321-4.013 5 5 0 0 1 1.662-3.447 44.956 44.956 0 0 1 12.488-8.089 17.928 17.928 0 0 1 8.759-1.36 12.362 12.362 0 0 1 8.648 5.27c.383.534.656 1.139.804 1.779a4.987 4.987 0 0 1-.628 3.777 5.003 5.003 0 0 1-8.314.263 2.383 2.383 0 0 0-1.78-1.17 8.233 8.233 0 0 0-3.819.74Z" clip-rule="evenodd"></path><path fill="#2e3120" fill-rule="evenodd" d="M467.215 109.471a35.357 35.357 0 0 0-9.498 6.25 5 5 0 1 1-6.659-7.46 44.956 44.956 0 0 1 12.488-8.089 17.924 17.924 0 0 1 8.758-1.36 12.357 12.357 0 0 1 8.649 5.27 5.011 5.011 0 0 1 .866 3.73 5.003 5.003 0 0 1-9.005 2.089 2.37 2.37 0 0 0-1.779-1.17 8.24 8.24 0 0 0-3.82.74Z" clip-rule="evenodd"></path><path fill="#2e3120" fill-rule="evenodd" d="M203.278 107.481a4.995 4.995 0 0 1 3.817-.197 4.993 4.993 0 0 1 2.841 2.557c4 8.43 4.77 15.709 5 24.168a8.053 8.053 0 0 0 .45 3.15c.13.26.43.76 1.789 1.67a4.998 4.998 0 0 1 1.27 6.849 4.996 4.996 0 0 1-6.809 1.47 14.249 14.249 0 0 1-5.259-5.649 17.388 17.388 0 0 1-1.44-7.2c-.23-7.919-.91-13.579-3.999-20.158a4.998 4.998 0 0 1 2.34-6.66Z" clip-rule="evenodd"></path><path fill="#2e3120" fill-rule="evenodd" d="M245.621 112.081a5.003 5.003 0 0 1 4.265-3.565 5.01 5.01 0 0 1 1.944.175 39.964 39.964 0 0 1 10.178 4.43 18.999 18.999 0 0 1 8.149 9.789 5 5 0 0 1-9.479 3.16 9.117 9.117 0 0 0-4.049-4.52 30.214 30.214 0 0 0-7.619-3.259 5.015 5.015 0 0 1-2.982-2.403 5.005 5.005 0 0 1-.407-3.807Z" clip-rule="evenodd"></path><path fill="#2e3120" fill-rule="evenodd" d="M247.8 167.987a5.01 5.01 0 0 1-.206-3.822 5.01 5.01 0 0 1 2.556-2.848c2.719-1.31 5.089-2.66 7.609-4.09 1.779-.999 3.629-2.069 5.739-3.179.57-.3 1-.58 1.589-.93.59-.35.88-.54 1.5-.89a18.432 18.432 0 0 1 4.609-2 5.012 5.012 0 0 1 3.847.478 4.983 4.983 0 0 1 2.349 3.084 4.994 4.994 0 0 1-3.696 6.117 9.212 9.212 0 0 0-2.09 1c-.24.13-.549.32-.909.54-.78.47-1.75 1.06-2.53 1.47-1.5.79-3.159 1.73-4.889 2.71-2.86 1.62-5.919 3.35-8.809 4.739a4.988 4.988 0 0 1-3.828.195 4.985 4.985 0 0 1-2.841-2.574Z" clip-rule="evenodd"></path><path fill="#2e3120" fill-rule="evenodd" d="M268.277 180.186a4.998 4.998 0 0 1 6.939-1.34 55.534 55.534 0 0 1 12.318 11.489 22.345 22.345 0 0 0 4.999 4.909 4.999 4.999 0 0 1-5.299 8.48 32.117 32.117 0 0 1-7.409-7 45.984 45.984 0 0 0-10.238-9.619 5.002 5.002 0 0 1-1.31-6.919Z" clip-rule="evenodd"></path><path fill="#2e3120" fill-rule="evenodd" d="M272.076 210.163a5 5 0 0 1 6.159 3.47c.15.55.91 1.61 4.08 2.7a47.357 47.357 0 0 0 6.499 1.56c1 .19 1.999.38 2.949.59 3.665.9 7.416 1.403 11.189 1.499 1.325 0 2.597.527 3.534 1.465a4.997 4.997 0 0 1 0 7.07 4.996 4.996 0 0 1-3.534 1.465 62 62 0 0 1-13.288-1.73l-2-.39a64.62 64.62 0 0 1-8.589-2.07c-3.689-1.26-8.888-3.8-10.478-9.469a5.011 5.011 0 0 1 1.737-5.281 5.009 5.009 0 0 1 1.742-.879Z" clip-rule="evenodd"></path><path fill="#2e3120" fill-rule="evenodd" d="M320.479 172.986a5 5 0 0 1 2.479 6.62 15.283 15.283 0 0 0-1.159 5.899v4.45c0 1.11.07 2.31.07 3.5 0 8.429-2 14.128-6.209 21.148a5 5 0 0 1-6.859 1.72 5 5 0 0 1-1.72-6.86c3.479-5.799 4.789-9.739 4.789-15.999 0-.999 0-1.999-.06-3.149v-.79c0-1.37-.07-2.85 0-4.35a25 25 0 0 1 2.05-9.699 5.006 5.006 0 0 1 2.794-2.616 4.993 4.993 0 0 1 3.825.126Z" clip-rule="evenodd"></path><path fill="#2e3120" fill-rule="evenodd" d="M295.073 136.109a63.53 63.53 0 0 1 3.309 5.91 38.729 38.729 0 0 1 2.85 12.409c.16 1.859.24 3.719.32 5.469v.27c.09 1.87.17 3.63.33 5.37a5.022 5.022 0 0 1-4.549 5.449 5.018 5.018 0 0 1-5.45-4.549c-.18-2-.27-4-.36-5.82v-.2c-.08-1.81-.15-3.49-.289-5.159a28.705 28.705 0 0 0-2.06-9.25c-.06-.11-.32-.64-.81-1.51-.49-.869-1.15-1.999-1.8-3.069-.48-.77-.9-1.41-1.24-1.86a4.909 4.909 0 0 1-1.479-1 4.994 4.994 0 0 1-1.469-3.54 5 5 0 0 1 1.469-3.54 5.294 5.294 0 0 1 4.319-1.509 5.582 5.582 0 0 1 2.49.91 8.843 8.843 0 0 1 1.909 1.739 30.291 30.291 0 0 1 2.51 3.48Z" clip-rule="evenodd"></path><path fill="#2e3120" fill-rule="evenodd" d="M284.815 112.311c-1.75.24-3.62.5-5.46.66a5.016 5.016 0 0 1-5.439-4.56 5.022 5.022 0 0 1 4.56-5.439c1.589-.14 3.249-.37 5.089-.63 1.799-.25 3.769-.52 5.749-.7a31.289 31.289 0 0 1 12.828 1.13c1 .35 1.999.79 2.739 1.13h.1c.84.38 1.45.65 2 .84.319.129.656.207 1 .23a.35.35 0 0 0 .17 0 5.024 5.024 0 0 1 3.847-.27 5.03 5.03 0 0 1 2.912 2.529 5.046 5.046 0 0 1-2.26 6.76 11.15 11.15 0 0 1-8.878.32c-1.05-.36-2.06-.81-2.82-1.15h-.07a19.43 19.43 0 0 0-1.94-.82 21.44 21.44 0 0 0-8.728-.63c-1.7.15-3.42.38-5.259.64l-.14-.04Z" clip-rule="evenodd"></path><path fill="#2e3120" fill-rule="evenodd" d="M317.21 120.99a5 5 0 0 1 5.199 4.8c.137 2.21.424 4.408.86 6.579 0 .19.07.38.1.58.389 2.18.829 4.64.999 7.16a5.011 5.011 0 0 1-4.619 5.379 5.013 5.013 0 0 1-5.379-4.619 61.534 61.534 0 0 0-.91-6.25l-.09-.5a60.419 60.419 0 0 1-1-7.929 5.017 5.017 0 0 1 1.336-3.609 5 5 0 0 1 3.504-1.591Z" clip-rule="evenodd"></path><path fill="#2e3120" fill-rule="evenodd" d="M317.519 162.748c-.43.13-1.05.32-2.099.59-.83.21-1.48.37-1.93.46-.33.071-.664.121-1 .15a5.344 5.344 0 0 1-.82 0 5.477 5.477 0 0 1-1-.18 4.867 4.867 0 0 1-1.999-1.07 4.999 4.999 0 0 1-1.68-3.81 4.925 4.925 0 0 1 .85-2.73 5.212 5.212 0 0 1 1.25-1.29c.247-.174.508-.328.78-.46l.369-.17c.19-.09.42-.18.63-.26l1.06-.42.59-.23a4.995 4.995 0 0 1 2.5-.3 15.846 15.846 0 0 1 3.819-.54 5 5 0 0 1 0 10c-.452.01-.898.098-1.32.26Z" clip-rule="evenodd"></path><path fill="#2e3120" fill-rule="evenodd" d="M212.876 68.924a5.002 5.002 0 0 1-.88 7 8.294 8.294 0 0 0-1.44 1.34c.246.436.537.845.87 1.22a38.736 38.736 0 0 0 8.079 7.18c3.119 1.999 5.909 2.839 8.199 2.569.879-.1 1.449-.51 3.469-2 .12-.09.25-.19.39-.28a14.287 14.287 0 0 1 10.158-3.17 23.38 23.38 0 0 1 9.859 3.64c1.35.82 2.629 1.71 3.779 2.51l.28.19c1.08.76 2 1.42 3 2a5.002 5.002 0 0 1-5.34 8.46c-1.199-.59-2.339-1.39-3.339-2.11l-.3-.21c-1.16-.81-2.22-1.54-3.279-2.19a13.7 13.7 0 0 0-5.63-2.22c-.999-.09-1.699.16-3.369 1.35l-.52.39a16.814 16.814 0 0 1-7.999 3.64c-5.539.66-10.698-1.48-14.747-4.07a49.105 49.105 0 0 1-10.259-9.06c-2.139-2.48-3.889-5.66-3.249-9.389.59-3.49 3.059-6 5.269-7.67a4.998 4.998 0 0 1 6.999.88Z" clip-rule="evenodd"></path><path fill="#2e3120" fill-rule="evenodd" d="M169.573 60.285a5 5 0 0 1 7.069.35 94.7 94.7 0 0 0 1.759 1.92c4.67 5.08 10.689 11.599 13.268 19.358a5 5 0 0 1-6.949 5.914 4.997 4.997 0 0 1-2.529-2.754c-1.86-5.57-6.269-10.399-11.138-15.719l-1.83-2a5.005 5.005 0 0 1-.816-5.501 5.004 5.004 0 0 1 1.166-1.568Z" clip-rule="evenodd"></path><path fill="#2e3120" fill-rule="evenodd" d="M295.733 19.998a4.997 4.997 0 0 1 6.739-2.12l2.319 1.12c6.159 3.18 14.048 7.21 19.157 13.59a5.005 5.005 0 0 1 1.071 3.674 4.99 4.99 0 0 1-1.841 3.355 5.002 5.002 0 0 1-5.534.484 4.995 4.995 0 0 1-1.494-1.254c-3.68-4.59-9.489-7.58-15.898-10.89l-2.399-1.249a4.997 4.997 0 0 1-2.12-6.71Z" clip-rule="evenodd"></path><path fill="#2e3120" fill-rule="evenodd" d="M466.526 20.288a4.988 4.988 0 0 1 3.607-1.29 5 5 0 0 1 3.461 1.64c.55.62 1.14 1.26 1.75 1.92 4.679 5.08 10.698 11.6 13.278 19.359a4.994 4.994 0 0 1-3.098 6.503 5.002 5.002 0 0 1-6.381-3.343c-1.859-5.57-6.269-10.4-11.138-15.72l-1.829-2a4.989 4.989 0 0 1-1.292-3.606 5.003 5.003 0 0 1 1.642-3.463Z" clip-rule="evenodd"></path><path fill="#2e3120" fill-rule="evenodd" d="M164.744 43.246a5.011 5.011 0 0 1 1.682 3.439 5.008 5.008 0 0 1-1.242 3.62c-.83.94-1.57 1.73-2.27 2.48-1 1.11-2 2.12-3 3.37a13.12 13.12 0 0 0-2.789 5c-.49 2.14.32 4.89 1.91 8.57l.63 1.4c.479 1.1.999 2.29 1.439 3.369a21.46 21.46 0 0 1 1.51 5.59 11.662 11.662 0 0 1-1.22 6.719 14.344 14.344 0 0 1-5.339 5.41 4.998 4.998 0 0 1-5.259-8.5 4.587 4.587 0 0 0 1.74-1.56 1.71 1.71 0 0 0 .13-1 11.43 11.43 0 0 0-.85-2.92c-.36-.9-.73-1.74-1.17-2.71-.24-.54-.5-1.119-.78-1.769-1.5-3.44-3.809-9.07-2.48-14.809a22.823 22.823 0 0 1 4.74-8.999c1.17-1.45 2.649-3 3.899-4.39.63-.68 1.2-1.3 1.65-1.81a4.992 4.992 0 0 1 3.43-1.718 4.998 4.998 0 0 1 3.639 1.218Z" clip-rule="evenodd"></path><path fill="#2e3120" fill-rule="evenodd" d="M461.696 43.246a5 5 0 0 1 .44 7.06c-.83.94-1.57 1.73-2.27 2.48-.999 1.11-1.999 2.12-2.999 3.37a13.122 13.122 0 0 0-2.79 5c-.49 2.139.32 4.889 1.91 8.568l.63 1.4c.48 1.1 1 2.29 1.44 3.37a21.077 21.077 0 0 1 1.499 5.59 11.58 11.58 0 0 1-1.219 6.719 14.255 14.255 0 0 1-5.33 5.41 4.998 4.998 0 0 1-5.259-8.5 4.58 4.58 0 0 0 1.74-1.56 1.71 1.71 0 0 0 .13-1 11.35 11.35 0 0 0-.85-2.92c-.36-.9-.73-1.74-1.17-2.71-.24-.54-.5-1.119-.78-1.769-1.499-3.44-3.809-9.07-2.479-14.809a22.833 22.833 0 0 1 4.739-8.999c1.17-1.45 2.65-3 3.899-4.39.63-.68 1.2-1.3 1.65-1.81a5.004 5.004 0 0 1 5.372-1.472c.624.21 1.201.54 1.697.972Z" clip-rule="evenodd"></path><path fill="#2e3120" fill-rule="evenodd" d="M199.238 38.747a4.993 4.993 0 0 1 6.439-2.93l.93.34a66.333 66.333 0 0 1 8.999 3.88c3.359 1.85 8.118 5.12 9.188 10.479a5.005 5.005 0 0 1-.728 3.757 4.99 4.99 0 0 1-3.171 2.142 5 5 0 0 1-5.899-3.9c-.12-.57-1-1.929-4.2-3.669a57.08 57.08 0 0 0-7.568-3.23l-1.08-.4a4.993 4.993 0 0 1-2.801-2.629 4.996 4.996 0 0 1-.109-3.84Z" clip-rule="evenodd"></path><path fill="#2e3120" fill-rule="evenodd" d="M267.277 29.138a5.003 5.003 0 0 1 6.499-2.78c4.64 1.85 6.239 6.12 6.799 9.2.401 2.646.488 5.331.26 7.999v.23a28.998 28.998 0 0 1-3.339 12.799 17.541 17.541 0 0 1-11.748 8.549c-2.39.53-4.91.85-7.119 1.13l-2.08.27a27.13 27.13 0 0 0-7.279 1.8 15.547 15.547 0 0 0-5.119 3.94c-.86.93-1.69 1.93-2.589 2.999l-.4.48c-.77 1-1.6 2-2.46 3a4.999 4.999 0 0 1-5.366 1.452 5 5 0 0 1-3.145-6.339c.21-.622.54-1.198.972-1.693.74-.84 1.45-1.72 2.22-2.67l.43-.52c.91-1.12 1.909-2.33 2.999-3.5a25.431 25.431 0 0 1 8.459-6.319 37.162 37.162 0 0 1 9.908-2.55l2.64-.34c2.06-.26 3.859-.49 5.739-.91a7.534 7.534 0 0 0 5.279-3.78 19.001 19.001 0 0 0 2-8.368 26.693 26.693 0 0 0-.09-5.9 4.588 4.588 0 0 0-.5-1.52c-.1-.15-.14-.17-.18-.18a5 5 0 0 1-2.79-6.48Z" clip-rule="evenodd"></path><path fill="#2e3120" fill-rule="evenodd" d="M270.747 73.704a4.998 4.998 0 0 1 6.449-2.88c4.189 1.6 9.178 3.54 12.508 9.1a5.004 5.004 0 0 1-3.557 7.516 5.002 5.002 0 0 1-5.022-2.377c-1.39-2.32-3.259-3.28-7.499-4.9a5.006 5.006 0 0 1-2.778-2.632 5 5 0 0 1-.101-3.827Z" clip-rule="evenodd"></path><path fill="#2e3120" fill-rule="evenodd" d="M230.253 128.7a4.998 4.998 0 0 1 6.449-2.88c4.19 1.6 9.169 3.54 12.508 9.099a5.002 5.002 0 0 1-5.505 7.42 4.995 4.995 0 0 1-3.073-2.28c-1.39-2.32-3.26-3.28-7.499-4.9a5.004 5.004 0 0 1-3.21-4.536 5.012 5.012 0 0 1 .33-1.923Z" clip-rule="evenodd"></path><path fill="#2e3120" fill-rule="evenodd" d="M171.323 12.359a5 5 0 0 1-5.09 4.9c-4.489-.09-9.828-.22-14.847-4.32a4.998 4.998 0 0 1-.715-7.035 5 5 0 0 1 7.034-.715c2.089 1.71 4.179 2 8.718 2.07a5 5 0 0 1 4.9 5.1Z" clip-rule="evenodd"></path><path fill="#2e3120" fill-rule="evenodd" d="M293.303 39.107a4.999 4.999 0 0 1 6.499 2.78c1.7 4.26 1.63 8.76 1.57 12.099v1.13c0 3.81.19 6.3 1.55 8.489a5 5 0 0 1-8.489 5.28c-3-4.85-3.089-10-3.059-13.86v-1c0-3.679.069-6.119-.84-8.398a4.996 4.996 0 0 1 2.769-6.52Z" clip-rule="evenodd"></path><path fill="#2e3120" fill-rule="evenodd" d="M318.949 60.595a5 5 0 0 1 5.879 3.92c0 .15.06.31.1.46.84 4.2 2.07 10.319-.54 16.208-3.299 7.45-9.238 12.14-16.067 14.94a5 5 0 0 1-3.78-9.26c5-2.06 8.679-5.16 10.709-9.73 1.209-2.729.739-5.839-.22-10.658a5 5 0 0 1 3.919-5.88Z" clip-rule="evenodd"></path><path fill="#2e3120" fill-rule="evenodd" d="M148.976 32.997c-6.219 0-11.148 4.71-13.188 11.87a4.999 4.999 0 0 1-9.178 1.062 5.003 5.003 0 0 1-.44-3.802c2.739-9.74 10.518-19.129 22.806-19.129a4.998 4.998 0 0 1 3.535 8.535 4.998 4.998 0 0 1-3.535 1.464Z" clip-rule="evenodd"></path><path fill="#2e3120" fill-rule="evenodd" d="M452.388 24.998c-6.219 0-11.148 4.71-13.188 11.869a4.999 4.999 0 0 1-6.179 3.44 5 5 0 0 1-3.44-6.18C432.361 24.388 440.14 15 452.388 15a5 5 0 0 1 0 9.999Z" clip-rule="evenodd"></path><path fill="#2e3120" fill-rule="evenodd" d="M207.407 8.16a5.01 5.01 0 0 1 2.351 3.033 5.003 5.003 0 0 1-.492 3.806l-.11.2c-1.689 3-4.199 7.35-9.918 9-2.469.656-5.05.775-7.569.35l-1.29-.18a15.327 15.327 0 0 0-3.249-.26 4.998 4.998 0 0 0-3.509 1.269 5.736 5.736 0 0 0-1.19 3.82 5.007 5.007 0 0 1-5.189 4.81 5.004 5.004 0 0 1-4.81-5.19 15.55 15.55 0 0 1 3.91-10.29 14.805 14.805 0 0 1 10.168-4.4 28.077 28.077 0 0 1 5.689.39l.77.11a8.326 8.326 0 0 0 3.479 0c1.53-.45 2.29-1.339 4.14-4.569a5 5 0 0 1 6.819-1.9Z" clip-rule="evenodd"></path><path fill="#2e3120" fill-rule="evenodd" d="M459.166 125.45a5.002 5.002 0 0 1 5.51-4.43h.469c3.373.293 6.716.855 9.999 1.68 3.599 1 8.349 2.92 10.828 7.26a5.01 5.01 0 0 1-1.84 6.839 5 5 0 0 1-3.8.497 5.016 5.016 0 0 1-3.038-2.337c-.4-.7-1.72-1.73-4.81-2.58a55.668 55.668 0 0 0-8.558-1.389h-.3a5.032 5.032 0 0 1-1.878-.58 5.01 5.01 0 0 1-2.582-4.96Z" clip-rule="evenodd"></path><path fill="#2e3120" d="M481.373 499.96h-39.394a5 5 0 0 1 4.54-2.64c6.699.17 13.358-1.27 20.357-3.31 2.439-.71 4.999-1.529 7.668-2.379 4.59-1.46 9.359-3 13.938-4.1a4.998 4.998 0 0 1 6.237 5.614 5.002 5.002 0 0 1-3.857 4.095c-3.24.8-6.339 1.72-9.489 2.72Z"></path><path fill="#2e3120" d="m293.583 0-.12.23a5.013 5.013 0 0 0-.324 3.84A5.002 5.002 0 0 0 295.643 7l1.839 1c3.65 1.93 8.199 4.349 13.488 4.939 2.052.202 4.118.202 6.169 0l1.16-.1c1.35-.12 2.46-.22 3.61-.22a5.001 5.001 0 0 0 4.999-5 5.002 5.002 0 0 0-4.999-5c-1.64 0-3.31.15-4.71.28l-.9.08a21.711 21.711 0 0 1-4.229.06c-2.809-.43-5.119-1.51-8.119-3.039h-10.368Z"></path><path fill="#2e3120" d="M86.526 0a4.92 4.92 0 0 1-2.34 2.47C81.108 4 77.479 5.81 72.099 4.57A13.997 13.997 0 0 1 64.5 0h22.026Z"></path><path fill="#2e3120" d="M382.479 0a4.918 4.918 0 0 1-2.34 2.47c-3.079 1.54-6.709 3.34-12.088 2.1A13.999 13.999 0 0 1 360.452 0h22.027Z"></path><path fill="#2e3120" d="M52.471 0c1.2 1.92 2 2.94 3.22 3.53a5 5 0 1 1-4.48 8.939c-4.389-2.19-6.748-6.28-8.278-8.93l-.3-.54A5 5 0 0 1 41.993 0h10.478Z"></path><path fill="#2e3120" d="M348.424 0c1.2 1.92 2 2.94 3.22 3.53a4.99 4.99 0 0 1 2.533 2.892 5.01 5.01 0 0 1-.269 3.835 4.998 4.998 0 0 1-6.744 2.212c-4.389-2.19-6.748-6.28-8.268-8.93l-.31-.54a5.004 5.004 0 0 1-.64-2.999h10.478Z"></path><path fill="#2e3120" d="M131.269 0a4.94 4.94 0 0 1 .52 3.71 5 5 0 0 1-6.059 3.64c-4.749-1.18-9.849-4.28-13.598-7.35h19.137Z"></path><path fill="#2e3120" d="M427.222 0c.653 1.12.84 2.453.52 3.71a5 5 0 0 1-6.059 3.64c-4.75-1.18-9.849-4.28-13.598-7.35h19.137Z"></path><path fill="#2e3120" d="M237.142 0c2.9.62 5.854.955 8.819 1a5 5 0 0 1 0 10 61.983 61.983 0 0 1-13.288-1.73l-2-.38a66.214 66.214 0 0 1-8.588-2.08c-3.06-1-7.149-3-9.359-6.81h24.416Z"></path><path fill="#2e3120" d="M275.706 0c-.6 1.16-1.27 2.35-2 3.57a4.995 4.995 0 0 1-6.101 2.096A5 5 0 0 1 264.518 0h11.188Z"></path><path fill="#2e3120" d="M441.979 0a4.897 4.897 0 0 0-.59 2.22 4.995 4.995 0 0 0 1.372 3.574 4.999 4.999 0 0 0 3.498 1.556c8.248.22 16.087-1.56 23.416-3.7 2.999-.87 5.759-1.76 8.479-2.63l3.219-1L441.979 0Z"></path></svg>