<svg xmlns="http://www.w3.org/2000/svg" fill="none" viewBox="0 0 500 500"><path fill="#2e3120" d="M56.144 0H0v9.773C3.65 8.07 6.75 7.158 10.116 7.158c11.752 0 22.19 3.22 33.528 8.889 4.36 2.18 8.308 4.476 12.53 6.933h.003a497.328 497.328 0 0 0 7.03 4.037c6.857 3.843 14.429 7.673 23.128 10.191 9.26 2.68 20.819 2.23 30.82-1.204 9.964-3.421 20.455-10.618 23.976-23.139 1.177-4.186 1.456-8.572 1.124-12.865h-20.106c.399 2.936.277 5.502-.271 7.45-1.073 3.815-4.683 7.394-11.218 9.638-6.499 2.231-13.837 2.335-18.764.909-6.517-1.887-12.529-4.85-18.91-8.426a459.607 459.607 0 0 1-6.02-3.458h-.001l-.004-.002C63.511 4.106 59.85 1.98 56.145 0Z"></path><path fill="#2e3120" d="M203.025 0a81.562 81.562 0 0 0 7.852 9.568c4.924 5.153 10.916 7.297 17.031 7.155 5.562-.13 10.71-2.133 14.748-4.065 2.932-1.404 6.035-3.166 8.678-4.668.942-.534 1.825-1.036 2.621-1.476 3.523-1.949 5.755-2.95 7.254-3.285 4.968-1.11 10.614-1.686 15.276-.934 4.511.728 6.766 2.397 7.922 4.73 7.797 15.742 20.538 32.67 41.099 38.53 14.984 4.27 28.942-1.36 39.229-7.521 4.896-2.932 8.942-6.23 12.488-9.237a739.81 739.81 0 0 0 2.057-1.754l.009-.008c2.777-2.376 5.224-4.468 7.987-6.468l8.101-5.864L384.734 0h-3.153l-6.032 4.366c-3.486 2.523-6.678 5.256-9.493 7.667-.608.52-1.198 1.026-1.77 1.511-3.363 2.852-6.392 5.274-9.827 7.331-8.659 5.187-16.497 7.434-23.472 5.446C319.015 22.91 309.997 12.882 303.27 0H203.025Z"></path><path fill="#2e3120" d="M422.404 0c2.338 4.877 5.524 9.39 9.675 13.255 6.645 6.186 16.758 8.214 24.639 8.741 8.287.555 17.264-.355 23.719-2.628 5.006-1.762 9.933-4.468 13.837-6.612 1.255-.69 2.405-1.321 3.417-1.844A64.64 64.64 0 0 1 500 9.772V0h-24.86c-.439.174-.887.342-1.346.503-3.226 1.136-9.345 1.966-15.74 1.538-4.497-.301-7.838-1.136-9.987-2.041h-25.663Z"></path><path fill="#2e3120" d="M500 53.465c-9.564-5.97-22.48-9.503-34.409-8.192-10.799 1.187-20.236 7.477-26.895 14.301-6.569 6.732-12.013 15.608-13.241 24.029-2.069 14.18 1.62 33.596 16.686 45.187 8.208 6.314 18.348 9.312 26.891 11.588 1.479.394 2.912.767 4.303 1.13h.003c7.316 1.907 13.462 3.508 18.808 6.147 3.477 1.715 6.025 3.711 7.854 5.796v-24.212c-7.121-3.347-15.175-5.428-22.101-7.217a522.562 522.562 0 0 1-3.719-.97c-8.643-2.302-15.157-4.508-19.844-8.114-7.552-5.81-10.485-16.89-9.091-26.448.408-2.796 2.928-7.99 7.765-12.948 4.748-4.865 10.159-7.883 14.766-8.389 8.211-.903 18.081 2.278 23.944 6.893.386.304.996.998 1.734 2.654.613 1.377 1.037 2.717 1.593 4.472v.001c.174.55.361 1.14.57 1.783l3.091 9.51 1.292-.42v-36.58Z"></path><path fill="#2e3120" d="M500 176.732c-2.262 3.123-5.483 6.277-9.495 8.772-6.656 4.139-14.37 5.787-21.946 3.367-5.887-1.879-7.908-5.106-8.721-8.797-.988-4.488-.175-10.325 1.738-15.843l3.275-9.449-18.897-6.55-3.275 9.449c-2.533 7.308-4.469 17.176-2.373 26.694 2.272 10.315 9.167 19.396 22.168 23.548 13.876 4.432 27.21 1.293 37.526-4.789v-26.402Z"></path><path fill="#2e3120" d="M500 310.807c-1.614-3.677-2.67-7.887-2.67-11.223 0-1.455.222-3.035.621-5.328l.118-.669.018-.101c.353-1.994.817-4.613.991-7.288.689-10.586-.68-21.259-7.356-31.182-3.881-5.768-9.99-12.833-19.243-15.331-7.067-1.907-14.919-.849-19.779-.194l-.012.001c-.523.071-1.012.137-1.461.193-6.576.833-12.068.814-17.306-.734-5.184-1.531-9.094-4.927-10.951-10.831-3.268-10.386-11.776-23.976-26.517-25.93-10.558-1.398-20.365 3.985-26.934 10.561-6.687 6.693-11.903 16.419-11.903 26.911 0 11.001 3.638 22.518 8.097 31.646 2.264 4.635 4.875 8.934 7.615 12.489 2.58 3.35 5.877 6.837 9.728 8.892 5.119 2.73 10.383 4.132 15.099 5.057 2.359.462 4.696.825 6.838 1.15l.743.113c1.909.289 3.647.552 5.356.86 5.602 1.008 11.116 2.642 16.502 4.873 9.389 3.891 15.491 12.174 17.461 25.266.094 21.138 4.293 36.454 11.666 48.338 7.401 11.928 17.413 19.401 26.858 25.654 3.436 2.275 7.852 3.694 11.947 4.546 1.437.298 2.935.548 4.474.741v-20.242a23.796 23.796 0 0 1-.402-.081c-2.963-.616-4.569-1.37-4.979-1.641-8.841-5.853-15.852-11.38-20.903-19.521-4.993-8.048-8.663-19.655-8.663-38.523v-.69l-.094-.683c-2.59-18.688-12.087-34.338-29.709-41.64-6.661-2.76-13.552-4.81-20.616-6.081-2.002-.36-4.031-.667-5.907-.951l-.731-.111c-2.137-.325-4.097-.632-5.994-1.004-3.797-.744-6.89-1.668-9.533-3.077l.003.001-.003-.001-.002-.002c-.046-.03-.377-.241-.969-.804-.646-.615-1.436-1.488-2.326-2.644-1.787-2.319-3.714-5.43-5.489-9.063-3.62-7.411-6.067-15.868-6.067-22.867 0-3.988 2.166-8.886 6.051-12.775 4.003-4.006 7.958-5.161 10.159-4.87 3.077.408 7.628 4.356 10.066 12.105 3.979 12.651 13.201 20.712 24.363 24.01 8.989 2.655 17.594 2.394 25.484 1.395l.69-.087c6.011-.763 9.855-1.251 12.839-.445 2.179.588 4.823 2.672 7.86 7.186 3.376 5.018 4.509 10.781 3.992 18.72-.097 1.501-.356 2.977-.728 5.097l-.144.826c-.408 2.344-.918 5.419-.918 8.76 0 7.076 2.108 14.323 4.635 19.884 3.622 7.97 11.157 13.322 16.631 15.97.464.225.932.475 1.404.747v-25.378Z"></path><path fill="#2e3120" d="M500 434.018c-1.946-.745-4.135-1.698-6.659-2.893-6.014-2.849-13.968-6.183-22.395-7.808-8.377-1.616-18.345-1.757-27.46 3.151-14.897 8.022-23.371 24.489-25.636 40.429-1.542 10.853-.392 22.79 4.552 33.103h25.656c-1.097-.462-1.882-.943-2.351-1.379-6.697-6.236-9.725-17.165-8.056-28.911 1.675-11.792 7.681-21.521 15.317-25.632 3.465-1.866 8.168-2.285 14.19-1.123 5.971 1.151 12.143 3.649 17.621 6.244 5.183 2.456 10.157 4.524 15.221 5.777v-20.958Z"></path><path fill="#2e3120" d="M500 488.51c-4.351 1.161-8.157 2.916-11.49 4.638-1.967 1.016-3.67 1.952-5.233 2.81-2.929 1.609-5.366 2.948-8.127 4.042H500v-11.49Z"></path><path fill="#2e3120" d="m384.732 500-1.082-1.495-2.066 1.495h3.148Z"></path><path fill="#2e3120" d="M303.269 500a94.082 94.082 0 0 1-.94-1.849c-5.011-10.115-14.334-14.254-22.657-15.598-8.172-1.319-16.612-.229-22.828 1.161-4.603 1.029-9.087 3.375-12.569 5.301-1.231.681-2.369 1.328-3.451 1.942l-.01.006-.004.002c-2.403 1.365-4.531 2.574-6.789 3.655-3.218 1.54-5.286 2.081-6.577 2.111-.738.017-1.235-.064-2.108-.978-6.779-7.093-12.136-16.002-12.371-23.128-.072-2.153.253-4.359.828-7.448.058-.313.12-.64.185-.979l.001-.009c.517-2.724 1.185-6.252 1.347-9.954.392-8.956-1.12-17.337-3.289-25.175l-2.666-9.638-19.276 5.333 2.666 9.638c1.839 6.644 2.853 12.816 2.584 18.968-.095 2.182-.485 4.261-1.028 7.163l-.002.009-.184.983c-.591 3.175-1.305 7.253-1.156 11.771.327 9.863 4.796 19.191 10.048 26.713h100.246Z"></path><path fill="#2e3120" d="M142.254 500c-.318-4.098-1.193-8.111-2.376-11.786-2.442-7.587-6.614-15.046-11.913-20.345-2.435-2.435-5.607-5.162-8.343-7.513-1.468-1.262-2.811-2.417-3.846-3.36-3.601-3.279-6.135-6.144-7.716-9.306-.698-1.396-.979-3.19-.981-6.896 0-.436.006-.922.012-1.452.039-3.215.096-8.015-1.052-12.605-1.394-5.58-4.689-11.493-8.447-16.298-3.671-4.693-8.91-9.771-15.094-12.161-6.983-2.697-14.403-1.265-19.76.694-5.57 2.037-10.951 5.377-14.693 9.119-3.037 3.036-6.234 6.884-9.034 10.254-1.356 1.633-2.62 3.153-3.726 4.415-3.934 4.486-7.351 7.613-11.044 9.41-6.923 3.368-11.244 4.25-14.989 4.074-2.618-.124-5.479-.783-9.252-2.227v20.959c2.728.674 5.483 1.112 8.31 1.245 8.298.392 16.058-1.872 24.68-6.067 7.367-3.584 12.92-9.177 17.331-14.206 1.937-2.208 3.553-4.166 5.046-5.975 2.326-2.818 4.352-5.272 6.82-7.74 1.45-1.45 4.253-3.319 7.42-4.478 3.382-1.237 5.254-.986 5.683-.821 1.33.514 3.856 2.384 6.55 5.827 2.606 3.333 4.276 6.745 4.796 8.826.475 1.897.466 3.757.45 7.015v.001c-.004.67-.007 1.399-.007 2.199.002 4.068.155 9.958 3.092 15.832 3.222 6.443 7.893 11.283 12.138 15.149 2.071 1.886 3.805 3.36 5.391 4.709 2.152 1.83 4.034 3.431 6.122 5.519 2.615 2.615 5.339 7.113 7.018 12.332a33.043 33.043 0 0 1 1.309 5.657h20.105Z"></path><path fill="#2e3120" d="M56.137 500c-1.18-.63-2.365-1.246-3.55-1.838-13.137-6.569-26.68-11-42.471-11A39.01 39.01 0 0 0 0 488.51V500h56.137Z"></path><path fill="#2e3120" d="M0 409.287c3.059.385 6.276.549 9.479.437 4.76-.165 9.94-.954 14.662-2.87 4.73-1.919 9.69-5.274 12.622-10.926 6.128-11.817 5.594-21.84 5.049-32.102l-.002-.037c-.824-15.477-7.521-25.614-17.644-34.183-.383-.323-.783-.665-1.201-1.021l-.001-.001c-4.037-3.443-9.68-8.257-15.657-11.149-3.35-1.621-6.223-4.238-7.134-6.242a36.006 36.006 0 0 1-.173-.386v25.378c3.12 1.801 6.426 4.603 10.382 7.956l.016.013c.278.237.56.476.846.717 6.868 5.814 10.124 11.138 10.594 19.98.545 10.251.571 15.311-2.83 21.87-.062.119-.485.829-2.386 1.6-1.91.775-4.612 1.303-7.838 1.416A39.716 39.716 0 0 1 0 389.045v20.242Z"></path><path fill="#2e3120" d="M0 203.133c.358-.212.713-.427 1.064-.645 10.235-6.364 18.409-16.265 21.428-26.471 2.564-8.663 2.343-17.856-1.38-26.277-3.732-8.446-10.644-15.345-20.116-20.02-.33-.163-.662-.323-.996-.48v24.213c1.258 1.435 2.175 2.913 2.82 4.372 1.594 3.605 1.869 7.872.494 12.517-.576 1.947-1.7 4.159-3.314 6.387v26.404Z"></path><path fill="#2e3120" d="m0 90.046 17.727-5.76-3.09-9.51c-.101-.31-.215-.673-.342-1.077-.586-1.865-1.449-4.612-2.574-7.137-1.436-3.225-3.714-7.147-7.632-10.23A46.009 46.009 0 0 0 0 53.466v36.58Z"></path><path fill="#2e3120" d="M194.102 143.709c1.877-1.209 5.804-1.569 11.812-.212 10.294 2.324 15.067 7.702 15.634 13.131.564 5.388.518 10.854.466 17.006l-.005.608c-.051 6.196-.087 13.086.794 20.089 1.319 10.491 3.932 26.85 21.698 34.168 4.001 1.649 9.581 2.787 14.677 3.302 4.863.492 11.261.633 16.331-1.052 10.106-3.361 14.75-11.62 17.112-18.266 1.19-3.348 1.968-6.733 2.565-9.544.18-.851.34-1.623.486-2.333.385-1.864.682-3.303 1.043-4.623 1.774-6.505 5.196-15.773 10.183-21.859 2.416-2.95 4.679-4.506 6.658-5.118 1.705-.527 4.221-.683 8.151 1.256 6.401 3.16 10.109 8.782 11.544 15.732 1.479 7.161.366 15.187-2.585 21.476-9.152 19.498-31.287 29.908-58.455 35.42-11.175 2.268-22.267 3.538-33.829 4.861h-.001c-5.58.639-11.269 1.29-17.13 2.072-9.222 1.23-20.02 2.908-30.084 6.256-10.042 3.34-20.287 8.639-27.567 17.739-5.242 6.554-7.76 14.263-6.371 22.397 1.332 7.796 6 14.486 12.045 19.966 5.91 5.358 14.436 7.963 22.415 9.365 8.332 1.464 17.783 1.892 27.023 1.728 18.405-.326 37.468-3.04 47.861-5.752 14.584-3.805 57.869-12.934 72.43-14.586l9.936-1.127-2.254-19.872-9.936 1.127c-15.923 1.806-60.25 11.199-75.225 15.106-8.595 2.242-26.048 4.804-43.167 5.108-8.523.151-16.587-.267-23.207-1.43-6.974-1.225-10.839-3.03-12.442-4.483-4.039-3.662-5.438-6.606-5.764-8.518-.269-1.574-.036-3.648 2.274-6.535 3.915-4.895 10.098-8.54 18.261-11.255 8.141-2.708 17.328-4.197 26.417-5.41 5.061-.675 10.321-1.279 15.687-1.895h.005c12.023-1.38 24.576-2.821 36.6-5.261 28.36-5.755 59.135-17.872 72.583-46.524 4.7-10.014 6.46-22.43 4.067-34.019-2.438-11.801-9.349-23.238-22.279-29.62-7.868-3.884-15.663-4.668-22.907-2.431-6.97 2.154-12.294 6.754-16.224 11.551-7.708 9.407-12.021 21.989-14.008 29.27-.541 1.983-1.022 4.317-1.445 6.367l-.001.007c-.122.594-.24 1.164-.353 1.695-.559 2.636-1.118 4.952-1.845 6.998-1.474 4.146-2.99 5.458-4.578 5.985-.864.288-3.718.567-8.008.133-4.058-.411-7.533-1.262-9.072-1.896-6.364-2.622-8.14-7.58-9.472-18.172-.691-5.496-.69-11.119-.638-17.428l.009-.967c.05-5.857.107-12.35-.577-18.892-1.828-17.481-16.537-27.268-31.121-30.56-6.713-1.516-17.862-3.009-27.048 2.908-9.824 6.328-15.725 15.92-18.567 25.365-4.078 13.552-7.11 26.609-9.729 40.277-1.416 7.388-3.053 14.821-4.934 22.062-.119.459-.243.973-.352 1.42l-.063.262a72.095 72.095 0 0 1-.395 1.561c-.121.451-.241.865-.36 1.241l-.023-.023c-1.563-1.523-2.948-3.896-3.652-5.626-2.542-6.25-3.495-13.001-4.657-21.231-.132-.929-.265-1.877-.404-2.845-1.292-8.991-3.048-19.595-8.629-29.432-4.929-8.689-14.479-19.421-29.922-19.421-9.95 0-17.609 5.29-22.783 10.764-5.192 5.494-8.812 12.097-10.953 17.235-7.657 18.373-6.19 38.46-4.996 54.821v.001l.202 2.788C64.468 246 71.957 265.171 78.6 282.179l.001.002c.562 1.437 1.117 2.859 1.662 4.265l3.617 9.323 18.646-7.233-3.616-9.323-1.453-3.737c-6.874-17.652-13.266-34.068-14.455-50.78l-.087-1.228c-1.263-17.703-2.383-33.409 3.393-47.27 1.514-3.634 3.97-7.954 7.028-11.19 3.076-3.256 5.841-4.502 8.247-4.502 4.879 0 9.1 3.249 12.526 9.29 3.535 6.231 4.938 13.428 6.228 22.407.133.927.265 1.88.401 2.855 1.095 7.884 2.39 17.206 5.93 25.912 1.41 3.466 4.136 8.431 8.215 12.41 4.098 3.996 11.136 8.347 20.03 6.026 7.191-1.876 10.479-7.891 11.887-11.193 1.24-2.906 2.042-6.268 2.427-7.883.072-.299.129-.538.172-.704 2.004-7.721 3.733-15.58 5.217-23.324 2.522-13.158 5.402-25.527 9.239-38.278 1.766-5.869 5.205-11.067 10.246-14.315Z"></path><path fill="#2e3120" d="m329.746 91.239 7.754-18.436 9.218 3.876c30.92 13.004 62.974 43.53 57.391 84.272l-1.358 9.907-19.814-2.715 1.357-9.907c3.772-27.526-17.999-51.627-45.33-63.12l-9.218-3.877Z"></path><path fill="#2e3120" fill-rule="evenodd" d="m332.343 363.413.262-.026c20.009-2.022 33.183-3.353 47.149 5.518 4.238 2.692 7.887 7.526 10.507 13.961 2.596 6.378 3.855 13.567 3.855 19.82 0 9.934-6.02 20.909-14.508 28.185-7.285 6.244-13.458 9.907-18.964 10.968-4.778.92-10.219.113-17.146-5.63-.81-.671-1.604-1.322-2.381-1.958-4.315-3.536-8.077-6.618-10.743-10.133-2.721-3.589-3.13-6.048-1.974-8.94 1.193-2.981 4.222-6.655 8.671-9.721 4.437-3.058 9.053-4.658 12.402-4.778 2.708-.096 5.514.077 7.673.674 1.415.391 1.937.777 2.075.905l4.423 8.844 17.888-8.944-4.472-8.944c-3.397-6.794-9.728-9.796-14.586-11.139-4.954-1.369-10.056-1.513-13.715-1.383-8.176.292-16.423 3.739-23.037 8.296-6.601 4.55-12.81 11.059-15.891 18.762-4.617 11.541-.752 21.386 4.607 28.453 4.245 5.597 10.176 10.419 14.39 13.845l.002.002c.685.557 1.324 1.076 1.904 1.557 10.883 9.021 22.263 12.073 33.694 9.871 10.703-2.062 20.125-8.504 28.196-15.422 11.681-10.013 21.492-26.141 21.492-43.37 0-8.668-1.698-18.435-5.331-27.36-3.609-8.868-9.46-17.684-18.308-23.304-19.893-12.635-39.439-10.63-57.744-8.753l-1.591.163-.809.082c-19.554 1.975-36.66 8.441-51.957 21.588-12.2 10.484-23.494 21.645-29.693 39.265l-3.319 9.433 18.866 6.638 3.319-9.433c4.394-12.488 12.31-20.808 23.862-30.735 11.795-10.136 24.895-15.237 40.932-16.857Zm26.92 38.889a.094.094 0 0 1-.019-.023.092.092 0 0 1 .019.023Z" clip-rule="evenodd"></path><path fill="#2e3120" d="M61.894 317.686h10c24.337 0 41.851 14.543 52.031 33.489 3.995 7.435 6.791 15.782 9.189 23.744a761.48 761.48 0 0 1 2.269 7.729c1.564 5.396 3.06 10.558 4.846 15.694 5.184 14.908 11.509 25.404 23.065 30.382l9.184 3.956-7.912 18.368-9.184-3.956c-19.598-8.442-28.398-25.944-34.044-42.181-1.963-5.646-3.705-11.653-5.341-17.297l-.002-.005v-.003l-.004-.011a684.754 684.754 0 0 0-2.027-6.908c-2.336-7.754-4.666-14.48-7.657-20.046-7.69-14.313-19.33-22.955-34.413-22.955h-10v-20Z"></path><path fill="#2e3120" fill-rule="evenodd" d="M157.43 83.734c-11.132-11.537-23.986-24.21-43.385-29.039-9.347-2.326-22.353-5.488-35.273-1.019-12.077 4.178-19.466 12.47-24.647 21.135-2.545 4.257-4.634 8.73-6.486 12.912a612.499 612.499 0 0 0-1.785 4.08v.002l-.001.003-.001.002-.001.002-.005.01c-1.19 2.74-2.304 5.305-3.538 7.897-3.13 6.572-6.647 17.214.688 27.579 3.014 4.259 7.607 6.831 11.55 8.177 3.969 1.355 9.042 2.072 13.867.767 7.155-1.935 14.055-7.535 17.687-10.837 2.694-2.451 4.429-5.471 5.373-7.115l.096-.167.079-.137c1.18-2.044 1.557-2.542 1.844-2.808 1.233-1.138 2.507-1.552 5.067-.979 3.032.679 6.658 2.591 10.594 5.22.625.417 1.317.945 2.389 1.761l.239.182c1.087.827 2.502 1.898 4.037 2.89 2.845 1.838 7.719 4.51 13.709 3.992 8.69-.752 17.97-4.986 24.198-11.268 3.324-3.351 6.424-8.328 7.901-13.681 1.453-5.266 1.851-13.294-4.196-19.561Zm-48.215-9.63c13.078 3.255 22.348 11.66 33.31 22.987-.025.224-.078.52-.179.885-.228.829-.641 1.793-1.207 2.753-.569.966-1.168 1.714-1.616 2.166-2.721 2.744-7.335 4.932-11.343 5.385-.211-.083-.692-.3-1.509-.828-.816-.526-1.678-1.168-2.776-2.004l-.316-.241c-.939-.716-2.141-1.633-3.317-2.419-4.429-2.959-10.572-6.592-17.333-8.106-7.234-1.62-15.777-.875-23.008 5.806-2.728 2.52-4.468 5.542-5.44 7.232l-.15.258c-.568.984-.907 1.562-1.243 2.055-.302.444-.444.576-.444.576-3.395 3.087-7.216 5.694-9.395 6.311-.042.004-.217.021-.537-.004a7.163 7.163 0 0 1-1.706-.368 6.625 6.625 0 0 1-1.49-.71 2.786 2.786 0 0 1-.269-.2c-.515-.766-.624-1.354-.569-2.149.08-1.13.54-2.764 1.687-5.17 1.386-2.911 2.733-6.01 3.994-8.914l.002-.003c.538-1.24 1.061-2.443 1.565-3.58 1.77-3.998 3.464-7.568 5.365-10.748 3.711-6.207 7.868-10.368 14.02-12.497 6.56-2.27 13.948-.952 23.904 1.526Z" clip-rule="evenodd"></path><path fill="#2e3120" d="m157.151 334.148 5.344 8.451c8.946 14.146 19.734 23.086 35.481 31.721 3.005 1.649 7.643 2.088 12.258.948l9.709-2.398 4.795 19.417-9.708 2.397c-8.034 1.985-18.112 1.866-26.671-2.828-17.859-9.793-31.552-20.833-42.767-38.567l-5.345-8.452 16.904-10.689Z"></path><path fill="#2e3120" d="m30.366 218.388-5.344-8.452-16.904 10.689 5.344 8.452c4.242 6.71 5.844 13.542 7.814 21.945.42 1.788.855 3.648 1.337 5.593 2.806 11.33 3.622 19.35-1.394 26.641l-5.668 8.239L32.03 302.83l5.668-8.238c10.455-15.199 7.166-31.329 4.33-42.785-.349-1.405-.693-2.903-1.054-4.475-1.948-8.481-4.39-19.113-10.607-28.944Z"></path><path fill="#2e3120" d="M234.597 59.918c-8.72-2.577-14.887-4.197-22.079-3.774-3.568.21-7.352 1.287-11.713 3.032-2.168.867-4.356 1.847-6.694 2.91l-1.003.458c-1.992.909-4.115 1.876-6.221 2.769l-9.207 3.901-7.803-18.415 9.207-3.901c1.836-.778 3.679-1.618 5.682-2.532l1.06-.483c2.359-1.073 4.915-2.222 7.552-3.277 5.248-2.1 11.318-4.037 17.965-4.428 11.069-.65 20.291 2.01 28.921 4.56 10.634 3.141 19.636 7.095 29.132 12.608 3.941 2.289 7.479 4.181 10.752 5.273l9.487 3.162-6.325 18.973-9.486-3.162c-5.391-1.797-10.47-4.627-14.471-6.95-8.189-4.755-15.728-8.057-24.756-10.724Z"></path></svg>