<svg xmlns="http://www.w3.org/2000/svg" fill="none" viewBox="0 0 500 500"><path fill="#2e3120" fill-rule="evenodd" d="M52.084 180.266c8.19 0 12.833-2.018 22.002-4.491 4.58-1.236 7.351-3.637 7.351-8 0-4.362-3.286-7.912-7.367-8.001-1.74-.247-3.548-.263-5.379-.728-.914-.231-1.695-.675-2.497-1.057-1.158-.552-2.344-1.013-3.746-1.101-2.397-.152-4.698.484-6.975 1.295-4.114 1.469-7.522.253-11.397 1.019-5.502 1.067-9.152 6.686-8.147 12.537 2.428 8.527 8.147 8.527 16.154 8.527Z" clip-rule="evenodd"></path><path fill="#2e3120" fill-rule="evenodd" d="M52.084 69.334c8.19 0 12.833-2.018 22.002-4.492 4.58-1.235 7.351-3.637 7.351-7.999s-3.286-7.913-7.367-8c-1.74-.248-3.548-.264-5.379-.729-.914-.231-1.695-.675-2.497-1.057-1.158-.553-2.344-1.013-3.746-1.102-2.397-.15-4.698.485-6.975 1.296-4.114 1.47-7.522.253-11.397 1.019-5.502 1.067-9.152 6.685-8.147 12.537 2.428 8.527 8.147 8.527 16.154 8.527Z" clip-rule="evenodd"></path><path fill="#2e3120" fill-rule="evenodd" d="M52.084 291.2c8.19 0 12.833-2.019 22.002-4.492 4.58-1.236 7.351-3.637 7.351-8 0-4.362-3.286-7.912-7.367-8.001-1.74-.247-3.548-.263-5.379-.727-.914-.232-1.695-.676-2.497-1.057-1.158-.553-2.344-1.014-3.746-1.102-2.397-.152-4.698.484-6.975 1.295-4.114 1.469-7.522.253-11.397 1.019-5.502 1.067-9.152 6.686-8.147 12.537 2.428 8.528 8.147 8.528 16.154 8.528Z" clip-rule="evenodd"></path><path fill="#2e3120" fill-rule="evenodd" d="M52.084 455.88c8.19 0 12.833-2.018 22.002-4.492 4.58-1.236 7.351-3.637 7.351-7.999s-3.286-7.913-7.367-8.001c-1.74-.247-3.548-.263-5.379-.728-.914-.231-1.695-.675-2.497-1.057-1.158-.553-2.344-1.013-3.746-1.102-2.397-.151-4.698.485-6.975 1.296-4.114 1.469-7.522.252-11.397 1.019-5.502 1.067-9.152 6.685-8.147 12.536 2.428 8.528 8.147 8.528 16.154 8.528Z" clip-rule="evenodd"></path><path fill="#2e3120" fill-rule="evenodd" d="M52.084 236.827c8.19 0 12.833-2.019 22.002-4.492 4.58-1.236 7.351-3.637 7.351-8 0-4.362-3.286-7.912-7.367-8.001-1.74-.247-3.548-.263-5.379-.727-.914-.232-1.695-.676-2.497-1.058-1.158-.552-2.344-1.013-3.746-1.101-2.397-.152-4.698.484-6.975 1.295-4.114 1.469-7.522.253-11.397 1.019-5.502 1.067-9.152 6.686-8.147 12.537 2.428 8.527 8.147 8.528 16.154 8.528Z" clip-rule="evenodd"></path><path fill="#2e3120" fill-rule="evenodd" d="M52.084 401.507c8.19 0 12.833-2.018 22.002-4.492 4.58-1.236 7.351-3.637 7.351-7.999s-3.286-7.913-7.367-8.001c-1.74-.247-3.548-.263-5.379-.728-.914-.232-1.695-.675-2.497-1.057-1.158-.553-2.344-1.013-3.746-1.102-2.397-.151-4.698.485-6.975 1.296-4.114 1.469-7.522.252-11.397 1.019-5.502 1.067-9.152 6.685-8.147 12.536 2.428 8.528 8.147 8.528 16.154 8.528Z" clip-rule="evenodd"></path><path fill="#2e3120" fill-rule="evenodd" d="M52.084 125.893c8.19 0 12.833-2.018 22.002-4.491 4.58-1.236 7.351-3.638 7.351-8s-3.286-7.912-7.367-8.001c-1.74-.247-3.548-.263-5.379-.728-.914-.231-1.695-.675-2.497-1.057-1.158-.552-2.344-1.013-3.746-1.101-2.397-.152-4.698.484-6.975 1.295-4.114 1.469-7.522.253-11.397 1.019-5.502 1.067-9.152 6.685-8.147 12.537 2.428 8.527 8.147 8.527 16.154 8.527Z" clip-rule="evenodd"></path><path fill="#2e3120" fill-rule="evenodd" d="M52.084 347.759c8.19 0 12.833-2.018 22.002-4.492 4.58-1.236 7.351-3.637 7.351-7.999 0-4.363-3.286-7.913-7.367-8.001-1.74-.247-3.548-.263-5.379-.728-.914-.232-1.695-.675-2.497-1.057-1.158-.553-2.344-1.013-3.746-1.102-2.397-.151-4.698.485-6.975 1.296-4.114 1.469-7.522.252-11.397 1.018-5.502 1.068-9.152 6.686-8.147 12.537 2.428 8.528 8.147 8.528 16.154 8.528Z" clip-rule="evenodd"></path><path fill="#2e3120" fill-rule="evenodd" d="M222.238 150.385c8.19 0 12.834-2.019 22.003-4.492 4.58-1.236 7.351-3.637 7.351-8 0-4.362-3.287-7.912-7.368-8-1.739-.248-3.547-.264-5.378-.728-.915-.232-1.696-.676-2.498-1.057-1.158-.553-2.343-1.014-3.745-1.102-2.397-.152-4.698.484-6.975 1.295-4.114 1.469-7.523.253-11.398 1.019-5.501 1.068-9.152 6.686-8.147 12.537 2.428 8.528 8.147 8.528 16.155 8.528Z" clip-rule="evenodd"></path><path fill="#2e3120" fill-rule="evenodd" d="M222.238 39.452c8.19 0 12.834-2.019 22.003-4.492 4.58-1.236 7.351-3.637 7.351-8 0-4.362-3.287-7.912-7.368-8-1.739-.248-3.547-.264-5.378-.729-.915-.231-1.696-.675-2.498-1.057-1.158-.552-2.343-1.013-3.745-1.101-2.397-.152-4.698.484-6.975 1.295-4.114 1.47-7.523.253-11.398 1.019-5.501 1.067-9.152 6.686-8.147 12.537 2.428 8.528 8.147 8.528 16.155 8.528Z" clip-rule="evenodd"></path><path fill="#2e3120" fill-rule="evenodd" d="M222.238 261.317c8.19 0 12.834-2.019 22.003-4.492 4.58-1.236 7.351-3.637 7.351-8 0-4.362-3.287-7.912-7.368-8-1.739-.248-3.547-.264-5.378-.728-.915-.232-1.696-.676-2.498-1.057-1.158-.553-2.343-1.014-3.745-1.102-2.397-.151-4.698.484-6.975 1.295-4.114 1.47-7.523.253-11.398 1.019-5.501 1.068-9.152 6.686-8.147 12.537 2.428 8.528 8.147 8.528 16.155 8.528Z" clip-rule="evenodd"></path><path fill="#2e3120" fill-rule="evenodd" d="M222.238 425.997c8.19 0 12.834-2.018 22.003-4.491 4.58-1.236 7.351-3.638 7.351-8s-3.287-7.912-7.368-8.001c-1.739-.247-3.547-.263-5.378-.728-.915-.231-1.696-.675-2.498-1.057-1.158-.552-2.343-1.013-3.745-1.101-2.397-.152-4.698.484-6.975 1.295-4.114 1.469-7.523.253-11.398 1.019-5.501 1.067-9.152 6.685-8.147 12.537 2.428 8.527 8.147 8.527 16.155 8.527Z" clip-rule="evenodd"></path><path fill="#2e3120" fill-rule="evenodd" d="M222.238 206.944c8.19 0 12.834-2.019 22.003-4.492 4.58-1.236 7.351-3.637 7.351-8 0-4.362-3.287-7.912-7.368-8-1.739-.248-3.547-.264-5.378-.728-.915-.232-1.696-.676-2.498-1.057-1.158-.553-2.343-1.014-3.745-1.102-2.397-.151-4.698.484-6.975 1.295-4.114 1.47-7.523.253-11.398 1.019-5.501 1.068-9.152 6.686-8.147 12.537 2.428 8.528 8.147 8.528 16.155 8.528Z" clip-rule="evenodd"></path><path fill="#2e3120" fill-rule="evenodd" d="M222.238 371.624c8.19 0 12.834-2.018 22.003-4.491 4.58-1.236 7.351-3.638 7.351-8s-3.287-7.913-7.368-8.001c-1.739-.247-3.547-.263-5.378-.728-.915-.231-1.696-.675-2.498-1.057-1.158-.553-2.343-1.013-3.745-1.101-2.397-.152-4.698.484-6.975 1.295-4.114 1.469-7.523.253-11.398 1.019-5.501 1.067-9.152 6.685-8.147 12.537 2.428 8.527 8.147 8.527 16.155 8.527Z" clip-rule="evenodd"></path><path fill="#2e3120" fill-rule="evenodd" d="M222.238 96.012c8.19 0 12.834-2.019 22.003-4.492 4.58-1.236 7.351-3.637 7.351-8 0-4.362-3.287-7.912-7.368-8-1.739-.248-3.547-.264-5.378-.728-.915-.232-1.696-.676-2.498-1.058-1.158-.552-2.343-1.013-3.745-1.101-2.397-.152-4.698.484-6.975 1.295-4.114 1.47-7.523.253-11.398 1.019-5.501 1.067-9.152 6.686-8.147 12.537 2.428 8.528 8.147 8.528 16.155 8.528Z" clip-rule="evenodd"></path><path fill="#2e3120" fill-rule="evenodd" d="M222.238 317.877c8.19 0 12.834-2.018 22.003-4.492 4.58-1.236 7.351-3.637 7.351-8 0-4.362-3.287-7.912-7.368-8-1.739-.248-3.547-.264-5.378-.728-.915-.232-1.696-.675-2.498-1.057-1.158-.553-2.343-1.014-3.745-1.102-2.397-.151-4.698.484-6.975 1.295-4.114 1.47-7.523.253-11.398 1.019-5.501 1.068-9.152 6.686-8.147 12.537 2.428 8.528 8.147 8.528 16.155 8.528Z" clip-rule="evenodd"></path><path fill="#2e3120" fill-rule="evenodd" d="M222.238 482.557c8.19 0 12.834-2.018 22.003-4.491 4.58-1.236 7.351-3.637 7.351-8 0-4.362-3.287-7.912-7.368-8.001-1.739-.247-3.547-.263-5.378-.728-.915-.231-1.696-.675-2.498-1.057-1.158-.552-2.343-1.013-3.745-1.101-2.397-.152-4.698.484-6.975 1.295-4.114 1.469-7.523.253-11.398 1.019-5.501 1.067-9.152 6.686-8.147 12.537 2.428 8.527 8.147 8.527 16.155 8.527Z" clip-rule="evenodd"></path><path fill="#2e3120" fill-rule="evenodd" d="M258.272 177.455c8.19 0 12.834-2.018 22.003-4.491 4.58-1.236 7.351-3.637 7.351-8 0-4.362-3.287-7.912-7.368-8.001-1.739-.247-3.547-.263-5.379-.728-.914-.231-1.695-.675-2.497-1.057-1.158-.552-2.343-1.013-3.745-1.101-2.397-.152-4.699.484-6.975 1.295-4.114 1.469-7.523.253-11.398 1.019-5.501 1.067-9.152 6.685-8.147 12.537 2.428 8.527 8.147 8.527 16.155 8.527Z" clip-rule="evenodd"></path><path fill="#2e3120" fill-rule="evenodd" d="M258.272 66.522c8.19 0 12.834-2.018 22.003-4.492 4.58-1.235 7.351-3.637 7.351-7.999s-3.287-7.913-7.368-8c-1.739-.248-3.547-.264-5.379-.729-.914-.231-1.695-.675-2.497-1.057-1.158-.553-2.343-1.013-3.745-1.101-2.397-.152-4.699.484-6.975 1.295-4.114 1.47-7.523.252-11.398 1.019-5.501 1.067-9.152 6.685-8.147 12.537 2.428 8.527 8.147 8.527 16.155 8.527Z" clip-rule="evenodd"></path><path fill="#2e3120" fill-rule="evenodd" d="M258.272 288.388c8.19 0 12.834-2.018 22.003-4.492 4.58-1.236 7.351-3.637 7.351-7.999 0-4.363-3.287-7.913-7.368-8.001-1.739-.248-3.547-.263-5.379-.728-.914-.232-1.695-.675-2.497-1.057-1.158-.553-2.343-1.014-3.745-1.102-2.397-.151-4.699.485-6.975 1.296-4.114 1.469-7.523.252-11.398 1.018-5.501 1.068-9.152 6.686-8.147 12.537 2.428 8.528 8.147 8.528 16.155 8.528Z" clip-rule="evenodd"></path><path fill="#2e3120" fill-rule="evenodd" d="M258.272 453.069c8.19 0 12.834-2.019 22.003-4.492 4.58-1.236 7.351-3.637 7.351-8 0-4.362-3.287-7.912-7.368-8-1.739-.248-3.547-.264-5.379-.728-.914-.232-1.695-.676-2.497-1.057-1.158-.553-2.343-1.014-3.745-1.102-2.397-.151-4.699.484-6.975 1.295-4.114 1.47-7.523.253-11.398 1.019-5.501 1.068-9.152 6.686-8.147 12.537 2.428 8.528 8.147 8.528 16.155 8.528Z" clip-rule="evenodd"></path><path fill="#2e3120" fill-rule="evenodd" d="M258.272 234.015c8.19 0 12.834-2.018 22.003-4.492 4.58-1.236 7.351-3.637 7.351-7.999 0-4.363-3.287-7.913-7.368-8.001-1.739-.248-3.547-.263-5.379-.728-.914-.232-1.695-.675-2.497-1.057-1.158-.553-2.343-1.014-3.745-1.102-2.397-.151-4.699.485-6.975 1.295-4.114 1.47-7.523.253-11.398 1.019-5.501 1.068-9.152 6.686-8.147 12.537 2.428 8.528 8.147 8.528 16.155 8.528Z" clip-rule="evenodd"></path><path fill="#2e3120" fill-rule="evenodd" d="M258.272 398.696c8.19 0 12.834-2.019 22.003-4.492 4.58-1.236 7.351-3.637 7.351-8 0-4.362-3.287-7.912-7.368-8-1.739-.248-3.547-.264-5.379-.728-.914-.232-1.695-.676-2.497-1.057-1.158-.553-2.343-1.014-3.745-1.102-2.397-.152-4.699.484-6.975 1.295-4.114 1.469-7.523.253-11.398 1.019-5.501 1.068-9.152 6.686-8.147 12.537 2.428 8.528 8.147 8.528 16.155 8.528Z" clip-rule="evenodd"></path><path fill="#2e3120" fill-rule="evenodd" d="M258.272 123.082c8.19 0 12.834-2.018 22.003-4.492 4.58-1.236 7.351-3.637 7.351-7.999 0-4.363-3.287-7.913-7.368-8.001-1.739-.248-3.547-.263-5.379-.728-.914-.232-1.695-.675-2.497-1.057-1.158-.553-2.343-1.014-3.745-1.102-2.397-.151-4.699.484-6.975 1.295-4.114 1.47-7.523.253-11.398 1.019-5.501 1.068-9.152 6.686-8.147 12.537 2.428 8.528 8.147 8.528 16.155 8.528Z" clip-rule="evenodd"></path><path fill="#2e3120" fill-rule="evenodd" d="M258.272 344.948c8.19 0 12.834-2.019 22.003-4.492 4.58-1.236 7.351-3.637 7.351-8 0-4.362-3.287-7.912-7.368-8-1.739-.248-3.547-.264-5.379-.728-.914-.232-1.695-.676-2.497-1.057-1.158-.553-2.343-1.014-3.745-1.102-2.397-.152-4.699.484-6.975 1.295-4.114 1.469-7.523.253-11.398 1.019-5.501 1.068-9.152 6.686-8.147 12.537 2.428 8.528 8.147 8.528 16.155 8.528Z" clip-rule="evenodd"></path><path fill="#2e3120" fill-rule="evenodd" d="M421.411 150.385c8.19 0 12.834-2.019 22.003-4.492 4.581-1.236 7.351-3.637 7.351-8 0-4.362-3.286-7.912-7.367-8-1.74-.248-3.548-.264-5.379-.728-.915-.232-1.695-.676-2.497-1.057-1.159-.553-2.344-1.014-3.746-1.102-2.397-.152-4.698.484-6.975 1.295-4.114 1.469-7.523.253-11.398 1.019-5.501 1.068-9.151 6.686-8.147 12.537 2.429 8.528 8.147 8.528 16.155 8.528Z" clip-rule="evenodd"></path><path fill="#2e3120" fill-rule="evenodd" d="M421.411 39.452c8.19 0 12.834-2.019 22.003-4.492 4.581-1.236 7.351-3.637 7.351-8 0-4.362-3.286-7.912-7.367-8-1.74-.248-3.548-.264-5.379-.729-.915-.231-1.695-.675-2.497-1.057-1.159-.552-2.344-1.013-3.746-1.101-2.397-.152-4.698.484-6.975 1.295-4.114 1.47-7.523.253-11.398 1.019-5.501 1.067-9.151 6.686-8.147 12.537 2.429 8.528 8.147 8.528 16.155 8.528Z" clip-rule="evenodd"></path><path fill="#2e3120" fill-rule="evenodd" d="M421.411 261.317c8.19 0 12.834-2.019 22.003-4.492 4.581-1.236 7.351-3.637 7.351-8 0-4.362-3.286-7.912-7.367-8-1.74-.248-3.548-.264-5.379-.728-.915-.232-1.695-.676-2.497-1.057-1.159-.553-2.344-1.014-3.746-1.102-2.397-.151-4.698.484-6.975 1.295-4.114 1.47-7.523.253-11.398 1.019-5.501 1.068-9.151 6.686-8.147 12.537 2.429 8.528 8.147 8.528 16.155 8.528Z" clip-rule="evenodd"></path><path fill="#2e3120" fill-rule="evenodd" d="M421.411 425.997c8.19 0 12.834-2.018 22.003-4.491 4.581-1.236 7.351-3.638 7.351-8s-3.286-7.912-7.367-8.001c-1.74-.247-3.548-.263-5.379-.728-.915-.231-1.695-.675-2.497-1.057-1.159-.552-2.344-1.013-3.746-1.101-2.397-.152-4.698.484-6.975 1.295-4.114 1.469-7.523.253-11.398 1.019-5.501 1.067-9.151 6.685-8.147 12.537 2.429 8.527 8.147 8.527 16.155 8.527Z" clip-rule="evenodd"></path><path fill="#2e3120" fill-rule="evenodd" d="M421.411 206.944c8.19 0 12.834-2.019 22.003-4.492 4.581-1.236 7.351-3.637 7.351-8 0-4.362-3.286-7.912-7.367-8-1.74-.248-3.548-.264-5.379-.728-.915-.232-1.695-.676-2.497-1.057-1.159-.553-2.344-1.014-3.746-1.102-2.397-.151-4.698.484-6.975 1.295-4.114 1.47-7.523.253-11.398 1.019-5.501 1.068-9.151 6.686-8.147 12.537 2.429 8.528 8.147 8.528 16.155 8.528Z" clip-rule="evenodd"></path><path fill="#2e3120" fill-rule="evenodd" d="M421.411 371.624c8.19 0 12.834-2.018 22.003-4.491 4.581-1.236 7.351-3.638 7.351-8s-3.286-7.913-7.367-8.001c-1.74-.247-3.548-.263-5.379-.728-.915-.231-1.695-.675-2.497-1.057-1.159-.553-2.344-1.013-3.746-1.101-2.397-.152-4.698.484-6.975 1.295-4.114 1.469-7.523.253-11.398 1.019-5.501 1.067-9.151 6.685-8.147 12.537 2.429 8.527 8.147 8.527 16.155 8.527Z" clip-rule="evenodd"></path><path fill="#2e3120" fill-rule="evenodd" d="M421.411 96.012c8.19 0 12.834-2.019 22.003-4.492 4.581-1.236 7.351-3.637 7.351-8 0-4.362-3.286-7.912-7.367-8-1.74-.248-3.548-.264-5.379-.728-.915-.232-1.695-.676-2.497-1.058-1.159-.552-2.344-1.013-3.746-1.101-2.397-.152-4.698.484-6.975 1.295-4.114 1.47-7.523.253-11.398 1.019-5.501 1.067-9.151 6.686-8.147 12.537 2.429 8.528 8.147 8.528 16.155 8.528Z" clip-rule="evenodd"></path><path fill="#2e3120" fill-rule="evenodd" d="M421.411 317.877c8.19 0 12.834-2.018 22.003-4.492 4.581-1.236 7.351-3.637 7.351-8 0-4.362-3.286-7.912-7.367-8-1.74-.248-3.548-.264-5.379-.728-.915-.232-1.695-.675-2.497-1.057-1.159-.553-2.344-1.014-3.746-1.102-2.397-.151-4.698.484-6.975 1.295-4.114 1.47-7.523.253-11.398 1.019-5.501 1.068-9.151 6.686-8.147 12.537 2.429 8.528 8.147 8.528 16.155 8.528Z" clip-rule="evenodd"></path><path fill="#2e3120" fill-rule="evenodd" d="M421.411 482.557c8.19 0 12.834-2.018 22.003-4.491 4.581-1.236 7.351-3.637 7.351-8 0-4.362-3.286-7.912-7.367-8.001-1.74-.247-3.548-.263-5.379-.728-.915-.231-1.695-.675-2.497-1.057-1.159-.552-2.344-1.013-3.746-1.101-2.397-.152-4.698.484-6.975 1.295-4.114 1.469-7.523.253-11.398 1.019-5.501 1.067-9.151 6.686-8.147 12.537 2.429 8.527 8.147 8.527 16.155 8.527Z" clip-rule="evenodd"></path><path fill="#2e3120" fill-rule="evenodd" d="M452.98 176.267c8.19 0 12.834-2.018 22.003-4.492 4.581-1.236 7.351-3.637 7.351-7.999 0-4.363-3.286-7.913-7.367-8.001-1.74-.248-3.548-.263-5.379-.728-.915-.232-1.696-.675-2.497-1.057-1.159-.553-2.344-1.014-3.746-1.102-2.397-.151-4.698.485-6.975 1.295-4.114 1.47-7.523.253-11.398 1.019-5.501 1.068-9.151 6.686-8.147 12.537 2.429 8.528 8.147 8.528 16.155 8.528Z" clip-rule="evenodd"></path><path fill="#2e3120" fill-rule="evenodd" d="M452.98 65.334c8.19 0 12.834-2.018 22.003-4.492 4.581-1.235 7.351-3.637 7.351-7.999s-3.286-7.913-7.367-8c-1.74-.248-3.548-.264-5.379-.729-.915-.231-1.696-.675-2.497-1.057-1.159-.553-2.344-1.013-3.746-1.102-2.397-.15-4.698.485-6.975 1.296-4.114 1.47-7.523.253-11.398 1.019-5.501 1.067-9.151 6.685-8.147 12.537 2.429 8.527 8.147 8.527 16.155 8.527Z" clip-rule="evenodd"></path><path fill="#2e3120" fill-rule="evenodd" d="M452.98 287.2c8.19 0 12.834-2.019 22.003-4.492 4.581-1.236 7.351-3.637 7.351-8 0-4.362-3.286-7.912-7.367-8.001-1.74-.247-3.548-.263-5.379-.727-.915-.232-1.696-.676-2.497-1.057-1.159-.553-2.344-1.014-3.746-1.102-2.397-.152-4.698.484-6.975 1.295-4.114 1.469-7.523.253-11.398 1.019-5.501 1.067-9.151 6.686-8.147 12.537 2.429 8.528 8.147 8.528 16.155 8.528Z" clip-rule="evenodd"></path><path fill="#2e3120" fill-rule="evenodd" d="M452.98 451.88c8.19 0 12.834-2.018 22.003-4.492 4.581-1.236 7.351-3.637 7.351-7.999s-3.286-7.913-7.367-8.001c-1.74-.247-3.548-.263-5.379-.728-.915-.231-1.696-.675-2.497-1.057-1.159-.553-2.344-1.013-3.746-1.102-2.397-.151-4.698.485-6.975 1.296-4.114 1.469-7.523.252-11.398 1.019-5.501 1.067-9.151 6.685-8.147 12.536 2.429 8.528 8.147 8.528 16.155 8.528Z" clip-rule="evenodd"></path><path fill="#2e3120" fill-rule="evenodd" d="M452.98 232.827c8.19 0 12.834-2.019 22.003-4.492 4.581-1.236 7.351-3.637 7.351-8 0-4.362-3.286-7.912-7.367-8.001-1.74-.247-3.548-.263-5.379-.727-.915-.232-1.696-.676-2.497-1.058-1.159-.552-2.344-1.013-3.746-1.101-2.397-.152-4.698.484-6.975 1.295-4.114 1.469-7.523.253-11.398 1.019-5.501 1.067-9.151 6.686-8.147 12.537 2.429 8.527 8.147 8.528 16.155 8.528Z" clip-rule="evenodd"></path><path fill="#2e3120" fill-rule="evenodd" d="M452.98 397.507c8.19 0 12.834-2.018 22.003-4.492 4.581-1.236 7.351-3.637 7.351-7.999s-3.286-7.913-7.367-8.001c-1.74-.247-3.548-.263-5.379-.728-.915-.232-1.696-.675-2.497-1.057-1.159-.553-2.344-1.013-3.746-1.102-2.397-.151-4.698.485-6.975 1.296-4.114 1.469-7.523.252-11.398 1.019-5.501 1.067-9.151 6.685-8.147 12.536 2.429 8.528 8.147 8.528 16.155 8.528Z" clip-rule="evenodd"></path><path fill="#2e3120" fill-rule="evenodd" d="M452.98 121.894c8.19 0 12.834-2.018 22.003-4.492 4.581-1.236 7.351-3.637 7.351-7.999 0-4.363-3.286-7.913-7.367-8.001-1.74-.248-3.548-.263-5.379-.728-.915-.232-1.696-.675-2.497-1.057-1.159-.553-2.344-1.014-3.746-1.102-2.397-.151-4.698.484-6.975 1.295-4.114 1.47-7.523.253-11.398 1.019-5.501 1.068-9.151 6.686-8.147 12.537 2.429 8.528 8.147 8.528 16.155 8.528Z" clip-rule="evenodd"></path><path fill="#2e3120" fill-rule="evenodd" d="M452.98 343.76c8.19 0 12.834-2.019 22.003-4.492 4.581-1.236 7.351-3.637 7.351-8 0-4.362-3.286-7.912-7.367-8-1.74-.248-3.548-.264-5.379-.728-.915-.232-1.696-.676-2.497-1.057-1.159-.553-2.344-1.014-3.746-1.102-2.397-.152-4.698.484-6.975 1.295-4.114 1.469-7.523.253-11.398 1.019-5.501 1.068-9.151 6.686-8.147 12.537 2.429 8.528 8.147 8.528 16.155 8.528Z" clip-rule="evenodd"></path><path fill="#2e3120" fill-rule="evenodd" d="M290.439 146.532c-8.19 0-12.834-1.615-22.002-3.595-4.581-.99-7.352-2.912-7.352-6.404s3.287-6.334 7.368-6.405c1.74-.198 3.547-.211 5.379-.583.914-.185 1.695-.54 2.497-.846 1.158-.442 2.343-.811 3.745-.882 2.397-.121 4.699.388 6.976 1.037 4.114 1.176 7.522.203 11.397.816 5.502.854 9.152 5.352 8.147 10.036-2.428 6.827-8.147 6.826-16.155 6.826Z" clip-rule="evenodd"></path><path fill="#2e3120" fill-rule="evenodd" d="M290.439 34.783c-8.19 0-12.834-1.615-22.002-3.595-4.581-.99-7.352-2.912-7.352-6.404s3.287-6.334 7.368-6.405c1.74-.198 3.547-.21 5.379-.583.914-.185 1.695-.54 2.497-.846 1.158-.442 2.343-.811 3.745-.882 2.397-.12 4.699.388 6.976 1.037 4.114 1.176 7.522.203 11.397.816 5.502.854 9.152 5.352 8.147 10.036-2.428 6.826-8.147 6.826-16.155 6.826Z" clip-rule="evenodd"></path><path fill="#2e3120" fill-rule="evenodd" d="M290.439 256.773c-8.19 0-12.834-1.615-22.002-3.596-4.581-.989-7.352-2.911-7.352-6.403 0-3.493 3.287-6.335 7.368-6.405 1.74-.198 3.547-.211 5.379-.583.914-.185 1.695-.54 2.497-.846 1.158-.443 2.343-.811 3.745-.882 2.397-.121 4.699.388 6.976 1.037 4.114 1.176 7.522.202 11.397.815 5.502.855 9.152 5.353 8.147 10.037-2.428 6.826-8.147 6.826-16.155 6.826Z" clip-rule="evenodd"></path><path fill="#2e3120" fill-rule="evenodd" d="M290.439 421.454c-8.19 0-12.834-1.616-22.002-3.596-4.581-.989-7.352-2.911-7.352-6.404 0-3.492 3.287-6.334 7.368-6.404 1.74-.199 3.547-.211 5.379-.583.914-.186 1.695-.541 2.497-.846 1.158-.443 2.343-.812 3.745-.882 2.397-.122 4.699.387 6.976 1.037 4.114 1.176 7.522.202 11.397.815 5.502.855 9.152 5.352 8.147 10.036-2.428 6.827-8.147 6.827-16.155 6.827Z" clip-rule="evenodd"></path><path fill="#2e3120" fill-rule="evenodd" d="M290.439 201.307c-8.19 0-12.834-1.616-22.002-3.596-4.581-.989-7.352-2.911-7.352-6.404 0-3.492 3.287-6.334 7.368-6.404 1.74-.199 3.547-.211 5.379-.583.914-.186 1.695-.541 2.497-.846 1.158-.443 2.343-.812 3.745-.882 2.397-.122 4.699.387 6.976 1.037 4.114 1.176 7.522.202 11.397.815 5.502.855 9.152 5.352 8.147 10.036-2.428 6.827-8.147 6.827-16.155 6.827Z" clip-rule="evenodd"></path><path fill="#2e3120" fill-rule="evenodd" d="M290.439 367.773c-8.19 0-12.834-1.615-22.002-3.596-4.581-.989-7.352-2.911-7.352-6.403 0-3.493 3.287-6.335 7.368-6.405 1.74-.198 3.547-.211 5.379-.583.914-.185 1.695-.54 2.497-.846 1.158-.443 2.343-.811 3.745-.882 2.397-.121 4.699.388 6.976 1.037 4.114 1.176 7.522.202 11.397.815 5.502.855 9.152 5.353 8.147 10.037-2.428 6.826-8.147 6.826-16.155 6.826Z" clip-rule="evenodd"></path><path fill="#2e3120" fill-rule="evenodd" d="M290.439 90.655c-8.19 0-12.834-1.616-22.002-3.596-4.581-.99-7.352-2.912-7.352-6.404s3.287-6.334 7.368-6.405c1.74-.198 3.547-.21 5.379-.582.914-.186 1.695-.541 2.497-.847 1.158-.442 2.343-.811 3.745-.882 2.397-.12 4.699.388 6.976 1.037 4.114 1.177 7.522.203 11.397.816 5.502.854 9.152 5.352 8.147 10.036-2.428 6.827-8.147 6.827-16.155 6.827Z" clip-rule="evenodd"></path><path fill="#2e3120" fill-rule="evenodd" d="M290.439 312.52c-8.19 0-12.834-1.616-22.002-3.596-4.581-.989-7.352-2.912-7.352-6.404s3.287-6.334 7.368-6.405c1.74-.198 3.547-.21 5.379-.582.914-.186 1.695-.541 2.497-.846 1.158-.443 2.343-.812 3.745-.882 2.397-.122 4.699.387 6.976 1.036 4.114 1.177 7.522.203 11.397.816 5.502.855 9.152 5.352 8.147 10.036-2.428 6.827-8.147 6.827-16.155 6.827Z" clip-rule="evenodd"></path><path fill="#2e3120" fill-rule="evenodd" d="M290.439 479.087c-8.19 0-12.834-1.615-22.002-3.596-4.581-.989-7.352-2.911-7.352-6.403 0-3.493 3.287-6.335 7.368-6.405 1.74-.198 3.547-.211 5.379-.583.914-.185 1.695-.54 2.497-.846 1.158-.443 2.343-.811 3.745-.882 2.397-.121 4.699.388 6.976 1.037 4.114 1.176 7.522.202 11.397.815 5.502.855 9.152 5.353 8.147 10.037-2.428 6.826-8.147 6.826-16.155 6.826Z" clip-rule="evenodd"></path><path fill="#2e3120" fill-rule="evenodd" d="M66.52 149.876c.165-.035.33-.081.49-.139.429-.155.863-.33 1.348-.355 2.944-.154 6.059.256 8.83-.174 3.734-.24 7.379-1.001 11.071-1.41a38.307 38.307 0 0 1 6.299-.157c.065.003.13.004.195.004 3.985 0 7.219-3.441 7.219-7.679 0-4.239-3.234-7.68-7.219-7.68a3.52 3.52 0 0 0-.47.03l-17.953 2.299c-2.776-.232-5.73-1.453-8.558-1.834-1.356-.182-2.657-.143-3.956-.05a3.89 3.89 0 0 0-.505.072c-4.43.942-7.307 5.532-6.42 10.244.885 4.711 5.199 7.772 9.629 6.829Z" clip-rule="evenodd"></path><path fill="#2e3120" fill-rule="evenodd" d="M66.52 38.943a3.82 3.82 0 0 0 .49-.14c.429-.154.863-.33 1.348-.355 2.944-.154 6.059.257 8.83-.173 3.734-.24 7.379-1 11.071-1.41a38.318 38.318 0 0 1 6.299-.157c.065.003.13.004.195.004 3.985 0 7.219-3.44 7.219-7.68 0-4.238-3.234-7.679-7.219-7.679-.157 0-.314.01-.47.03L76.33 23.682c-2.776-.232-5.73-1.454-8.558-1.834-1.356-.182-2.657-.143-3.956-.05a3.84 3.84 0 0 0-.505.072c-4.43.941-7.307 5.532-6.42 10.244.885 4.711 5.199 7.772 9.629 6.83Z" clip-rule="evenodd"></path><path fill="#2e3120" fill-rule="evenodd" d="M66.52 260.809c.165-.035.33-.081.49-.139.429-.156.863-.331 1.348-.356 2.944-.154 6.059.257 8.83-.174 3.734-.239 7.379-1 11.071-1.409a38.307 38.307 0 0 1 6.299-.157c.065.003.13.004.195.004 3.985 0 7.219-3.441 7.219-7.68 0-4.238-3.234-7.679-7.219-7.679a3.52 3.52 0 0 0-.47.03l-17.953 2.298c-2.776-.231-5.73-1.453-8.558-1.833-1.356-.182-2.657-.144-3.956-.05a3.89 3.89 0 0 0-.505.072c-4.43.941-7.307 5.531-6.42 10.244.885 4.711 5.199 7.772 9.629 6.829Z" clip-rule="evenodd"></path><path fill="#2e3120" fill-rule="evenodd" d="M66.52 425.49c.165-.035.33-.081.49-.139.429-.156.863-.331 1.348-.356 2.944-.154 6.059.257 8.83-.173 3.734-.24 7.379-1.001 11.071-1.41a38.307 38.307 0 0 1 6.299-.157c.065.003.13.004.195.004 3.985 0 7.219-3.441 7.219-7.68 0-4.238-3.234-7.679-7.219-7.679a3.52 3.52 0 0 0-.47.03l-17.953 2.299c-2.776-.232-5.73-1.454-8.558-1.834-1.356-.182-2.657-.144-3.956-.05a3.89 3.89 0 0 0-.505.072c-4.43.941-7.307 5.532-6.42 10.244.885 4.711 5.199 7.772 9.629 6.829Z" clip-rule="evenodd"></path><path fill="#2e3120" fill-rule="evenodd" d="M66.52 206.436c.165-.035.33-.082.49-.139.429-.156.863-.331 1.348-.356 2.944-.154 6.059.257 8.83-.174 3.734-.239 7.379-1 11.071-1.409a38.307 38.307 0 0 1 6.299-.157c.065.003.13.004.195.004 3.985 0 7.219-3.441 7.219-7.68 0-4.238-3.234-7.679-7.219-7.679a3.52 3.52 0 0 0-.47.03l-17.953 2.298c-2.776-.231-5.73-1.453-8.558-1.833-1.356-.182-2.657-.144-3.956-.05a3.7 3.7 0 0 0-.505.072c-4.43.941-7.307 5.531-6.42 10.244.885 4.711 5.199 7.772 9.629 6.829Z" clip-rule="evenodd"></path><path fill="#2e3120" fill-rule="evenodd" d="M66.52 371.117c.165-.035.33-.081.49-.139.429-.156.863-.331 1.348-.356 2.944-.154 6.059.257 8.83-.173 3.734-.24 7.379-1.001 11.071-1.41a38.307 38.307 0 0 1 6.299-.157c.065.003.13.004.195.004 3.985 0 7.219-3.441 7.219-7.68 0-4.238-3.234-7.679-7.219-7.679a3.52 3.52 0 0 0-.47.03l-17.953 2.298c-2.776-.231-5.73-1.453-8.558-1.833-1.356-.182-2.657-.144-3.956-.05a3.89 3.89 0 0 0-.505.072c-4.43.941-7.307 5.531-6.42 10.244.885 4.711 5.199 7.772 9.629 6.829Z" clip-rule="evenodd"></path><path fill="#2e3120" fill-rule="evenodd" d="M66.52 95.503c.165-.035.33-.081.49-.14.429-.154.863-.33 1.348-.355 2.944-.153 6.059.257 8.83-.173 3.734-.24 7.379-1 11.071-1.41a38.33 38.33 0 0 1 6.299-.157c.065.003.13.004.195.004 3.985 0 7.219-3.44 7.219-7.68 0-4.238-3.234-7.679-7.219-7.679-.157 0-.314.01-.47.03L76.33 80.242c-2.776-.232-5.73-1.454-8.558-1.834-1.356-.182-2.657-.144-3.956-.05a3.84 3.84 0 0 0-.505.072c-4.43.942-7.307 5.532-6.42 10.244.885 4.711 5.199 7.772 9.629 6.83Z" clip-rule="evenodd"></path><path fill="#2e3120" fill-rule="evenodd" d="M66.52 317.369a3.87 3.87 0 0 0 .49-.14c.429-.155.863-.33 1.348-.355 2.944-.154 6.059.256 8.83-.174 3.734-.24 7.379-1 11.071-1.41a38.197 38.197 0 0 1 6.299-.156l.195.003c3.985 0 7.219-3.44 7.219-7.679 0-4.239-3.234-7.68-7.219-7.68-.157 0-.314.01-.47.031l-17.953 2.298c-2.776-.232-5.73-1.453-8.558-1.834-1.356-.181-2.657-.143-3.956-.05a3.7 3.7 0 0 0-.505.073c-4.43.941-7.307 5.531-6.42 10.243.885 4.712 5.199 7.772 9.629 6.83Z" clip-rule="evenodd"></path><path fill="#2e3120" fill-rule="evenodd" d="M66.52 482.049c.165-.035.33-.081.49-.139.429-.156.863-.331 1.348-.356 2.944-.154 6.059.257 8.83-.173 3.734-.24 7.379-1.001 11.071-1.41a38.307 38.307 0 0 1 6.299-.157c.065.003.13.004.195.004 3.985 0 7.219-3.441 7.219-7.679 0-4.239-3.234-7.68-7.219-7.68a3.52 3.52 0 0 0-.47.03l-17.953 2.299c-2.776-.232-5.73-1.454-8.558-1.834-1.356-.182-2.657-.144-3.956-.05a3.89 3.89 0 0 0-.505.072c-4.43.942-7.307 5.532-6.42 10.244.885 4.711 5.199 7.772 9.629 6.829Z" clip-rule="evenodd"></path><path fill="#2e3120" fill-rule="evenodd" d="M197.355 174.465c.166-.036.33-.082.491-.14.428-.155.863-.33 1.348-.355 2.944-.154 6.058.257 8.83-.174 3.733-.239 7.378-1 11.071-1.41a38.416 38.416 0 0 1 6.298-.156c.066.002.13.004.196.004 3.984 0 7.219-3.441 7.219-7.68s-3.235-7.679-7.219-7.679c-.158 0-.315.009-.471.03l-17.953 2.298c-2.775-.232-5.729-1.453-8.558-1.834-1.356-.181-2.656-.143-3.956-.05a3.913 3.913 0 0 0-.505.073c-4.429.941-7.306 5.531-6.42 10.244.886 4.711 5.199 7.771 9.629 6.829Z" clip-rule="evenodd"></path><path fill="#2e3120" fill-rule="evenodd" d="M197.355 63.532c.166-.035.33-.081.491-.14.428-.155.863-.33 1.348-.355 2.944-.154 6.058.257 8.83-.173 3.733-.24 7.378-1 11.071-1.41a38.327 38.327 0 0 1 6.298-.157c.066.003.13.004.196.004 3.984 0 7.219-3.44 7.219-7.68 0-4.238-3.235-7.68-7.219-7.68-.158 0-.315.01-.471.031l-17.953 2.298c-2.775-.231-5.729-1.453-8.558-1.833-1.356-.182-2.656-.144-3.956-.05a3.86 3.86 0 0 0-.505.072c-4.429.941-7.306 5.531-6.42 10.244.886 4.711 5.199 7.772 9.629 6.83Z" clip-rule="evenodd"></path><path fill="#2e3120" fill-rule="evenodd" d="M197.355 285.398c.166-.036.33-.082.491-.14.428-.155.863-.33 1.348-.355 2.944-.154 6.058.257 8.83-.174 3.733-.239 7.378-1 11.071-1.41a38.416 38.416 0 0 1 6.298-.156c.066.002.13.004.196.004 3.984 0 7.219-3.441 7.219-7.68 0-4.238-3.235-7.679-7.219-7.679-.158 0-.315.009-.471.03l-17.953 2.298c-2.775-.231-5.729-1.453-8.558-1.833-1.356-.182-2.656-.144-3.956-.05a3.744 3.744 0 0 0-.505.072c-4.429.941-7.306 5.531-6.42 10.244.886 4.711 5.199 7.771 9.629 6.829Z" clip-rule="evenodd"></path><path fill="#2e3120" fill-rule="evenodd" d="M197.355 450.078a3.7 3.7 0 0 0 .491-.139c.428-.156.863-.331 1.348-.356 2.944-.154 6.058.257 8.83-.174 3.733-.239 7.378-1 11.071-1.409a38.305 38.305 0 0 1 6.298-.157c.066.003.13.004.196.004 3.984 0 7.219-3.441 7.219-7.68 0-4.238-3.235-7.679-7.219-7.679-.158 0-.315.009-.471.03l-17.953 2.298c-2.775-.231-5.729-1.453-8.558-1.833-1.356-.182-2.656-.144-3.956-.05a3.91 3.91 0 0 0-.505.072c-4.429.941-7.306 5.531-6.42 10.244.886 4.711 5.199 7.772 9.629 6.829Z" clip-rule="evenodd"></path><path fill="#2e3120" fill-rule="evenodd" d="M197.355 231.025c.166-.036.33-.082.491-.14.428-.155.863-.33 1.348-.355 2.944-.154 6.058.257 8.83-.174 3.733-.239 7.378-1 11.071-1.41a38.416 38.416 0 0 1 6.298-.156c.066.002.13.004.196.004 3.984 0 7.219-3.441 7.219-7.68 0-4.238-3.235-7.679-7.219-7.679-.158 0-.315.009-.471.03l-17.953 2.298c-2.775-.231-5.729-1.453-8.558-1.833-1.356-.182-2.656-.144-3.956-.051a3.913 3.913 0 0 0-.505.073c-4.429.941-7.306 5.531-6.42 10.244.886 4.711 5.199 7.771 9.629 6.829Z" clip-rule="evenodd"></path><path fill="#2e3120" fill-rule="evenodd" d="M197.355 395.705a3.7 3.7 0 0 0 .491-.139c.428-.156.863-.331 1.348-.356 2.944-.154 6.058.257 8.83-.174 3.733-.239 7.378-1 11.071-1.409a38.305 38.305 0 0 1 6.298-.157c.066.003.13.004.196.004 3.984 0 7.219-3.441 7.219-7.68 0-4.238-3.235-7.679-7.219-7.679-.158 0-.315.009-.471.03l-17.953 2.298c-2.775-.231-5.729-1.453-8.558-1.833-1.356-.182-2.656-.144-3.956-.05a3.91 3.91 0 0 0-.505.072c-4.429.941-7.306 5.531-6.42 10.244.886 4.711 5.199 7.772 9.629 6.829Z" clip-rule="evenodd"></path><path fill="#2e3120" fill-rule="evenodd" d="M197.355 120.092c.166-.036.33-.082.491-.14.428-.155.863-.33 1.348-.355 2.944-.154 6.058.257 8.83-.174 3.733-.239 7.378-1 11.071-1.41a38.305 38.305 0 0 1 6.298-.156c.066.002.13.004.196.004 3.984 0 7.219-3.441 7.219-7.68s-3.235-7.68-7.219-7.68c-.158 0-.315.01-.471.031l-17.953 2.298c-2.775-.232-5.729-1.453-8.558-1.834-1.356-.181-2.656-.143-3.956-.05a3.913 3.913 0 0 0-.505.073c-4.429.941-7.306 5.531-6.42 10.244.886 4.711 5.199 7.771 9.629 6.829Z" clip-rule="evenodd"></path><path fill="#2e3120" fill-rule="evenodd" d="M197.355 341.957c.166-.035.33-.082.491-.139.428-.156.863-.331 1.348-.356 2.944-.154 6.058.257 8.83-.174 3.733-.239 7.378-1 11.071-1.409a38.305 38.305 0 0 1 6.298-.157c.066.003.13.004.196.004 3.984 0 7.219-3.441 7.219-7.68 0-4.238-3.235-7.679-7.219-7.679-.158 0-.315.009-.471.03l-17.953 2.298c-2.775-.231-5.729-1.453-8.558-1.833-1.356-.182-2.656-.144-3.956-.05a3.744 3.744 0 0 0-.505.072c-4.429.941-7.306 5.531-6.42 10.244.886 4.711 5.199 7.772 9.629 6.829Z" clip-rule="evenodd"></path><path fill="#2e3120" fill-rule="evenodd" d="M121.444 150.499c1.777-.08 3.484.643 5.29.569 2.116-.087 4.075-.689 6.155-1.264 2.304-.636 4.065-1.743 6.406-2.309 1.935-.467 3.962-.318 5.957-.743.035-.007.068-.015.101-.024 4.605-1.224 7.409-6.196 6.258-11.094-1.151-4.898-5.825-7.881-10.429-6.657-.033.009-.067.018-.1.03-1.033.331-2.041.877-3.091.802-.871-.062-1.564-.492-2.292-.881-.768-.41-1.553-.817-2.429-1.096-2.197-.701-4.277-1.432-6.536-1.525-3.254-.133-6.369.773-9.415 1.859-5.706 1.278-9.413 7.218-8.283 13.329 1.128 6.108 6.666 10.111 12.404 9.004h.004Z" clip-rule="evenodd"></path><path fill="#2e3120" fill-rule="evenodd" d="M121.444 39.567c1.777-.08 3.484.642 5.29.568 2.116-.087 4.075-.688 6.155-1.263 2.304-.636 4.065-1.743 6.406-2.31 1.935-.466 3.962-.318 5.957-.743.035-.007.068-.015.101-.024 4.605-1.224 7.409-6.196 6.258-11.094-1.151-4.898-5.825-7.88-10.429-6.657-.033.01-.067.019-.1.03-1.033.331-2.041.877-3.091.802-.871-.062-1.564-.492-2.292-.88-.768-.411-1.553-.818-2.429-1.097-2.197-.7-4.277-1.432-6.536-1.524-3.254-.133-6.369.773-9.415 1.858-5.706 1.279-9.413 7.218-8.283 13.33 1.128 6.108 6.666 10.11 12.404 9.004h.004Z" clip-rule="evenodd"></path><path fill="#2e3120" fill-rule="evenodd" d="M121.444 261.432c1.777-.08 3.484.643 5.29.569 2.116-.087 4.075-.688 6.155-1.264 2.304-.635 4.065-1.742 6.406-2.309 1.935-.467 3.962-.318 5.957-.743.035-.007.068-.015.101-.024 4.605-1.224 7.409-6.196 6.258-11.094-1.151-4.898-5.825-7.881-10.429-6.657a1.897 1.897 0 0 0-.1.03c-1.033.331-2.041.877-3.091.802-.871-.062-1.564-.492-2.292-.881-.768-.41-1.553-.817-2.429-1.096-2.197-.7-4.277-1.432-6.536-1.524-3.254-.133-6.369.772-9.415 1.858-5.706 1.278-9.413 7.218-8.283 13.33 1.128 6.107 6.666 10.11 12.404 9.003h.004Z" clip-rule="evenodd"></path><path fill="#2e3120" fill-rule="evenodd" d="M121.444 426.113c1.777-.081 3.484.642 5.29.568 2.116-.087 4.075-.688 6.155-1.263 2.304-.636 4.065-1.743 6.406-2.309 1.935-.468 3.962-.319 5.957-.744.035-.007.068-.015.101-.024 4.605-1.224 7.409-6.196 6.258-11.094-1.151-4.898-5.825-7.881-10.429-6.657a1.276 1.276 0 0 0-.1.031c-1.033.33-2.041.876-3.091.801-.871-.062-1.564-.492-2.292-.88-.768-.411-1.553-.818-2.429-1.097-2.197-.7-4.277-1.432-6.536-1.524-3.254-.133-6.369.772-9.415 1.858-5.706 1.279-9.413 7.218-8.283 13.33 1.128 6.108 6.666 10.111 12.404 9.004h.004Z" clip-rule="evenodd"></path><path fill="#2e3120" fill-rule="evenodd" d="M121.444 207.059c1.777-.08 3.484.643 5.29.569 2.116-.087 4.075-.688 6.155-1.264 2.304-.635 4.065-1.743 6.406-2.309 1.935-.467 3.962-.318 5.957-.743.035-.007.068-.015.101-.024 4.605-1.224 7.409-6.196 6.258-11.094-1.151-4.898-5.825-7.881-10.429-6.657-.033.009-.067.018-.1.03-1.033.331-2.041.877-3.091.802-.871-.062-1.564-.492-2.292-.881-.768-.41-1.553-.817-2.429-1.096-2.197-.7-4.277-1.432-6.536-1.525-3.254-.132-6.369.773-9.415 1.859-5.706 1.278-9.413 7.218-8.283 13.33 1.128 6.107 6.666 10.11 12.404 9.003h.004Z" clip-rule="evenodd"></path><path fill="#2e3120" fill-rule="evenodd" d="M121.444 371.74c1.777-.081 3.484.642 5.29.568 2.116-.087 4.075-.688 6.155-1.264 2.304-.635 4.065-1.742 6.406-2.308 1.935-.468 3.962-.319 5.957-.744.035-.007.068-.015.101-.024 4.605-1.224 7.409-6.196 6.258-11.094-1.151-4.898-5.825-7.881-10.429-6.657a1.897 1.897 0 0 0-.1.03c-1.033.331-2.041.877-3.091.802-.871-.062-1.564-.492-2.292-.88-.768-.411-1.553-.818-2.429-1.097-2.197-.7-4.277-1.432-6.536-1.524-3.254-.133-6.369.772-9.415 1.858-5.706 1.279-9.413 7.218-8.283 13.33 1.128 6.108 6.666 10.111 12.404 9.004h.004Z" clip-rule="evenodd"></path><path fill="#2e3120" fill-rule="evenodd" d="M121.444 96.126c1.777-.08 3.484.643 5.29.569 2.116-.087 4.075-.689 6.155-1.264 2.304-.636 4.065-1.743 6.406-2.309 1.935-.467 3.962-.318 5.957-.743.035-.007.068-.015.101-.024 4.605-1.224 7.409-6.196 6.258-11.094-1.151-4.898-5.825-7.881-10.429-6.657-.033.01-.067.018-.1.03-1.033.33-2.041.877-3.091.802-.871-.062-1.564-.492-2.292-.88-.768-.412-1.553-.818-2.429-1.097-2.197-.7-4.277-1.433-6.536-1.525-3.254-.133-6.369.773-9.415 1.86-5.706 1.277-9.413 7.217-8.283 13.328 1.128 6.108 6.666 10.111 12.404 9.004h.004Z" clip-rule="evenodd"></path><path fill="#2e3120" fill-rule="evenodd" d="M121.444 317.991c1.777-.08 3.484.643 5.29.569 2.116-.087 4.075-.688 6.155-1.264 2.304-.635 4.065-1.742 6.406-2.308 1.935-.468 3.962-.319 5.957-.744.035-.007.068-.015.101-.024 4.605-1.224 7.409-6.196 6.258-11.094-1.151-4.898-5.825-7.881-10.429-6.657a1.897 1.897 0 0 0-.1.03c-1.033.331-2.041.877-3.091.802-.871-.062-1.564-.492-2.292-.881-.768-.41-1.553-.817-2.429-1.096-2.197-.7-4.277-1.432-6.536-1.524-3.254-.133-6.369.772-9.415 1.858-5.706 1.278-9.413 7.218-8.283 13.33 1.128 6.107 6.666 10.111 12.404 9.003h.004Z" clip-rule="evenodd"></path><path fill="#2e3120" fill-rule="evenodd" d="M121.444 482.673c1.777-.081 3.484.642 5.29.568 2.116-.087 4.075-.688 6.155-1.263 2.304-.636 4.065-1.743 6.406-2.309 1.935-.468 3.962-.319 5.957-.744.035-.007.068-.015.101-.024 4.605-1.224 7.409-6.196 6.258-11.094-1.151-4.898-5.825-7.881-10.429-6.657-.033.01-.067.019-.1.031-1.033.33-2.041.876-3.091.801-.871-.062-1.564-.492-2.292-.88-.768-.411-1.553-.818-2.429-1.097-2.197-.7-4.277-1.432-6.536-1.524-3.254-.133-6.369.772-9.415 1.858-5.706 1.279-9.413 7.218-8.283 13.33 1.128 6.108 6.666 10.111 12.404 9.004h.004Z" clip-rule="evenodd"></path><path fill="#2e3120" fill-rule="evenodd" d="M99.926 175.864c1.777-.057 3.484.451 5.29.399 2.116-.061 4.075-.483 6.155-.887 2.304-.447 4.065-1.224 6.406-1.621 1.935-.329 3.962-.224 5.957-.523.034-.004.068-.01.101-.016 4.605-.86 7.409-4.351 6.258-7.79-1.151-3.44-5.825-5.534-10.429-4.675-.033.007-.067.013-.1.022-1.033.232-2.041.615-3.091.562-.871-.043-1.564-.345-2.292-.618-.768-.288-1.553-.574-2.429-.77-2.197-.492-4.277-1.006-6.536-1.07-3.254-.094-6.369.542-9.415 1.305-5.706.897-9.413 5.068-8.283 9.36 1.128 4.288 6.666 7.099 12.403 6.322h.005Z" clip-rule="evenodd"></path><path fill="#2e3120" fill-rule="evenodd" d="M99.926 64.93c1.777-.056 3.484.452 5.29.4 2.116-.061 4.075-.483 6.155-.887 2.304-.447 4.065-1.224 6.406-1.622 1.935-.328 3.962-.223 5.957-.522.034-.004.068-.01.101-.016 4.605-.86 7.409-4.351 6.258-7.79-1.151-3.44-5.825-5.534-10.429-4.675-.033.007-.067.013-.1.022-1.033.231-2.041.615-3.091.562-.871-.043-1.564-.345-2.292-.618-.768-.288-1.553-.574-2.429-.77-2.197-.492-4.277-1.006-6.536-1.07-3.254-.094-6.369.542-9.415 1.305-5.706.897-9.413 5.068-8.283 9.36 1.128 4.288 6.666 7.1 12.403 6.322h.005Z" clip-rule="evenodd"></path><path fill="#2e3120" fill-rule="evenodd" d="M99.926 286.796c1.777-.056 3.484.452 5.29.4 2.116-.061 4.075-.484 6.155-.888 2.304-.446 4.065-1.223 6.406-1.621 1.935-.328 3.962-.223 5.957-.522.034-.005.068-.01.101-.017 4.605-.859 7.409-4.35 6.258-7.79-1.151-3.439-5.825-5.534-10.429-4.674a1.778 1.778 0 0 0-.1.021c-1.033.232-2.041.616-3.091.563-.871-.043-1.564-.346-2.292-.618-.768-.289-1.553-.574-2.429-.77-2.197-.492-4.277-1.006-6.536-1.071-3.254-.093-6.369.543-9.415 1.306-5.706.897-9.413 5.068-8.283 9.359 1.128 4.289 6.666 7.1 12.403 6.322h.005Z" clip-rule="evenodd"></path><path fill="#2e3120" fill-rule="evenodd" d="M99.926 451.478c1.777-.057 3.484.451 5.29.399 2.116-.061 4.075-.484 6.155-.887 2.304-.447 4.065-1.224 6.406-1.622 1.935-.328 3.962-.223 5.957-.522.034-.005.068-.01.101-.017 4.605-.859 7.409-4.35 6.258-7.79-1.151-3.439-5.825-5.534-10.429-4.674-.033.007-.067.013-.1.021-1.033.232-2.041.616-3.091.563-.871-.043-1.564-.345-2.292-.618-.768-.289-1.553-.574-2.429-.77-2.197-.492-4.277-1.006-6.536-1.07-3.254-.094-6.369.542-9.415 1.305-5.706.897-9.413 5.068-8.283 9.359 1.128 4.289 6.666 7.1 12.403 6.323h.005Z" clip-rule="evenodd"></path><path fill="#2e3120" fill-rule="evenodd" d="M99.926 232.423c1.777-.056 3.484.451 5.29.4 2.116-.061 4.075-.484 6.155-.888 2.304-.446 4.065-1.223 6.406-1.621 1.935-.328 3.962-.224 5.957-.522.034-.005.068-.01.101-.017 4.605-.859 7.409-4.35 6.258-7.79-1.151-3.439-5.825-5.534-10.429-4.674a1.778 1.778 0 0 0-.1.021c-1.033.232-2.041.616-3.091.563-.871-.043-1.564-.346-2.292-.618-.768-.289-1.553-.574-2.429-.77-2.197-.492-4.277-1.006-6.536-1.071-3.254-.093-6.369.543-9.415 1.306-5.706.897-9.413 5.068-8.283 9.359 1.128 4.289 6.666 7.1 12.403 6.322h.005Z" clip-rule="evenodd"></path><path fill="#2e3120" fill-rule="evenodd" d="M99.926 397.104c1.777-.056 3.484.451 5.29.399 2.116-.061 4.075-.483 6.155-.887 2.304-.446 4.065-1.224 6.406-1.621 1.935-.328 3.962-.224 5.957-.522l.101-.017c4.605-.86 7.409-4.351 6.258-7.79-1.151-3.44-5.825-5.534-10.429-4.674-.033.006-.067.012-.1.021-1.033.232-2.041.615-3.091.563-.871-.044-1.564-.346-2.292-.619-.768-.288-1.553-.574-2.429-.77-2.197-.491-4.277-1.005-6.536-1.07-3.254-.093-6.369.543-9.415 1.305-5.706.898-9.413 5.068-8.283 9.36 1.128 4.289 6.666 7.099 12.403 6.322h.005Z" clip-rule="evenodd"></path><path fill="#2e3120" fill-rule="evenodd" d="M99.926 121.491c1.777-.057 3.484.451 5.29.399 2.116-.061 4.075-.483 6.155-.887 2.304-.447 4.065-1.224 6.406-1.621 1.935-.329 3.962-.224 5.957-.523.034-.004.068-.01.101-.016 4.605-.86 7.409-4.351 6.258-7.79-1.151-3.44-5.825-5.534-10.429-4.675-.033.007-.067.013-.1.022-1.033.232-2.041.615-3.091.562-.871-.043-1.564-.345-2.292-.618-.768-.288-1.553-.574-2.429-.77-2.197-.492-4.277-1.006-6.536-1.07-3.254-.094-6.369.542-9.415 1.305-5.706.897-9.413 5.068-8.283 9.359 1.128 4.289 6.666 7.1 12.403 6.323h.005Z" clip-rule="evenodd"></path><path fill="#2e3120" fill-rule="evenodd" d="M99.926 343.357c1.777-.057 3.484.451 5.29.399 2.116-.061 4.075-.484 6.155-.888 2.304-.446 4.065-1.223 6.406-1.621 1.935-.328 3.962-.223 5.957-.522.034-.005.068-.01.101-.017 4.605-.859 7.409-4.35 6.258-7.79-1.151-3.439-5.825-5.534-10.429-4.674a1.778 1.778 0 0 0-.1.021c-1.033.232-2.041.616-3.091.563-.871-.043-1.564-.346-2.292-.618-.768-.289-1.553-.574-2.429-.77-2.197-.492-4.277-1.006-6.536-1.071-3.254-.093-6.369.543-9.415 1.306-5.706.897-9.413 5.068-8.283 9.359 1.128 4.289 6.666 7.1 12.403 6.323h.005Z" clip-rule="evenodd"></path><path fill="#2e3120" fill-rule="evenodd" d="M165.231 146.045c1.494.699 2.691 1.451 4.277 1.945.672.209 1.361.346 2.06.345 1.025-.003 2.007-.228 2.977-.51.942-.274 1.859-.655 2.849-.588 1.246.085 2.338.579 3.445 1.033 1.528.628 3.07 1.211 4.813 1.291 1.364.064 2.704-.362 4.059-.659 5.421-.773 9.251-6.047 8.572-11.82-.679-5.778-5.622-9.891-11.051-9.209-1.05.063-2.109-.089-3.134.115-1.511.299-2.834 1.017-4.147 1.698-.847.44-1.681.888-2.662.899-.852.01-1.583-.503-2.363-.845-.965-.424-1.955-.743-3.015-.743-2.184-.002-3.941 1.006-6.034 1.687-3.817.047-6.98 3.272-7.141 7.379-.16 4.091 2.715 7.573 6.494 7.982h.001Z" clip-rule="evenodd"></path><path fill="#2e3120" fill-rule="evenodd" d="M14.976 146.045c1.494.699 2.69 1.451 4.277 1.945.671.209 1.36.346 2.06.345 1.024-.003 2.007-.228 2.977-.51.942-.274 1.858-.655 2.848-.588 1.246.085 2.34.579 3.445 1.033 1.529.628 3.07 1.211 4.814 1.291 1.363.064 2.703-.362 4.058-.659 5.421-.773 9.251-6.047 8.573-11.82-.68-5.778-5.623-9.891-11.051-9.209-1.05.063-2.11-.089-3.134.115-1.511.299-2.834 1.017-4.147 1.698-.848.44-1.681.888-2.663.899-.851.01-1.582-.503-2.362-.845-.965-.424-1.955-.743-3.015-.743-2.184-.002-3.941 1.006-6.034 1.687-3.817.047-6.98 3.272-7.141 7.379-.16 4.091 2.715 7.573 6.494 7.982h.001Z" clip-rule="evenodd"></path><path fill="#2e3120" fill-rule="evenodd" d="M165.231 35.112c1.494.7 2.691 1.45 4.277 1.945.672.209 1.361.346 2.06.344 1.025-.002 2.007-.227 2.977-.509.942-.274 1.859-.656 2.849-.588 1.246.085 2.338.579 3.445 1.033 1.528.628 3.07 1.211 4.813 1.291 1.364.063 2.704-.362 4.059-.66 5.421-.772 9.251-6.047 8.572-11.819-.679-5.779-5.622-9.89-11.051-9.209-1.05.063-2.109-.09-3.134.115-1.511.299-2.834 1.017-4.147 1.698-.847.44-1.681.888-2.662.899-.852.01-1.583-.503-2.363-.845-.965-.424-1.955-.743-3.015-.743-2.184-.002-3.941 1.006-6.034 1.686-3.817.048-6.98 3.273-7.141 7.38-.16 4.091 2.715 7.573 6.494 7.982h.001Z" clip-rule="evenodd"></path><path fill="#2e3120" fill-rule="evenodd" d="M14.976 35.112c1.494.7 2.69 1.45 4.277 1.945.671.209 1.36.346 2.06.344 1.024-.002 2.007-.227 2.977-.509.942-.274 1.858-.656 2.848-.588 1.246.085 2.34.579 3.445 1.033 1.529.628 3.07 1.211 4.814 1.291 1.363.063 2.703-.362 4.058-.66 5.421-.772 9.251-6.047 8.573-11.819-.68-5.779-5.623-9.89-11.051-9.209-1.05.063-2.11-.09-3.134.115-1.511.299-2.834 1.017-4.147 1.698-.848.44-1.681.888-2.663.899-.851.01-1.582-.503-2.362-.845-.965-.424-1.955-.743-3.015-.743-2.184-.002-3.941 1.006-6.034 1.686-3.817.048-6.98 3.273-7.141 7.38-.16 4.091 2.715 7.573 6.494 7.982h.001Z" clip-rule="evenodd"></path><path fill="#2e3120" fill-rule="evenodd" d="M165.231 256.979c1.494.698 2.691 1.45 4.277 1.944.672.209 1.361.346 2.06.345 1.025-.003 2.007-.228 2.977-.51.942-.274 1.859-.655 2.849-.588 1.246.085 2.338.579 3.445 1.033 1.528.628 3.07 1.211 4.813 1.291 1.364.064 2.704-.362 4.059-.659 5.421-.773 9.251-6.047 8.572-11.819-.679-5.779-5.622-9.892-11.051-9.21-1.05.064-2.109-.089-3.134.115-1.511.299-2.834 1.017-4.147 1.698-.847.44-1.681.888-2.662.899-.852.011-1.583-.503-2.363-.845-.965-.424-1.955-.743-3.015-.743-2.184-.002-3.941 1.006-6.034 1.687-3.817.047-6.98 3.272-7.141 7.379-.16 4.091 2.715 7.573 6.494 7.983h.001Z" clip-rule="evenodd"></path><path fill="#2e3120" fill-rule="evenodd" d="M14.976 256.979c1.494.698 2.69 1.45 4.277 1.944.671.209 1.36.346 2.06.345 1.024-.003 2.007-.228 2.977-.51.942-.274 1.858-.655 2.848-.588 1.246.085 2.34.579 3.445 1.033 1.529.628 3.07 1.211 4.814 1.291 1.363.064 2.703-.362 4.058-.659 5.421-.773 9.251-6.047 8.573-11.819-.68-5.779-5.623-9.892-11.051-9.21-1.05.064-2.11-.089-3.134.115-1.511.299-2.834 1.017-4.147 1.698-.848.44-1.681.888-2.663.899-.851.011-1.582-.503-2.362-.845-.965-.424-1.955-.743-3.015-.743-2.184-.002-3.941 1.006-6.034 1.687-3.817.047-6.98 3.272-7.141 7.379-.16 4.091 2.715 7.573 6.494 7.983h.001Z" clip-rule="evenodd"></path><path fill="#2e3120" fill-rule="evenodd" d="M165.231 421.659c1.494.699 2.691 1.451 4.277 1.944.672.21 1.361.347 2.06.345 1.025-.002 2.007-.227 2.977-.509.942-.274 1.859-.656 2.849-.589 1.246.086 2.338.58 3.445 1.034 1.528.628 3.07 1.211 4.813 1.291 1.364.063 2.704-.362 4.059-.659 5.421-.773 9.251-6.048 8.572-11.82-.679-5.779-5.622-9.891-11.051-9.209-1.05.063-2.109-.09-3.134.115-1.511.298-2.834 1.017-4.147 1.698-.847.439-1.681.888-2.662.899-.852.01-1.583-.503-2.363-.845-.965-.424-1.955-.743-3.015-.743-2.184-.002-3.941 1.006-6.034 1.686-3.817.048-6.98 3.273-7.141 7.38-.16 4.091 2.715 7.573 6.494 7.982h.001Z" clip-rule="evenodd"></path><path fill="#2e3120" fill-rule="evenodd" d="M14.976 421.659c1.494.699 2.69 1.451 4.277 1.944.671.21 1.36.347 2.06.345 1.024-.002 2.007-.227 2.977-.509.942-.274 1.858-.656 2.848-.589 1.246.086 2.34.58 3.445 1.034 1.529.628 3.07 1.211 4.814 1.291 1.363.063 2.703-.362 4.058-.659 5.421-.773 9.251-6.048 8.573-11.82-.68-5.779-5.623-9.891-11.051-9.209-1.05.063-2.11-.09-3.134.115-1.511.298-2.834 1.017-4.147 1.698-.848.439-1.681.888-2.663.899-.851.01-1.582-.503-2.362-.845-.965-.424-1.955-.743-3.015-.743-2.184-.002-3.941 1.006-6.034 1.686-3.817.048-6.98 3.273-7.141 7.38-.16 4.091 2.715 7.573 6.494 7.982h.001Z" clip-rule="evenodd"></path><path fill="#2e3120" fill-rule="evenodd" d="M165.231 202.605c1.494.699 2.691 1.451 4.277 1.944.672.21 1.361.346 2.06.345 1.025-.003 2.007-.228 2.977-.509.942-.274 1.859-.656 2.849-.589 1.246.086 2.338.579 3.445 1.034 1.528.628 3.07 1.211 4.813 1.291 1.364.063 2.704-.362 4.059-.66 5.421-.772 9.251-6.047 8.572-11.819-.679-5.779-5.622-9.891-11.051-9.209-1.05.063-2.109-.09-3.134.114-1.511.299-2.834 1.018-4.147 1.698-.847.44-1.681.889-2.662.899-.852.011-1.583-.502-2.363-.845-.965-.423-1.955-.742-3.015-.742-2.184-.003-3.941 1.006-6.034 1.686-3.817.048-6.98 3.273-7.141 7.38-.16 4.091 2.715 7.573 6.494 7.982h.001Z" clip-rule="evenodd"></path><path fill="#2e3120" fill-rule="evenodd" d="M14.976 202.605c1.494.699 2.69 1.451 4.277 1.944.671.21 1.36.346 2.06.345 1.024-.003 2.007-.228 2.977-.509.942-.274 1.858-.656 2.848-.589 1.246.086 2.34.579 3.445 1.034 1.529.628 3.07 1.211 4.814 1.291 1.363.063 2.703-.362 4.058-.66 5.421-.772 9.251-6.047 8.573-11.819-.68-5.779-5.623-9.891-11.051-9.209-1.05.063-2.11-.09-3.134.114-1.511.299-2.834 1.018-4.147 1.698-.848.44-1.681.889-2.663.899-.851.011-1.582-.502-2.362-.845-.965-.423-1.955-.742-3.015-.742-2.184-.003-3.941 1.006-6.034 1.686-3.817.048-6.98 3.273-7.141 7.38-.16 4.091 2.715 7.573 6.494 7.982h.001Z" clip-rule="evenodd"></path><path fill="#2e3120" fill-rule="evenodd" d="M165.231 367.286c1.494.699 2.691 1.451 4.277 1.944.672.21 1.361.347 2.06.345 1.025-.002 2.007-.227 2.977-.509.942-.274 1.859-.656 2.849-.589 1.246.086 2.338.58 3.445 1.034 1.528.628 3.07 1.211 4.813 1.291 1.364.063 2.704-.362 4.059-.659 5.421-.773 9.251-6.048 8.572-11.82-.679-5.779-5.622-9.891-11.051-9.209-1.05.063-2.109-.09-3.134.114-1.511.299-2.834 1.018-4.147 1.699-.847.439-1.681.888-2.662.899-.852.01-1.583-.503-2.363-.845-.965-.424-1.955-.743-3.015-.743-2.184-.003-3.941 1.006-6.034 1.686-3.817.048-6.98 3.273-7.141 7.38-.16 4.091 2.715 7.573 6.494 7.982h.001Z" clip-rule="evenodd"></path><path fill="#2e3120" fill-rule="evenodd" d="M14.976 367.286c1.494.699 2.69 1.451 4.277 1.944.671.21 1.36.347 2.06.345 1.024-.002 2.007-.227 2.977-.509.942-.274 1.858-.656 2.848-.589 1.246.086 2.34.58 3.445 1.034 1.529.628 3.07 1.211 4.814 1.291 1.363.063 2.703-.362 4.058-.659 5.421-.773 9.251-6.048 8.573-11.82-.68-5.779-5.623-9.891-11.051-9.209-1.05.063-2.11-.09-3.134.114-1.511.299-2.834 1.018-4.147 1.699-.848.439-1.681.888-2.663.899-.851.01-1.582-.503-2.362-.845-.965-.424-1.955-.743-3.015-.743-2.184-.003-3.941 1.006-6.034 1.686-3.817.048-6.98 3.273-7.141 7.38-.16 4.091 2.715 7.573 6.494 7.982h.001Z" clip-rule="evenodd"></path><path fill="#2e3120" fill-rule="evenodd" d="M165.231 91.672c1.494.7 2.691 1.451 4.277 1.945.672.209 1.361.346 2.06.344 1.025-.002 2.007-.227 2.977-.509.942-.274 1.859-.656 2.849-.588 1.246.085 2.338.579 3.445 1.033 1.528.628 3.07 1.211 4.813 1.291 1.364.063 2.704-.362 4.059-.66 5.421-.772 9.251-6.047 8.572-11.819-.679-5.778-5.622-9.89-11.051-9.209-1.05.063-2.109-.09-3.134.115-1.511.299-2.834 1.017-4.147 1.698-.847.44-1.681.888-2.662.899-.852.01-1.583-.503-2.363-.845-.965-.424-1.955-.743-3.015-.743-2.184-.002-3.941 1.006-6.034 1.687-3.817.047-6.98 3.272-7.141 7.379-.16 4.091 2.715 7.573 6.494 7.982h.001Z" clip-rule="evenodd"></path><path fill="#2e3120" fill-rule="evenodd" d="M14.976 91.672c1.494.7 2.69 1.451 4.277 1.945.671.209 1.36.346 2.06.344 1.024-.002 2.007-.227 2.977-.509.942-.274 1.858-.656 2.848-.588 1.246.085 2.34.579 3.445 1.033 1.529.628 3.07 1.211 4.814 1.291 1.363.063 2.703-.362 4.058-.66 5.421-.772 9.251-6.047 8.573-11.819-.68-5.778-5.623-9.89-11.051-9.209-1.05.063-2.11-.09-3.134.115-1.511.299-2.834 1.017-4.147 1.698-.848.44-1.681.888-2.663.899-.851.01-1.582-.503-2.362-.845-.965-.424-1.955-.743-3.015-.743-2.184-.002-3.941 1.006-6.034 1.687-3.817.047-6.98 3.272-7.141 7.379-.16 4.091 2.715 7.573 6.494 7.982h.001Z" clip-rule="evenodd"></path><path fill="#2e3120" fill-rule="evenodd" d="M165.231 313.538c1.494.699 2.691 1.45 4.277 1.944.672.209 1.361.346 2.06.345 1.025-.003 2.007-.228 2.977-.51.942-.274 1.859-.655 2.849-.588 1.246.085 2.338.579 3.445 1.033 1.528.628 3.07 1.211 4.813 1.292 1.364.063 2.704-.362 4.059-.66 5.421-.773 9.251-6.047 8.572-11.819-.679-5.779-5.622-9.891-11.051-9.21-1.05.064-2.109-.089-3.134.115-1.511.299-2.834 1.017-4.147 1.698-.847.44-1.681.889-2.662.899-.852.011-1.583-.503-2.363-.845-.965-.424-1.955-.742-3.015-.742-2.184-.003-3.941 1.005-6.034 1.686-3.817.047-6.98 3.272-7.141 7.379-.16 4.091 2.715 7.573 6.494 7.983h.001Z" clip-rule="evenodd"></path><path fill="#2e3120" fill-rule="evenodd" d="M14.976 313.538c1.494.699 2.69 1.45 4.277 1.944.671.209 1.36.346 2.06.345 1.024-.003 2.007-.228 2.977-.51.942-.274 1.858-.655 2.848-.588 1.246.085 2.34.579 3.445 1.033 1.529.628 3.07 1.211 4.814 1.292 1.363.063 2.703-.362 4.058-.66 5.421-.773 9.251-6.047 8.573-11.819-.68-5.779-5.623-9.891-11.051-9.21-1.05.064-2.11-.089-3.134.115-1.511.299-2.834 1.017-4.147 1.698-.848.44-1.681.889-2.663.899-.851.011-1.582-.503-2.362-.845-.965-.424-1.955-.742-3.015-.742-2.184-.003-3.941 1.005-6.034 1.686-3.817.047-6.98 3.272-7.141 7.379-.16 4.091 2.715 7.573 6.494 7.983h.001Z" clip-rule="evenodd"></path><path fill="#2e3120" fill-rule="evenodd" d="M165.231 478.219c1.494.699 2.691 1.45 4.277 1.944.672.209 1.361.346 2.06.345 1.025-.003 2.007-.228 2.977-.51.942-.273 1.859-.655 2.849-.588 1.246.086 2.338.579 3.445 1.033 1.528.628 3.07 1.211 4.813 1.292 1.364.063 2.704-.362 4.059-.66 5.421-.772 9.251-6.047 8.572-11.819-.679-5.779-5.622-9.891-11.051-9.209-1.05.063-2.109-.09-3.134.114-1.511.299-2.834 1.018-4.147 1.698-.847.44-1.681.889-2.662.899-.852.011-1.583-.503-2.363-.845-.965-.424-1.955-.742-3.015-.742-2.184-.003-3.941 1.005-6.034 1.686-3.817.047-6.98 3.272-7.141 7.379-.16 4.092 2.715 7.573 6.494 7.983h.001Z" clip-rule="evenodd"></path><path fill="#2e3120" fill-rule="evenodd" d="M14.976 478.219c1.494.699 2.69 1.45 4.277 1.944.671.209 1.36.346 2.06.345 1.024-.003 2.007-.228 2.977-.51.942-.273 1.858-.655 2.848-.588 1.246.086 2.34.579 3.445 1.033 1.529.628 3.07 1.211 4.814 1.292 1.363.063 2.703-.362 4.058-.66 5.421-.772 9.251-6.047 8.573-11.819-.68-5.779-5.623-9.891-11.051-9.209-1.05.063-2.11-.09-3.134.114-1.511.299-2.834 1.018-4.147 1.698-.848.44-1.681.889-2.663.899-.851.011-1.582-.503-2.362-.845-.965-.424-1.955-.742-3.015-.742-2.184-.003-3.941 1.005-6.034 1.686-3.817.047-6.98 3.272-7.141 7.379-.16 4.092 2.715 7.573 6.494 7.983h.001Z" clip-rule="evenodd"></path><path fill="#2e3120" fill-rule="evenodd" d="M144.484 171.598c1.68.603 3.026 1.251 4.81 1.677.756.18 1.532.298 2.318.297 1.153-.002 2.258-.196 3.349-.439 1.06-.236 2.091-.565 3.205-.508 1.402.074 2.631.5 3.875.891 1.719.542 3.454 1.044 5.415 1.114 1.534.054 3.042-.312 4.566-.569 6.098-.666 10.407-5.214 9.644-10.19-.764-4.983-6.325-8.528-12.432-7.94-1.182.054-2.374-.077-3.526.099-1.7.257-3.188.877-4.665 1.464-.953.379-1.892.766-2.996.775-.957.009-1.78-.434-2.657-.729-1.086-.365-2.199-.64-3.392-.64-2.457-.002-4.434.867-6.788 1.454-4.294.041-7.852 2.821-8.033 6.362-.181 3.528 3.054 6.529 7.305 6.882h.002Z" clip-rule="evenodd"></path><path fill="#2e3120" fill-rule="evenodd" d="M144.484 60.666c1.68.602 3.026 1.25 4.81 1.676.756.18 1.532.299 2.318.297 1.153-.002 2.258-.196 3.349-.439 1.06-.236 2.091-.565 3.205-.507 1.402.074 2.631.5 3.875.89 1.719.542 3.454 1.045 5.415 1.114 1.534.054 3.042-.312 4.566-.569 6.098-.666 10.407-5.213 9.644-10.19-.764-4.982-6.325-8.528-12.432-7.94-1.182.055-2.374-.077-3.526.099-1.7.258-3.188.877-4.665 1.464-.953.38-1.892.766-2.996.775-.957.01-1.78-.433-2.657-.728-1.086-.366-2.199-.64-3.392-.64-2.457-.003-4.434.867-6.788 1.453-4.294.041-7.852 2.822-8.033 6.363-.181 3.527 3.054 6.529 7.305 6.882h.002Z" clip-rule="evenodd"></path><path fill="#2e3120" fill-rule="evenodd" d="M144.484 282.531c1.68.603 3.026 1.251 4.81 1.677.756.18 1.532.298 2.318.297 1.153-.002 2.258-.196 3.349-.439 1.06-.236 2.091-.565 3.205-.507 1.402.073 2.631.499 3.875.89 1.719.542 3.454 1.045 5.415 1.114 1.534.054 3.042-.312 4.566-.569 6.098-.666 10.407-5.214 9.644-10.19-.764-4.982-6.325-8.528-12.432-7.94-1.182.054-2.374-.077-3.526.099-1.7.257-3.188.877-4.665 1.464-.953.379-1.892.766-2.996.775-.957.009-1.78-.434-2.657-.729-1.086-.365-2.199-.64-3.392-.64-2.457-.002-4.434.867-6.788 1.454-4.294.041-7.852 2.821-8.033 6.362-.181 3.528 3.054 6.529 7.305 6.882h.002Z" clip-rule="evenodd"></path><path fill="#2e3120" fill-rule="evenodd" d="M144.484 447.212c1.68.603 3.026 1.251 4.81 1.676a9.911 9.911 0 0 0 2.318.298c1.153-.003 2.258-.197 3.349-.44 1.06-.236 2.091-.565 3.205-.507 1.402.074 2.631.5 3.875.891 1.719.541 3.454 1.044 5.415 1.113 1.534.055 3.042-.312 4.566-.568 6.098-.666 10.407-5.214 9.644-10.191-.764-4.982-6.325-8.527-12.432-7.939-1.182.054-2.374-.078-3.526.098-1.7.258-3.188.878-4.665 1.464-.953.38-1.892.767-2.996.776-.957.009-1.78-.434-2.657-.729-1.086-.365-2.199-.64-3.392-.64-2.457-.002-4.434.867-6.788 1.454-4.294.041-7.852 2.821-8.033 6.362-.181 3.527 3.054 6.529 7.305 6.882h.002Z" clip-rule="evenodd"></path><path fill="#2e3120" fill-rule="evenodd" d="M144.484 228.158c1.68.603 3.026 1.251 4.81 1.677.756.18 1.532.298 2.318.297 1.153-.002 2.258-.196 3.349-.439 1.06-.236 2.091-.565 3.205-.508 1.402.074 2.631.5 3.875.891 1.719.542 3.454 1.044 5.415 1.114 1.534.054 3.042-.312 4.566-.569 6.098-.666 10.407-5.214 9.644-10.19-.764-4.982-6.325-8.528-12.432-7.94-1.182.054-2.374-.077-3.526.099-1.7.257-3.188.877-4.665 1.464-.953.379-1.892.766-2.996.775-.957.009-1.78-.434-2.657-.729-1.086-.365-2.199-.64-3.392-.64-2.457-.002-4.434.867-6.788 1.454-4.294.041-7.852 2.821-8.033 6.362-.181 3.528 3.054 6.529 7.305 6.882h.002Z" clip-rule="evenodd"></path><path fill="#2e3120" fill-rule="evenodd" d="M144.484 392.839c1.68.603 3.026 1.251 4.81 1.676a9.911 9.911 0 0 0 2.318.298c1.153-.003 2.258-.197 3.349-.44 1.06-.236 2.091-.565 3.205-.507 1.402.074 2.631.5 3.875.891 1.719.541 3.454 1.044 5.415 1.113 1.534.055 3.042-.312 4.566-.568 6.098-.666 10.407-5.214 9.644-10.191-.764-4.982-6.325-8.527-12.432-7.939-1.182.054-2.374-.078-3.526.098-1.7.258-3.188.878-4.665 1.464-.953.379-1.892.766-2.996.776-.957.009-1.78-.434-2.657-.729-1.086-.366-2.199-.64-3.392-.64-2.457-.002-4.434.867-6.788 1.454-4.294.041-7.852 2.821-8.033 6.362-.181 3.527 3.054 6.529 7.305 6.882h.002Z" clip-rule="evenodd"></path><path fill="#2e3120" fill-rule="evenodd" d="M144.484 117.225c1.68.603 3.026 1.251 4.81 1.677.756.18 1.532.298 2.318.297 1.153-.002 2.258-.196 3.349-.439 1.06-.236 2.091-.566 3.205-.508 1.402.074 2.631.5 3.875.891 1.719.542 3.454 1.044 5.415 1.114 1.534.054 3.042-.312 4.566-.569 6.098-.666 10.407-5.214 9.644-10.19-.764-4.983-6.325-8.528-12.432-7.94-1.182.054-2.374-.077-3.526.099-1.7.257-3.188.877-4.665 1.464-.953.379-1.892.766-2.996.775-.957.009-1.78-.434-2.657-.729-1.086-.365-2.199-.64-3.392-.64-2.457-.002-4.434.867-6.788 1.454-4.294.041-7.852 2.821-8.033 6.362-.181 3.527 3.054 6.529 7.305 6.882h.002Z" clip-rule="evenodd"></path><path fill="#2e3120" fill-rule="evenodd" d="M144.484 339.091c1.68.602 3.026 1.25 4.81 1.676.756.18 1.532.298 2.318.297 1.153-.002 2.258-.196 3.349-.439 1.06-.236 2.091-.565 3.205-.507 1.402.073 2.631.499 3.875.891 1.719.541 3.454 1.044 5.415 1.113 1.534.054 3.042-.312 4.566-.569 6.098-.666 10.407-5.214 9.644-10.19-.764-4.982-6.325-8.528-12.432-7.94-1.182.055-2.374-.077-3.526.099-1.7.257-3.188.877-4.665 1.464-.953.379-1.892.766-2.996.775-.957.009-1.78-.434-2.657-.729-1.086-.365-2.199-.64-3.392-.64-2.457-.002-4.434.867-6.788 1.454-4.294.041-7.852 2.822-8.033 6.362-.181 3.528 3.054 6.53 7.305 6.883h.002Z" clip-rule="evenodd"></path><path fill="#2e3120" fill-rule="evenodd" d="M326.292 148.443c.725.199 1.395.565 2.089.847.754.305 1.524.543 2.345.618 7.075.657 22.324-.723 22.324-10.849 0-7.856-12.96-12.426-19.139-13.674-2.252-.456-4.473-.011-6.719.321-5.81-.142-10.687 4.703-10.929 10.908-.24 6.199 4.237 11.451 10.032 11.829h-.003Z" clip-rule="evenodd"></path><path fill="#2e3120" fill-rule="evenodd" d="M326.292 37.51c.725.2 1.395.565 2.089.847.754.305 1.524.544 2.345.619 7.075.657 22.324-.724 22.324-10.85 0-7.856-12.96-12.426-19.139-13.674-2.252-.455-4.473-.01-6.719.321-5.81-.142-10.687 4.704-10.929 10.909-.24 6.199 4.237 11.45 10.032 11.829h-.003Z" clip-rule="evenodd"></path><path fill="#2e3120" fill-rule="evenodd" d="M326.292 259.376c.725.199 1.395.565 2.089.847.754.305 1.524.543 2.345.618 7.075.657 22.324-.723 22.324-10.849 0-7.856-12.96-12.426-19.139-13.674-2.252-.456-4.473-.011-6.719.321-5.81-.142-10.687 4.703-10.929 10.909-.24 6.198 4.237 11.45 10.032 11.828h-.003Z" clip-rule="evenodd"></path><path fill="#2e3120" fill-rule="evenodd" d="M326.292 424.057c.725.199 1.395.565 2.089.846.754.306 1.524.544 2.345.619 7.075.657 22.324-.724 22.324-10.849 0-7.857-12.96-12.427-19.139-13.675-2.252-.455-4.473-.01-6.719.322-5.81-.143-10.687 4.703-10.929 10.908-.24 6.199 4.237 11.451 10.032 11.829h-.003Z" clip-rule="evenodd"></path><path fill="#2e3120" fill-rule="evenodd" d="M326.292 205.003c.725.199 1.395.565 2.089.847.754.305 1.524.543 2.345.618 7.075.657 22.324-.723 22.324-10.849 0-7.856-12.96-12.426-19.139-13.674-2.252-.456-4.473-.011-6.719.321-5.81-.142-10.687 4.703-10.929 10.908-.24 6.199 4.237 11.451 10.032 11.829h-.003Z" clip-rule="evenodd"></path><path fill="#2e3120" fill-rule="evenodd" d="M326.292 369.684c.725.199 1.395.565 2.089.846.754.306 1.524.544 2.345.619 7.075.657 22.324-.724 22.324-10.849 0-7.857-12.96-12.427-19.139-13.675-2.252-.455-4.473-.01-6.719.322-5.81-.143-10.687 4.703-10.929 10.908-.24 6.199 4.237 11.451 10.032 11.829h-.003Z" clip-rule="evenodd"></path><path fill="#2e3120" fill-rule="evenodd" d="M326.292 94.07c.725.199 1.395.565 2.089.847.754.305 1.524.543 2.345.618 7.075.657 22.324-.724 22.324-10.85 0-7.856-12.96-12.425-19.139-13.673-2.252-.456-4.473-.01-6.719.32-5.81-.141-10.687 4.704-10.929 10.91-.24 6.198 4.237 11.45 10.032 11.828h-.003Z" clip-rule="evenodd"></path><path fill="#2e3120" fill-rule="evenodd" d="M326.292 315.936c.725.199 1.395.565 2.089.846.754.306 1.524.544 2.345.619 7.075.657 22.324-.724 22.324-10.849 0-7.857-12.96-12.427-19.139-13.675-2.252-.455-4.473-.01-6.719.322-5.81-.143-10.687 4.703-10.929 10.908-.24 6.199 4.237 11.451 10.032 11.829h-.003Z" clip-rule="evenodd"></path><path fill="#2e3120" fill-rule="evenodd" d="M326.292 480.617c.725.199 1.395.565 2.089.846.754.306 1.524.544 2.345.619 7.075.657 22.324-.724 22.324-10.849 0-7.857-12.96-12.427-19.139-13.675-2.252-.455-4.473-.01-6.719.322-5.81-.142-10.687 4.703-10.929 10.908-.24 6.199 4.237 11.451 10.032 11.829h-.003Z" clip-rule="evenodd"></path><path fill="#2e3120" fill-rule="evenodd" d="M401.17 176.647c.725.178 1.395.505 2.089.757.754.273 1.524.485 2.345.553 7.075.587 22.324-.647 22.324-9.696 0-7.021-12.96-11.105-19.139-12.22-2.252-.407-4.473-.01-6.719.287-5.81-.127-10.688 4.203-10.929 9.748-.24 5.54 4.237 10.234 10.032 10.571h-.003Z" clip-rule="evenodd"></path><path fill="#2e3120" fill-rule="evenodd" d="M401.17 65.715c.725.177 1.395.504 2.089.756.754.273 1.524.486 2.345.553 7.075.587 22.324-.647 22.324-9.696 0-7.02-12.96-11.105-19.139-12.22-2.252-.407-4.473-.01-6.719.287-5.81-.127-10.688 4.203-10.929 9.749-.24 5.54 4.237 10.233 10.032 10.57h-.003Z" clip-rule="evenodd"></path><path fill="#2e3120" fill-rule="evenodd" d="M401.17 287.58c.725.178 1.395.505 2.089.757.754.273 1.524.486 2.345.553 7.075.587 22.324-.647 22.324-9.696 0-7.021-12.96-11.105-19.139-12.22-2.252-.407-4.473-.01-6.719.287-5.81-.127-10.688 4.203-10.929 9.748-.24 5.54 4.237 10.234 10.032 10.571h-.003Z" clip-rule="evenodd"></path><path fill="#2e3120" fill-rule="evenodd" d="M401.17 452.261c.725.178 1.395.505 2.089.756.754.273 1.524.486 2.345.553 7.075.588 22.324-.646 22.324-9.695 0-7.021-12.96-11.105-19.139-12.22-2.252-.407-4.473-.01-6.719.287-5.81-.127-10.688 4.203-10.929 9.748-.24 5.54 4.237 10.233 10.032 10.571h-.003Z" clip-rule="evenodd"></path><path fill="#2e3120" fill-rule="evenodd" d="M401.17 233.207c.725.178 1.395.505 2.089.757.754.273 1.524.486 2.345.553 7.075.587 22.324-.647 22.324-9.696 0-7.021-12.96-11.105-19.139-12.22-2.252-.407-4.473-.01-6.719.287-5.81-.127-10.688 4.203-10.929 9.748-.24 5.54 4.237 10.234 10.032 10.571h-.003Z" clip-rule="evenodd"></path><path fill="#2e3120" fill-rule="evenodd" d="M401.17 397.888c.725.178 1.395.505 2.089.756.754.273 1.524.486 2.345.553 7.075.587 22.324-.646 22.324-9.695 0-7.021-12.96-11.105-19.139-12.221-2.252-.407-4.473-.009-6.719.288-5.81-.128-10.688 4.203-10.929 9.748-.24 5.54 4.237 10.233 10.032 10.571h-.003Z" clip-rule="evenodd"></path><path fill="#2e3120" fill-rule="evenodd" d="M401.17 122.274c.725.178 1.395.505 2.089.757.754.273 1.524.485 2.345.552 7.075.588 22.324-.646 22.324-9.695 0-7.021-12.96-11.105-19.139-12.22-2.252-.407-4.473-.01-6.719.287-5.81-.127-10.688 4.203-10.929 9.748-.24 5.54 4.237 10.234 10.032 10.571h-.003Z" clip-rule="evenodd"></path><path fill="#2e3120" fill-rule="evenodd" d="M401.17 344.139c.725.178 1.395.505 2.089.757.754.273 1.524.486 2.345.553 7.075.587 22.324-.647 22.324-9.696 0-7.021-12.96-11.105-19.139-12.22-2.252-.407-4.473-.009-6.719.287-5.81-.127-10.688 4.203-10.929 9.749-.24 5.539 4.237 10.233 10.032 10.57h-.003Z" clip-rule="evenodd"></path><path fill="#2e3120" fill-rule="evenodd" d="M366.654 147.095c.219.063.442.105.669.128 2.059.2 4.012.218 6.066.026 2.619-.246 5.205-.787 7.87-1.208 3.215-.508 6.479-.703 9.565-.548.061.004.123.005.185.005 3.984 0 7.22-3.442 7.22-7.68 0-4.239-3.236-7.68-7.22-7.68l-.108.001c-4.395.129-8.974 1.739-13.569 1.856-2.07.053-3.988-.633-5.857-1.503a3.885 3.885 0 0 0-.548-.204c-4.361-1.254-8.857 1.493-10.036 6.13-1.18 4.639 1.404 9.423 5.763 10.677Z" clip-rule="evenodd"></path><path fill="#2e3120" fill-rule="evenodd" d="M366.654 36.163c.219.063.442.105.669.127 2.059.2 4.012.219 6.066.026 2.619-.246 5.205-.787 7.87-1.208 3.215-.508 6.479-.703 9.565-.547.061.004.123.005.185.005 3.984 0 7.22-3.443 7.22-7.681 0-4.239-3.236-7.68-7.22-7.68-.036 0-.072 0-.108.002-4.395.129-8.974 1.738-13.569 1.856-2.07.052-3.988-.633-5.857-1.504a3.935 3.935 0 0 0-.548-.204c-4.361-1.254-8.857 1.493-10.036 6.13-1.18 4.64 1.404 9.423 5.763 10.678Z" clip-rule="evenodd"></path><path fill="#2e3120" fill-rule="evenodd" d="M366.654 258.028c.219.063.442.106.669.128 2.059.2 4.012.218 6.066.026 2.619-.246 5.205-.787 7.87-1.208 3.215-.508 6.479-.703 9.565-.548.061.004.123.006.185.006 3.984 0 7.22-3.443 7.22-7.681 0-4.239-3.236-7.68-7.22-7.68l-.108.001c-4.395.129-8.974 1.739-13.569 1.856-2.07.053-3.988-.633-5.857-1.503a4.012 4.012 0 0 0-.548-.204c-4.361-1.254-8.857 1.493-10.036 6.13-1.18 4.639 1.404 9.423 5.763 10.677Z" clip-rule="evenodd"></path><path fill="#2e3120" fill-rule="evenodd" d="M366.654 422.709c.219.063.442.105.669.128 2.059.2 4.012.218 6.066.026 2.619-.246 5.205-.787 7.87-1.208 3.215-.509 6.479-.703 9.565-.548.061.004.123.005.185.005 3.984 0 7.22-3.442 7.22-7.681 0-4.238-3.236-7.679-7.22-7.679l-.108.001c-4.395.129-8.974 1.739-13.569 1.856-2.07.053-3.988-.633-5.857-1.503a3.885 3.885 0 0 0-.548-.204c-4.361-1.255-8.857 1.493-10.036 6.13-1.18 4.639 1.404 9.422 5.763 10.677Z" clip-rule="evenodd"></path><path fill="#2e3120" fill-rule="evenodd" d="M366.654 203.655c.219.063.442.105.669.128 2.059.2 4.012.218 6.066.026 2.619-.246 5.205-.787 7.87-1.208 3.215-.508 6.479-.703 9.565-.548.061.004.123.005.185.005 3.984 0 7.22-3.442 7.22-7.68 0-4.239-3.236-7.68-7.22-7.68l-.108.001c-4.395.129-8.974 1.739-13.569 1.856-2.07.053-3.988-.633-5.857-1.503a3.885 3.885 0 0 0-.548-.204c-4.361-1.254-8.857 1.493-10.036 6.13-1.18 4.639 1.404 9.423 5.763 10.677Z" clip-rule="evenodd"></path><path fill="#2e3120" fill-rule="evenodd" d="M366.654 368.336c.219.063.442.105.669.128 2.059.2 4.012.218 6.066.026 2.619-.246 5.205-.787 7.87-1.209 3.215-.508 6.479-.702 9.565-.547.061.004.123.005.185.005 3.984 0 7.22-3.442 7.22-7.681 0-4.238-3.236-7.679-7.22-7.679l-.108.001c-4.395.129-8.974 1.739-13.569 1.856-2.07.053-3.988-.633-5.857-1.503a3.885 3.885 0 0 0-.548-.204c-4.361-1.255-8.857 1.492-10.036 6.13-1.18 4.639 1.404 9.422 5.763 10.677Z" clip-rule="evenodd"></path><path fill="#2e3120" fill-rule="evenodd" d="M366.654 92.722c.219.063.442.105.669.128 2.059.2 4.012.218 6.066.026 2.619-.246 5.205-.787 7.87-1.208 3.215-.508 6.479-.703 9.565-.548.061.004.123.005.185.005 3.984 0 7.22-3.442 7.22-7.68 0-4.24-3.236-7.68-7.22-7.68l-.108.001c-4.395.13-8.974 1.74-13.569 1.856-2.07.053-3.988-.633-5.857-1.503a3.922 3.922 0 0 0-.548-.204c-4.361-1.255-8.857 1.493-10.036 6.13-1.18 4.639 1.404 9.423 5.763 10.677Z" clip-rule="evenodd"></path><path fill="#2e3120" fill-rule="evenodd" d="M366.654 314.587c.219.063.442.106.669.128 2.059.2 4.012.219 6.066.026 2.619-.246 5.205-.787 7.87-1.208 3.215-.508 6.479-.703 9.565-.548.061.004.123.006.185.006 3.984 0 7.22-3.443 7.22-7.681 0-4.239-3.236-7.68-7.22-7.68l-.108.001c-4.395.129-8.974 1.739-13.569 1.856-2.07.053-3.988-.633-5.857-1.503a4.012 4.012 0 0 0-.548-.204c-4.361-1.254-8.857 1.493-10.036 6.13-1.18 4.639 1.404 9.423 5.763 10.677Z" clip-rule="evenodd"></path><path fill="#2e3120" fill-rule="evenodd" d="M366.654 479.268c.219.064.442.106.669.128 2.059.2 4.012.219 6.066.026 2.619-.246 5.205-.787 7.87-1.208 3.215-.508 6.479-.703 9.565-.548.061.004.123.006.185.006 3.984 0 7.22-3.443 7.22-7.681 0-4.239-3.236-7.68-7.22-7.68-.036 0-.072 0-.108.002-4.395.129-8.974 1.738-13.569 1.856-2.07.052-3.988-.634-5.857-1.504a4.012 4.012 0 0 0-.548-.204c-4.361-1.254-8.857 1.493-10.036 6.131-1.18 4.638 1.404 9.422 5.763 10.676Z" clip-rule="evenodd"></path><path fill="#2e3120" fill-rule="evenodd" d="M303.491 172.978c.219.063.442.105.668.128 2.059.2 4.013.218 6.067.026 2.619-.246 5.205-.787 7.87-1.208 3.215-.509 6.479-.703 9.565-.548.061.004.123.005.185.005 3.984 0 7.22-3.442 7.22-7.681 0-4.238-3.236-7.679-7.22-7.679l-.108.001c-4.395.129-8.974 1.739-13.569 1.856-2.07.053-3.988-.633-5.857-1.503a3.885 3.885 0 0 0-.548-.204c-4.361-1.255-8.857 1.493-10.037 6.13-1.179 4.639 1.405 9.422 5.764 10.677Z" clip-rule="evenodd"></path><path fill="#2e3120" fill-rule="evenodd" d="M303.491 62.045c.219.063.442.106.668.128 2.059.2 4.013.218 6.067.026 2.619-.246 5.205-.787 7.87-1.208 3.215-.508 6.479-.703 9.565-.548.061.004.123.006.185.006 3.984 0 7.22-3.443 7.22-7.681 0-4.239-3.236-7.68-7.22-7.68l-.108.001c-4.395.13-8.974 1.74-13.569 1.857-2.07.052-3.988-.634-5.857-1.504a3.935 3.935 0 0 0-.548-.204c-4.361-1.254-8.857 1.493-10.037 6.13-1.179 4.64 1.405 9.423 5.764 10.677Z" clip-rule="evenodd"></path><path fill="#2e3120" fill-rule="evenodd" d="M303.491 283.911c.219.063.442.105.668.128 2.059.2 4.013.218 6.067.026 2.619-.246 5.205-.787 7.87-1.208 3.215-.508 6.479-.703 9.565-.548.061.004.123.005.185.005 3.984 0 7.22-3.442 7.22-7.681 0-4.238-3.236-7.679-7.22-7.679l-.108.001c-4.395.129-8.974 1.739-13.569 1.856-2.07.053-3.988-.633-5.857-1.503a3.885 3.885 0 0 0-.548-.204c-4.361-1.255-8.857 1.493-10.037 6.13-1.179 4.639 1.405 9.423 5.764 10.677Z" clip-rule="evenodd"></path><path fill="#2e3120" fill-rule="evenodd" d="M303.491 448.592c.219.063.442.105.668.127 2.059.2 4.013.219 6.067.027 2.619-.246 5.205-.787 7.87-1.209 3.215-.508 6.479-.703 9.565-.547.061.004.123.005.185.005 3.984 0 7.22-3.442 7.22-7.681s-3.236-7.679-7.22-7.679l-.108.001c-4.395.129-8.974 1.739-13.569 1.856-2.07.053-3.988-.633-5.857-1.503a3.885 3.885 0 0 0-.548-.204c-4.361-1.255-8.857 1.492-10.037 6.13-1.179 4.639 1.405 9.422 5.764 10.677Z" clip-rule="evenodd"></path><path fill="#2e3120" fill-rule="evenodd" d="M303.491 229.538c.219.063.442.105.668.128 2.059.2 4.013.218 6.067.026 2.619-.246 5.205-.787 7.87-1.208 3.215-.509 6.479-.703 9.565-.548.061.004.123.005.185.005 3.984 0 7.22-3.442 7.22-7.681 0-4.238-3.236-7.679-7.22-7.679l-.108.001c-4.395.129-8.974 1.739-13.569 1.856-2.07.053-3.988-.633-5.857-1.503a3.885 3.885 0 0 0-.548-.204c-4.361-1.255-8.857 1.493-10.037 6.13-1.179 4.639 1.405 9.423 5.764 10.677Z" clip-rule="evenodd"></path><path fill="#2e3120" fill-rule="evenodd" d="M303.491 394.219c.219.063.442.105.668.127 2.059.2 4.013.219 6.067.027 2.619-.246 5.205-.787 7.87-1.209 3.215-.508 6.479-.703 9.565-.547.061.004.123.005.185.005 3.984 0 7.22-3.442 7.22-7.681s-3.236-7.68-7.22-7.68c-.036 0-.072 0-.108.002-4.395.129-8.974 1.739-13.569 1.856-2.07.052-3.988-.633-5.857-1.503a3.765 3.765 0 0 0-.548-.204c-4.361-1.255-8.857 1.492-10.037 6.13-1.179 4.639 1.405 9.422 5.764 10.677Z" clip-rule="evenodd"></path><path fill="#2e3120" fill-rule="evenodd" d="M303.491 118.605c.219.063.442.105.668.128 2.059.2 4.013.218 6.067.026 2.619-.246 5.205-.787 7.87-1.209 3.215-.508 6.479-.702 9.565-.547.061.004.123.005.185.005 3.984 0 7.22-3.442 7.22-7.681 0-4.238-3.236-7.679-7.22-7.679l-.108.001c-4.395.129-8.974 1.739-13.569 1.856-2.07.053-3.988-.633-5.857-1.503a3.885 3.885 0 0 0-.548-.204c-4.361-1.255-8.857 1.493-10.037 6.13-1.179 4.639 1.405 9.422 5.764 10.677Z" clip-rule="evenodd"></path><path fill="#2e3120" fill-rule="evenodd" d="M303.491 340.47c.219.063.442.105.668.128 2.059.2 4.013.218 6.067.026 2.619-.246 5.205-.787 7.87-1.208 3.215-.508 6.479-.703 9.565-.548.061.004.123.005.185.005 3.984 0 7.22-3.442 7.22-7.68 0-4.239-3.236-7.68-7.22-7.68l-.108.001c-4.395.129-8.974 1.739-13.569 1.856-2.07.053-3.988-.633-5.857-1.503a3.885 3.885 0 0 0-.548-.204c-4.361-1.254-8.857 1.493-10.037 6.13-1.179 4.639 1.405 9.423 5.764 10.677Z" clip-rule="evenodd"></path><path fill="#2e3120" fill-rule="evenodd" d="M348.728 173.663c.219.063.442.105.668.127 2.059.2 4.013.219 6.067.027 2.618-.247 5.204-.788 7.87-1.209 3.214-.508 6.479-.703 9.565-.547a3.7 3.7 0 0 0 .184.005c3.985 0 7.22-3.442 7.22-7.681s-3.235-7.68-7.22-7.68c-.036 0-.072 0-.107.002-4.396.129-8.974 1.739-13.57 1.856-2.07.052-3.988-.633-5.856-1.504a4.062 4.062 0 0 0-.548-.204c-4.361-1.254-8.858 1.493-10.037 6.131-1.179 4.638 1.404 9.422 5.764 10.677Z" clip-rule="evenodd"></path><path fill="#2e3120" fill-rule="evenodd" d="M348.728 62.73c.219.063.442.105.668.127 2.059.2 4.013.219 6.067.026 2.618-.246 5.204-.787 7.87-1.208 3.214-.508 6.479-.703 9.565-.548.06.004.122.006.184.006 3.985 0 7.22-3.443 7.22-7.681 0-4.239-3.235-7.68-7.22-7.68-.036 0-.072 0-.107.002-4.396.129-8.974 1.738-13.57 1.856-2.07.052-3.988-.634-5.856-1.504a3.983 3.983 0 0 0-.548-.204c-4.361-1.254-8.858 1.493-10.037 6.13-1.179 4.64 1.404 9.423 5.764 10.677Z" clip-rule="evenodd"></path><path fill="#2e3120" fill-rule="evenodd" d="M348.728 284.595c.219.063.442.105.668.128 2.059.2 4.013.218 6.067.026 2.618-.246 5.204-.787 7.87-1.208 3.214-.508 6.479-.703 9.565-.548.06.004.122.005.184.005 3.985 0 7.22-3.442 7.22-7.68 0-4.239-3.235-7.68-7.22-7.68l-.107.001c-4.396.129-8.974 1.739-13.57 1.856-2.07.053-3.988-.633-5.856-1.503a3.931 3.931 0 0 0-.548-.204c-4.361-1.254-8.858 1.493-10.037 6.13-1.179 4.639 1.404 9.423 5.764 10.677Z" clip-rule="evenodd"></path><path fill="#2e3120" fill-rule="evenodd" d="M348.728 449.276c.219.063.442.105.668.127 2.059.201 4.013.219 6.067.027 2.618-.246 5.204-.787 7.87-1.209 3.214-.508 6.479-.703 9.565-.547.06.004.122.005.184.005 3.985 0 7.22-3.442 7.22-7.681 0-4.238-3.235-7.679-7.22-7.679l-.107.001c-4.396.129-8.974 1.739-13.57 1.856-2.07.053-3.988-.633-5.856-1.503a3.931 3.931 0 0 0-.548-.204c-4.361-1.255-8.858 1.492-10.037 6.13-1.179 4.639 1.404 9.422 5.764 10.677Z" clip-rule="evenodd"></path><path fill="#2e3120" fill-rule="evenodd" d="M348.728 230.222c.219.063.442.105.668.128 2.059.2 4.013.218 6.067.026 2.618-.246 5.204-.787 7.87-1.208 3.214-.508 6.479-.703 9.565-.548.06.004.122.005.184.005 3.985 0 7.22-3.442 7.22-7.681 0-4.238-3.235-7.679-7.22-7.679l-.107.001c-4.396.129-8.974 1.739-13.57 1.856-2.07.053-3.988-.633-5.856-1.503a3.931 3.931 0 0 0-.548-.204c-4.361-1.255-8.858 1.493-10.037 6.13-1.179 4.639 1.404 9.423 5.764 10.677Z" clip-rule="evenodd"></path><path fill="#2e3120" fill-rule="evenodd" d="M348.728 394.903c.219.063.442.105.668.127 2.059.2 4.013.219 6.067.027 2.618-.246 5.204-.787 7.87-1.209 3.214-.508 6.479-.703 9.565-.547.06.004.122.005.184.005 3.985 0 7.22-3.442 7.22-7.681s-3.235-7.679-7.22-7.679l-.107.001c-4.396.129-8.974 1.739-13.57 1.856-2.07.053-3.988-.633-5.856-1.503a3.931 3.931 0 0 0-.548-.204c-4.361-1.255-8.858 1.492-10.037 6.13-1.179 4.639 1.404 9.422 5.764 10.677Z" clip-rule="evenodd"></path><path fill="#2e3120" fill-rule="evenodd" d="M348.728 119.289c.219.064.442.106.668.128 2.059.2 4.013.219 6.067.026 2.618-.246 5.204-.787 7.87-1.208 3.214-.508 6.479-.703 9.565-.548.06.004.122.006.184.006 3.985 0 7.22-3.443 7.22-7.681 0-4.239-3.235-7.68-7.22-7.68-.036 0-.072 0-.107.002-4.396.129-8.974 1.738-13.57 1.856-2.07.052-3.988-.634-5.856-1.504a4.062 4.062 0 0 0-.548-.204c-4.361-1.254-8.858 1.493-10.037 6.131-1.179 4.638 1.404 9.422 5.764 10.676Z" clip-rule="evenodd"></path><path fill="#2e3120" fill-rule="evenodd" d="M348.728 341.155c.219.063.442.105.668.128 2.059.2 4.013.218 6.067.026 2.618-.246 5.204-.787 7.87-1.208 3.214-.508 6.479-.703 9.565-.548.06.004.122.005.184.005 3.985 0 7.22-3.442 7.22-7.68 0-4.239-3.235-7.68-7.22-7.68l-.107.001c-4.396.129-8.974 1.739-13.57 1.856-2.07.053-3.988-.633-5.856-1.503a3.931 3.931 0 0 0-.548-.204c-4.361-1.254-8.858 1.493-10.037 6.13-1.179 4.639 1.404 9.423 5.764 10.677Z" clip-rule="evenodd"></path><path fill="#2e3120" fill-rule="evenodd" d="M463.675 147.095c.219.063.442.105.669.128 2.059.2 4.012.218 6.066.026 2.619-.246 5.205-.787 7.87-1.208 3.215-.508 6.479-.703 9.565-.548.061.004.123.005.185.005 3.984 0 7.22-3.442 7.22-7.68 0-4.239-3.236-7.68-7.22-7.68l-.108.001c-4.395.129-8.974 1.739-13.569 1.856-2.07.053-3.988-.633-5.857-1.503a3.885 3.885 0 0 0-.548-.204c-4.361-1.254-8.857 1.493-10.036 6.13-1.18 4.639 1.404 9.423 5.763 10.677Z" clip-rule="evenodd"></path><path fill="#2e3120" fill-rule="evenodd" d="M463.675 36.163c.219.063.442.105.669.127 2.059.2 4.012.219 6.066.026 2.619-.246 5.205-.787 7.87-1.208 3.215-.508 6.479-.703 9.565-.547.061.004.123.005.185.005 3.984 0 7.22-3.443 7.22-7.681 0-4.239-3.236-7.68-7.22-7.68-.036 0-.072 0-.108.002-4.395.129-8.974 1.738-13.569 1.856-2.07.052-3.988-.633-5.857-1.504a3.935 3.935 0 0 0-.548-.204c-4.361-1.254-8.857 1.493-10.036 6.13-1.18 4.64 1.404 9.423 5.763 10.678Z" clip-rule="evenodd"></path><path fill="#2e3120" fill-rule="evenodd" d="M463.675 258.028c.219.063.442.106.669.128 2.059.2 4.012.218 6.066.026 2.619-.246 5.205-.787 7.87-1.208 3.215-.508 6.479-.703 9.565-.548.061.004.123.006.185.006 3.984 0 7.22-3.443 7.22-7.681 0-4.239-3.236-7.68-7.22-7.68l-.108.001c-4.395.129-8.974 1.739-13.569 1.856-2.07.053-3.988-.633-5.857-1.503a4.012 4.012 0 0 0-.548-.204c-4.361-1.254-8.857 1.493-10.036 6.13-1.18 4.639 1.404 9.423 5.763 10.677Z" clip-rule="evenodd"></path><path fill="#2e3120" fill-rule="evenodd" d="M463.675 422.709c.219.063.442.105.669.128 2.059.2 4.012.218 6.066.026 2.619-.246 5.205-.787 7.87-1.208 3.215-.509 6.479-.703 9.565-.548.061.004.123.005.185.005 3.984 0 7.22-3.442 7.22-7.681 0-4.238-3.236-7.679-7.22-7.679l-.108.001c-4.395.129-8.974 1.739-13.569 1.856-2.07.053-3.988-.633-5.857-1.503a3.885 3.885 0 0 0-.548-.204c-4.361-1.255-8.857 1.493-10.036 6.13-1.18 4.639 1.404 9.422 5.763 10.677Z" clip-rule="evenodd"></path><path fill="#2e3120" fill-rule="evenodd" d="M463.675 203.655c.219.063.442.105.669.128 2.059.2 4.012.218 6.066.026 2.619-.246 5.205-.787 7.87-1.208 3.215-.508 6.479-.703 9.565-.548.061.004.123.005.185.005 3.984 0 7.22-3.442 7.22-7.68 0-4.239-3.236-7.68-7.22-7.68l-.108.001c-4.395.129-8.974 1.739-13.569 1.856-2.07.053-3.988-.633-5.857-1.503a3.885 3.885 0 0 0-.548-.204c-4.361-1.254-8.857 1.493-10.036 6.13-1.18 4.639 1.404 9.423 5.763 10.677Z" clip-rule="evenodd"></path><path fill="#2e3120" fill-rule="evenodd" d="M463.675 368.336c.219.063.442.105.669.128 2.059.2 4.012.218 6.066.026 2.619-.246 5.205-.787 7.87-1.209 3.215-.508 6.479-.702 9.565-.547.061.004.123.005.185.005 3.984 0 7.22-3.442 7.22-7.681 0-4.238-3.236-7.679-7.22-7.679l-.108.001c-4.395.129-8.974 1.739-13.569 1.856-2.07.053-3.988-.633-5.857-1.503a3.885 3.885 0 0 0-.548-.204c-4.361-1.255-8.857 1.492-10.036 6.13-1.18 4.639 1.404 9.422 5.763 10.677Z" clip-rule="evenodd"></path><path fill="#2e3120" fill-rule="evenodd" d="M463.675 92.722c.219.063.442.105.669.128 2.059.2 4.012.218 6.066.026 2.619-.246 5.205-.787 7.87-1.208 3.215-.508 6.479-.703 9.565-.548.061.004.123.005.185.005 3.984 0 7.22-3.442 7.22-7.68 0-4.24-3.236-7.68-7.22-7.68l-.108.001c-4.395.13-8.974 1.74-13.569 1.856-2.07.053-3.988-.633-5.857-1.503a3.922 3.922 0 0 0-.548-.204c-4.361-1.255-8.857 1.493-10.036 6.13-1.18 4.639 1.404 9.423 5.763 10.677Z" clip-rule="evenodd"></path><path fill="#2e3120" fill-rule="evenodd" d="M463.675 314.587c.219.063.442.106.669.128 2.059.2 4.012.219 6.066.026 2.619-.246 5.205-.787 7.87-1.208 3.215-.508 6.479-.703 9.565-.548.061.004.123.006.185.006 3.984 0 7.22-3.443 7.22-7.681 0-4.239-3.236-7.68-7.22-7.68l-.108.001c-4.395.129-8.974 1.739-13.569 1.856-2.07.053-3.988-.633-5.857-1.503a4.012 4.012 0 0 0-.548-.204c-4.361-1.254-8.857 1.493-10.036 6.13-1.18 4.639 1.404 9.423 5.763 10.677Z" clip-rule="evenodd"></path><path fill="#2e3120" fill-rule="evenodd" d="M463.675 479.268c.219.064.442.106.669.128 2.059.2 4.012.219 6.066.026 2.619-.246 5.205-.787 7.87-1.208 3.215-.508 6.479-.703 9.565-.548.061.004.123.006.185.006 3.984 0 7.22-3.443 7.22-7.681 0-4.239-3.236-7.68-7.22-7.68-.036 0-.072 0-.108.002-4.395.129-8.974 1.738-13.569 1.856-2.07.052-3.988-.634-5.857-1.504a4.012 4.012 0 0 0-.548-.204c-4.361-1.254-8.857 1.493-10.036 6.131-1.18 4.638 1.404 9.422 5.763 10.676Z" clip-rule="evenodd"></path><path fill="#2e3120" d="M27.818 0H0v7.952a33.02 33.02 0 0 0 2.224-.126c1.88-.17 3.744-.482 5.63-.798.838-.14 1.68-.281 2.531-.41 3.334-.509 6.719-.704 9.919-.548.063.004.127.005.191.005 3.595 0 6.602-2.606 7.323-6.075Z"></path><path fill="#2e3120" d="M500 267.209v16.982a34.768 34.768 0 0 1-4.063-.152 4.066 4.066 0 0 1-.693-.128c-4.521-1.254-7.2-6.038-5.977-10.677 1.223-4.637 5.886-7.385 10.408-6.13.11.03.218.066.325.105Z"></path><path fill="#2e3120" d="M500 323.768v16.982a34.768 34.768 0 0 1-4.063-.152 4.066 4.066 0 0 1-.693-.128c-4.521-1.254-7.2-6.038-5.977-10.677 1.223-4.637 5.886-7.384 10.408-6.13.11.031.218.066.325.105Z"></path><path fill="#2e3120" d="M500 377.517v16.982a34.77 34.77 0 0 1-4.063-.153 3.969 3.969 0 0 1-.693-.127c-4.521-1.255-7.2-6.038-5.977-10.677 1.223-4.638 5.886-7.385 10.408-6.13.11.03.218.065.325.105Z"></path><path fill="#2e3120" d="M500 431.89v16.982a34.77 34.77 0 0 1-4.063-.153 3.969 3.969 0 0 1-.693-.127c-4.521-1.255-7.2-6.038-5.977-10.677 1.223-4.638 5.886-7.385 10.408-6.13.11.03.218.065.325.105Z"></path><path fill="#2e3120" d="M500 490.97V500h-10.999c-.081-.983 0-1.998.266-3.005 1.223-4.638 5.886-7.385 10.408-6.13.11.03.218.065.325.105Z"></path><path fill="#2e3120" d="M482.209 500h-45.54c.211-4.902 3.573-9.185 8.303-10.103 1.645-.326 3.206-.294 4.773-.261 2.124.043 4.257.087 6.625-.758 2.277-.811 4.578-1.447 6.975-1.296 1.402.089 2.587.549 3.746 1.102.165.079.33.16.495.242.634.314 1.276.631 2.002.815 1.194.303 2.379.415 3.541.525.62.059 1.233.117 1.838.203 4.081.088 7.367 3.639 7.367 8.001 0 .539-.042 1.049-.125 1.53Z"></path><path fill="#2e3120" d="M427.123 500h-35.918c.636-5.171 5.327-9.099 10.865-8.978.257-.034.514-.07.77-.105 1.985-.272 3.955-.543 5.949-.182 5.254.948 15.412 4.043 18.334 9.265Z"></path><path fill="#2e3120" d="M380.251 500h-37.572a9.229 9.229 0 0 1 .285-2.321c1.179-4.637 5.676-7.384 10.037-6.13.186.054.37.123.548.204 1.868.87 3.786 1.556 5.856 1.504 2.337-.06 4.67-.506 6.976-.946 2.229-.426 4.433-.847 6.594-.911l.107-.001c3.985 0 7.22 3.441 7.22 7.68 0 .311-.017.619-.051.921Z"></path><path fill="#2e3120" d="M334.907 500h-37.436c-.078-.983 0-1.998.256-3.005 1.18-4.638 5.676-7.385 10.037-6.13.187.054.37.122.548.204 1.869.87 3.787 1.556 5.857 1.503 2.337-.06 4.669-.505 6.975-.946 2.229-.426 4.434-.847 6.594-.91l.108-.001c3.984 0 7.22 3.441 7.22 7.679 0 .551-.055 1.088-.159 1.606Z"></path><path fill="#2e3120" d="M287.62 500h-45.545c.655-4.392 3.845-8.072 8.189-8.915 1.645-.326 3.206-.294 4.773-.261 2.123.043 4.257.087 6.625-.758 2.276-.811 4.578-1.447 6.975-1.296 1.402.089 2.587.549 3.745 1.102.166.079.33.16.495.242.635.314 1.277.631 2.002.815 1.195.303 2.379.415 3.542.525.619.059 1.232.117 1.837.203 4.081.088 7.368 3.639 7.368 8.001 0 .115-.002.229-.006.342Z"></path><path fill="#2e3120" d="M232.773 500h-45.187c.256-3.812 2.869-7.13 6.561-7.914.165-.036.335-.06.504-.073 1.3-.093 2.6-.131 3.956.05 1.306.176 2.638.531 3.967.885 1.551.413 3.097.824 4.591.949l17.953-2.298c.156-.021.314-.031.471-.031 3.984 0 7.219 3.441 7.219 7.68 0 .254-.012.505-.035.752Z"></path><path fill="#2e3120" d="M181.748 500h-44.57a5.527 5.527 0 0 1-.001-.59c.181-3.541 3.739-6.321 8.033-6.362a46.54 46.54 0 0 0 1.908-.534c1.591-.471 3.111-.922 4.88-.92 1.193 0 2.306.275 3.392.64.22.074.436.157.652.24.646.249 1.288.495 2.005.489 1.071-.009 1.985-.373 2.909-.741l.087-.034.266-.106c1.39-.554 2.801-1.116 4.399-1.359.718-.109 1.45-.099 2.187-.09.446.006.893.012 1.339-.008 6.107-.588 11.668 2.957 12.432 7.94.074.483.1.963.082 1.435Z"></path><path fill="#2e3120" d="M130.051 500H87.943c1.215-2.526 4.104-4.534 7.858-5.124 3.046-.763 6.161-1.399 9.415-1.305 2.054.058 3.96.489 5.942.936l.594.134c.876.196 1.661.482 2.429.77l.252.095c.639.244 1.27.485 2.04.523.776.039 1.528-.16 2.285-.36.267-.071.536-.142.806-.203.033-.008.067-.014.1-.021 4.551-.849 9.169 1.187 10.387 4.555Z"></path><path fill="#2e3120" d="M81.072 500H36.689c1.335-3.082 4.012-5.449 7.386-6.103 1.646-.326 3.207-.294 4.773-.261 2.124.043 4.258.087 6.625-.758 2.277-.811 4.578-1.447 6.975-1.296 1.402.089 2.588.549 3.746 1.102.165.079.33.16.495.242.635.314 1.276.631 2.002.815 1.194.303 2.379.415 3.541.525.62.059 1.233.117 1.838.203 3.275.071 6.038 2.371 7.002 5.531Z"></path><path fill="#2e3120" d="M27.818 500H0v-9.028c.08.03.16.062.239.097 1.938.87 3.926 1.556 6.073 1.503 2.424-.06 4.843-.505 7.234-.946 2.312-.426 4.597-.847 6.838-.91l.111-.001c4.132 0 7.487 3.441 7.487 7.679a7.86 7.86 0 0 1-.164 1.606Z"></path><path fill="#2e3120" d="M0 448.872v-16.98c.08.029.16.062.239.097 1.938.87 3.926 1.556 6.073 1.503 2.424-.06 4.843-.505 7.234-.946 2.312-.426 4.597-.847 6.838-.91l.111-.001c4.132 0 7.487 3.44 7.487 7.679 0 4.239-3.355 7.681-7.487 7.681-.064 0-.128-.001-.191-.005-3.2-.156-6.585.039-9.919.547-.85.13-1.693.271-2.531.411-1.886.316-3.75.627-5.63.798-.751.068-1.49.109-2.224.126Z"></path><path fill="#2e3120" d="M0 394.499v-16.981c.08.03.16.063.239.098 1.938.87 3.926 1.555 6.073 1.503 2.424-.06 4.843-.505 7.234-.946 2.312-.426 4.597-.847 6.838-.91.037-.002.074-.002.111-.002 4.132 0 7.487 3.441 7.487 7.68s-3.355 7.681-7.487 7.681c-.064 0-.128-.001-.191-.005-3.2-.156-6.585.039-9.919.547-.85.13-1.693.271-2.531.411-1.886.316-3.75.627-5.63.798-.751.067-1.49.109-2.224.126Z"></path><path fill="#2e3120" d="M0 340.75v-16.98c.08.03.16.062.239.097 1.938.87 3.926 1.556 6.073 1.503 2.424-.059 4.843-.505 7.234-.945 2.312-.426 4.597-.847 6.838-.911l.111-.001c4.132 0 7.487 3.441 7.487 7.68 0 4.238-3.355 7.68-7.487 7.68-.064 0-.128-.001-.191-.005-3.2-.155-6.585.04-9.919.548-.85.129-1.693.27-2.531.411-1.886.315-3.75.627-5.63.797-.751.068-1.49.109-2.224.126Z"></path><path fill="#2e3120" d="M0 284.191v-16.98c.08.03.16.062.239.097 1.938.87 3.926 1.556 6.073 1.503 2.424-.059 4.843-.505 7.234-.946 2.312-.425 4.597-.846 6.838-.91l.111-.001c4.132 0 7.487 3.441 7.487 7.679 0 4.239-3.355 7.681-7.487 7.681-.064 0-.128-.001-.191-.005-3.2-.155-6.585.04-9.919.548-.85.129-1.693.27-2.531.41-1.886.316-3.75.628-5.63.798-.751.068-1.49.109-2.224.126Z"></path><path fill="#2e3120" d="M0 229.818v-16.98c.08.03.16.062.239.097 1.938.87 3.926 1.556 6.073 1.503 2.424-.059 4.843-.505 7.234-.946 2.312-.425 4.597-.846 6.838-.91l.111-.001c4.132 0 7.487 3.441 7.487 7.679 0 4.239-3.355 7.681-7.487 7.681-.064 0-.128-.001-.191-.005-3.2-.155-6.585.039-9.919.548-.85.129-1.693.27-2.531.41-1.886.316-3.75.628-5.63.798-.751.068-1.49.109-2.224.126Z"></path><path fill="#2e3120" d="M0 173.258v-16.98c.08.03.16.062.239.097 1.938.87 3.926 1.556 6.073 1.503 2.424-.059 4.843-.505 7.234-.946 2.312-.425 4.597-.847 6.838-.91l.111-.001c4.132 0 7.487 3.441 7.487 7.679 0 4.239-3.355 7.681-7.487 7.681-.064 0-.128-.001-.191-.005-3.2-.155-6.585.039-9.919.548-.85.129-1.693.27-2.531.41-1.886.316-3.75.628-5.63.798-.751.068-1.49.109-2.224.126Z"></path><path fill="#2e3120" d="M0 118.885v-16.98c.08.03.16.062.239.097 1.938.87 3.926 1.556 6.073 1.503 2.424-.06 4.843-.505 7.234-.946 2.312-.425 4.597-.847 6.838-.91l.111-.001c4.132 0 7.487 3.441 7.487 7.679 0 4.239-3.355 7.681-7.487 7.681-.064 0-.128-.001-.191-.005-3.2-.155-6.585.039-9.919.548-.85.129-1.693.27-2.531.41-1.886.316-3.75.627-5.63.798-.751.068-1.49.109-2.224.126Z"></path><path fill="#2e3120" d="M0 62.325v-16.98c.08.03.16.063.239.097 1.938.87 3.926 1.556 6.073 1.504 2.424-.06 4.843-.506 7.234-.946 2.312-.426 4.597-.847 6.838-.91.037-.002.074-.002.111-.002 4.132 0 7.487 3.441 7.487 7.68 0 4.238-3.355 7.68-7.487 7.68-.064 0-.128 0-.191-.005-3.2-.155-6.585.04-9.919.548-.85.13-1.693.27-2.531.41-1.886.316-3.75.628-5.63.798-.751.068-1.49.11-2.224.126Z"></path><path fill="#2e3120" d="M500 212.836v16.982a34.988 34.988 0 0 1-4.063-.152 4.066 4.066 0 0 1-.693-.128c-4.521-1.254-7.2-6.038-5.977-10.677 1.223-4.637 5.886-7.385 10.408-6.13.11.03.218.066.325.105Z"></path><path fill="#2e3120" d="M500 45.343v16.982a34.835 34.835 0 0 1-4.063-.152 3.99 3.99 0 0 1-.693-.128c-4.521-1.254-7.2-6.038-5.977-10.677 1.223-4.637 5.886-7.384 10.408-6.13.11.03.218.066.325.105Z"></path><path fill="#2e3120" d="M500 101.903v16.982a34.988 34.988 0 0 1-4.063-.152 4.066 4.066 0 0 1-.693-.128c-4.521-1.255-7.2-6.038-5.977-10.677 1.223-4.637 5.886-7.385 10.408-6.13.11.03.218.066.325.105Z"></path><path fill="#2e3120" d="M500 156.276v16.982a34.988 34.988 0 0 1-4.063-.152 4.066 4.066 0 0 1-.693-.128c-4.521-1.255-7.2-6.038-5.977-10.677 1.223-4.637 5.886-7.385 10.408-6.13.11.03.218.066.325.105Z"></path><path fill="#2e3120" d="M68.611 12.018c-5.906 1.715-10.137 2.943-16.528 2.943-8.007 0-13.726 0-16.154-8.527A11.344 11.344 0 0 1 36.689 0h44.383c.237.778.365 1.608.365 2.47 0 4.362-2.77 6.764-7.351 8-2.015.543-3.811 1.065-5.475 1.548Z"></path><path fill="#2e3120" d="M102.562 10.756c-.875-.114-1.747-.226-2.636-.198h-.005c-5.737.777-11.275-2.034-12.403-6.323-.387-1.468-.207-2.921.425-4.235h42.108l.042.12c1.151 3.439-1.653 6.93-6.258 7.79a1.766 1.766 0 0 1-.101.016c-.959.144-1.925.194-2.885.244-1.037.054-2.067.108-3.072.278-1.238.21-2.314.527-3.393.844-.962.283-1.927.567-3.013.778l-.604.118c-1.859.364-3.641.714-5.551.769-.902.026-1.78-.088-2.654-.201Z"></path><path fill="#2e3120" d="M145.968 6.856c-.478-.187-.965-.378-1.484-.564h-.002c-4.012-.333-7.119-3.025-7.304-6.292h44.57c-.173 4.388-4.22 8.153-9.726 8.755-.32.054-.639.112-.958.171-1.2.22-2.396.44-3.608.398-1.961-.07-3.696-.572-5.415-1.114l-.326-.103c-1.134-.36-2.27-.72-3.549-.788-.894-.046-1.736.157-2.581.36a31.49 31.49 0 0 1-.624.148c-1.091.242-2.196.437-3.349.439a9.932 9.932 0 0 1-2.318-.298c-1.233-.294-2.257-.694-3.326-1.112Z"></path><path fill="#2e3120" d="M197.846 9.02a3.8 3.8 0 0 1-.491.139c-4.43.942-8.743-2.118-9.629-6.83a9.24 9.24 0 0 1-.14-2.329h45.187c-.355 3.886-3.438 6.928-7.184 6.928-.066 0-.13-.002-.196-.004a38.317 38.317 0 0 0-6.298.156c-1.483.165-2.958.386-4.434.607-2.2.33-4.403.66-6.637.803-1.657.257-3.436.214-5.228.17-1.206-.029-2.418-.058-3.602.004-.44.022-.838.168-1.227.311l-.121.044Z"></path><path fill="#2e3120" d="M274.8 9.206c-5.907 1.715-10.138 2.943-16.528 2.943-8.008 0-13.727 0-16.155-8.528A11.419 11.419 0 0 1 242.075 0h45.545c-.142 4.147-2.886 6.454-7.345 7.657a287.204 287.204 0 0 0-5.475 1.549Z"></path><path fill="#2e3120" d="M304.159 7.8a3.732 3.732 0 0 1-.668-.128c-3.412-.982-5.737-4.127-6.02-7.672h37.436c-.695 3.47-3.595 6.075-7.061 6.075-.062 0-.124-.001-.185-.005-3.086-.156-6.35.04-9.565.547-.82.13-1.633.271-2.441.411-1.819.316-3.616.627-5.429.798a31.354 31.354 0 0 1-6.067-.027Z"></path><path fill="#2e3120" d="M349.396 8.484a3.732 3.732 0 0 1-.668-.128c-3.631-1.044-6.03-4.538-6.049-8.356h37.572c-.429 3.805-3.477 6.76-7.169 6.76a2.82 2.82 0 0 1-.184-.006c-3.086-.155-6.351.04-9.565.548-.82.13-1.633.27-2.441.41-1.819.316-3.616.628-5.429.798a31.354 31.354 0 0 1-6.067-.026Z"></path><path fill="#2e3120" d="M402.574 11.83c-.459-.185-.919-.37-1.404-.489h.003c-5.795-.337-10.272-5.031-10.032-10.57a9.77 9.77 0 0 1 .064-.771h35.918c.514.92.805 1.904.805 2.955 0 9.049-15.249 10.283-22.324 9.695-.821-.067-1.591-.28-2.345-.553-.23-.083-.458-.175-.685-.267Z"></path><path fill="#2e3120" d="M469.508 8.018c-5.906 1.715-10.138 2.943-16.528 2.943-8.008 0-13.726 0-16.155-8.527A11.54 11.54 0 0 1 436.669 0h45.54c-.588 3.408-3.212 5.386-7.226 6.47a287.126 287.126 0 0 0-5.475 1.548Z"></path><path fill="#2e3120" d="M495.937 7.8a3.988 3.988 0 0 1-.693-.128c-3.539-.982-5.949-4.127-6.243-7.672H500v7.952a34.822 34.822 0 0 1-4.063-.153Z"></path></svg>