<svg xmlns="http://www.w3.org/2000/svg" fill="none" viewBox="0 0 500 500"><path fill="black" fill-rule="evenodd" d="M139.568 304.367c-1.071-.429-4.8 2.001-4.853 2.427-.454 3.635-1.66 7.102-2.427 10.677-2.276 10.631-6.463 20.829-8.251 31.55-.429 2.574-2.282 7.571-.97 10.195.723 1.444 21.06 4.177 22.814 2.427 7.07-7.073 3.882-32.351 3.882-41.745 0-2.655 1.243-9.159 0-11.648-1.534-3.065-6.344-2.342-10.195-3.883Z" clip-rule="evenodd"></path><path fill="black" fill-rule="evenodd" d="M436.502 58.252c-1.07-.429-4.8 2.001-4.853 2.427-.454 3.635-1.659 7.102-2.427 10.677-2.276 10.63-6.462 20.829-8.25 31.55-.429 2.574-2.283 7.571-.971 10.195.723 1.444 21.06 4.177 22.814 2.427 7.07-7.074 3.883-32.352 3.883-41.745 0-2.655 1.243-9.159 0-11.648-1.535-3.066-6.344-2.342-10.196-3.883Z" clip-rule="evenodd"></path><path fill="black" fill-rule="evenodd" d="M436.502 304.882c-1.07-.429-4.8 2.001-4.853 2.427-.454 3.635-1.659 7.101-2.427 10.677-2.276 10.631-6.462 20.829-8.25 31.55-.429 2.574-2.283 7.571-.971 10.195.723 1.444 21.06 4.177 22.814 2.427 7.07-7.074 3.883-32.352 3.883-41.745 0-2.655 1.243-9.159 0-11.648-1.535-3.065-6.344-2.342-10.196-3.883Z" clip-rule="evenodd"></path><path fill="black" fill-rule="evenodd" d="M323.607 226.823c-1.071-.429-4.8 2.001-4.853 2.427-.454 3.635-1.66 7.101-2.427 10.677-2.276 10.631-6.463 20.829-8.251 31.55-.429 2.574-2.282 7.571-.97 10.195.723 1.444 21.06 4.177 22.813 2.427 7.071-7.074 3.883-32.352 3.883-41.745 0-2.655 1.243-9.159 0-11.648-1.534-3.066-6.344-2.342-10.195-3.883Z" clip-rule="evenodd"></path><path fill="black" fill-rule="evenodd" d="M323.607 136.137c-1.071-.429-4.8 2.001-4.853 2.427-.454 3.635-1.66 7.102-2.427 10.677-2.276 10.631-6.463 20.829-8.251 31.55-.429 2.574-2.282 7.571-.97 10.195.723 1.444 21.06 4.177 22.813 2.427 7.071-7.073 3.883-32.351 3.883-41.745 0-2.655 1.243-9.159 0-11.648-1.534-3.065-6.344-2.342-10.195-3.883Z" clip-rule="evenodd"></path><path fill="black" fill-rule="evenodd" d="M400.684 226.823c-1.071-.429-4.8 2.001-4.853 2.427-.454 3.635-1.66 7.102-2.427 10.677-2.276 10.631-6.463 20.829-8.251 31.55-.429 2.574-2.282 7.571-.97 10.195.723 1.444 21.06 4.177 22.813 2.427 7.071-7.074 3.883-32.351 3.883-41.745 0-2.655 1.243-9.159 0-11.648-1.534-3.065-6.344-2.342-10.195-3.883Z" clip-rule="evenodd"></path><path fill="black" fill-rule="evenodd" d="M323.607 389.5c-1.071-.429-4.8 2.001-4.853 2.427-.454 3.635-1.66 7.101-2.427 10.677-2.276 10.63-6.463 20.829-8.251 31.55-.429 2.574-2.282 7.571-.97 10.195.723 1.443 21.06 4.177 22.813 2.427 7.071-7.074 3.883-32.352 3.883-41.745 0-2.656 1.243-9.159 0-11.648-1.534-3.066-6.344-2.342-10.195-3.883Z" clip-rule="evenodd"></path><path fill="black" fill-rule="evenodd" d="M221.273 229.413c-1.397 0-4.562 1.731-4.691 2.752-.629 5.032-.992 10.43-1.456 15.534-.845 9.315-1.941 18.79-1.941 28.152 0 1.002-.993 8.714 0 9.707 1.246 1.246 10.145 0 11.651 0 .874 0 5.639 1.306 6.309.971 1.71-.855.486-12.074.486-13.593v-32.035c0-1.951-.276-9.982-1.456-11.162-2.186-2.183-4.303-.326-8.902-.326Z" clip-rule="evenodd"></path><path fill="black" fill-rule="evenodd" d="M221.273 138.727c-1.397 0-4.562 1.731-4.691 2.752-.629 5.032-.992 10.43-1.456 15.534-.845 9.315-1.941 18.79-1.941 28.152 0 1.002-.993 8.714 0 9.707 1.246 1.246 10.145 0 11.651 0 .874 0 5.639 1.306 6.309.971 1.71-.855.486-12.074.486-13.593v-32.035c0-1.95-.276-9.982-1.456-11.162-2.186-2.183-4.303-.326-8.902-.326Z" clip-rule="evenodd"></path><path fill="black" fill-rule="evenodd" d="M221.273 392.09c-1.397 0-4.562 1.731-4.691 2.752-.629 5.032-.992 10.43-1.456 15.534-.845 9.315-1.941 18.79-1.941 28.152 0 1.002-.993 8.714 0 9.707 1.246 1.246 10.145 0 11.651 0 .874 0 5.639 1.306 6.309.971 1.71-.855.486-12.074.486-13.593v-32.035c0-1.951-.276-9.982-1.456-11.163-2.186-2.182-4.303-.325-8.902-.325Z" clip-rule="evenodd"></path><path fill="black" fill-rule="evenodd" d="M315.172 58.673c-1.396 0-4.562 1.732-4.69 2.753-.629 5.032-.993 10.43-1.456 15.534-.845 9.315-1.941 18.79-1.941 28.152 0 1.002-.993 8.714 0 9.707 1.246 1.246 10.145 0 11.651 0 .873 0 5.639 1.305 6.309.97 1.71-.855.485-12.074.485-13.592V70.162c0-1.95-.275-9.982-1.456-11.163-2.185-2.182-4.302-.326-8.902-.326Z" clip-rule="evenodd"></path><path fill="black" fill-rule="evenodd" d="M315.172 305.303c-1.396 0-4.562 1.732-4.69 2.753-.629 5.032-.993 10.43-1.456 15.534-.845 9.315-1.941 18.79-1.941 28.152 0 1.002-.993 8.714 0 9.707 1.246 1.246 10.145 0 11.651 0 .873 0 5.639 1.305 6.309.97 1.71-.855.485-12.074.485-13.592v-32.035c0-1.951-.275-9.982-1.456-11.163-2.185-2.182-4.302-.326-8.902-.326Z" clip-rule="evenodd"></path><path fill="black" fill-rule="evenodd" d="M396.531 58.673c-1.396 0-4.562 1.732-4.69 2.753-.629 5.031-.993 10.43-1.456 15.533-.845 9.316-1.941 18.79-1.941 28.153 0 1.002-.993 8.714 0 9.706 1.246 1.247 10.145 0 11.651 0 .873 0 5.639 1.306 6.309.971 1.71-.855.485-12.074.485-13.592V70.162c0-1.951-.275-9.983-1.456-11.163-2.185-2.182-4.302-.326-8.902-.326Z" clip-rule="evenodd"></path><path fill="black" fill-rule="evenodd" d="M181.642 392.34c-1.396 0-4.562 1.731-4.69 2.752-.629 5.032-.993 10.43-1.456 15.534-.846 9.315-1.941 18.79-1.941 28.152 0 1.002-.993 8.714 0 9.707 1.246 1.246 10.145 0 11.651 0 .873 0 5.639 1.306 6.309.971 1.71-.855.485-12.074.485-13.593v-32.035c0-1.951-.275-9.982-1.456-11.163-2.185-2.182-4.302-.325-8.902-.325Z" clip-rule="evenodd"></path><path fill="black" fill-rule="evenodd" d="M396.531 305.303c-1.396 0-4.562 1.732-4.69 2.753-.629 5.031-.993 10.429-1.456 15.533-.845 9.316-1.941 18.791-1.941 28.153 0 1.002-.993 8.714 0 9.706 1.246 1.247 10.145 0 11.651 0 .873 0 5.639 1.306 6.309.971 1.71-.855.485-12.074.485-13.592v-32.035c0-1.951-.275-9.983-1.456-11.163-2.185-2.183-4.302-.326-8.902-.326Z" clip-rule="evenodd"></path><path fill="black" fill-rule="evenodd" d="M69.627 58.673c-1.397 0-4.562 1.732-4.69 2.753-.63 5.031-.993 10.43-1.457 15.533-.845 9.316-1.941 18.79-1.941 28.153 0 1.002-.992 8.714 0 9.706 1.246 1.247 10.145 0 11.651 0 .874 0 5.64 1.306 6.31.971 1.71-.855.485-12.074.485-13.592V70.162c0-1.951-.276-9.983-1.456-11.163-2.186-2.182-4.302-.326-8.902-.326Z" clip-rule="evenodd"></path><path fill="black" fill-rule="evenodd" d="M69.627 305.303c-1.397 0-4.562 1.732-4.69 2.753-.63 5.031-.993 10.429-1.457 15.533-.845 9.316-1.941 18.791-1.941 28.153 0 1.002-.992 8.714 0 9.706 1.246 1.247 10.145 0 11.651 0 .874 0 5.64 1.306 6.31.971 1.71-.855.485-12.074.485-13.592v-32.035c0-1.951-.276-9.983-1.456-11.163-2.186-2.183-4.302-.326-8.902-.326Z" clip-rule="evenodd"></path><path fill="black" fill-rule="evenodd" d="M245.863 228.945c6.065-6.867 13.627-1.25 15.34.463 1.261 1.262 0 11.363 0 13.107 0 12.271 1.916 25.369-.486 37.374-.451 2.248-.41 8.213-2.426 9.221-2.317 1.159-12.428.385-13.59-1.941-1.371-2.743 1.009-8.482 1.456-11.163 1.484-8.92-.294-47.19-.294-47.061Z" clip-rule="evenodd"></path><path fill="black" fill-rule="evenodd" d="M134.416 136.842c6.065-6.866 13.627-1.249 15.34.464 1.261 1.261 0 11.363 0 13.107 0 12.271 1.916 25.369-.486 37.373-.451 2.249-.41 8.214-2.426 9.222-2.317 1.158-12.428.385-13.59-1.942-1.371-2.742 1.008-8.482 1.456-11.162 1.484-8.921-.294-47.19-.294-47.062Z" clip-rule="evenodd"></path><path fill="black" fill-rule="evenodd" d="M134.416 390.205c6.065-6.867 13.627-1.249 15.34.463 1.261 1.262 0 11.363 0 13.107 0 12.272 1.916 25.369-.486 37.374-.451 2.248-.41 8.213-2.426 9.221-2.317 1.159-12.428.386-13.59-1.941-1.371-2.743 1.008-8.482 1.456-11.163 1.484-8.92-.294-47.189-.294-47.061Z" clip-rule="evenodd"></path><path fill="black" fill-rule="evenodd" d="M461.222 59.622c6.065-6.867 13.627-1.25 15.339.463 1.262 1.262 0 11.363 0 13.107 0 12.272 1.917 25.37-.485 37.374-.451 2.248-.41 8.213-2.426 9.221-2.318 1.159-12.428.386-13.59-1.941-1.371-2.743 1.008-8.482 1.456-11.163 1.484-8.92-.294-47.19-.294-47.061Z" clip-rule="evenodd"></path><path fill="black" fill-rule="evenodd" d="M461.222 306.252c6.065-6.867 13.627-1.249 15.339.463 1.262 1.262 0 11.363 0 13.107 0 12.272 1.917 25.369-.485 37.374-.451 2.248-.41 8.213-2.426 9.221-2.318 1.159-12.428.386-13.59-1.941-1.371-2.743 1.008-8.482 1.456-11.163 1.484-8.92-.294-47.189-.294-47.061Z" clip-rule="evenodd"></path><path fill="black" fill-rule="evenodd" d="M349.236 138.259c6.066-6.867 13.627-1.249 15.34.463 1.262 1.262 0 11.363 0 13.107 0 12.272 1.916 25.369-.485 37.374-.451 2.248-.41 8.213-2.427 9.221-2.317 1.159-12.427.386-13.589-1.941-1.372-2.743 1.008-8.482 1.456-11.162 1.484-8.921-.295-47.19-.295-47.062Z" clip-rule="evenodd"></path><path fill="black" fill-rule="evenodd" d="M349.236 391.622c6.066-6.867 13.627-1.25 15.34.463 1.262 1.262 0 11.363 0 13.107 0 12.271 1.916 25.369-.485 37.374-.451 2.248-.41 8.213-2.427 9.221-2.317 1.159-12.427.385-13.589-1.941-1.372-2.743 1.008-8.482 1.456-11.163 1.484-8.92-.295-47.19-.295-47.061Z" clip-rule="evenodd"></path><path fill="black" fill-rule="evenodd" d="M281.277 220.311c-2.129 0-1.694 8.833-1.694 10.368v16.501c0 9.935.946 21.937-1.456 31.55-.614 2.445-4.631 9.669-3.883 11.162 1.879 3.758 14.385 6.4 18.443 4.371 4.806-2.404 3.804-9.493 4.368-14.563 1.45-13.044.485-26.637.485-39.8 0-3.466 3.132-11.526 1.478-14.826-2.664-5.333-11.153-4.763-17.741-4.763Z" clip-rule="evenodd"></path><path fill="black" fill-rule="evenodd" d="M281.277 129.625c-2.129 0-1.694 8.834-1.694 10.368v16.501c0 9.935.946 21.937-1.456 31.55-.614 2.445-4.631 9.669-3.883 11.162 1.879 3.758 14.385 6.401 18.443 4.372 4.806-2.405 3.804-9.494 4.368-14.564 1.45-13.044.485-26.636.485-39.8 0-3.466 3.132-11.526 1.478-14.826-2.664-5.332-11.153-4.763-17.741-4.763Z" clip-rule="evenodd"></path><path fill="black" fill-rule="evenodd" d="M281.277 382.988c-2.129 0-1.694 8.833-1.694 10.368v16.501c0 9.935.946 21.937-1.456 31.55-.614 2.445-4.631 9.669-3.883 11.162 1.879 3.758 14.385 6.4 18.443 4.371 4.806-2.404 3.804-9.493 4.368-14.563 1.45-13.044.485-26.637.485-39.8 0-3.466 3.132-11.526 1.478-14.826-2.664-5.333-11.153-4.763-17.741-4.763Z" clip-rule="evenodd"></path><path fill="black" fill-rule="evenodd" d="M69.933 228.436c-3.56-.501-3.322 18.837-4.033 24.179-1.127 8.439-2.912 17.2-2.912 25.726 0 1.778-1.183 7.173.971 8.25 1.506.752 4.005-.485 5.339-.485 15.643 0 10.192-24.883 10.192-36.888v-10.195c0-1.128.933-8.774 0-9.707-.983-.983-9.816-.88-9.557-.88Z" clip-rule="evenodd"></path><path fill="black" fill-rule="evenodd" d="M69.933 137.75c-3.56-.501-3.322 18.837-4.033 24.179-1.127 8.439-2.912 17.2-2.912 25.726 0 1.778-1.183 7.173.971 8.25 1.506.752 4.005-.485 5.339-.485 15.643 0 10.192-24.883 10.192-36.888v-10.195c0-1.128.933-8.774 0-9.707-.983-.983-9.816-.88-9.557-.88Z" clip-rule="evenodd"></path><path fill="black" fill-rule="evenodd" d="M69.933 391.113c-3.56-.501-3.322 18.837-4.033 24.179-1.127 8.438-2.912 17.199-2.912 25.726 0 1.778-1.183 7.173.971 8.25 1.506.752 4.005-.485 5.339-.485 15.643 0 10.192-24.884 10.192-36.888v-10.196c0-1.127.933-8.773 0-9.706-.983-.983-9.816-.88-9.557-.88Z" clip-rule="evenodd"></path><path fill="black" fill-rule="evenodd" d="M386.399 390.01c-3.56-.501-3.322 18.837-4.033 24.179-1.127 8.438-2.912 17.199-2.912 25.725 0 1.779-1.183 7.174.971 8.251 1.506.751 4.005-.485 5.339-.485 15.643 0 10.192-24.884 10.192-36.889v-10.195c0-1.127.933-8.774 0-9.707-.984-.983-9.817-.879-9.557-.879Z" clip-rule="evenodd"></path><path fill="black" fill-rule="evenodd" d="M35.6 57.697c-3.56-.501-3.322 18.837-4.033 24.178-1.127 8.439-2.912 17.2-2.912 25.726 0 1.779-1.184 7.174.97 8.251 1.507.751 4.005-.485 5.34-.485 15.643 0 10.191-24.884 10.191-36.889V68.283c0-1.127.933-8.773 0-9.707-.983-.983-9.816-.88-9.556-.88Z" clip-rule="evenodd"></path><path fill="black" fill-rule="evenodd" d="M35.6 304.326c-3.56-.501-3.322 18.838-4.033 24.179-1.127 8.439-2.912 17.2-2.912 25.726 0 1.779-1.184 7.174.97 8.251 1.507.751 4.005-.486 5.34-.486 15.643 0 10.191-24.883 10.191-36.888v-10.195c0-1.127.933-8.774 0-9.707-.983-.983-9.816-.88-9.556-.88Z" clip-rule="evenodd"></path><path fill="black" fill-rule="evenodd" d="M465.302 224.211c-3.561-.501-3.323 18.837-4.033 24.179-1.128 8.438-2.912 17.199-2.912 25.725 0 1.779-1.184 7.174.97 8.251 1.506.752 4.005-.485 5.339-.485 15.643 0 10.192-24.884 10.192-36.889v-10.195c0-1.127.933-8.773 0-9.706-.983-.984-9.816-.88-9.556-.88Z" clip-rule="evenodd"></path><path fill="black" fill-rule="evenodd" d="M465.302 133.525c-3.561-.501-3.323 18.837-4.033 24.179-1.128 8.438-2.912 17.199-2.912 25.726 0 1.778-1.184 7.173.97 8.25 1.506.752 4.005-.485 5.339-.485 15.643 0 10.192-24.884 10.192-36.888v-10.196c0-1.127.933-8.773 0-9.706-.983-.983-9.816-.88-9.556-.88Z" clip-rule="evenodd"></path><path fill="black" fill-rule="evenodd" d="M465.302 386.888c-3.561-.501-3.323 18.837-4.033 24.179-1.128 8.438-2.912 17.199-2.912 25.725 0 1.779-1.184 7.174.97 8.251 1.506.751 4.005-.485 5.339-.485 15.643 0 10.192-24.884 10.192-36.889v-10.195c0-1.127.933-8.773 0-9.707-.983-.983-9.816-.879-9.556-.879Z" clip-rule="evenodd"></path><path fill="black" fill-rule="evenodd" d="M281.381 58.211c-3.561-.5-3.323 18.838-4.033 24.18-1.128 8.438-2.912 17.199-2.912 25.725 0 1.779-1.184 7.174.97 8.251 1.506.751 4.005-.486 5.339-.486 15.643 0 10.192-24.883 10.192-36.888V68.798c0-1.127.933-8.774 0-9.707-.983-.983-9.816-.88-9.556-.88Z" clip-rule="evenodd"></path><path fill="black" fill-rule="evenodd" d="M281.381 304.841c-3.561-.501-3.323 18.837-4.033 24.179-1.128 8.439-2.912 17.2-2.912 25.726 0 1.779-1.184 7.174.97 8.251 1.506.751 4.005-.486 5.339-.486 15.643 0 10.192-24.883 10.192-36.888v-10.195c0-1.127.933-8.774 0-9.707-.983-.983-9.816-.88-9.556-.88Z" clip-rule="evenodd"></path><path fill="black" fill-rule="evenodd" d="M175.657 304.841c-3.56-.501-3.322 18.837-4.033 24.179-1.127 8.439-2.912 17.2-2.912 25.726 0 1.779-1.183 7.174.971 8.251 1.506.751 4.005-.486 5.338-.486 15.644 0 10.192-24.883 10.192-36.888v-10.195c0-1.127.933-8.774 0-9.707-.983-.983-9.816-.88-9.556-.88Z" clip-rule="evenodd"></path><path fill="black" fill-rule="evenodd" d="M99.904 57.697c-3.56-.501-3.322 18.837-4.033 24.178-1.128 8.439-2.912 17.2-2.912 25.726 0 1.779-1.184 7.174.97 8.251 1.507.751 4.005-.485 5.339-.485 15.643 0 10.192-24.884 10.192-36.889V68.283c0-1.127.933-8.773 0-9.707-.983-.983-9.816-.88-9.556-.88Z" clip-rule="evenodd"></path><path fill="black" fill-rule="evenodd" d="M99.904 304.326c-3.56-.501-3.322 18.838-4.033 24.179-1.128 8.439-2.912 17.2-2.912 25.726 0 1.779-1.184 7.174.97 8.251 1.507.751 4.005-.486 5.339-.486 15.643 0 10.192-24.883 10.192-36.888v-10.195c0-1.127.933-8.774 0-9.707-.983-.983-9.816-.88-9.556-.88Z" clip-rule="evenodd"></path><path fill="black" fill-rule="evenodd" d="M380.046 130.174c-3.278.263-2.295 20.691-2.777 24.298-.479 3.598-.567 7.055-.971 10.678-.824 7.427-.714 14.917-1.456 22.328-.276 2.752-1.907 9.772-.485 12.619.986 1.972 5.529 1.105 7.283 1.456 1.919.385 5.229 1.656 7.28.97 6.087-2.029 2.868-9.703 3.397-15.53 1.227-13.514.971-27.686.971-41.257 0-2.21 1.809-15.18 0-16.989-1.056-1.056-7.609.203-8.736.485-.949.238-5.524-.072-4.506.942Z" clip-rule="evenodd"></path><path fill="black" fill-rule="evenodd" d="M248.666 53.655c-3.278.263-2.295 20.69-2.777 24.298-.479 3.597-.567 7.054-.971 10.677-.824 7.427-.714 14.917-1.456 22.329-.276 2.752-1.907 9.772-.485 12.618.986 1.973 5.529 1.105 7.283 1.456 1.919.385 5.229 1.657 7.28.971 6.087-2.029 2.868-9.704 3.397-15.531 1.227-13.514.971-27.686.971-41.256 0-2.21 1.809-15.18 0-16.99-1.056-1.055-7.609.204-8.736.485-.949.238-5.524-.072-4.506.943Z" clip-rule="evenodd"></path><path fill="black" fill-rule="evenodd" d="M248.666 300.285c-3.278.263-2.295 20.691-2.777 24.298-.479 3.597-.567 7.054-.971 10.677-.824 7.427-.714 14.917-1.456 22.328-.276 2.753-1.907 9.773-.485 12.619.986 1.973 5.529 1.105 7.283 1.456 1.919.385 5.229 1.656 7.28.971 6.087-2.029 2.868-9.704 3.397-15.531 1.227-13.514.971-27.686.971-41.256 0-2.211 1.809-15.18 0-16.99-1.056-1.055-7.609.203-8.736.485-.949.238-5.524-.072-4.506.943Z" clip-rule="evenodd"></path><path fill="black" fill-rule="evenodd" d="M28.726 228.893c-.802-1.456 1.302 7.374 1.302 9.018 0 5.316-1.233 10.708-1.941 16.019-2.048 15.358-11.667 32.52 8.25 32.52 2.697 0 6.182.366 8.737-.485 3.857-1.287 3.726-7.133 4.368-10.681 1.913-10.511.485-22.341.485-33.005 0-2.346 1.287-11.335-.485-13.104-1.516-1.519-20.716 2.016-20.716-.282Z" clip-rule="evenodd"></path><path fill="black" fill-rule="evenodd" d="M28.726 138.207c-.802-1.456 1.302 7.374 1.302 9.018 0 5.316-1.233 10.708-1.941 16.019-2.048 15.358-11.667 32.52 8.25 32.52 2.697 0 6.182.367 8.737-.485 3.857-1.287 3.726-7.133 4.368-10.681 1.913-10.511.485-22.34.485-33.005 0-2.346 1.287-11.335-.485-13.104-1.516-1.519-20.716 2.016-20.716-.282Z" clip-rule="evenodd"></path><path fill="black" fill-rule="evenodd" d="M28.726 391.57c-.802-1.456 1.302 7.374 1.302 9.018 0 5.316-1.233 10.708-1.941 16.019-2.048 15.358-11.667 32.52 8.25 32.52 2.697 0 6.182.366 8.737-.485 3.857-1.287 3.726-7.133 4.368-10.681 1.913-10.511.485-22.341.485-33.005 0-2.346 1.287-11.335-.485-13.104-1.516-1.519-20.716 2.016-20.716-.282Z" clip-rule="evenodd"></path><path fill="black" fill-rule="evenodd" d="M351.502 226.934c-.802-1.456 1.302 7.374 1.302 9.018 0 5.317-1.233 10.709-1.941 16.019-2.048 15.358-11.667 32.52 8.251 32.52 2.696 0 6.181.367 8.736-.485 3.857-1.287 3.726-7.133 4.368-10.68 1.913-10.512.485-22.341.485-33.006 0-2.345 1.287-11.335-.485-13.104-1.516-1.519-20.716 2.016-20.716-.282Z" clip-rule="evenodd"></path><path fill="black" fill-rule="evenodd" d="M245.296 137.104c-.802-1.456 1.302 7.374 1.302 9.017 0 5.317-1.234 10.709-1.941 16.02-2.048 15.358-11.667 32.52 8.25 32.52 2.696 0 6.181.366 8.736-.485 3.858-1.287 3.727-7.133 4.368-10.681 1.914-10.511.486-22.341.486-33.006 0-2.345 1.287-11.334-.486-13.103-1.515-1.519-20.715 2.016-20.715-.282Z" clip-rule="evenodd"></path><path fill="black" fill-rule="evenodd" d="M245.296 390.466c-.802-1.456 1.302 7.374 1.302 9.018 0 5.317-1.234 10.709-1.941 16.019-2.048 15.359-11.667 32.521 8.25 32.521 2.696 0 6.181.366 8.736-.486 3.858-1.287 3.727-7.132 4.368-10.68 1.914-10.511.486-22.341.486-33.006 0-2.345 1.287-11.335-.486-13.104-1.515-1.518-20.715 2.017-20.715-.282Z" clip-rule="evenodd"></path><path fill="black" fill-rule="evenodd" d="M170.064 61.24c-.802-1.456 1.302 7.374 1.302 9.018 0 5.316-1.233 10.708-1.941 16.019-2.048 15.358-11.667 32.52 8.251 32.52 2.695 0 6.18.367 8.736-.485 3.857-1.287 3.726-7.133 4.368-10.681 1.913-10.51.485-22.34.485-33.005 0-2.346 1.287-11.335-.485-13.104-1.516-1.519-20.716 2.016-20.716-.282Z" clip-rule="evenodd"></path><path fill="black" fill-rule="evenodd" d="M98.898 222.277c-3.278.263-2.295 20.691-2.777 24.298-.48 3.598-.567 7.054-.971 10.677-.824 7.427-.714 14.917-1.456 22.329-.276 2.752-1.907 9.772-.486 12.618.987 1.973 5.53 1.106 7.284 1.456 1.919.385 5.229 1.657 7.28.971 6.087-2.029 2.868-9.704 3.397-15.531 1.227-13.514.971-27.686.971-41.256 0-2.211 1.809-15.18 0-16.99-1.056-1.055-7.609.204-8.736.485-.949.238-5.524-.072-4.506.943Z" clip-rule="evenodd"></path><path fill="black" fill-rule="evenodd" d="M98.898 131.591c-3.278.263-2.295 20.691-2.777 24.298-.48 3.598-.567 7.054-.971 10.677-.824 7.427-.714 14.917-1.456 22.329-.276 2.752-1.907 9.772-.486 12.618.987 1.973 5.53 1.106 7.284 1.456 1.919.385 5.229 1.657 7.28.971 6.087-2.029 2.868-9.704 3.397-15.531 1.227-13.514.971-27.686.971-41.256 0-2.211 1.809-15.18 0-16.99-1.056-1.055-7.609.204-8.736.486-.949.238-5.524-.072-4.506.942Z" clip-rule="evenodd"></path><path fill="black" fill-rule="evenodd" d="M98.898 384.954c-3.278.263-2.295 20.691-2.777 24.298-.48 3.597-.567 7.054-.971 10.677-.824 7.427-.714 14.917-1.456 22.328-.276 2.753-1.907 9.773-.486 12.619.987 1.973 5.53 1.105 7.284 1.456 1.919.385 5.229 1.656 7.28.971 6.087-2.029 2.868-9.704 3.397-15.531 1.227-13.514.971-27.686.971-41.256 0-2.211 1.809-15.18 0-16.99-1.056-1.055-7.609.204-8.736.485-.949.238-5.524-.072-4.506.943Z" clip-rule="evenodd"></path><path fill="black" fill-rule="evenodd" d="M132.379 225.963c-.408-1.79-.303 4.05-.366 4.715-.414 4.362-.02 8.773.417 13.249 1.218 12.509 3.095 25.487 5.19 37.868.574 3.394-.24 10.86 4.378 10.283 3.373-.422 16.704-2.984 18.146-7.061.729-2.067-1.357-7.795-1.771-10.454-1.476-9.484-3.724-18.446-6.24-27.679-1.679-6.163-3.526-12.35-5.1-18.545-.175-.684-.237-4.451-1.218-4.798-2.773-.979-10.724 1.126-13.436 2.422Z" clip-rule="evenodd"></path><path fill="black" fill-rule="evenodd" d="M359.853 53.829c.404-1.791-2.02 3.523-2.364 4.096-2.254 3.757-3.801 7.906-5.339 12.133-4.296 11.81-8.2 24.33-11.651 36.403-.945 3.31-4.9 9.694-.485 11.166 3.225 1.074 16.357 4.512 19.416 1.456 1.55-1.55 2.139-7.618 2.912-10.195 2.759-9.194 4.597-18.249 6.31-27.664 1.143-6.285 2.145-12.663 3.397-18.932.138-.692 1.707-4.117.971-4.853-2.079-2.079-10.161-3.61-13.167-3.61Z" clip-rule="evenodd"></path><path fill="black" fill-rule="evenodd" d="M362.106 366.213c.189 1.826.79-3.983.933-4.636.937-4.281 1.078-8.706 1.186-13.203.3-12.564.004-25.674-.581-38.218-.161-3.438 1.549-10.751-3.105-10.736-3.399.012-16.942.946-18.865 4.819-.974 1.964.405 7.902.495 10.591.321 9.593 1.47 18.761 2.853 28.231.923 6.32 2.01 12.684 2.824 19.025.091.7-.302 4.447.63 4.909 2.634 1.307 10.782.177 13.63-.782Z" clip-rule="evenodd"></path><path fill="black" fill-rule="evenodd" d="M441.295 220.683c.005-1.836 1.184 3.884 1.392 4.519 1.36 4.166 1.944 8.555 2.501 13.018 1.556 12.471 2.574 25.545 3.247 38.084.185 3.437 2.617 10.542-2.014 10.993-3.384.329-16.952.754-19.253-2.906-1.166-1.857-.388-7.904-.567-10.588-.641-9.577-.416-18.814.013-28.374.286-6.381.73-12.822.906-19.213.019-.705-.747-4.394.135-4.947 2.49-1.564 10.709-1.256 13.64-.586Z" clip-rule="evenodd"></path><path fill="black" fill-rule="evenodd" d="M429.273 131.568c.005-1.836 1.184 3.884 1.392 4.52 1.361 4.165 1.944 8.554 2.501 13.017 1.557 12.471 2.574 25.545 3.248 38.084.184 3.437 2.617 10.543-2.015 10.993-3.383.329-16.952.755-19.253-2.906-1.166-1.857-.387-7.903-.567-10.588-.641-9.577-.415-18.814.013-28.374.286-6.381.73-12.822.906-19.212.02-.706-.746-4.395.135-4.948 2.49-1.563 10.71-1.256 13.64-.586Z" clip-rule="evenodd"></path><path fill="black" fill-rule="evenodd" d="M432.483 382.359c.005-1.836 1.184 3.884 1.392 4.52 1.361 4.165 1.944 8.554 2.501 13.018 1.557 12.471 2.574 25.544 3.248 38.083.184 3.438 2.617 10.543-2.015 10.994-3.383.328-16.951.754-19.253-2.907-1.165-1.856-.387-7.903-.567-10.588-.641-9.576-.415-18.814.013-28.374.286-6.381.73-12.822.906-19.212.02-.705-.746-4.394.135-4.948 2.49-1.563 10.71-1.255 13.64-.586Z" clip-rule="evenodd"></path><path fill="black" fill-rule="evenodd" d="M225.688 56.797c.005-1.836 1.184 3.884 1.392 4.52 1.361 4.164 1.944 8.554 2.501 13.017 1.557 12.471 2.574 25.545 3.248 38.084.184 3.437 2.617 10.542-2.015 10.993-3.383.329-16.951.754-19.253-2.907-1.165-1.856-.387-7.903-.567-10.587-.641-9.577-.415-18.814.013-28.374.286-6.382.73-12.823.906-19.213.02-.705-.746-4.394.135-4.947 2.49-1.564 10.71-1.256 13.64-.586Z" clip-rule="evenodd"></path><path fill="black" fill-rule="evenodd" d="M225.688 303.427c.005-1.836 1.184 3.884 1.392 4.519 1.361 4.165 1.944 8.555 2.501 13.018 1.557 12.471 2.574 25.545 3.248 38.084.184 3.437 2.617 10.542-2.015 10.993-3.383.329-16.951.754-19.253-2.907-1.165-1.856-.387-7.903-.567-10.587-.641-9.577-.415-18.814.013-28.375.286-6.38.73-12.822.906-19.212.02-.705-.746-4.394.135-4.947 2.49-1.564 10.71-1.256 13.64-.586Z" clip-rule="evenodd"></path><path fill="black" fill-rule="evenodd" d="M189.607 228.734c-1.071-.429-4.8 2.001-4.853 2.427-.454 3.635-1.66 7.102-2.427 10.677-2.276 10.631-6.463 20.829-8.251 31.55-.429 2.574-2.282 7.571-.97 10.195.723 1.444 21.06 4.177 22.813 2.427 7.071-7.074 3.883-32.351 3.883-41.745 0-2.655 1.243-9.159 0-11.648-1.534-3.065-6.344-2.342-10.195-3.883Z" clip-rule="evenodd"></path><path fill="black" fill-rule="evenodd" d="M173.427 141.419c-1.148-.115-4.056 3.255-3.989 3.679.573 3.618.377 7.283.633 10.931.764 10.844-.427 21.804.831 32.6.302 2.592-.091 7.907 1.898 10.064 1.095 1.186 21.392-1.833 22.59-4.002 4.829-8.758-5.25-32.157-7.857-41.182-.737-2.551-1.348-9.144-3.234-11.19-2.325-2.519-6.744-.489-10.872-.9Z" clip-rule="evenodd"></path><path fill="black" fill-rule="evenodd" d="M139.568 57.738c-1.071-.43-4.8 2-4.853 2.426-.454 3.636-1.66 7.102-2.427 10.677-2.276 10.63-6.463 20.83-8.251 31.55-.429 2.574-2.282 7.571-.97 10.195.723 1.444 21.06 4.177 22.814 2.427 7.07-7.073 3.882-32.351 3.882-41.745 0-2.655 1.243-9.159 0-11.648-1.534-3.065-6.344-2.342-10.195-3.882Z" clip-rule="evenodd"></path><path fill="black" d="M10.202 0c.02 2.516.323 5.792.655 9.38.965 10.411 2.174 23.454-2.598 28.223-.858.86-4.323.24-6.681-.181C.95 37.309.4 37.21 0 37.158V0h10.202Z"></path><path fill="black" d="M49.993 0H29.216c-.131.858-.27 1.715-.409 2.571-.255 1.581-.51 3.158-.72 4.729-.448 3.362-1.26 6.81-2.044 10.147-2.8 11.903-5.262 22.373 10.295 22.373.603 0 1.247.019 1.91.037 2.3.066 4.843.139 6.826-.522 3.13-1.044 3.633-5.09 4.055-8.473.098-.787.192-1.538.313-2.208 1.347-7.4 1.038-15.454.736-23.295A482.02 482.02 0 0 1 49.993 0Z"></path><path fill="black" d="M79.49 0H66.324c-.131 2.507-.249 4.67-.424 5.985-.29 2.178-.625 4.377-.962 6.589-.967 6.356-1.95 12.811-1.95 19.137 0 .39-.057.957-.123 1.613-.236 2.33-.586 5.797 1.094 6.637.976.487 2.368.14 3.59-.166.665-.166 1.28-.319 1.749-.319 12.672 0 11.502-16.328 10.6-28.912-.212-2.95-.408-5.696-.408-7.976V0Z"></path><path fill="black" d="M112.158 0H96.113c-.262 1.982-.406 3.922-.55 5.87-.117 1.57-.234 3.144-.413 4.752-.43 3.881-.606 7.78-.781 11.674-.16 3.56-.32 7.116-.675 10.655-.062.614-.19 1.44-.338 2.386-.514 3.291-1.252 8.021-.147 10.232.69 1.383 3.13 1.37 5.131 1.36.854-.005 1.627-.009 2.152.096.463.093 1.008.238 1.597.394 1.847.491 4.127 1.097 5.683.577 4.326-1.442 3.951-5.736 3.563-10.192-.159-1.813-.319-3.653-.166-5.339.964-10.62 1.012-21.644.989-32.465Z"></path><path fill="black" d="M156.797 0h-19.515c-3.486 10.051-6.692 20.466-9.58 30.57-.205.719-.552 1.582-.924 2.509-1.344 3.341-3.017 7.505.439 8.657 3.225 1.074 16.357 4.512 19.417 1.456 1.055-1.055 1.664-4.205 2.19-6.921.247-1.273.475-2.452.722-3.274 2.758-9.193 4.596-18.248 6.309-27.664.322-1.772.633-3.55.942-5.333Z"></path><path fill="black" d="M199.85 0h-18.671c-.806 3.08-1.721 6.137-2.635 9.192-1.737 5.803-3.473 11.604-4.468 17.566-.104.626-.293 1.396-.5 2.24-.643 2.625-1.463 5.97-.47 7.955.723 1.444 21.06 4.177 22.813 2.427 5.636-5.638 4.754-22.844 4.164-34.35-.094-1.848-.181-3.548-.233-5.03Z"></path><path fill="black" d="M231.631 0h-16.409c-.032.358-.063.714-.096 1.069-.15 1.66-.309 3.325-.468 4.993-.733 7.695-1.473 15.465-1.473 23.16 0 .223-.049.779-.115 1.52-.229 2.583-.657 7.415.115 8.186.945.945 6.295.456 9.48.165 1.013-.092 1.808-.165 2.171-.165.335 0 1.244.192 2.274.41 1.654.35 3.622.767 4.035.56 1.373-.686.854-8.05.597-11.715-.064-.9-.111-1.577-.111-1.877V0Z"></path><path fill="black" d="M261.265 0c.068 2.419.182 4.86.297 7.312.409 8.747.823 17.61-.845 25.947-.114.57-.197 1.38-.29 2.287-.272 2.669-.631 6.182-2.136 6.934-2.317 1.159-12.428.385-13.59-1.941-1-2-.005-5.593.78-8.432.292-1.054.555-2.005.676-2.73.8-4.806.652-18.128.346-29.377h14.762Z"></path><path fill="black" d="M297.607 0h-18.024v.55c0 2.138.044 4.372.089 6.657.163 8.333.34 17.349-1.545 24.893-.225.895-.906 2.43-1.642 4.091-1.274 2.875-2.715 6.125-2.241 7.071 1.879 3.758 14.385 6.4 18.443 4.371 3.771-1.886 3.967-6.655 4.148-11.07.05-1.214.099-2.4.22-3.493 1.037-9.333.839-18.946.642-28.482-.032-1.532-.063-3.062-.09-4.588Z"></path><path fill="black" d="M333.929 0h-19.264c-.671 2.436-1.396 4.859-2.121 7.281-1.737 5.803-3.473 11.604-4.468 17.566-.104.626-.293 1.396-.5 2.24-.643 2.625-1.463 5.97-.47 7.955.723 1.444 21.06 4.177 22.813 2.427 5.636-5.639 4.754-22.844 4.164-34.35A630.43 630.43 0 0 1 333.929 0Z"></path><path fill="black" d="M372.829 0h-21.147l-.099.613c-.255 1.58-.511 3.158-.72 4.728-.448 3.362-1.259 6.811-2.044 10.147-2.8 11.903-5.262 22.373 10.295 22.373.603 0 1.247.019 1.91.038 2.3.066 4.843.138 6.826-.523 3.13-1.044 3.633-5.09 4.055-8.473a42.14 42.14 0 0 1 .313-2.207c1.347-7.4 1.038-15.455.737-23.296-.044-1.138-.088-2.273-.126-3.4Z"></path><path fill="black" d="M408.162 0h-16.42c-.064.776-.122 1.55-.179 2.325-.117 1.57-.234 3.144-.413 4.752-.43 3.88-.606 7.779-.781 11.674-.161 3.559-.321 7.115-.675 10.654-.062.614-.191 1.441-.338 2.386-.514 3.292-1.252 8.022-.148 10.233.692 1.383 3.131 1.37 5.132 1.36.854-.005 1.627-.009 2.152.096.463.093 1.008.238 1.597.394 1.847.491 4.127 1.097 5.683.577 4.326-1.443 3.951-5.736 3.563-10.192-.159-1.813-.319-3.654-.166-5.339.859-9.462.991-19.246.993-28.92Z"></path><path fill="black" d="M446.15 0c1.03 9.858 1.762 19.928 2.285 29.674.04.746.186 1.665.343 2.651.565 3.557 1.269 7.99-2.357 8.342-3.384.329-16.952.755-19.253-2.906-.794-1.264-.686-4.47-.594-7.236.044-1.296.084-2.495.027-3.352-.614-9.175-.433-18.038-.04-27.173h19.589Z"></path><path fill="black" d="M474.887 0h-13.446a32.71 32.71 0 0 1-.172 1.76 363.237 363.237 0 0 1-.963 6.588c-.967 6.357-1.949 12.812-1.949 19.137 0 .392-.058.958-.124 1.614-.235 2.33-.586 5.797 1.094 6.637.976.487 2.368.14 3.591-.166.664-.166 1.278-.32 1.748-.32 12.672 0 11.502-16.327 10.6-28.911-.163-2.275-.317-4.427-.379-6.339Z"></path><path fill="black" d="M500 37.159a3.974 3.974 0 0 0-.479-.041c-.55 0-1.194.026-1.886.055-2.68.111-6.061.251-7.335-1.026-.638-.635-.122-3.344.229-5.183.141-.745.256-1.347.256-1.612l-.002-2.95c-.009-7.608-.017-15.203.487-22.775.065-.971.166-2.227.286-3.627H500v37.159Z"></path><path fill="black" d="M500 59.012v56.507c-6.133-.584-13.061-1.844-13.478-2.675-.993-1.986-.173-5.331.471-7.956.207-.844.396-1.613.5-2.239.994-5.963 2.73-11.763 4.467-17.566 1.386-4.632 2.773-9.266 3.784-13.984.283-1.323.627-2.63.971-3.937.585-2.226 1.169-4.45 1.455-6.74.025-.199.849-.833 1.83-1.41Z"></path><path fill="black" d="M500 140.129v52.974a3.991 3.991 0 0 0-.479-.041c-.55 0-1.194.026-1.886.055-2.68.111-6.061.251-7.335-1.026-.638-.635-.122-3.344.229-5.183.141-.745.256-1.347.256-1.612l-.002-2.95c-.009-7.608-.017-15.203.487-22.775.142-2.133.46-5.645.767-9.035.434-4.797.846-9.351.708-9.42.276-.113 3.608-.671 7.255-.987Z"></path><path fill="black" d="M492.729 141.124c.006-.008.011-.011.016-.008a.046.046 0 0 0-.016.008Z"></path><path fill="black" d="m492.726 141.128.003-.004-.003.004Z"></path><path fill="black" d="M500 230.815v52.974a3.991 3.991 0 0 0-.479-.041c-.55 0-1.194.026-1.886.055-2.68.111-6.061.251-7.335-1.026-.638-.635-.122-3.344.229-5.183.141-.745.256-1.347.256-1.612l-.002-2.95c-.009-7.608-.017-15.203.487-22.775.142-2.133.46-5.645.767-9.035.434-4.797.846-9.351.708-9.42.276-.113 3.608-.671 7.255-.987Z"></path><path fill="black" d="M492.729 231.81c.006-.008.011-.011.016-.008a.046.046 0 0 0-.016.008Z"></path><path fill="black" d="m492.726 231.814.003-.004-.003.004Z"></path><path fill="black" d="M500 305.642v56.507c-6.133-.584-13.061-1.844-13.478-2.676-.993-1.985-.173-5.33.471-7.955.207-.844.396-1.614.5-2.24.994-5.962 2.73-11.762 4.467-17.565 1.386-4.632 2.773-9.266 3.784-13.984.283-1.323.627-2.63.971-3.937.585-2.226 1.169-4.45 1.455-6.741.025-.198.849-.832 1.83-1.409Z"></path><path fill="black" d="M500 393.492v52.974a3.827 3.827 0 0 0-.479-.042c-.55 0-1.194.027-1.886.056-2.68.111-6.061.251-7.335-1.026-.638-.635-.122-3.344.229-5.183.141-.745.256-1.347.256-1.612l-.002-2.95c-.009-7.608-.017-15.203.487-22.776.142-2.132.46-5.644.767-9.035.434-4.796.846-9.351.708-9.419.276-.113 3.608-.671 7.255-.987Z"></path><path fill="black" d="M492.729 394.487c.006-.008.011-.011.016-.008a.046.046 0 0 0-.016.008Z"></path><path fill="black" d="m492.726 394.491.003-.004-.003.004Z"></path><path fill="black" d="M500 484.186V500h-8.444c.143-1.677.314-3.56.481-5.408.434-4.796.846-9.351.708-9.42.276-.112 3.608-.67 7.255-.986Z"></path><path fill="black" d="M492.729 485.18c.006-.007.011-.01.016-.008a.116.116 0 0 0-.016.008Z"></path><path fill="black" d="m492.726 485.185.003-.005-.003.005Z"></path><path fill="black" d="M474.887 500h-13.446c.097-1.272.179-2.852.269-4.58.399-7.652.949-18.21 3.592-17.838-.26 0 8.573-.104 9.556.879.716.717.333 5.389.116 8.031-.066.8-.116 1.414-.116 1.676v10.195c0 .522.01 1.069.029 1.637Z"></path><path fill="black" d="M446.15 500h-19.589l.053-1.201c.105-2.35.232-4.709.359-7.07.217-4.049.436-8.105.547-12.142.005-.176-.04-.54-.095-.994-.166-1.361-.431-3.538.23-3.953 2.49-1.564 10.709-1.256 13.64-.586.004-1.341.633 1.348 1.054 3.144.155.663.282 1.204.338 1.375 1.36 4.165 1.944 8.555 2.501 13.018.346 2.777.666 5.585.962 8.409Z"></path><path fill="black" d="M408.162 500h-16.419c.099-1.192.216-2.388.378-3.6.129-.97.153-3.156.182-5.839.079-7.296.198-18.266 2.595-18.459-.705-.703 1.275-.77 2.873-.824.708-.024 1.341-.045 1.633-.118 1.127-.282 7.68-1.541 8.736-.485 1.372 1.372.663 9.157.24 13.806-.134 1.484-.24 2.649-.24 3.183 0 1.993.005 3.998.011 6.013.005 2.099.011 4.208.011 6.323Z"></path><path fill="black" d="M372.829 500h-21.146c.574-3.562 1.122-7.136 1.122-10.677 0-.72-.404-2.816-.79-4.824-.496-2.58-.964-5.013-.513-4.194 0 1.245 5.635.778 11.041.33 4.572-.379 8.98-.744 9.675-.048 1.354 1.352.922 6.919.643 10.517-.086 1.111-.158 2.034-.158 2.587 0 2.065.054 4.174.126 6.309Z"></path><path fill="black" d="M333.929 500h-19.263a119.37 119.37 0 0 0 1.661-6.702c.284-1.322.627-2.63.971-3.937.585-2.226 1.17-4.45 1.456-6.74.053-.426 3.782-2.856 4.853-2.427 1.379.552 2.88.813 4.311 1.062 2.564.446 4.899.853 5.884 2.821.878 1.758.516 5.521.227 8.514-.12 1.244-.227 2.354-.227 3.134 0 1.192.052 2.64.127 4.275Z"></path><path fill="black" d="M297.607 500h-18.024v-15.951c0-.165-.005-.414-.011-.729-.053-2.604-.195-9.638 1.705-9.638.571 0 1.156-.004 1.751-.009 6.265-.045 13.557-.099 15.99 4.772 1.055 2.106.162 6.15-.623 9.702-.445 2.014-.855 3.87-.855 5.124 0 2.232.028 4.477.067 6.729Z"></path><path fill="black" d="M261.265 500h-14.762a978.825 978.825 0 0 0-.64-17.685c6.065-6.866 13.627-1.249 15.34.464.954.954.465 6.962.17 10.59-.095 1.17-.17 2.092-.17 2.517 0 1.362.023 2.734.062 4.114Z"></path><path fill="black" d="M231.631 500h-16.409c.102-1.164.2-2.341.299-3.523.307-3.675.618-7.399 1.061-10.941.129-1.021 3.294-2.752 4.691-2.752 1.67 0 3.012-.245 4.15-.452 1.995-.364 3.36-.613 4.752.777 1.18 1.181 1.456 9.212 1.456 11.163V500Z"></path><path fill="black" d="M199.85 500h-18.67c.416-1.589.803-3.185 1.147-4.791.284-1.322.627-2.63.971-3.937.585-2.226 1.17-4.449 1.456-6.74.053-.426 3.782-2.856 4.853-2.427 1.379.552 2.88.813 4.311 1.062 2.564.446 4.899.853 5.884 2.821.878 1.758.516 5.521.227 8.514-.12 1.244-.227 2.354-.227 3.134 0 .703.018 1.496.048 2.364Z"></path><path fill="black" d="M156.797 500h-19.514a406.08 406.08 0 0 1 2.071-5.832c1.537-4.227 3.084-8.376 5.338-12.133.093-.155.337-.654.636-1.266.81-1.656 2.023-4.138 1.728-2.83 3.006 0 11.088 1.531 13.167 3.61.552.552-.192 2.615-.657 3.905-.155.431-.279.776-.314.949-.791 3.959-1.482 7.963-2.172 11.958l-.283 1.639Z"></path><path fill="black" d="M112.158 500H96.113l.008-.054c.13-.97.153-3.157.182-5.84.08-7.295.198-18.266 2.595-18.458-.705-.703 1.275-.77 2.873-.824.708-.024 1.341-.046 1.633-.119 1.127-.282 7.68-1.54 8.736-.485 1.372 1.372.663 9.157.24 13.807-.135 1.483-.24 2.648-.24 3.183 0 1.992.005 3.998.011 6.012l.007 2.778Z"></path><path fill="black" d="M79.49 500H66.324l.018-.355c.399-7.652.949-18.21 3.591-17.838-.26 0 8.573-.104 9.557.879.716.717.333 5.389.116 8.032-.066.799-.116 1.413-.116 1.675V500Z"></path><path fill="black" d="M49.993 500H29.216c.447-2.912.812-5.826.812-8.719 0-.719-.403-2.816-.789-4.824-.496-2.579-.964-5.012-.513-4.193 0 1.245 5.635.778 11.041.33 4.572-.379 8.98-.744 9.675-.049 1.354 1.352.922 6.92.643 10.518-.086 1.11-.158 2.033-.158 2.586 0 1.432.026 2.884.066 4.351Z"></path><path fill="black" d="M10.202 500H0v-15.814c4.287-.372 9.01-.411 9.715.999 1.142 2.281.87 6.944.644 10.813-.082 1.404-.158 2.704-.158 3.747V500Z"></path><path fill="black" d="M0 446.465v-52.973c4.287-.372 9.01-.411 9.715.999 1.142 2.281.87 6.944.644 10.813-.082 1.404-.158 2.704-.158 3.747 0 2.548.313 5.925.656 9.636.965 10.411 2.174 23.454-2.598 28.223-.858.86-4.323.24-6.681-.182A40.21 40.21 0 0 0 0 446.465Z"></path><path fill="black" d="M0 362.149v-56.506c1.124-.661 2.454-1.247 3.026-1.018 1.379.551 2.88.813 4.31 1.062 2.565.446 4.9.852 5.885 2.82.878 1.759.515 5.521.227 8.515-.12 1.243-.227 2.354-.227 3.133 0 1.906.131 4.466.281 7.395.59 11.507 1.472 28.712-4.164 34.35-.743.742-4.826.678-9.338.249Z"></path><path fill="black" d="M0 283.788v-52.973c4.287-.372 9.01-.411 9.715.999 1.142 2.281.87 6.944.644 10.813-.082 1.404-.158 2.704-.158 3.747 0 2.548.313 5.925.656 9.636.965 10.411 2.174 23.454-2.598 28.223-.858.86-4.323.241-6.681-.181A38.663 38.663 0 0 0 0 283.788Z"></path><path fill="black" d="M0 193.102v-52.973c4.287-.372 9.01-.411 9.715.999 1.142 2.281.87 6.945.644 10.813-.082 1.404-.158 2.704-.158 3.747 0 2.548.313 5.925.656 9.636.965 10.411 2.174 23.454-2.598 28.223-.858.861-4.323.241-6.681-.181A38.663 38.663 0 0 0 0 193.102Z"></path><path fill="black" d="M0 115.519V59.013c1.124-.66 2.454-1.247 3.026-1.018 1.379.551 2.88.813 4.31 1.062 2.565.446 4.9.852 5.885 2.82.878 1.76.515 5.521.227 8.515-.12 1.243-.227 2.354-.227 3.133 0 1.906.131 4.466.281 7.395.59 11.507 1.472 28.712-4.164 34.35-.743.742-4.826.679-9.338.249Z"></path></svg>