<svg xmlns="http://www.w3.org/2000/svg" viewBox="0 0 200 200"><g fill="#000000"><path d="M192.06 142.45c-2.21-7.73-5.5-6.72-12.31-18.62-.65-1.13-14.15-26.75-7.16-37.89 3.72-5.93 9.28-6.45 12.31-14.81 0 0 5.44-15.77-12.75-27-14.46-8.92-16.06-7.09-17-9.82s.73-4.32 2.41-6.09a25.68 25.68 0 0 0 5.5-8.22c1-2.7 1.88-5.83.59-8.61-1.89-4.08-7.59-5.25-10.54-5.85-11.18-2.29-17.16 3.13-30.93 6.3A83.65 83.65 0 0 1 91.82 13C75.18 10.69 74 5 61.52 5.42c-10 .32-24.27 4.41-27.26 13.88-1.82 5.77 1 12.17 1.43 13.17 3.42 7.77 10 10.07 9.17 13.46-.59 2.31-4.07 2.91-8.6 4.3S20.59 55.06 14.5 61.11C7.86 67.71 3.84 80.64 9.14 92a27.1 27.1 0 0 0 9.52 11c7.07 4.71 11 3.24 12 6.64.68 2.5-.78 3.9-2.45 5.38a45 45 0 0 0-11.09 15.11C7 152.56 19.56 173.94 20.8 176a62.34 62.34 0 0 0 20.9 14.32c25.59 10.55 52.17.33 55.85-1.14 19.51-7.82 27.49-20.2 40.68-16.53 5.08 1.41 4.85 3.52 11.73 5.93 3.41 1.2 20 7 32.44-2.5 10.75-8.26 12.6-23.48 9.66-33.63zM19.29 73.07a1.29 1.29 0 1 1 1.29-1.29 1.28 1.28 0 0 1-1.29 1.29zm120-49.78a1.66 1.66 0 0 1 3.16.41c.25 1.15-.33 1.92-1.69 1.92a1.63 1.63 0 0 1-1.51-2.33zm-12.46 9.9a1.11 1.11 0 0 1-.14-.94c.4-1.2 2.38-1.58 2.95-.35A1.46 1.46 0 0 1 128 34l-.61 4.41a21.55 21.55 0 0 0-2.32-.82l2.25-3.88s-.48-.44-.53-.52zm-14-10c.5-1.1 2.8-.58 2.28.89a1.25 1.25 0 0 1-2.35.08 1.31 1.31 0 0 1 .03-.93zm12.08 14.71c9.66 2.38 15.4 12.63 13 22.46-12.32 1.12-24.22-2.57-34.38-11.67a18.81 18.81 0 0 1 21.38-10.79zm-21.54 11a41.82 41.82 0 0 0 5.26 4.24 45.55 45.55 0 0 0 29.13 7.68l.64.51A39.35 39.35 0 0 1 101.64 49zm-2.06.12a39.74 39.74 0 0 0 37.5 12.65l12.27 9.93c-12 5-28.36 3.91-40.34-1.25A64.23 64.23 0 0 1 85.29 50c.14 0 10.82-.67 16.02-1zM78.87 94.4c1.67-.5 1.49 2.88-.09 1.39-.7-.64-.46-1.23.09-1.39zm-3.78-61.93a15.81 15.81 0 0 1-10.81 3.25 7.74 7.74 0 0 1-1-.64A13.16 13.16 0 0 0 74.8 23.21a9.08 9.08 0 0 1 .29 9.26zm-17.75 70.11c.6.93 1.21 1.86 1.82 2.79-.74.48-1.49.92-2.26 1.34l-1.63-2.89c.73-.39 1.39-.82 2.07-1.24zm-2.24.94c-.53-1-1.07-1.89-1.61-2.84l2-1.08c.56.89 1.12 1.78 1.69 2.67-.71.43-1.39.85-2.08 1.25zm2.5-1.11c.67-.43 1.32-.89 1.95-1.36l1.78 2.82c-.63.46-1.27.91-1.92 1.34-.61-.93-1.22-1.86-1.81-2.8zm-.19-.31c-.56-.88-1.12-1.77-1.69-2.65l2.11-1.13 1.56 2.48c-.65.44-1.32.88-1.98 1.3zm-1.89-3C55 98.3 54 96.65 54 96.64l2-1.23L57.64 98c-.71.38-1.42.74-2.12 1.13zm-.27.14-1.94 1.1L52 98a17.49 17.49 0 0 1 1.76-1.24s.98 1.7 1.49 2.51zm-3.45-1.73-1.75-2.46c.6-.34 1.2-.69 1.78-1.06l1.63 2.51c-.56.32-1.11.66-1.66 1.01zm-.06.48a23.93 23.93 0 0 0 1.26 2.55l-2 1.18-1.31-2.48zm1.46 2.85 1.62 2.85c-.64.37-1.3.73-2 1.08a.16.16 0 0 0 .16.28c.67-.34 1.33-.7 2-1.06l1.65 2.86a23.4 23.4 0 0 1-2.32 1.09L51.17 102c.67-.39 1.35-.77 2.03-1.16zm3.6 6.29c.48.85 1 1.7 1.49 2.51L56 111.09l-1.53-2.88c.78-.32 1.53-.69 2.33-1.08zm.27-.13a26.14 26.14 0 0 0 2.28-1.34c.52.78 1 1.56 1.58 2.32l-2.47 1.55c-.46-.86-.91-1.7-1.39-2.53zm2.52-1.51a21.77 21.77 0 0 0 1.87-1.41l1.61 2.55-2 1.24c-.46-.8-.97-1.59-1.48-2.38zm1.46-34c-.13-.11.05-.28.17-.18a21 21 0 0 1 8.3 17.34.12.12 0 0 1-.23 0 22.15 22.15 0 0 0-8.24-17.2zm5.21 17.31a.13.13 0 0 1-.24.07c-.32-1-.42-6.26-4.64-10-.15-.13.06-.33.21-.21 4.23 3.34 4.32 8.12 4.67 10.1zm.67-21.19c-.14-.14.07-.36.21-.21 1 1.08 7 8 7.16 20.1a.12.12 0 1 1-.24 0c-.17-1.74-.61-12.81-7.13-19.93zM64.77 36a15.67 15.67 0 0 0 9.84-2.73A7.85 7.85 0 0 1 64.77 36zm9.7-13.24A12.9 12.9 0 0 1 63 34.86a8.84 8.84 0 0 1-3.1-6.63A12.34 12.34 0 0 0 74 22.1c.13.2.3.41.47.63zm-6-3.28a9.19 9.19 0 0 1-8.22 6.38 8.2 8.2 0 0 1 8.19-6.41zM60.18 26a9.34 9.34 0 0 0 8.61-6.53 7.86 7.86 0 0 1 4.94 2.39A12.25 12.25 0 0 1 59.94 28a9 9 0 0 1 .24-2zm-4.53 54.93a15.26 15.26 0 0 1 3.43 4l1.42-.63a1.12 1.12 0 1 1 .43.59L59.63 86a15.25 15.25 0 0 1 1.44 5 .69.69 0 0 1-.7.76 16.88 16.88 0 0 0-5.57-10.84.66.66 0 0 1 .85.01zm-1 .16a15.42 15.42 0 0 1 2.93 3.4 16.49 16.49 0 0 1 2.52 7.21c-.52-.06-3-.49-3.61-.63a7.81 7.81 0 0 0-3.2-6.56c.25-.51 1.32-3.37 1.35-3.42zM50.8 24.17a1.65 1.65 0 1 1-1.65 1.64 1.64 1.64 0 0 1 1.65-1.64zm-2.51 59-2.13 1.16c-.16-.48-.93-2-1.06-2.24A18.9 18.9 0 0 0 47.28 81zm-7.94.83c.77-.26 1.53-.54 2.29-.85.21.33 1.21 1.85 1.53 2.26l-2.07 1.15zm.9 6.19a6.8 6.8 0 0 0-.38 1.1 1 1 0 0 1-1.07-.51c-.42-.88.92-1.51 1.45-.56zm1.88-11.48c.43.89 1.44 3 1.51 3.08-.24.12-1.55.71-2 .88 0-.08-1.25-2-1.78-2.87.79-.33 1.53-.68 2.27-1.06zm-2.38.84s-1.18-2-1.7-3c.84-.35 1.67-.72 2.48-1.12.47 1 1.45 2.93 1.46 3zm2.17 3.49 1.92-.84A22.25 22.25 0 0 0 46 84.55c-.53.26-1 .55-1.54.86.02 0-1.35-2.04-1.54-2.34zm3.38 1.69.82 1.64-1.55.74-1-1.5c.6-.28 1.16-.61 1.73-.85zm.82-4.15c-.75.34-1.49.73-2.23 1.09l-1.51-3.08c.77-.39 1.54-.8 2.29-1.22zm-3-6.54 1.4 3.09-2.31 1.18-1.45-3c.84-.31 1.63-.78 2.4-1.24zm-1.45-3.22 1.34 3c-.79.44-1.58.87-2.39 1.27-.5-1-1-2-1.51-3.08.03-.01 2.6-1.16 2.6-1.16zm-2.82 1.24s1 2.11 1.51 3.13c-.82.4-1.65.78-2.5 1.14-.57-1-1.12-2.06-1.65-3.11zM37 73.37c.53 1 1.08 2.08 1.64 3.1-.91.38-1.83.71-2.76 1l-1.91-2.77zm-1.8 94.31c-1.55-.77-1.48-2.92.1-3.21a1.69 1.69 0 0 1 2.21 1.75 1.59 1.59 0 0 1-2.31 1.46zm.8-89.95c.92-.3 1.84-.63 2.74-1 .54 1 1.7 3 1.72 3-.78.38-1.56.74-2.34 1.09zM40.61 80c.56.91 1.75 2.81 1.79 2.85-.76.31-1.52.6-2.29.87L38.28 81zm0 15.35c-.59.35-1.64.42-1.76-.47s1-1.21 1.74-1.47a4.77 4.77 0 0 0 .8 1.51zm.65-4.52a4.24 4.24 0 0 1 2-2.23c.78-.39 8-3.37 9.84-3.92A7.76 7.76 0 0 1 56.17 91c-1.11.8-8.32 4.86-9.29 5.29a4.23 4.23 0 0 1-5.59-5.5zm18.65 91.82a.92.92 0 0 1-.95.81 1 1 0 0 1-.76-1.06.89.89 0 0 1 .93-.86 1 1 0 0 1 .81 1.07zm19.71-15c-.35-.51-.45-.64-1.07-.7-.47-.06-14.54-2.88-19-9.18h-1.08c-.18 0-5.39-4.52-5.1-6.66 0-.32.33-.56.49-.84.37-.68-3.65-8.25-3.15-14.64 0-.55-.57-.9-.83-1.36-.49-.87 1.6-8.18 2-8.48s1.35-.67 1.6-1.28c.08-.2 3.16-6 5.24-9 1.07-1.55 7-5.88 8.83-6a6.21 6.21 0 0 0 1.67-.11c.44-.14.86-.36 1.3-.51a57.89 57.89 0 0 1 8.32-1.52c.24 0 .34-.35.53-.5.61-.49 6.94.25 7.24.64.54.72.51 1.26 1.44 1.56 4.72 1.57 8.61 4.26 9 4.21a2.46 2.46 0 0 1 1.47 0c.29.13 6.43 5.67 6.49 6.6a3.29 3.29 0 0 0 .4 1.85c5.79 8.82 4.57 18.1 5.24 19.13.13.19 1 .9 1 1.16.41 2.48-3 10-3.47 10.28-.73.43-2.06-.09-2.46.7-4.78 9.3-15.7 12.16-16.11 13s-.81 1.8-1.79 2c-1.48.26-7.4.76-8.17-.35zm12.2-70.21a2.65 2.65 0 0 1 3.89.91 2.49 2.49 0 0 1-.64 2.53 2.38 2.38 0 0 1-2.72-.13c-.96-.75-1.52-2.35-.53-3.31zm16.36-22c0 .1.17.14.2 0 .07-.39.18-1.89.19-2.24a50.66 50.66 0 0 0 6.43 2.31 15.78 15.78 0 0 0-.34 1.79c0 .15.22.17.26 0 .1-.31.32-1.47.35-1.73 1.72.49 3.45.91 5.18 1.28a5.42 5.42 0 0 0-.79 1.76c0 .14.19.15.23 0 .11-.31.76-1.59.85-1.73.32.06 2.66.53 3.52.68-.29.41-.58.82-.86 1.24a2.23 2.23 0 0 1-2.23.91 68 68 0 0 1-15.51-4.84 2.21 2.21 0 0 1-1.29-2V71a38.79 38.79 0 0 0 3.94 2.06c-.03.38-.15 1.94-.13 2.33zm30.11 74.36a29.25 29.25 0 0 1-1.57 4c-5.93 12.56-18.33 17.51-19.55 18-15.17 5.74-28.67-1.44-30.57-2.5a14.37 14.37 0 0 0 2.17-.49c4 1.58 12 4 21.1 1.49 13.51-3.74 22-16.44 23.55-22.05 1.3-4.81 2-4.18 2.08.76 1.22-1.89 1.79-2.2 1.29 0 .41-.73 1.62-2.85 2-2.7s-.26 2.69-.5 3.44zm-11.88-1.7c1.25-.38 1.45 1.85.29 1.81a.93.93 0 0 1-.29-1.86zm4.92-6.13a7.35 7.35 0 0 1 4.33-6.69c-.12.7-.64 3.59-.75 4.34a7.58 7.58 0 0 0-2.83 2.58.41.41 0 0 1-.75-.28zm8.86 2.92a1.09 1.09 0 0 1-1 .35 20 20 0 0 1-3.51-1.44 1.08 1.08 0 0 1-.47-.83c0-.52-.06-1.09-.07-1.71a11.77 11.77 0 0 0 6.41 1.94 19 19 0 0 1-1.36 1.64zm3.1 1.85a.25.25 0 0 1-.34-.34 2.86 2.86 0 0 0-.64-4c.52-.82 1.86-3.27 2.06-3.65 1.83 2.64 1.63 6.17-1.08 7.94zm2.62-13.17a19.14 19.14 0 0 1-2.4 6.2c-.57 1.08-1.18 2.13-1.8 3.17a11.06 11.06 0 0 1-6.56-1.93 17.33 17.33 0 0 1 .4-3.62 16.47 16.47 0 0 1 .67-3.2 23.33 23.33 0 0 1 4.48-8.08 4.87 4.87 0 0 0 5.65 2.23 23.92 23.92 0 0 1-.44 5.18zm-5-7.68a25.9 25.9 0 0 1 2.88-2.83 1.25 1.25 0 0 1 2 .69 23.78 23.78 0 0 1 .56 4.22 4.58 4.58 0 0 1-5.47-2.13zm4.68-19.61c-1.43 1.62-2.85 1.9-5 2a7 7 0 0 1-6.54-5.09 8.54 8.54 0 0 0 6.66 1.88c2.31-.25 4.31-1.46 6.39-1.32a7.86 7.86 0 0 1-1.54 2.48zm1.64-2.87c-1.7-.16-3.31.64-4.91 1a8.86 8.86 0 0 1-8.33-1.73 5.62 5.62 0 0 1 .25-3.48 6.3 6.3 0 0 0 3.78 3.33c2.93.72 3.83-3.41-.12-6.73a8.77 8.77 0 0 1 2.14-.56 8.78 8.78 0 0 1 2 2c.85 1.23 1.26 3.14 3.48 3a4.61 4.61 0 0 0 1.74-.48 5.9 5.9 0 0 1-.06 3.6zm-12.87-4.44a6.43 6.43 0 0 1 3.21-3c3.6 2.84 3.34 6.83.71 6.37a6 6 0 0 1-3.95-3.42zm6-3.72a6.7 6.7 0 0 1 6.77 4.43 3.87 3.87 0 0 1-2.39.37c-1.96-.46-1.59-2.67-4.4-4.85zM151 74.28a58.76 58.76 0 0 1-43.1-1.93A57.17 57.17 0 0 1 84.65 52a1.38 1.38 0 0 1 .45-1.92 64.45 64.45 0 0 0 23.68 19.74c14 6.66 31.43 6.86 42.64 2.06a1.37 1.37 0 0 1-.42 2.4zm6.25-25.44c.27-1.06 1.93-1 1.62.09-.19.7-1.31 1.48-1.62.45a1 1 0 0 1 .03-.54zm2 64.79a1.51 1.51 0 0 1-.87.91 1.27 1.27 0 0 1-1.35-2 1.42 1.42 0 0 1 .69-.26c1.44-.38 1.6 1.21 1.57 1.35zm8.51 30c-.34-1.63 2.7-1 1.55.43a.87.87 0 0 1-1.51-.48zm1.95 19.37a1 1 0 0 1-1.07.61.8.8 0 0 1-.34-1.34c.7-.78 1.6-.06 1.41.73z"></path><path d="M50.81 89.53a2.68 2.68 0 0 0-4.47-.75 2.58 2.58 0 0 0-.3 3.1 2.93 2.93 0 0 0 3.3.88 2.48 2.48 0 0 0 1.47-3.23zm-1.25 2.8a2.72 2.72 0 0 1-3.12-.43 2.23 2.23 0 0 1 0-2.86 2.41 2.41 0 0 1 2.07-.9 2.56 2.56 0 0 1 2 1.47 2.28 2.28 0 0 1-.95 2.72zm45.11 45.75c.33.9.59 1.84 1 2.72.79 1.78 3.57 4.08 5.53 3.23 3.34-1.43-.88-11.48-5.17-11.1-2.68.23-2.24 2.69-1.36 5.15zm.66-4.72c3.06-1.08 5.85 3.56 6.61 6.72.29 1.23.39 3-.86 3.73-.83.53-1.91 0-2.69-.52-2.51-1.58-2.6-3-3.23-4.76s-1.67-4.53.17-5.17zm9.36-4.94a5.63 5.63 0 0 0 .07-2.68c-.85-2.25-2.87-1.74-3.55.44-1.02 3.28 2.19 4.5 3.48 2.24zm-3.29-2c.19-.75.84-1.77 1.6-1.9s1.22.53 1.48 1.08a4.82 4.82 0 0 1 0 2.7c-1.34 2.01-3.76.87-3.08-1.84zm-5.53 25.75c-2.14.35-3.09 2.69-2.38 3.63 1.16 1.55 5.85-.28 4.42-2.81-.01.01-.42-1.09-2.04-.82zm1.6 2.77c-1.22 1.46-4.79 1.81-3.75-.75a2.53 2.53 0 0 1 1.64-1.64c1.78-.41 2.35.51 2.35.52a1.79 1.79 0 0 1-.24 1.87zm-7-31.94c1.17.48 3.45.8 3.93-.38a1.39 1.39 0 0 0-.91-1.69c-1.19-.43-3.79-.77-4.19.45-.3.85.52 1.4 1.17 1.62zm-.94-1.54c.33-1.07 2.81-.73 3.81-.27.51.23 1.15.92.67 1.5a1.53 1.53 0 0 1-1.14.44c-1.25.1-3.71-.44-3.34-1.63zm-19.39 35.13c-1.4-.47-3.07.23-3.09 1.49a2.19 2.19 0 0 0 2.46 2c2.39-.08 2.77-2.76.63-3.49zm1.06 2.16c-.47 1.19-2.28 1.3-3.2.61a1.48 1.48 0 0 1-.55-1.87 2.38 2.38 0 0 1 3.47-.15 1.43 1.43 0 0 1 .28 1.41zm-13.53-24.63a6.66 6.66 0 0 0-.44 9.3 2.22 2.22 0 0 0 2.26.48 3.28 3.28 0 0 0 1.48-2c.85-2 1.48-4.35.31-6.33-.71-1.16-2.36-2.35-3.61-1.45zm3.43 6.7a8.63 8.63 0 0 1-1 2.24 1.68 1.68 0 0 1-2.25.42c-1.3-.74-1.93-2.81-2-4.32-.07-2.52 1.37-4.59 2.26-5a1.53 1.53 0 0 1 1.17 0 5.28 5.28 0 0 1 1.72 1.59 6.22 6.22 0 0 1 .1 5.07zm12.84-24.88a3.4 3.4 0 0 0-3-.38 5.67 5.67 0 0 0-4 3.32c-.64 1.22-1.09 3.39.09 4.1a2.88 2.88 0 0 0 1.9.17 12.59 12.59 0 0 0 3-.84c3.53-1.55 3.8-4.94 2.01-6.37zm-1.76 5.92a10.11 10.11 0 0 1-2.74.89 4.19 4.19 0 0 1-2 .11c-1.48-.42-.91-2.68-.41-3.63 2.31-4.4 7.32-4.7 7.64-1.18a4.13 4.13 0 0 1-2.49 3.81zM86 130.8a2.06 2.06 0 0 0-3.55 1.11 2.83 2.83 0 0 0 2.64 2.86c1-.05 1.41-1 1.44-1.86a4 4 0 0 0-.53-2.11zm.3 2.08a1.56 1.56 0 0 1-1.06 1.58 2 2 0 0 1-1.59-.56c-1.47-1.26-1.06-2.93.21-3.39a1.9 1.9 0 0 1 1.77.27c.61.48.66 1.98.66 2.1zm-16.01 8.01a4.55 4.55 0 0 0-2 1.51 2.19 2.19 0 0 0-.5 1.83c.63 2.18 6.77.58 6.62-1.91-.13-1.92-2.79-1.94-4.12-1.43zm3.88 1.43c.14 2.26-6.35 3.88-6.15 1.42.1-1.26 1.81-2.87 3.88-2.9.94-.01 2.21.56 2.27 1.48zM72 131.78a1.84 1.84 0 0 0 .5-2.1 2.87 2.87 0 0 0-.89-.94 1.83 1.83 0 0 0-2.44 1.69 1.63 1.63 0 0 0 2.83 1.35zm-2.55-1a1.64 1.64 0 0 1 1.94-1.88c.41.12.86.82.87.87a2.12 2.12 0 0 1 .1.9c-.36 1.47-2.66 1.99-2.92.12zm-10.71-5.97c.16-.19 1.4-1.17.86-2.22a1.12 1.12 0 0 0-1.49-.56A2.07 2.07 0 0 0 57 125a1.16 1.16 0 0 0 1.74-.19zM57 123.6c.27-1 1.64-1.9 2.28-1.1s-.64 2.12-.65 2.13c-.37.27-.9.68-1.35.31a1.36 1.36 0 0 1-.28-1.34zm27.73 19.74a5.74 5.74 0 0 0-4.25-1.51c-4.72.2-4.34 5.92-2.87 8.92 2.19 4.49 7.51 4.45 9 1.07a8.5 8.5 0 0 0-1.88-8.48zm-.38 10.31c-3.56 1.51-7.9-2.3-7.33-7.68.61-5.77 7.65-5 9.31.69.67 2.34.67 5.86-1.98 6.99zm-3.59 5.79c-.51 1.69 2.39 2.38 4.16 2.44a2.22 2.22 0 0 0 1.68-.48c2.19-2.26-4.96-4.85-5.84-1.96zm5.92 1.6c-.45.75-1.71.58-1.75.57-1.09-.08-3.21-.37-3.82-1.28a1.11 1.11 0 0 1 .17-1.33c1.43-1.63 6.46.24 5.4 2zm-2.62-47.59c-1 0-2.22.21-2.32 1.39-.14 1.55 1.9 2.23 3.43 2.51a3.92 3.92 0 0 0 1.67 0 2.32 2.32 0 0 0 1.27-1c.51-1.17-.65-3.01-4.05-2.9zm2.74 3.71a5 5 0 0 1-2.65-.36c-.77-.23-1.76-.54-2.07-1.36a1.2 1.2 0 0 1 1.08-1.67 5.87 5.87 0 0 1 3.76.49 1.92 1.92 0 0 1 1.08 1.59c0 .69-.89 1.22-1.2 1.31zM142.32 131a2.55 2.55 0 0 0-2.93.35 3.38 3.38 0 0 0-.81 1.55 3 3 0 0 0 .16 1.65 2.53 2.53 0 0 0 2.63 1.39 2.69 2.69 0 0 0 .95-4.94zm-.59 4.57a2.34 2.34 0 0 1-2.58-.82 2.49 2.49 0 0 1-.4-1.62 3 3 0 0 1 .8-1.61c3.45-2.31 5.28 2.96 2.18 4zm-12.19-92.93c4.41 3 4 7.43 4.33 7.71a.47.47 0 0 0 .66 0c.32-.33 0-5-4.72-8.17-.29-.18-.56.27-.27.46zM99 60.09a3.6 3.6 0 0 0 5-4.36c-1.08-3.26-6.64-3.15-7 1a3.5 3.5 0 0 0 2 3.36zm.85-6.26a3.24 3.24 0 0 1 3.66 1.59 3.27 3.27 0 1 1-6.17 1.85 3.38 3.38 0 0 1 2.46-3.44zm35.02-1.34s.01.03 0 0zm-.79.02a24.33 24.33 0 0 0 0 2.55.42.42 0 0 0 .8 0c0-.21-.07-2.65-.09-2.68-.17-.3-.54-.29-.71.13zM118.7 68.38a3 3 0 0 0 .71-4.3 4.51 4.51 0 0 0-4.41-1.95 3.37 3.37 0 0 0-2.8 3.36c.02 2.82 3.94 4.72 6.5 2.89zm-4.2-5.84a4.36 4.36 0 0 1 4.71 1.69 3.27 3.27 0 0 1 .46 2c-.25 1.71-2.35 3-4.65 2.26a3.72 3.72 0 0 1-2.47-2.49 3 3 0 0 1 1.95-3.46zm24.86 6.59a3.54 3.54 0 0 0-2.36-3.35c-2.22-.62-3.39-.07-4.37 1.08a3.16 3.16 0 0 0 .15 4.14c2.22 2.57 6.65 1.39 6.58-1.87zm-6.83-1.66a3.63 3.63 0 0 1 4.32-1.38c2.23.68 3.08 4.11.81 5.47a3.8 3.8 0 0 1-4.15-.31 3 3 0 0 1-.98-3.78zm35.79-32.98c2 1.37 3.55.55 5.75.5 1.37 0 2.58.76 3.94.61 6.33-.69 9.46-12.06.82-16-3.47-1.59-4.64.56-6.61 1.29-1.45.54-2.73.39-4.84 2.39a7.23 7.23 0 0 0 .94 11.21zm5-7.76a1.36 1.36 0 0 1 1.64 0 1.17 1.17 0 0 1 0 1.21c-.72 1.06-3.32.14-1.68-1.21z"></path></g></svg>